<svg width="278" height="172" viewBox="0 0 278 172" xmlns="http://www.w3.org/2000/svg" fill="none"><g filter="url(#a)"><path d="M209.67 37.38h38.98c.46 4.603.21 8.201-.78 11.184-4.52 13.71-23.48 14.237-37.92 14.237l3.28 13.867h35.42c12.13 0 18.68 23.77 3.93 23.77h-33.45l3.28 14.527h3.85c14.78 0 31.6.635 40.93 12.102 2.73 3.356 4.6 7.2 6.7 11.999h-36.12c-10.14 0-20.79-.854-28.73-7.165-7.03-5.596-9.98-14.805-12.06-23.552l-9.5-40.064c-2.03-8.54-2.9-18.238 2.95-24.779 4.62-5.168 12.31-6.126 19.24-6.126z" fill="url(#b)"/><path d="M4 36.068s17.23 77.07 21.23 90.92c4 13.85 22.33 15.837 32.1 2.248 7.6-10.58 8.49-12.739 8.51-13.176v-.018.018c.29.532 1.89 3.258 8.86 13.506 8 11.764 26.99 11.991 31.8.603 4.81-11.387 23.57-91.451 25.02-91.682-9.05 1.292-15.48 2.416-21.22 7.155-7.79 6.431-10.56 16.908-13.03 26.705l-9.04 35.83c-5.23-10.258-8.71-17.814-19.73-20.011-.15-.03-.31-.042-.46-.034-10.94.535-16.94 5.867-23.42 19.218l-7.37-33.691c-2.51-11.5-5.51-23.906-14.74-31.22-5.04-3.995-10.64-5.454-18.51-6.371z" fill="url(#c)"/><path d="M140.92 47.977c-5.96 16.106-23.94 90.709-23.94 90.709 4.61-.023 8.38-.383 11.78-1.446 13.46-4.207 18.27-20.131 22.37-33.678l.12-.411c2.09-6.904 4.01-12.938 4.42-13.209.45-.291 2.51 6.646 4.63 14.318 3.58 12.913 7.54 28.291 20.23 32.606 3.62 1.233 7.73 1.668 12.85 1.82 0 0-18.1-77.618-22.95-90.709-4.86-13.09-23.55-16.105-29.51 0z" fill="url(#d)"/><path d="M155.2 29.51c8.149 0 14.755-6.606 14.755-14.755 0-8.149-6.606-14.755-14.755-14.755-8.149 0-14.755 6.606-14.755 14.755 0 8.149 6.606 14.755 14.755 14.755z" fill="url(#e)"/></g><path d="M67.357 167.794c-.26 0-.42-.143-.51-.431l-3.82-12.385c-.05-.161-.03-.323.06-.484.09-.168.24-.252.44-.252.11 0 .21.035.3.105.09.063.15.161.19.294l3.55 11.503h-.29l3.36-11.471c.04-.154.12-.266.24-.337.12-.07.24-.105.37-.105s.25.035.37.105c.12.071.2.183.23.337l3.36 11.471h-.29l3.55-11.503c.05-.133.11-.231.19-.294.09-.07.19-.105.3-.105.23 0 .38.08.46.242.09.161.1.326.05.494l-3.83 12.385c-.09.288-.27.431-.55.431h-.04c-.28 0-.47-.143-.55-.431l-3.41-11.586h.28l-3.41 11.586c-.05.176-.12.291-.22.347-.1.056-.23.084-.38.084z" fill="url(#f)"/><path d="M81.017 163.252v.768c0 .988.18 1.682.56 2.082.38.392 1.04.588 1.99.588h1.63c.84 0 1.45-.112 1.83-.336.38-.231.61-.627.69-1.188.02-.175.08-.309.16-.4.08-.091.21-.136.39-.136.17 0 .3.052.38.157.1.099.13.239.11.421-.08.883-.42 1.535-1 1.956-.59.42-1.44.63-2.56.63h-1.63c-1.24 0-2.15-.301-2.73-.904-.58-.61-.87-1.566-.87-2.87v-2.376c0-1.325.29-2.289.87-2.892.58-.609 1.49-.907 2.73-.893h1.63c1.25 0 2.15.305 2.73.914.57.603.86 1.56.86 2.871v1.051c0 .372-.17.557-.51.557h-7.26zm2.55-4.289c-.95-.014-1.61.178-1.99.578-.38.392-.56 1.093-.56 2.103v.504h6.73v-.504c0-1.003-.19-1.7-.56-2.093-.37-.392-1.03-.588-1.99-.588h-1.63z" fill="url(#g)"/><path d="M96.247 167.742c-.32-.147-.41-.393-.29-.736l4.95-12.333c.1-.287.3-.431.58-.431h.06c.28.007.47.151.58.431l4.95 12.333c.13.343.04.589-.28.736-.33.14-.55.042-.68-.295l-1.33-3.311h-6.53l-1.32 3.311c-.13.337-.36.435-.69.295zm2.44-4.71h5.66l-2.83-7.045-2.83 7.045z" fill="url(#h)"/><path d="M109.837 167.794c-.35 0-.53-.185-.53-.557v-8.832c0-.364.18-.546.53-.546.34 0 .52.182.52.546v1.62c.34-.701.84-1.238 1.49-1.609.66-.372 1.44-.557 2.33-.557.36 0 .53.182.53.546 0 .372-.17.558-.53.558-1.18 0-2.1.283-2.75.851-.65.561-1.01 1.364-1.07 2.408v5.015c0 .372-.18.557-.52.557z" fill="url(#i)"/><path d="M117.207 163.252v.768c0 .988.19 1.682.56 2.082.38.392 1.04.588 1.99.588h1.64c.84 0 1.44-.112 1.82-.336.39-.231.62-.627.69-1.188.03-.175.08-.309.16-.4.09-.091.22-.136.39-.136s.3.052.39.157c.09.099.13.239.11.421-.09.883-.42 1.535-1.01 1.956-.58.42-1.43.63-2.55.63h-1.64c-1.24 0-2.15-.301-2.73-.904-.57-.61-.86-1.566-.86-2.87v-2.376c0-1.325.29-2.289.86-2.892.58-.609 1.49-.907 2.73-.893h1.64c1.24 0 2.15.305 2.72.914.58.603.87 1.56.87 2.871v1.051c0 .372-.17.557-.52.557h-7.26zm2.55-4.289c-.95-.014-1.61.178-1.99.578-.37.392-.56 1.093-.56 2.103v.504h6.73v-.504c0-1.003-.18-1.7-.56-2.093-.37-.392-1.03-.588-1.98-.588h-1.64z" fill="url(#j)"/><path d="M133.977 167.794c-.35 0-.53-.185-.53-.557v-12.438c0-.371.18-.557.53-.557h7.47c.35 0 .52.186.52.557 0 .365-.17.547-.52.547h-6.95v5.036h4.59c.36 0 .53.182.53.547 0 .371-.17.557-.53.557h-4.59v5.204h6.95c.35 0 .52.183.52.547 0 .372-.17.557-.52.557h-7.47z" fill="url(#k)"/><path d="M145.157 167.794c-.36 0-.53-.185-.53-.557v-8.832c0-.364.17-.546.53-.546.34 0 .51.182.51.546v1.01c.64-1.038 1.78-1.556 3.43-1.556h.56c1.24 0 2.15.305 2.72.914.58.603.87 1.56.87 2.871v5.593c0 .372-.17.557-.52.557s-.53-.185-.53-.557v-5.593c0-1.003-.19-1.7-.56-2.093-.38-.392-1.03-.588-1.98-.588h-.56c-1.03 0-1.84.171-2.43.515-.59.343-.92.879-1 1.608v6.151c0 .372-.17.557-.51.557z" fill="url(#l)"/><path d="M159.087 172c-.79 0-1.38-.172-1.8-.515-.41-.337-.65-.869-.72-1.598-.02-.183.01-.326.11-.431.09-.106.22-.158.39-.158.16 0 .29.045.37.137.09.091.15.227.17.41.05.406.19.683.41.83.23.147.58.221 1.07.221h3.71c.58 0 .98-.112 1.18-.336.22-.225.32-.645.32-1.262v-3.007c-.3.491-.74.866-1.29 1.125-.56.252-1.27.378-2.13.378h-.75c-1.25 0-2.16-.301-2.74-.904-.57-.61-.86-1.566-.86-2.87v-2.376c0-1.325.28-2.285.85-2.881.58-.603 1.5-.904 2.75-.904h1.63c.65 0 1.18.091 1.59.273.4.182.72.466.95.852v-.579c0-.364.18-.546.53-.546.35 0 .52.182.52.546v10.893c0 .925-.21 1.605-.62 2.04-.41.441-1.06.662-1.93.662h-3.71zm1.04-5.31h.75c1.04 0 1.87-.171 2.49-.515.62-.343.93-.865.93-1.566v-3.512c0-.792-.21-1.346-.63-1.661-.41-.316-1.05-.473-1.91-.473h-1.63c-.95 0-1.62.196-2 .588-.37.386-.56 1.083-.56 2.093v2.376c0 .988.19 1.682.56 2.082.38.392 1.05.588 2 .588z" fill="url(#m)"/><path d="M169.207 155.945c-.46 0-.69-.249-.69-.746v-.474c0-.483.23-.725.69-.725h.44c.45 0 .67.242.67.725v.474c0 .497-.22.746-.67.746h-.44zm.22 11.849c-.35 0-.52-.185-.52-.557v-8.832c0-.364.17-.546.52-.546s.52.182.52.546v8.832c0 .372-.17.557-.52.557z" fill="url(#n)"/><path d="M174.207 167.794c-.36 0-.53-.185-.53-.557v-8.832c0-.364.17-.546.53-.546.34 0 .51.182.51.546v1.01c.63-1.038 1.78-1.556 3.43-1.556h.56c1.24 0 2.15.305 2.72.914.58.603.87 1.56.87 2.871v5.593c0 .372-.17.557-.52.557s-.53-.185-.53-.557v-5.593c0-1.003-.19-1.7-.57-2.093-.37-.392-1.03-.588-1.97-.588h-.56c-1.03 0-1.84.171-2.43.515-.59.343-.92.879-1 1.608v6.151c0 .372-.17.557-.51.557z" fill="url(#o)"/><path d="M186.617 163.252v.768c0 .988.19 1.682.56 2.082.38.392 1.04.588 1.99.588h1.64c.84 0 1.45-.112 1.82-.336.39-.231.62-.627.69-1.188.03-.175.08-.309.16-.4.09-.091.22-.136.39-.136s.3.052.39.157c.09.099.13.239.11.421-.09.883-.42 1.535-1.01 1.956-.58.42-1.43.63-2.55.63h-1.64c-1.24 0-2.15-.301-2.73-.904-.57-.61-.86-1.566-.86-2.87v-2.376c0-1.325.29-2.289.86-2.892.58-.609 1.49-.907 2.73-.893h1.64c1.24 0 2.15.305 2.72.914.58.603.87 1.56.87 2.871v1.051c0 .372-.17.557-.52.557h-7.26zm2.55-4.289c-.95-.014-1.61.178-1.99.578-.37.392-.56 1.093-.56 2.103v.504h6.73v-.504c0-1.003-.18-1.7-.56-2.093-.37-.392-1.03-.588-1.98-.588h-1.64z" fill="url(#p)"/><path d="M198.637 163.252v.768c0 .988.18 1.682.55 2.082.38.392 1.05.588 2 .588h1.63c.84 0 1.45-.112 1.83-.336.38-.231.61-.627.68-1.188.03-.175.08-.309.16-.4.09-.091.22-.136.39-.136.18 0 .31.052.39.157.09.099.13.239.11.421-.08.883-.42 1.535-1.01 1.956-.58.42-1.43.63-2.55.63h-1.63c-1.24 0-2.16-.301-2.73-.904-.58-.61-.87-1.566-.87-2.87v-2.376c0-1.325.29-2.289.87-2.892.57-.609 1.49-.907 2.73-.893h1.63c1.25 0 2.15.305 2.72.914.58.603.87 1.56.87 2.871v1.051c0 .372-.17.557-.52.557h-7.25zm2.55-4.289c-.95-.014-1.62.178-2 .578-.37.392-.55 1.093-.55 2.103v.504h6.72v-.504c0-1.003-.18-1.7-.55-2.093-.38-.392-1.04-.588-1.99-.588h-1.63z" fill="url(#q)"/><path d="M210.397 167.794c-.35 0-.53-.185-.53-.557v-8.832c0-.364.18-.546.53-.546.35 0 .52.182.52.546v1.62c.34-.701.84-1.238 1.49-1.609.66-.372 1.44-.557 2.34-.557.35 0 .52.182.52.546 0 .372-.17.558-.52.558-1.19 0-2.1.283-2.76.851-.65.561-1.01 1.364-1.07 2.408v5.015c0 .372-.17.557-.52.557z" fill="url(#r)"/><defs><filter id="a" x="0" y="0" width="277.89" height="147.066" filterUnits="userSpaceOnUse" color-interpolation-filters="sRGB"><feFlood flood-opacity="0" result="BackgroundImageFix"/><feColorMatrix in="SourceAlpha" values="0 0 0 0 0 0 0 0 0 0 0 0 0 0 0 0 0 0 127 0" result="hardAlpha"/><feOffset dy="4"/><feGaussianBlur stdDeviation="2"/><feComposite in2="hardAlpha" operator="out"/><feColorMatrix values="0 0 0 0 0 0 0 0 0 0 0 0 0 0 0 0 0 0 0.25 0"/><feBlend in2="BackgroundImageFix" result="effect1_dropShadow_1296_15196"/><feBlend in="SourceGraphic" in2="effect1_dropShadow_1296_15196" result="shape"/></filter><linearGradient id="b" x1="229.14" y1="37.38" x2="229.14" y2="139.066" gradientUnits="userSpaceOnUse"><stop stop-color="#F5F5F5"/><stop offset="1" stop-color="#78787A"/></linearGradient><linearGradient id="c" x1="67.76" y1="37.278" x2="65.83" y2="138.945" gradientUnits="userSpaceOnUse"><stop stop-color="#F5F5F5"/><stop offset="1" stop-color="#78787A"/></linearGradient><linearGradient id="d" x1="155.18" y1="37" x2="155.18" y2="138.686" gradientUnits="userSpaceOnUse"><stop stop-color="#F5F5F5"/><stop offset="1" stop-color="#78787A"/></linearGradient><linearGradient id="e" x1="155.2" x2="155.2" y2="29.51" gradientUnits="userSpaceOnUse"><stop stop-color="#F5F5F5"/><stop offset="1" stop-color="#78787A"/></linearGradient><linearGradient id="f" x1="143.997" y1="154" x2="143.997" y2="172" gradientUnits="userSpaceOnUse"><stop stop-color="#F5F5F5"/><stop offset="1" stop-color="#78787A"/></linearGradient><linearGradient id="g" x1="143.996" y1="154" x2="143.996" y2="172" gradientUnits="userSpaceOnUse"><stop stop-color="#F5F5F5"/><stop offset="1" stop-color="#78787A"/></linearGradient><linearGradient id="h" x1="143.997" y1="154" x2="143.997" y2="172" gradientUnits="userSpaceOnUse"><stop stop-color="#F5F5F5"/><stop offset="1" stop-color="#78787A"/></linearGradient><linearGradient id="i" x1="143.997" y1="154" x2="143.997" y2="172" gradientUnits="userSpaceOnUse"><stop stop-color="#F5F5F5"/><stop offset="1" stop-color="#78787A"/></linearGradient><linearGradient id="j" x1="143.997" y1="154" x2="143.997" y2="172" gradientUnits="userSpaceOnUse"><stop stop-color="#F5F5F5"/><stop offset="1" stop-color="#78787A"/></linearGradient><linearGradient id="k" x1="143.997" y1="154" x2="143.997" y2="172" gradientUnits="userSpaceOnUse"><stop stop-color="#F5F5F5"/><stop offset="1" stop-color="#78787A"/></linearGradient><linearGradient id="l" x1="143.997" y1="154" x2="143.997" y2="172" gradientUnits="userSpaceOnUse"><stop stop-color="#F5F5F5"/><stop offset="1" stop-color="#78787A"/></linearGradient><linearGradient id="m" x1="143.997" y1="154" x2="143.997" y2="172" gradientUnits="userSpaceOnUse"><stop stop-color="#F5F5F5"/><stop offset="1" stop-color="#78787A"/></linearGradient><linearGradient id="n" x1="143.998" y1="154" x2="143.998" y2="172" gradientUnits="userSpaceOnUse"><stop stop-color="#F5F5F5"/><stop offset="1" stop-color="#78787A"/></linearGradient><linearGradient id="o" x1="143.997" y1="154" x2="143.997" y2="172" gradientUnits="userSpaceOnUse"><stop stop-color="#F5F5F5"/><stop offset="1" stop-color="#78787A"/></linearGradient><linearGradient id="p" x1="143.997" y1="154" x2="143.997" y2="172" gradientUnits="userSpaceOnUse"><stop stop-color="#F5F5F5"/><stop offset="1" stop-color="#78787A"/></linearGradient><linearGradient id="q" x1="143.997" y1="154" x2="143.997" y2="172" gradientUnits="userSpaceOnUse"><stop stop-color="#F5F5F5"/><stop offset="1" stop-color="#78787A"/></linearGradient><linearGradient id="r" x1="143.997" y1="154" x2="143.997" y2="172" gradientUnits="userSpaceOnUse"><stop stop-color="#F5F5F5"/><stop offset="1" stop-color="#78787A"/></linearGradient></defs></svg>