<svg width="160" height="160" viewBox="0 0 160 160" xmlns="http://www.w3.org/2000/svg" fill="none"><g filter="url(#a)"><mask id="c"><path fill-rule="evenodd" clip-rule="evenodd" d="M50.89 4.5c0 16.158 13.099 29.257 29.257 29.257s29.257-13.099 29.257-29.257c0-.519-.014-1.034-.04-1.546-.063-1.205.864-2.267 2.071-2.267h46.149c1.105 0 2 .895 2 2v43.218c0 .293-.24.528-.532.528-16.158 0-29.257 13.099-29.257 29.257s13.099 29.257 29.257 29.257c.292 0 .532.235.532.528v51.732c0 1.105-.895 2-2 2h-155.584c-1.105 0-2-.895-2-2v-154.52c0-1.105.895-2 2-2h46.859c1.207 0 2.134 1.062 2.071 2.267-.027.512-.04 1.028-.04 1.546z"/></mask><path fill-rule="evenodd" clip-rule="evenodd" d="M50.89 4.5c0 16.158 13.099 29.257 29.257 29.257s29.257-13.099 29.257-29.257c0-.519-.014-1.034-.04-1.546-.063-1.205.864-2.267 2.071-2.267h46.149c1.105 0 2 .895 2 2v43.218c0 .293-.24.528-.532.528-16.158 0-29.257 13.099-29.257 29.257s13.099 29.257 29.257 29.257c.292 0 .532.235.532.528v51.732c0 1.105-.895 2-2 2h-155.584c-1.105 0-2-.895-2-2v-154.52c0-1.105.895-2 2-2h46.859c1.207 0 2.134 1.062 2.071 2.267-.027.512-.04 1.028-.04 1.546z" fill="url(#b)"/><path d="M50.93 2.954l-.499-.026.499.026zm58.434 0l-.5.026.5-.026zm-29.217 31.303c-16.434 0-29.757-13.323-29.757-29.757h1c0 15.882 12.875 28.757 28.757 28.757v1zm29.757-29.757c0 16.434-13.323 29.757-29.757 29.757v-1c15.882 0 28.757-12.875 28.757-28.757h1zm-.041-1.572c.027.521.041 1.045.041 1.572h-1c0-.51-.013-1.017-.04-1.52l.999-.052zm47.721-1.741h-46.149v-1h46.149v1zm1.5 44.718v-43.218h1v43.218h-1zm-.032 1.028c-15.882 0-28.757 12.875-28.757 28.757h-1c0-16.434 13.322-29.757 29.757-29.757v1zm-28.757 28.757c0 15.882 12.875 28.757 28.757 28.757v1c-16.435 0-29.757-13.323-29.757-29.757h1zm28.789 81.517v-51.732h1v51.732h-1zm-157.084 1.5h155.584v1h-155.584v-1zm-1.5-156.02v154.52h-1v-154.52h1zm48.359-1.5h-46.859v-1h46.859v1zm1.531 3.314c0-.527.014-1.052.041-1.572l.999.052c-.026.503-.039 1.01-.039 1.52h-1zm-1.531-4.314c1.519 0 2.647 1.328 2.57 2.793l-.999-.052c.049-.945-.676-1.741-1.572-1.741v-1zm-49.359 2.5c0-1.381 1.119-2.5 2.5-2.5v1c-.828 0-1.5.672-1.5 1.5h-1zm2.5 157.02c-1.381 0-2.5-1.119-2.5-2.5h1c0 .828.672 1.5 1.5 1.5v1zm158.084-2.5c0 1.381-1.119 2.5-2.5 2.5v-1c.829 0 1.5-.672 1.5-1.5h1zm0-111.302c0 .575-.469 1.028-1.032 1.028v-1l.025-.01.006-.009.001-.009h1zm-1.032 58.542c.563 0 1.032.454 1.032 1.028h-1l-.001-.009-.006-.009-.025-.01v-1zm-1.468-104.26c1.381 0 2.5 1.119 2.5 2.5h-1c0-.828-.671-1.5-1.5-1.5v-1zm-48.72 2.793c-.076-1.466 1.052-2.793 2.571-2.793v1c-.896 0-1.621.796-1.572 1.741l-.999.052z" fill="#50D9D7" mask="url(#c)"/></g><defs><filter id="a" x="-40" y="-39.313" width="239.584" height="238.521" filterUnits="userSpaceOnUse" color-interpolation-filters="sRGB"><feFlood flood-opacity="0" result="BackgroundImageFix"/><feGaussianBlur in="BackgroundImageFix" stdDeviation="20"/><feComposite in2="SourceAlpha" operator="in" result="effect1_backgroundBlur_3436_79922"/><feBlend in="SourceGraphic" in2="effect1_backgroundBlur_3436_79922" result="shape"/></filter><linearGradient id="b" x1="79.893" y1=".687" x2="79.893" y2="159.207" gradientUnits="userSpaceOnUse"><stop stop-color="#272727" stop-opacity=".94"/><stop offset="0" stop-color="#272727" stop-opacity=".83"/><stop offset="1" stop-color="#272727" stop-opacity=".08"/></linearGradient></defs></svg>