<svg width="30" height="31" viewBox="0 0 30 31" fill="none" xmlns="http://www.w3.org/2000/svg">
<g filter="url(#filter0_i_4231_20572)">
<path d="M30 15.5C30 23.7843 23.2843 30.5 15 30.5C6.71573 30.5 0 23.7843 0 15.5C0 7.21573 6.71573 0.5 15 0.5C23.2843 0.5 30 7.21573 30 15.5Z" fill="#3C3B41"/>
</g>
<g filter="url(#filter1_i_4231_20572)">
<path fill-rule="evenodd" clip-rule="evenodd" d="M15 29.526C22.7463 29.526 29.026 23.2463 29.026 15.5C29.026 7.75367 22.7463 1.47403 15 1.47403C7.25367 1.47403 0.974026 7.75367 0.974026 15.5C0.974026 23.2463 7.25367 29.526 15 29.526ZM15 30.5C23.2843 30.5 30 23.7843 30 15.5C30 7.21573 23.2843 0.5 15 0.5C6.71573 0.5 0 7.21573 0 15.5C0 23.7843 6.71573 30.5 15 30.5Z" fill="#3C3B41"/>
</g>
<path d="M17.7178 14.74C17.4285 15.1279 17.5725 15.2467 17.5421 15.6196L17.468 15.93C17.4172 16.5538 16.803 16.8098 16.4424 17.3165C19.7962 17.5623 21.8922 16.3228 23.3953 14.96C23.6048 14.7701 23.6799 14.4928 23.6218 14.2385L20.8638 11.5273L17.7178 14.74Z" fill="#50D9D7"/>
<path d="M17.369 14.079L16.0332 12.7659L19.1113 9.74023L20.4471 11.0533L17.369 14.079Z" fill="#1D5352"/>
<path d="M16.3522 13.1661L7.40109 21.814C7.33913 21.8748 7.30323 21.9567 7.30078 22.0427L7.7848 22.5187C7.84933 22.5821 7.93684 22.6177 8.02809 22.6177C8.11933 22.6177 8.20684 22.5821 8.27138 22.5187L17.1457 13.9461L16.3522 13.1661ZM20.2808 9.10748C20.1906 9.10581 20.0402 9.13853 19.9713 9.20622L19.2995 9.86657L20.221 10.7723L20.8245 10.179C20.8565 10.1476 20.8818 10.1103 20.8991 10.0693C20.9164 10.0283 20.9253 9.98429 20.9253 9.93988C20.9253 9.89546 20.9164 9.85149 20.8991 9.81045C20.8818 9.76942 20.9163 9.73214 20.8844 9.70075L20.2808 9.10748Z" fill="#B3B6C3"/>
<path d="M23.438 13.9644L23.0093 13.543L22.9161 13.6912C21.4398 15.0298 19.673 16.1208 17.2345 16.2503C17.0577 16.6254 16.8273 16.9874 16.5291 17.2789H16.4727C19.7428 17.6282 21.6484 16.6624 23.4188 15.0573C23.7403 14.7658 23.7472 14.2685 23.438 13.9644Z" fill="#C9F3FF"/>
<path fill-rule="evenodd" clip-rule="evenodd" d="M6.84969 20.8527C6.63084 21.065 6.62849 21.4115 6.84444 21.6266L7.48501 22.2647C7.70096 22.4799 8.05344 22.4822 8.27229 22.2699L9.69882 20.8862L8.95754 20.1856C8.89921 20.1305 8.89739 20.0393 8.95347 19.982C9.00955 19.9247 9.10229 19.9229 9.16061 19.978L9.90746 20.6839L13.3025 17.3908L12.4153 16.5569C12.3568 16.5019 12.3547 16.4107 12.4106 16.3533C12.4666 16.2958 12.5593 16.2937 12.6178 16.3487L13.5111 17.1884L17.0431 13.7626C17.1007 13.7067 17.1934 13.7073 17.2503 13.7639C17.3071 13.8206 17.3065 13.9117 17.2489 13.9676L8.47809 22.4749C8.14405 22.7989 7.60606 22.7954 7.27645 22.467L6.63588 21.8289C6.30627 21.5006 6.30985 20.9717 6.64389 20.6477L7.52046 19.7975C7.57805 19.7416 7.67081 19.7422 7.72764 19.7988C7.78447 19.8554 7.78385 19.9466 7.72626 20.0025L6.84969 20.8527ZM8.01718 19.518C7.96035 19.4614 7.96097 19.3702 8.01857 19.3143L8.48737 18.8596C8.54496 18.8037 8.63772 18.8044 8.69455 18.861C8.75138 18.9176 8.75076 19.0088 8.69317 19.0646L8.22436 19.5193C8.16677 19.5752 8.07401 19.5746 8.01718 19.518ZM8.95479 18.6085C8.89796 18.5519 8.89858 18.4607 8.95618 18.4049L15.373 12.1809C15.4305 12.125 15.5233 12.1256 15.5801 12.1822C15.637 12.2388 15.6363 12.33 15.5787 12.3859L13.7489 14.1608L14.5842 14.9983C14.6409 15.0551 14.64 15.1462 14.5822 15.2019C14.5244 15.2576 14.4317 15.2567 14.375 15.1999L13.5403 14.3631L10.2395 17.5648L10.9445 18.1891C11.0046 18.2423 11.0094 18.3334 10.9552 18.3925C10.9011 18.4516 10.8084 18.4563 10.7483 18.4031L10.0306 17.7674L9.16197 18.6099C9.10438 18.6658 9.01162 18.6652 8.95479 18.6085ZM18.5559 9.29586C18.499 9.23925 18.4997 9.14807 18.5573 9.09221L18.9772 8.68486C19.3113 8.36086 19.8492 8.36438 20.1789 8.69274L20.8194 9.33087C21.1495 9.65966 21.1453 10.1865 20.8358 10.5237L20.8295 10.5306C20.6879 10.6848 20.5467 10.8387 20.384 10.9965C20.3264 11.0524 20.2337 11.0518 20.1768 10.9952C20.12 10.9386 20.1206 10.8474 20.1782 10.7915C20.3344 10.64 20.4705 10.4917 20.6131 10.3364L20.6183 10.3307C20.8291 10.101 20.8264 9.74785 20.6109 9.53316L19.9703 8.89504C19.7543 8.67991 19.4019 8.6776 19.183 8.88988L18.7631 9.29722C18.7055 9.35308 18.6127 9.35248 18.5559 9.29586Z" fill="#59595B"/>
<path fill-rule="evenodd" clip-rule="evenodd" d="M17.9262 9.2811L15.5657 11.6016C15.4056 11.759 15.4056 12.0144 15.5658 12.1718L16.9505 13.5329C17.1107 13.6904 17.3704 13.6904 17.5306 13.5329L20.0569 11.0495C20.1255 10.982 20.1255 10.8726 20.0568 10.8051L18.5064 9.28108C18.3462 9.12362 18.0864 9.12362 17.9262 9.2811ZM15.3586 11.3979C15.0839 11.6679 15.084 12.1055 15.3586 12.3755L16.7433 13.7366C17.0179 14.0065 17.4632 14.0065 17.7378 13.7366L20.264 11.2531C20.4471 11.0732 20.4471 10.7814 20.264 10.6014L18.7135 9.07741C18.4389 8.80747 17.9937 8.80749 17.7191 9.07744L15.3586 11.3979Z" fill="#59595B"/>
<path fill-rule="evenodd" clip-rule="evenodd" d="M17.0978 16.153C17.0697 16.2042 17.0397 16.2558 17.0077 16.3078C16.9829 16.3482 16.957 16.3888 16.9299 16.4298C16.7798 16.6568 16.5942 16.8947 16.3729 17.1534C16.2781 17.2643 16.352 17.4357 16.4992 17.441C20.0174 17.5672 21.7124 16.9764 23.5748 14.9376C23.817 14.6723 23.7962 14.268 23.5398 14.0159L20.3041 10.8355L17.4795 13.6122C17.2828 13.8056 17.2273 14.0936 17.3004 14.3575C17.487 15.0313 17.4192 15.5676 17.0978 16.153ZM20.3041 11.2428L17.6867 13.8158C17.5767 13.924 17.5327 14.0998 17.5831 14.2818C17.739 14.8448 17.7359 15.3398 17.5591 15.8405C17.5283 15.9277 17.4925 16.0145 17.4518 16.1012C18.3086 15.9559 19.3822 15.6497 20.0024 15.4509C20.0793 15.4262 20.162 15.4675 20.1871 15.5431C20.2122 15.6188 20.1702 15.7 20.0933 15.7247C19.4203 15.9404 18.1948 16.2893 17.2811 16.4195C17.1369 16.6598 16.9575 16.9038 16.7466 17.1606C18.3695 17.2045 19.5622 17.0817 20.559 16.7301C21.5966 16.364 22.4473 15.7407 23.3567 14.7451C23.4898 14.5995 23.4845 14.3689 23.3326 14.2196L20.3041 11.2428ZM20.4743 15.4325C20.4372 15.3619 20.4655 15.275 20.5374 15.2385C20.7925 15.1092 21.0407 14.9642 21.2841 14.8018C21.351 14.7572 21.4421 14.7743 21.4876 14.8401C21.533 14.9059 21.5156 14.9954 21.4486 15.0401C21.1956 15.209 20.9373 15.3598 20.6717 15.4945C20.5998 15.531 20.5114 15.5032 20.4743 15.4325Z" fill="#59595B"/>
<path d="M18.2392 11.143L18.4221 10.9608C18.4472 10.9809 18.4639 10.9994 18.4741 11.0184C18.5211 11.1057 18.4348 11.1969 18.367 11.2644L18.4514 11.3159L18.6176 11.1504C18.6745 11.0937 18.8235 11.1778 18.7542 11.2467L18.5973 11.4031L18.6849 11.4578L18.703 11.4398C18.7724 11.3707 18.8544 11.2952 18.9553 11.3069C18.9848 11.3103 19.0126 11.3201 19.0464 11.3335L18.8769 11.5023C18.8293 11.5497 18.7751 11.5954 18.7064 11.602C18.6456 11.6079 18.586 11.5772 18.5327 11.5448L18.2888 11.3959C18.2368 11.3641 18.1845 11.3214 18.1794 11.2625C18.1754 11.216 18.2067 11.1754 18.2392 11.143Z" fill="url(#paint0_linear_4231_20572)"/>
<path d="M17.2676 12.0977C17.2676 12.0977 17.7318 12.389 17.8194 12.4371C17.9071 12.4852 18.003 12.4092 17.9812 12.2979C17.9643 12.2113 17.9577 12.1968 17.9556 12.1946C17.9552 12.1944 17.9552 12.1942 17.9555 12.1945C17.9556 12.1945 17.9556 12.1945 17.9556 12.1946C17.9596 12.1958 17.9807 12.2015 18.0644 12.2183C18.1604 12.2377 18.2507 12.15 18.2166 12.0726C18.1825 11.9952 17.8723 11.5212 17.878 11.5133C17.8419 11.5618 17.8173 11.5973 17.814 11.647C17.8094 11.7144 17.8485 11.7779 17.8857 11.8367L18.0215 12.0519C17.9459 12.0268 17.892 12.0066 17.8294 12.0475C17.8285 12.0481 17.8277 12.0488 17.827 12.0495C17.7784 12.1033 17.7767 12.157 17.8127 12.2517L17.6106 12.1236C17.5416 12.0799 17.4658 12.034 17.3861 12.0419C17.3426 12.0462 17.3091 12.0653 17.2676 12.0977Z" fill="url(#paint1_linear_4231_20572)"/>
<path d="M17.9687 11.5153C18.0208 11.6209 18.3076 12.0648 18.3076 12.0648C18.3291 12.0432 18.345 12.0238 18.3556 12.0028C18.3979 11.9196 18.3412 11.8203 18.2931 11.7358L18.2916 11.7332C18.2671 11.6901 18.2461 11.652 18.2466 11.6488C18.2473 11.6453 18.2915 11.6692 18.3396 11.6963C18.4206 11.7418 18.5157 11.7975 18.5967 11.759C18.6198 11.7481 18.6413 11.7309 18.666 11.7077C18.666 11.7077 18.195 11.4178 18.1072 11.3774C18.0192 11.3369 17.9165 11.4097 17.9687 11.5153Z" fill="url(#paint2_linear_4231_20572)"/>
<path d="M17.9445 11.3586C17.9828 11.3205 17.9809 11.2577 17.9404 11.2184C17.8998 11.1791 17.836 11.1781 17.7977 11.2162C17.7595 11.2543 17.7614 11.317 17.8019 11.3563C17.8424 11.3957 17.9063 11.3967 17.9445 11.3586Z" fill="url(#paint3_linear_4231_20572)"/>
<path d="M18.2197 12.4357C18.2185 12.4369 18.2171 12.437 18.2152 12.436L18.1357 12.3941C18.1346 12.3936 18.1339 12.3927 18.1336 12.3915C18.1331 12.3903 18.1334 12.3892 18.1344 12.3882C18.1349 12.3877 18.1355 12.3874 18.1363 12.3873C18.137 12.3872 18.1378 12.3874 18.1386 12.3879L18.2125 12.4268L18.2112 12.4281L18.1699 12.3571C18.1693 12.3561 18.1691 12.3552 18.1693 12.3543C18.1695 12.3534 18.1699 12.3527 18.1705 12.3521C18.1711 12.3515 18.1719 12.3511 18.1728 12.3509C18.1737 12.3506 18.1746 12.3508 18.1755 12.3514L18.2484 12.391L18.247 12.3924L18.2064 12.3203C18.206 12.3194 18.2058 12.3187 18.2059 12.318C18.206 12.3172 18.2062 12.3166 18.2068 12.3161C18.2078 12.315 18.2089 12.3147 18.2101 12.3151C18.2113 12.3155 18.2122 12.3162 18.2128 12.3173L18.2565 12.3949C18.2575 12.3967 18.2573 12.3983 18.256 12.3996L18.2558 12.3998C18.2545 12.4011 18.2529 12.4013 18.2511 12.4002L18.1775 12.3603L18.1788 12.359L18.2204 12.4308C18.2211 12.4319 18.2213 12.4328 18.2211 12.4335C18.2209 12.4343 18.2204 12.435 18.2197 12.4357Z" fill="url(#paint4_linear_4231_20572)"/>
<path d="M18.2612 12.3512L18.2651 12.3549C18.27 12.3597 18.2743 12.3622 18.2781 12.3623C18.2818 12.3624 18.2859 12.3603 18.2903 12.3559L18.298 12.3482C18.3019 12.3443 18.3042 12.3409 18.3049 12.3381C18.3055 12.3352 18.3046 12.3322 18.3022 12.3291C18.3014 12.3282 18.301 12.3272 18.301 12.3264C18.3009 12.3256 18.3013 12.3248 18.3021 12.324C18.3029 12.3232 18.3038 12.3228 18.3047 12.3229C18.3056 12.3229 18.3065 12.3235 18.3073 12.3245C18.3113 12.3291 18.313 12.3338 18.3123 12.3386C18.3117 12.3433 18.3087 12.3483 18.3035 12.3536L18.2958 12.3612C18.29 12.367 18.2842 12.3698 18.2785 12.3696C18.2727 12.3694 18.2666 12.3661 18.2601 12.3598L18.2483 12.3483C18.2417 12.3419 18.2383 12.3359 18.238 12.3303C18.2377 12.3247 18.2405 12.319 18.2464 12.3133L18.254 12.3056C18.2599 12.2998 18.2656 12.2971 18.2714 12.2973C18.2771 12.2975 18.2832 12.3008 18.2897 12.3071L18.2949 12.3122C18.2968 12.314 18.2969 12.3157 18.2953 12.3173L18.2612 12.3512ZM18.2519 12.3186C18.2474 12.323 18.2452 12.327 18.2454 12.3307C18.2456 12.3343 18.2482 12.3386 18.2532 12.3434L18.2558 12.3459L18.2873 12.3144L18.2848 12.312C18.2798 12.3071 18.2755 12.3047 18.2718 12.3045C18.2681 12.3043 18.264 12.3065 18.2595 12.311L18.2519 12.3186Z" fill="url(#paint5_linear_4231_20572)"/>
<path d="M18.3549 12.3018C18.3527 12.3026 18.351 12.3018 18.3499 12.2996L18.3117 12.217C18.3108 12.2151 18.311 12.2135 18.3123 12.2122L18.3126 12.2119C18.3139 12.2106 18.3156 12.2104 18.3175 12.2113L18.402 12.2477C18.4044 12.2487 18.4052 12.2503 18.4044 12.2525C18.4035 12.2547 18.402 12.2553 18.3997 12.2543L18.377 12.2445L18.3464 12.275L18.3567 12.2972C18.3577 12.2994 18.3571 12.301 18.3549 12.3018ZM18.3429 12.2677L18.3695 12.2412L18.3211 12.2205L18.3429 12.2677Z" fill="url(#paint6_linear_4231_20572)"/>
<path d="M18.4191 12.2388C18.4174 12.2405 18.4157 12.2404 18.4138 12.2386L18.3699 12.196C18.3681 12.1942 18.368 12.1925 18.3697 12.1909C18.3713 12.1893 18.373 12.1893 18.3748 12.1911L18.3829 12.1989C18.381 12.1939 18.3807 12.189 18.3819 12.1842C18.3831 12.1793 18.3859 12.1748 18.39 12.1706C18.3917 12.1689 18.3934 12.169 18.3952 12.1708C18.3971 12.1725 18.3972 12.1742 18.3955 12.1759C18.39 12.1814 18.3871 12.1871 18.3869 12.1929C18.3866 12.1986 18.3889 12.2042 18.3938 12.2095L18.4188 12.2337C18.4206 12.2355 18.4207 12.2372 18.4191 12.2388Z" fill="url(#paint7_linear_4231_20572)"/>
<path d="M18.4311 12.1813L18.4349 12.185C18.4399 12.1898 18.4442 12.1923 18.4479 12.1925C18.4517 12.1926 18.4557 12.1904 18.4602 12.186L18.4679 12.1783C18.4718 12.1744 18.4741 12.1711 18.4748 12.1682C18.4754 12.1653 18.4745 12.1623 18.4721 12.1592C18.4714 12.1583 18.4709 12.1574 18.4708 12.1566C18.4708 12.1557 18.4712 12.1549 18.472 12.1541C18.4728 12.1533 18.4737 12.1529 18.4746 12.153C18.4755 12.1531 18.4764 12.1536 18.4772 12.1545C18.4812 12.1592 18.4829 12.1639 18.4822 12.1687C18.4816 12.1734 18.4786 12.1784 18.4734 12.1836L18.4657 12.1913C18.4599 12.1971 18.4541 12.1999 18.4484 12.1997C18.4427 12.1994 18.4365 12.1962 18.4301 12.1899L18.4182 12.1784C18.4117 12.172 18.4082 12.166 18.4079 12.1604C18.4076 12.1548 18.4104 12.1491 18.4163 12.1434L18.424 12.1357C18.4298 12.1299 18.4356 12.1271 18.4413 12.1274C18.447 12.1276 18.4531 12.1309 18.4596 12.1372L18.4649 12.1423C18.4667 12.1441 18.4668 12.1457 18.4652 12.1474L18.4311 12.1813ZM18.4218 12.1487C18.4172 12.1531 18.4151 12.1571 18.4153 12.1608C18.4155 12.1644 18.4181 12.1687 18.4231 12.1736L18.4256 12.176L18.4572 12.1445L18.4547 12.1421C18.4497 12.1373 18.4454 12.1347 18.4417 12.1346C18.438 12.1345 18.4339 12.1366 18.4294 12.141L18.4218 12.1487Z" fill="url(#paint8_linear_4231_20572)"/>
<path d="M18.5328 12.1254C18.5311 12.127 18.5294 12.127 18.5275 12.1252L18.4657 12.0652C18.4638 12.0634 18.4637 12.0617 18.4654 12.06L18.5004 12.0251C18.5021 12.0235 18.5038 12.0236 18.5056 12.0254C18.5075 12.0271 18.5076 12.0288 18.5059 12.0304L18.4733 12.0629L18.4984 12.0872L18.5199 12.0658C18.5216 12.0641 18.5233 12.0642 18.5251 12.0659C18.5269 12.0677 18.5271 12.0694 18.5254 12.0711L18.5039 12.0925L18.5297 12.1177L18.5623 12.0852C18.564 12.0835 18.5657 12.0836 18.5675 12.0854C18.5694 12.0872 18.5695 12.0889 18.5678 12.0905L18.5328 12.1254Z" fill="url(#paint9_linear_4231_20572)"/>
<path d="M18.5851 12.0728C18.5834 12.0745 18.5817 12.0744 18.5799 12.0726L18.5359 12.03C18.5341 12.0282 18.534 12.0265 18.5357 12.0249C18.5373 12.0233 18.539 12.0234 18.5408 12.0251L18.5458 12.03C18.5437 12.022 18.5464 12.0142 18.5542 12.0065L18.5568 12.0038C18.5626 11.998 18.5684 11.9953 18.5741 11.9955C18.5798 11.9957 18.586 11.999 18.5925 12.0053L18.6203 12.0323C18.6221 12.0341 18.6223 12.0358 18.6206 12.0374C18.619 12.0391 18.6172 12.039 18.6154 12.0372L18.5875 12.0102C18.5826 12.0054 18.5782 12.0029 18.5745 12.0027C18.5708 12.0026 18.5668 12.0047 18.5623 12.0092L18.5597 12.0118C18.5548 12.0166 18.5519 12.0212 18.5508 12.0256C18.5498 12.03 18.5509 12.0342 18.5541 12.0381L18.5847 12.0677C18.5866 12.0695 18.5867 12.0712 18.5851 12.0728Z" fill="url(#paint10_linear_4231_20572)"/>
<path d="M18.6712 12.0289C18.6675 12.0326 18.6639 12.0345 18.6602 12.0348C18.6566 12.0351 18.6528 12.0337 18.6489 12.0305C18.6479 12.0297 18.6473 12.0289 18.6473 12.0279C18.6472 12.027 18.6475 12.0261 18.6483 12.0253C18.6491 12.0246 18.6499 12.0242 18.6507 12.0243C18.6516 12.0243 18.6526 12.0247 18.6536 12.0254C18.6558 12.0272 18.6578 12.0278 18.6596 12.0275C18.6614 12.0272 18.6634 12.0259 18.6657 12.0236L18.6831 12.0063C18.6859 12.0035 18.6872 12.0011 18.687 11.9991C18.6869 11.997 18.6853 11.9945 18.6822 11.9915L18.6673 11.977C18.6683 11.9808 18.6681 11.9847 18.6668 11.9885C18.6654 11.9923 18.6627 11.9962 18.6587 12.0003L18.6552 12.0038C18.6493 12.0096 18.6435 12.0124 18.6378 12.0122C18.6321 12.0119 18.626 12.0087 18.6195 12.0024L18.6077 11.9909C18.6011 11.9845 18.5976 11.9786 18.5974 11.973C18.5971 11.9674 18.5999 11.9617 18.6058 11.9558L18.6134 11.9482C18.6165 11.9452 18.6194 11.9431 18.6222 11.9421C18.625 11.9411 18.6279 11.941 18.6309 11.9418L18.628 11.939C18.6262 11.9372 18.6262 11.9355 18.6278 11.9339C18.6295 11.9322 18.6312 11.9323 18.633 11.9341L18.6872 11.9866C18.6918 11.9911 18.6941 11.9953 18.6944 11.9994C18.6947 12.0034 18.6927 12.0075 18.6886 12.0116L18.6712 12.0289ZM18.6497 11.9984L18.6532 11.9949C18.6581 11.9901 18.6611 11.9854 18.6623 11.9808C18.6635 11.9763 18.6624 11.9723 18.6589 11.9689L18.6414 11.952C18.6375 11.9481 18.6338 11.9464 18.6302 11.9469C18.6267 11.9473 18.6229 11.9495 18.6189 11.9535L18.6113 11.9612C18.6068 11.9656 18.6046 11.9697 18.6048 11.9733C18.605 11.9769 18.6076 11.9812 18.6126 11.9861L18.6244 11.9975C18.6293 12.0023 18.6337 12.0047 18.6374 12.0049C18.6411 12.0051 18.6452 12.0029 18.6497 11.9984Z" fill="url(#paint11_linear_4231_20572)"/>
<path d="M18.6389 11.9026C18.6367 11.9048 18.6344 11.9047 18.6319 11.9023L18.6296 11.9C18.6272 11.8977 18.6271 11.8954 18.6292 11.8933L18.6313 11.8912C18.6334 11.8891 18.6356 11.8892 18.638 11.8916L18.6404 11.8939C18.6429 11.8963 18.6431 11.8985 18.641 11.9006L18.6389 11.9026ZM18.6989 11.9588C18.6972 11.9604 18.6955 11.9603 18.6936 11.9585L18.6497 11.9159C18.6479 11.9142 18.6478 11.9125 18.6494 11.9109C18.6511 11.9092 18.6528 11.9093 18.6546 11.9111L18.6985 11.9537C18.7004 11.9555 18.7005 11.9572 18.6989 11.9588Z" fill="url(#paint12_linear_4231_20572)"/>
<path d="M18.7208 11.938C18.7192 11.9397 18.7174 11.9396 18.7156 11.9378L18.6717 11.8952C18.6699 11.8935 18.6697 11.8918 18.6714 11.8901C18.673 11.8885 18.6747 11.8886 18.6765 11.8904L18.6816 11.8952C18.6794 11.8873 18.6822 11.8794 18.6899 11.8717L18.6925 11.8691C18.6984 11.8633 18.7042 11.8605 18.7099 11.8608C18.7156 11.861 18.7217 11.8642 18.7282 11.8706L18.756 11.8975C18.7579 11.8993 18.758 11.901 18.7564 11.9027C18.7547 11.9043 18.753 11.9042 18.7511 11.9024L18.7233 11.8755C18.7183 11.8706 18.7139 11.8681 18.7102 11.868C18.7065 11.8679 18.7024 11.87 18.698 11.8744L18.6954 11.877C18.6906 11.8818 18.6876 11.8864 18.6866 11.8909C18.6855 11.8953 18.6866 11.8994 18.6899 11.9033L18.7205 11.933C18.7223 11.9348 18.7224 11.9364 18.7208 11.938Z" fill="url(#paint13_linear_4231_20572)"/>
<path d="M18.7573 11.8571L18.7611 11.8608C18.766 11.8656 18.7704 11.868 18.7741 11.8682C18.7778 11.8683 18.7819 11.8662 18.7864 11.8618L18.7941 11.8541C18.798 11.8502 18.8003 11.8468 18.8009 11.844C18.8016 11.841 18.8007 11.8381 18.7983 11.835C18.7975 11.834 18.7971 11.8332 18.797 11.8323C18.797 11.8315 18.7974 11.8307 18.7982 11.8299C18.799 11.8291 18.7998 11.8287 18.8008 11.8288C18.8017 11.8289 18.8026 11.8293 18.8034 11.8303C18.8074 11.835 18.8091 11.8397 18.8084 11.8445C18.8077 11.8492 18.8048 11.8542 18.7995 11.8594L18.7919 11.8671C18.786 11.8729 18.7803 11.8757 18.7745 11.8755C18.7688 11.8752 18.7627 11.872 18.7562 11.8657L18.7444 11.8542C18.7378 11.8478 18.7344 11.8418 18.7341 11.8362C18.7338 11.8306 18.7365 11.8249 18.7424 11.8192L18.7501 11.8115C18.7559 11.8057 18.7617 11.8029 18.7674 11.8032C18.7732 11.8034 18.7793 11.8067 18.7858 11.813L18.791 11.818C18.7929 11.8198 18.793 11.8215 18.7914 11.8232L18.7573 11.8571ZM18.7479 11.8245C18.7434 11.8289 18.7413 11.8329 18.7415 11.8366C18.7417 11.8402 18.7443 11.8445 18.7493 11.8493L18.7518 11.8518L18.7834 11.8203L18.7809 11.8179C18.7759 11.813 18.7716 11.8105 18.7678 11.8104C18.7641 11.8102 18.7601 11.8124 18.7556 11.8168L18.7479 11.8245Z" fill="url(#paint14_linear_4231_20572)"/>
<path d="M18.813 11.8004L18.8168 11.8041C18.8217 11.8089 18.826 11.8114 18.8298 11.8116C18.8335 11.8117 18.8376 11.8095 18.8421 11.8051L18.8497 11.7975C18.8537 11.7935 18.856 11.7901 18.8566 11.7873C18.8573 11.7844 18.8564 11.7814 18.8539 11.7784C18.8532 11.7774 18.8528 11.7765 18.8527 11.7757C18.8526 11.7748 18.853 11.774 18.8538 11.7732C18.8547 11.7724 18.8555 11.772 18.8564 11.7722C18.8574 11.7722 18.8582 11.7727 18.8591 11.7737C18.8631 11.7783 18.8647 11.783 18.864 11.7878C18.8634 11.7926 18.8605 11.7976 18.8552 11.8028L18.8476 11.8104C18.8417 11.8162 18.8359 11.8191 18.8303 11.8188C18.8245 11.8186 18.8184 11.8153 18.8119 11.809L18.8001 11.7976C18.7935 11.7912 18.7901 11.7852 18.7898 11.7795C18.7894 11.7739 18.7923 11.7682 18.7981 11.7625L18.8058 11.7549C18.8117 11.749 18.8174 11.7463 18.8231 11.7466C18.8288 11.7467 18.8349 11.75 18.8415 11.7563L18.8467 11.7614C18.8485 11.7632 18.8487 11.7649 18.847 11.7665L18.813 11.8004ZM18.8036 11.7678C18.7991 11.7722 18.7969 11.7762 18.7971 11.7799C18.7973 11.7836 18.8 11.7878 18.805 11.7927L18.8075 11.7951L18.839 11.7637L18.8365 11.7612C18.8315 11.7564 18.8272 11.7539 18.8235 11.7537C18.8198 11.7536 18.8157 11.7557 18.8113 11.7602L18.8036 11.7678Z" fill="url(#paint15_linear_4231_20572)"/>
<path d="M18.8908 11.7681C18.8891 11.7698 18.8874 11.7697 18.8855 11.7679L18.8416 11.7253C18.8398 11.7235 18.8397 11.7218 18.8414 11.7202C18.843 11.7185 18.8447 11.7186 18.8465 11.7204L18.8546 11.7282C18.8527 11.7232 18.8524 11.7183 18.8536 11.7135C18.8548 11.7086 18.8575 11.7041 18.8618 11.6998C18.8634 11.6982 18.8651 11.6983 18.8669 11.7001C18.8688 11.7018 18.8689 11.7035 18.8673 11.7052C18.8617 11.7107 18.8588 11.7164 18.8585 11.7222C18.8583 11.7279 18.8606 11.7335 18.8655 11.7388L18.8904 11.763C18.8923 11.7648 18.8924 11.7665 18.8908 11.7681Z" fill="url(#paint16_linear_4231_20572)"/>
<defs>
<filter id="filter0_i_4231_20572" x="0" y="0.5" width="30" height="30" filterUnits="userSpaceOnUse" color-interpolation-filters="sRGB">
<feFlood flood-opacity="0" result="BackgroundImageFix"/>
<feBlend mode="normal" in="SourceGraphic" in2="BackgroundImageFix" result="shape"/>
<feColorMatrix in="SourceAlpha" type="matrix" values="0 0 0 0 0 0 0 0 0 0 0 0 0 0 0 0 0 0 127 0" result="hardAlpha"/>
<feOffset/>
<feGaussianBlur stdDeviation="8"/>
<feComposite in2="hardAlpha" operator="arithmetic" k2="-1" k3="1"/>
<feColorMatrix type="matrix" values="0 0 0 0 0 0 0 0 0 0 0 0 0 0 0 0 0 0 0.25 0"/>
<feBlend mode="normal" in2="shape" result="effect1_innerShadow_4231_20572"/>
</filter>
<filter id="filter1_i_4231_20572" x="0" y="0.5" width="30" height="30" filterUnits="userSpaceOnUse" color-interpolation-filters="sRGB">
<feFlood flood-opacity="0" result="BackgroundImageFix"/>
<feBlend mode="normal" in="SourceGraphic" in2="BackgroundImageFix" result="shape"/>
<feColorMatrix in="SourceAlpha" type="matrix" values="0 0 0 0 0 0 0 0 0 0 0 0 0 0 0 0 0 0 127 0" result="hardAlpha"/>
<feOffset/>
<feGaussianBlur stdDeviation="8"/>
<feComposite in2="hardAlpha" operator="arithmetic" k2="-1" k3="1"/>
<feColorMatrix type="matrix" values="0 0 0 0 0 0 0 0 0 0 0 0 0 0 0 0 0 0 0.25 0"/>
<feBlend mode="normal" in2="shape" result="effect1_innerShadow_4231_20572"/>
</filter>
<linearGradient id="paint0_linear_4231_20572" x1="18.3306" y1="11.052" x2="18.8278" y2="11.5512" gradientUnits="userSpaceOnUse">
<stop stop-color="#F5F5F5"/>
<stop offset="1" stop-color="#78787A"/>
</linearGradient>
<linearGradient id="paint1_linear_4231_20572" x1="17.5728" y1="11.8055" x2="18.0598" y2="12.3142" gradientUnits="userSpaceOnUse">
<stop stop-color="#F5F5F5"/>
<stop offset="1" stop-color="#78787A"/>
</linearGradient>
<linearGradient id="paint2_linear_4231_20572" x1="17.981" y1="11.3957" x2="18.4782" y2="11.8948" gradientUnits="userSpaceOnUse">
<stop stop-color="#F5F5F5"/>
<stop offset="1" stop-color="#78787A"/>
</linearGradient>
<linearGradient id="paint3_linear_4231_20572" x1="17.7978" y1="11.2162" x2="17.9421" y2="11.3611" gradientUnits="userSpaceOnUse">
<stop stop-color="#F5F5F5"/>
<stop offset="1" stop-color="#78787A"/>
</linearGradient>
<linearGradient id="paint4_linear_4231_20572" x1="18.5107" y1="12.0109" x2="18.5988" y2="12.0993" gradientUnits="userSpaceOnUse">
<stop stop-color="#F5F5F5"/>
<stop offset="1" stop-color="#78787A"/>
</linearGradient>
<linearGradient id="paint5_linear_4231_20572" x1="18.5107" y1="12.0122" x2="18.5988" y2="12.1005" gradientUnits="userSpaceOnUse">
<stop stop-color="#F5F5F5"/>
<stop offset="1" stop-color="#78787A"/>
</linearGradient>
<linearGradient id="paint6_linear_4231_20572" x1="18.5106" y1="12.0123" x2="18.5986" y2="12.1007" gradientUnits="userSpaceOnUse">
<stop stop-color="#F5F5F5"/>
<stop offset="1" stop-color="#78787A"/>
</linearGradient>
<linearGradient id="paint7_linear_4231_20572" x1="18.5108" y1="12.0126" x2="18.5988" y2="12.101" gradientUnits="userSpaceOnUse">
<stop stop-color="#F5F5F5"/>
<stop offset="1" stop-color="#78787A"/>
</linearGradient>
<linearGradient id="paint8_linear_4231_20572" x1="18.5108" y1="12.0115" x2="18.5988" y2="12.0998" gradientUnits="userSpaceOnUse">
<stop stop-color="#F5F5F5"/>
<stop offset="1" stop-color="#78787A"/>
</linearGradient>
<linearGradient id="paint9_linear_4231_20572" x1="18.5112" y1="12.012" x2="18.5992" y2="12.1004" gradientUnits="userSpaceOnUse">
<stop stop-color="#F5F5F5"/>
<stop offset="1" stop-color="#78787A"/>
</linearGradient>
<linearGradient id="paint10_linear_4231_20572" x1="18.5111" y1="12.0117" x2="18.5991" y2="12.1" gradientUnits="userSpaceOnUse">
<stop stop-color="#F5F5F5"/>
<stop offset="1" stop-color="#78787A"/>
</linearGradient>
<linearGradient id="paint11_linear_4231_20572" x1="18.5109" y1="12.0126" x2="18.5989" y2="12.101" gradientUnits="userSpaceOnUse">
<stop stop-color="#F5F5F5"/>
<stop offset="1" stop-color="#78787A"/>
</linearGradient>
<linearGradient id="paint12_linear_4231_20572" x1="18.5109" y1="12.0111" x2="18.5989" y2="12.0994" gradientUnits="userSpaceOnUse">
<stop stop-color="#F5F5F5"/>
<stop offset="1" stop-color="#78787A"/>
</linearGradient>
<linearGradient id="paint13_linear_4231_20572" x1="18.5105" y1="12.0127" x2="18.5985" y2="12.101" gradientUnits="userSpaceOnUse">
<stop stop-color="#F5F5F5"/>
<stop offset="1" stop-color="#78787A"/>
</linearGradient>
<linearGradient id="paint14_linear_4231_20572" x1="18.5113" y1="12.0117" x2="18.5993" y2="12.1" gradientUnits="userSpaceOnUse">
<stop stop-color="#F5F5F5"/>
<stop offset="1" stop-color="#78787A"/>
</linearGradient>
<linearGradient id="paint15_linear_4231_20572" x1="18.5106" y1="12.0112" x2="18.5986" y2="12.0995" gradientUnits="userSpaceOnUse">
<stop stop-color="#F5F5F5"/>
<stop offset="1" stop-color="#78787A"/>
</linearGradient>
<linearGradient id="paint16_linear_4231_20572" x1="18.5106" y1="12.0119" x2="18.5986" y2="12.1003" gradientUnits="userSpaceOnUse">
<stop stop-color="#F5F5F5"/>
<stop offset="1" stop-color="#78787A"/>
</linearGradient>
</defs>
</svg>
