<svg width="192" height="192" viewBox="0 0 192 192" xmlns="http://www.w3.org/2000/svg" fill="none"><g filter="url(#a)"><mask id="b"><path fill-rule="evenodd" clip-rule="evenodd" d="M.589 2c0-1.105.895-2 2-2h155.585c1.104 0 2 .895 2 2v46.087c0 1.03.87 1.841 1.901 1.841 16.158 0 29.257 13.099 29.257 29.257s-13.099 29.257-29.257 29.257c-1.031 0-1.901.811-1.901 1.842v46.237c0 1.104-.896 2-2 2h-45.659c-1.202 0-2.128 1.054-2.071 2.255.021.461.032.924.032 1.391 0 16.158-13.099 29.257-29.257 29.257s-29.257-13.099-29.257-29.257c0-.467.011-.93.032-1.391.056-1.201-.869-2.255-2.072-2.255h-47.333c-1.105 0-2-.896-2-2v-154.521z"/></mask><path fill-rule="evenodd" clip-rule="evenodd" d="M.589 2c0-1.105.895-2 2-2h155.585c1.104 0 2 .895 2 2v46.087c0 1.03.87 1.841 1.901 1.841 16.158 0 29.257 13.099 29.257 29.257s-13.099 29.257-29.257 29.257c-1.031 0-1.901.811-1.901 1.842v46.237c0 1.104-.896 2-2 2h-45.659c-1.202 0-2.128 1.054-2.071 2.255.021.461.032.924.032 1.391 0 16.158-13.099 29.257-29.257 29.257s-29.257-13.099-29.257-29.257c0-.467.011-.93.032-1.391.056-1.201-.869-2.255-2.072-2.255h-47.333c-1.105 0-2-.896-2-2v-154.521z" fill="#1D5352"/><path d="M110.444 160.776l.999-.047-.999.047zm47.73-161.776h-155.585v2h155.585v-2zm3 49.087v-46.087h-2v46.087h2zm31.158 31.099c0-16.711-13.547-30.257-30.257-30.257v2c15.606 0 28.257 12.651 28.257 28.257h2zm-30.257 30.257c16.71 0 30.257-13.546 30.257-30.257h-2c0 15.606-12.651 28.257-28.257 28.257v2zm-.901 47.079v-46.237h-2v46.237h2zm-48.659 3h45.659v-2h-45.659v2zm-3.07 1.302c.021.445.031.893.031 1.344h2c0-.482-.011-.961-.033-1.438l-1.998.094zm.031 1.344c0 15.606-12.651 28.257-28.257 28.257v2c16.711 0 30.257-13.547 30.257-30.257h-2zm-28.257 28.257c-15.606 0-28.257-12.651-28.257-28.257h-2c0 16.71 13.547 30.257 30.257 30.257v-2zm-28.257-28.257c0-.451.011-.899.031-1.344l-1.998-.094c-.022.477-.034.956-.034 1.438h2zm-50.373-2.646h47.333v-2h-47.333v2zm-3-157.521v154.521h2v-154.521h-2zm112.926 155.521c-1.823 0-3.151 1.581-3.07 3.302l1.998-.094c-.032-.682.49-1.208 1.072-1.208v-2zm46.659-1c0 .552-.448 1-1 1v2c1.657 0 3-1.344 3-3h-2zm-156.585 1c-.552 0-1-.448-1-1h-2c0 1.656 1.343 3 3 3v-2zm156.585-109.434c0 1.623 1.36 2.841 2.901 2.841v-2c-.52 0-.901-.404-.901-.841h-2zm2.901 59.355c-1.541 0-2.901 1.218-2.901 2.842h2c0-.438.381-.842.901-.842v-2zm-109.082 53.381c.08-1.721-1.248-3.302-3.071-3.302v2c.582 0 1.105.526 1.073 1.208l1.998.094zm-50.404-161.823c-1.657 0-3 1.343-3 3h2c0-.552.448-1 1-1v-2zm155.585 2c.552 0 1 .448 1 1h2c0-1.657-1.343-3-3-3v2z" fill="#50D9D7" mask="url(#b)"/></g><defs><filter id="a" x="-39.411" y="-40" width="270.743" height="271.424" filterUnits="userSpaceOnUse" color-interpolation-filters="sRGB"><feFlood flood-opacity="0" result="BackgroundImageFix"/><feGaussianBlur in="BackgroundImageFix" stdDeviation="20"/><feComposite in2="SourceAlpha" operator="in" result="effect1_backgroundBlur_3436_80005"/><feBlend in="SourceGraphic" in2="effect1_backgroundBlur_3436_80005" result="shape"/></filter></defs></svg>