<svg width="161" height="159" viewBox="0 0 161 159" xmlns="http://www.w3.org/2000/svg" fill="none"><g filter="url(#a)"><mask id="b"><path fill-rule="evenodd" clip-rule="evenodd" d="M160.383 2c0-1.105-.896-2-2-2h-155.585c-1.105 0-2 .895-2 2v45.99c0 1.026.78 1.879 1.792 2.045 13.882 2.283 24.473 14.339 24.473 28.868 0 14.529-10.591 26.584-24.473 28.868-1.013.166-1.792 1.019-1.792 2.045v46.705c0 1.104.895 2 2 2h45.016c1.017 0 1.864-.766 2.041-1.767 2.427-13.71 14.401-24.123 28.808-24.123s26.381 10.413 28.808 24.123c.177 1.001 1.024 1.767 2.041 1.767h48.87c1.104 0 2-.896 2-2v-154.521z"/></mask><path fill-rule="evenodd" clip-rule="evenodd" d="M160.383 2c0-1.105-.896-2-2-2h-155.585c-1.105 0-2 .895-2 2v45.99c0 1.026.78 1.879 1.792 2.045 13.882 2.283 24.473 14.339 24.473 28.868 0 14.529-10.591 26.584-24.473 28.868-1.013.166-1.792 1.019-1.792 2.045v46.705c0 1.104.895 2 2 2h45.016c1.017 0 1.864-.766 2.041-1.767 2.427-13.71 14.401-24.123 28.808-24.123s26.381 10.413 28.808 24.123c.177 1.001 1.024 1.767 2.041 1.767h48.87c1.104 0 2-.896 2-2v-154.521z" fill="#1D5352"/><path d="M107.472 156.754l-.985.175.985-.175zm-57.617 0l.985.175-.985-.175zm-47.265-48.983l-.162-.987.162.987zm0-57.736l.162-.987-.162.987zm.208-51.035h155.585v2h-155.585v-2zm-3 48.99v-45.99h2v45.99h-2zm26.265 30.913c0-14.032-10.228-25.676-23.635-27.881l.325-1.974c14.358 2.362 25.311 14.828 25.311 29.855h-2zm-23.635 27.881c13.407-2.205 23.635-13.85 23.635-27.881h2c0 15.027-10.953 27.493-25.311 29.855l-.325-1.974zm-2.63 49.737v-46.705h2v46.705h-2zm48.016 3h-45.016v-2h45.016v2zm30.849-25.89c-13.913 0-25.48 10.057-27.824 23.298l-1.969-.349c2.51-14.179 14.893-24.949 29.793-24.949v2zm27.823 23.298c-2.344-13.241-13.91-23.298-27.823-23.298v-2c14.9 0 27.283 10.77 29.792 24.949l-1.969.349zm51.896 2.592h-48.87v-2h48.87v2zm3-157.521v154.521h-2v-154.521h2zm-3 155.521c.552 0 1-.448 1-1h2c0 1.656-1.343 3-3 3v-2zm-49.927-.941c.1.561.563.941 1.057.941v2c-1.539 0-2.771-1.152-3.026-2.592l1.969-.349zm-60.642.941c.494 0 .957-.38 1.056-.941l1.969.349c-.255 1.44-1.487 2.592-3.026 2.592v-2zm-45.061-48.763c-.568.093-.955.56-.955 1.058h-2c0-1.554 1.173-2.792 2.63-3.032l.325 1.974zm-.955-60.768c0 .499.387.965.955 1.058l-.325 1.974c-1.457-.24-2.63-1.478-2.63-3.032h2zm156.585-48.99c1.657 0 3 1.343 3 3h-2c0-.552-.448-1-1-1v-2zm-156.585 157.521c0 .552.448 1 1 1v2c-1.657 0-3-1.344-3-3h2zm1-155.521c-.552 0-1 .448-1 1h-2c0-1.657 1.343-3 3-3v2z" fill="#50D9D7" mask="url(#b)"/></g><defs><filter id="a" x="-39.202" y="-40" width="239.584" height="238.521" filterUnits="userSpaceOnUse" color-interpolation-filters="sRGB"><feFlood flood-opacity="0" result="BackgroundImageFix"/><feGaussianBlur in="BackgroundImageFix" stdDeviation="20"/><feComposite in2="SourceAlpha" operator="in" result="effect1_backgroundBlur_3436_79994"/><feBlend in="SourceGraphic" in2="effect1_backgroundBlur_3436_79994" result="shape"/></filter></defs></svg>