<svg width="193" height="186" viewBox="0 0 193 186" xmlns="http://www.w3.org/2000/svg" fill="none"><g filter="url(#a)"><mask id="b"><path fill-rule="evenodd" clip-rule="evenodd" d="M140.831 24.89c.165 1.014 1.018 1.796 2.046 1.796h47.394c1.105 0 2 .896 2 2v154.521c0 1.104-.895 2-2 2h-155.584c-1.105 0-2-.896-2-2v-50.324c0-1.19-1.034-2.111-2.224-2.072-.326.011-.654.016-.983.016-16.158 0-29.257-13.099-29.257-29.257s13.099-29.257 29.257-29.257c.329 0 .657.005.983.016 1.19.039 2.224-.882 2.224-2.072v-41.57c0-1.105.895-2 2-2h46.345c1.028 0 1.881-.782 2.046-1.796 2.261-13.908 14.329-24.526 28.876-24.526 14.548 0 26.615 10.617 28.877 24.526z"/></mask><path fill-rule="evenodd" clip-rule="evenodd" d="M140.831 24.89c.165 1.014 1.018 1.796 2.046 1.796h47.394c1.105 0 2 .896 2 2v154.521c0 1.104-.895 2-2 2h-155.584c-1.105 0-2-.896-2-2v-50.324c0-1.19-1.034-2.111-2.224-2.072-.326.011-.654.016-.983.016-16.158 0-29.257-13.099-29.257-29.257s13.099-29.257 29.257-29.257c.329 0 .657.005.983.016 1.19.039 2.224-.882 2.224-2.072v-41.57c0-1.105.895-2 2-2h46.345c1.028 0 1.881-.782 2.046-1.796 2.261-13.908 14.329-24.526 28.876-24.526 14.548 0 26.615 10.617 28.877 24.526z" fill="#1D5352"/><path d="M83.078 24.89l.987.16-.987-.16zm-52.615 47.439l-.033.999.033-.999zm0 58.482l.033.999-.033-.999zm110.368-105.921l.987-.16-.987.161zm49.44.796h-47.394v2h47.394v-2zm3 157.521v-154.521h-2v154.521h2zm-158.584 3h155.584v-2h-155.584v2zm-3-53.324v50.324h2v-50.324h-2zm-2.207-1.056c.34 0 .679-.006 1.016-.017l-.066-1.999c-.315.011-.632.016-.95.016v2zm-30.257-30.257c0 16.71 13.547 30.257 30.257 30.257v-2c-15.606 0-28.257-12.651-28.257-28.257h-2zm30.257-30.257c-16.711 0-30.257 13.547-30.257 30.257h2c0-15.606 12.651-28.257 28.257-28.257v-2zm1.016.017c-.337-.011-.676-.017-1.016-.017v2c.318 0 .635.005.95.016l.066-1.999zm1.191-42.643v41.57h2v-41.57h-2zm49.345-3h-46.345v2h46.345v-2zm3.033-.636c2.184-13.432 13.84-23.686 27.889-23.686v-2c-15.045 0-27.524 10.981-29.863 25.365l1.974.321zm27.889-23.686c14.049 0 25.706 10.254 27.89 23.686l1.974-.321c-2.339-14.384-14.818-25.365-29.864-25.365v2zm-30.922 26.322c1.556 0 2.796-1.176 3.033-2.636l-1.974-.321c-.093.569-.56.957-1.059.957v2zm-47.345 1c0-.552.448-1 1-1v-2c-1.657 0-3 1.343-3 3h2zm-3.257 44.642c1.705.056 3.257-1.267 3.257-3.072h-2c0 .576-.516 1.095-1.191 1.073l-.066 1.999zm3.257 59.555c0-1.804-1.552-3.128-3.257-3.072l.066 1.999c.675-.022 1.191.497 1.191 1.073h2zm1 51.324c-.552 0-1-.448-1-1h-2c0 1.657 1.343 3 3 3v-2zm156.584-1c0 .552-.448 1-1 1v2c1.657 0 3-1.343 3-3h-2zm-48.394-157.521c-.5 0-.967-.388-1.059-.957l-1.974.321c.237 1.46 1.476 2.636 3.033 2.636v-2zm47.394 2c.552 0 1 .448 1 1h2c0-1.657-1.343-3-3-3v2z" fill="#50D9D7" mask="url(#b)"/></g><defs><filter id="a" x="-39.777" y="-39.636" width="272.048" height="264.843" filterUnits="userSpaceOnUse" color-interpolation-filters="sRGB"><feFlood flood-opacity="0" result="BackgroundImageFix"/><feGaussianBlur in="BackgroundImageFix" stdDeviation="20"/><feComposite in2="SourceAlpha" operator="in" result="effect1_backgroundBlur_3436_79999"/><feBlend in="SourceGraphic" in2="effect1_backgroundBlur_3436_79999" result="shape"/></filter></defs></svg>