<svg width="264" height="264" viewBox="0 0 264 264" xmlns="http://www.w3.org/2000/svg" fill="none"><g filter="url(#a)"><mask id="b"><path fill-rule="evenodd" clip-rule="evenodd" d="M0 12c0-6.627 5.373-12 12-12h196.042c6.627 0 12 5.373 12 12v54.302c0 1.421 1.201 2.54 2.622 2.54 22.279 0 40.341 18.061 40.341 40.341s-18.062 40.341-40.341 40.341c-1.421 0-2.622 1.119-2.622 2.54v54.511c0 6.627-5.373 12-12 12h-51.795c-2.677 0-4.73 2.35-4.73 5.028 0 22.279-18.061 40.341-40.341 40.341s-40.341-18.062-40.341-40.341c0-2.678-2.053-5.028-4.731-5.028h-54.104c-6.627 0-12-5.373-12-12v-194.575z"/></mask><path fill-rule="evenodd" clip-rule="evenodd" d="M0 12c0-6.627 5.373-12 12-12h196.042c6.627 0 12 5.373 12 12v54.302c0 1.421 1.201 2.54 2.622 2.54 22.279 0 40.341 18.061 40.341 40.341s-18.062 40.341-40.341 40.341c-1.421 0-2.622 1.119-2.622 2.54v54.511c0 6.627-5.373 12-12 12h-51.795c-2.677 0-4.73 2.35-4.73 5.028 0 22.279-18.061 40.341-40.341 40.341s-40.341-18.062-40.341-40.341c0-2.678-2.053-5.028-4.731-5.028h-54.104c-6.627 0-12-5.373-12-12v-194.575z" fill="#1D5352"/><path d="M208.042-1h-196.042v2h196.042v-2zm13 67.302v-54.302h-2v54.302h2zm42.963 42.881c0-22.832-18.509-41.341-41.341-41.341v2c21.727 0 39.341 17.614 39.341 39.341h2zm-41.341 41.341c22.832 0 41.341-18.509 41.341-41.341h-2c0 21.727-17.614 39.341-39.341 39.341v2zm-1.622 56.051v-54.511h-2v54.511h2zm-64.795 13h51.795v-2h-51.795v2zm-5.73 4.028c0 21.727-17.614 39.341-39.341 39.341v2c22.832 0 41.341-18.509 41.341-41.341h-2zm-39.341 39.341c-21.728 0-39.341-17.614-39.341-39.341h-2c0 22.832 18.509 41.341 41.341 41.341v-2zm-99.176-43.369h54.104v-2h-54.104v2zm-13-207.575v194.575h2v-194.575h-2zm157.247 205.575c-3.307 0-5.73 2.879-5.73 6.028h2c0-2.206 1.683-4.028 3.73-4.028v-2zm62.795-11c0 6.075-4.925 11-11 11v2c7.179 0 13-5.821 13-13h-2zm-207.042 11c-6.075 0-11-4.925-11-11h-2c0 7.179 5.82 13 13 13v-2zm207.042-151.273c0 2.014 1.69 3.54 3.622 3.54v-2c-.911 0-1.622-.712-1.622-1.54h-2zm3.622 82.222c-1.932 0-3.622 1.526-3.622 3.54h2c0-.828.711-1.54 1.622-1.54v-2zm-150.829 75.079c0-3.149-2.424-6.028-5.731-6.028v2c2.047 0 3.731 1.822 3.731 4.028h2zm-59.835-224.603c-7.18 0-13 5.82-13 13h2c0-6.075 4.925-11 11-11v-2zm196.042 2c6.075 0 11 4.925 11 11h2c0-7.18-5.821-13-13-13v2z" fill="#50D9D7" mask="url(#b)"/></g><defs><filter id="a" x="-40" y="-40" width="343.004" height="343.944" filterUnits="userSpaceOnUse" color-interpolation-filters="sRGB"><feFlood flood-opacity="0" result="BackgroundImageFix"/><feGaussianBlur in="BackgroundImageFix" stdDeviation="20"/><feComposite in2="SourceAlpha" operator="in" result="effect1_backgroundBlur_3303_78769"/><feBlend in="SourceGraphic" in2="effect1_backgroundBlur_3303_78769" result="shape"/></filter></defs></svg>