<svg width="229" height="228" viewBox="0 0 229 228" xmlns="http://www.w3.org/2000/svg" fill="none"><g filter="url(#a)"><mask id="b"><path fill-rule="evenodd" clip-rule="evenodd" d="M116.38 41.729c-22.279 0-40.34-18.061-40.34-40.341 0-.231-.186-.419-.417-.419h-58.68c-6.627 0-12 5.373-12 12v55.542c0 .781.647 1.403 1.428 1.403 22.28 0 40.341 18.061 40.341 40.341s-18.061 40.341-40.341 40.341c-.781 0-1.428.623-1.428 1.403v55.544c0 6.628 5.373 12 12 12h196.041c6.628 0 12-5.372 12-12v-62.087c0-.403-.33-.727-.733-.727-22.28 0-40.341-18.061-40.341-40.341s18.061-40.341 40.341-40.341c.403 0 .733-.324.733-.727v-50.351c0-6.627-5.372-12-12-12h-55.846c-.23 0-.417.188-.417.419 0 22.28-18.061 40.341-40.341 40.341z"/></mask><path fill-rule="evenodd" clip-rule="evenodd" d="M116.38 41.729c-22.279 0-40.34-18.061-40.34-40.341 0-.231-.186-.419-.417-.419h-58.68c-6.627 0-12 5.373-12 12v55.542c0 .781.647 1.403 1.428 1.403 22.28 0 40.341 18.061 40.341 40.341s-18.061 40.341-40.341 40.341c-.781 0-1.428.623-1.428 1.403v55.544c0 6.628 5.373 12 12 12h196.041c6.628 0 12-5.372 12-12v-62.087c0-.403-.33-.727-.733-.727-22.28 0-40.341-18.061-40.341-40.341s18.061-40.341 40.341-40.341c.403 0 .733-.324.733-.727v-50.351c0-6.627-5.372-12-12-12h-55.846c-.23 0-.417.188-.417.419 0 22.28-18.061 40.341-40.341 40.341z" fill="#1D5352"/><path d="M77.04 1.388c0 21.727 17.614 39.341 39.34 39.341v2c-22.831 0-41.34-18.509-41.34-41.341h2zm-1.417.581h-58.68v-2h58.68v2zm-69.68 11v55.542h-2v-55.542h2zm.428 55.945c22.832 0 41.341 18.509 41.341 41.341h-2c0-21.727-17.614-39.341-39.341-39.341v-2zm41.341 41.341c0 22.832-18.509 41.341-41.341 41.341v-2c21.727 0 39.341-17.613 39.341-39.341h2zm-41.769 41.744v55.544h-2v-55.544h2zm11 66.544h196.041v2h-196.041v-2zm207.041-11v-62.087h2v62.087h-2zm.267-61.814c-22.832 0-41.341-18.509-41.341-41.341h2c0 21.727 17.613 39.341 39.341 39.341v2zm-41.341-41.341c0-22.832 18.509-41.341 41.341-41.341v2c-21.728 0-39.341 17.614-39.341 39.341h-2zm41.074-41.068v-50.351h2v50.351h-2zm-11-61.351h-55.846v-2h55.846v2zm-96.604 38.76c21.728 0 39.341-17.614 39.341-39.341h2c0 22.832-18.509 41.341-41.341 41.341v-2zm40.758-38.76c.329 0 .583-.266.583-.581h-2c0-.776.628-1.419 1.417-1.419v2zm66.846 11c0-6.075-4.924-11-11-11v-2c7.18 0 13 5.82 13 13h-2zm0 132.487c0 .161.129.273.267.273v-2c.944 0 1.733.76 1.733 1.727h-2zm-11 73.087c6.076 0 11-4.924 11-11h2c0 7.18-5.82 13-13 13v-2zm-207.041-11c0 6.076 4.925 11 11 11v2c-7.18 0-13-5.82-13-13h2zm218.308-144.496c-.138 0-.267.112-.267.273h2c0 .967-.789 1.727-1.733 1.727v-2zm-218.308 5.464c0 .206.177.403.428.403v2c-1.31 0-2.428-1.048-2.428-2.403h2zm.428 83.085c-.251 0-.428.198-.428.403h-2c0-1.355 1.118-2.403 2.428-2.403v2zm10.572-149.627c-6.075 0-11 4.925-11 11h-2c0-7.18 5.82-13 13-13v2zm58.097-.581c0 .315.255.581.583.581v-2c.79 0 1.417.643 1.417 1.419h-2z" fill="#50D9D7" mask="url(#b)"/></g><defs><filter id="a" x="-35.057" y="-39.031" width="300.041" height="298.575" filterUnits="userSpaceOnUse" color-interpolation-filters="sRGB"><feFlood flood-opacity="0" result="BackgroundImageFix"/><feGaussianBlur in="BackgroundImageFix" stdDeviation="20"/><feComposite in2="SourceAlpha" operator="in" result="effect1_backgroundBlur_3303_78828"/><feColorMatrix in="SourceAlpha" values="0 0 0 0 0 0 0 0 0 0 0 0 0 0 0 0 0 0 127 0" result="hardAlpha"/><feOffset dy="4"/><feGaussianBlur stdDeviation="2"/><feComposite in2="hardAlpha" operator="out"/><feColorMatrix values="0 0 0 0 0 0 0 0 0 0 0 0 0 0 0 0 0 0 0.25 0"/><feBlend in2="effect1_backgroundBlur_3303_78828" result="effect2_dropShadow_3303_78828"/><feBlend in="SourceGraphic" in2="effect2_dropShadow_3303_78828" result="shape"/></filter></defs></svg>