<svg width="316" height="309" viewBox="0 0 316 309" xmlns="http://www.w3.org/2000/svg" fill="none"><g filter="url(#a)"><mask id="b"><path fill-rule="evenodd" clip-rule="evenodd" d="M269.433 48.66c0-6.627-5.373-12-12-12h-47.739c-6.167 0-11.15-4.787-13.38-10.537-5.846-15.072-20.487-25.758-37.625-25.758-17.137 0-31.778 10.686-37.624 25.758-2.23 5.75-7.214 10.537-13.381 10.537h-46.293c-6.627 0-12 5.373-12 12v46.718c0 2.365-2.056 4.19-4.421 4.19-22.28 0-40.341 18.062-40.341 40.341 0 22.28 18.061 40.341 40.341 40.341 2.365 0 4.421 1.826 4.421 4.191v58.794c0 6.627 5.373 12 12 12h53.591c2.731 0 4.822 2.401 4.822 5.131 0 22.28 18.062 40.341 40.341 40.341 22.28 0 40.341-18.061 40.341-40.341 0-2.73 2.092-5.131 4.822-5.131h52.125c6.627 0 12-5.373 12-12v-54.805c0-1.196 1.004-2.143 2.2-2.143 22.28 0 40.341-18.061 40.341-40.341 0-22.279-18.061-40.341-40.341-40.341-1.196 0-2.2-.946-2.2-2.142v-54.803z"/></mask><path fill-rule="evenodd" clip-rule="evenodd" d="M269.433 48.66c0-6.627-5.373-12-12-12h-47.739c-6.167 0-11.15-4.787-13.38-10.537-5.846-15.072-20.487-25.758-37.625-25.758-17.137 0-31.778 10.686-37.624 25.758-2.23 5.75-7.214 10.537-13.381 10.537h-46.293c-6.627 0-12 5.373-12 12v46.718c0 2.365-2.056 4.19-4.421 4.19-22.28 0-40.341 18.062-40.341 40.341 0 22.28 18.061 40.341 40.341 40.341 2.365 0 4.421 1.826 4.421 4.191v58.794c0 6.627 5.373 12 12 12h53.591c2.731 0 4.822 2.401 4.822 5.131 0 22.28 18.062 40.341 40.341 40.341 22.28 0 40.341-18.061 40.341-40.341 0-2.73 2.092-5.131 4.822-5.131h52.125c6.627 0 12-5.373 12-12v-54.805c0-1.196 1.004-2.143 2.2-2.143 22.28 0 40.341-18.061 40.341-40.341 0-22.279-18.061-40.341-40.341-40.341-1.196 0-2.2-.946-2.2-2.142v-54.803z" fill="#1D5352"/><path d="M121.065 26.123l-.933-.362.933.362zm88.629 11.537h47.739v-2h-47.739v2zm-51.005-36.295c16.711 0 30.991 10.419 36.693 25.12l1.864-.723c-5.99-15.444-20.993-26.397-38.557-26.397v2zm-36.692 25.12c5.702-14.7 19.981-25.12 36.692-25.12v-2c-17.563 0-32.566 10.952-38.557 26.397l1.865.723zm-60.606 11.175h46.293v-2h-46.293v2zm-11 57.718v-46.718h-2v46.718h2zm-44.762 44.531c0-21.727 17.614-39.341 39.341-39.341v-2c-22.832 0-41.341 18.509-41.341 41.341h2zm39.341 39.341c-21.727 0-39.341-17.613-39.341-39.341h-2c0 22.832 18.509 41.341 41.341 41.341v-2zm5.421 63.985v-58.794h-2v58.794h2zm64.591 11h-53.591v2h53.591v-2zm45.163 45.472c-21.727 0-39.341-17.613-39.341-39.341h-2c0 22.832 18.509 41.341 41.341 41.341v-2zm39.341-39.341c0 21.728-17.613 39.341-39.341 39.341v2c22.832 0 41.341-18.509 41.341-41.341h-2zm57.947-6.131h-52.125v2h52.125v-2zm11-65.805v54.805h2v-54.805h-2zm42.541-42.484c0 21.728-17.614 39.341-39.341 39.341v2c22.832 0 41.341-18.509 41.341-41.341h-2zm-39.341-39.341c21.727 0 39.341 17.614 39.341 39.341h2c0-22.832-18.509-41.341-41.341-41.341v2zm-3.2-57.945v54.803h2v-54.803h-2zm3.2 55.945c-.679 0-1.2-.532-1.2-1.142h-2c0 1.783 1.486 3.142 3.2 3.142v-2zm-1.2 83.825c0-.61.521-1.143 1.2-1.143v-2c-1.714 0-3.2 1.36-3.2 3.143h2zm-222.042 54.805c0 7.179 5.82 13 13 13v-2c-6.075 0-11-4.925-11-11h-2zm-3.421-61.985c1.883 0 3.421 1.446 3.421 3.191h2c0-2.986-2.575-5.191-5.421-5.191v2zm156.516 79.116c0-2.26 1.723-4.131 3.822-4.131v-2c-3.361 0-5.822 2.931-5.822 6.131h2zm-140.095-224.706c-7.18 0-13 5.82-13 13h2c0-6.075 4.925-11 11-11v-2zm58.741-9.898c-2.14 5.517-6.836 9.898-12.448 9.898v2c6.723 0 11.993-5.193 14.313-11.175l-1.865-.723zm137.301 11.898c6.075 0 11 4.925 11 11h2c0-7.18-5.821-13-13-13v2zm0 218.575c7.179 0 13-5.821 13-13h-2c0 6.075-4.925 11-11 11v2zm-209.042-160.857c0 1.744-1.538 3.19-3.421 3.19v2c2.846 0 5.421-2.205 5.421-5.19h-2zm66.591 160.857c2.099 0 3.822 1.871 3.822 4.131h2c0-3.2-2.46-6.131-5.822-6.131v2zm94.712-220.575c-5.611 0-10.308-4.381-12.448-9.898l-1.864.723c2.32 5.982 7.59 11.175 14.312 11.175v-2z" fill="#50D9D7" mask="url(#b)"/></g><defs><filter id="a" x="-35.371" y="-39.635" width="387.346" height="380.342" filterUnits="userSpaceOnUse" color-interpolation-filters="sRGB"><feFlood flood-opacity="0" result="BackgroundImageFix"/><feGaussianBlur in="BackgroundImageFix" stdDeviation="20"/><feComposite in2="SourceAlpha" operator="in" result="effect1_backgroundBlur_3303_78775"/><feColorMatrix in="SourceAlpha" values="0 0 0 0 0 0 0 0 0 0 0 0 0 0 0 0 0 0 127 0" result="hardAlpha"/><feOffset dy="4"/><feGaussianBlur stdDeviation="2"/><feComposite in2="hardAlpha" operator="out"/><feColorMatrix values="0 0 0 0 0 0 0 0 0 0 0 0 0 0 0 0 0 0 0.25 0"/><feBlend in2="effect1_backgroundBlur_3303_78775" result="effect2_dropShadow_3303_78775"/><feBlend in="SourceGraphic" in2="effect2_dropShadow_3303_78775" result="shape"/></filter></defs></svg>