<svg width="159" height="123" viewBox="0 0 159 123" xmlns="http://www.w3.org/2000/svg" fill="none"><g clip-path="url(#a)"><path d="M0 51.066v68.295c0 2.253 1.839 4.066 4.125 4.066h150.75c2.286 0 4.125-1.813 4.125-4.066v-68.295c0-2.254-1.839-4.066-4.125-4.066h-150.725c-2.286 0-4.15 1.813-4.15 4.066zm148.34 5.389v57.492c0 .539-.447 1.005-1.018 1.005h-135.917c-.547 0-1.019-.441-1.019-1.005v-57.492l1.019-1.004h135.917c.571 0 1.018.465 1.018 1.004z" fill="#1D5352"/><path d="M53.219 72.362h-2.656c-.076-.436-.215-.822-.419-1.158-.204-.341-.457-.63-.76-.866-.303-.237-.649-.414-1.037-.533-.383-.123-.798-.185-1.243-.185-.791 0-1.491.199-2.102.597-.611.393-1.089.971-1.435 1.733-.346.758-.518 1.683-.518 2.777 0 1.113.173 2.05.518 2.813.35.758.829 1.331 1.435 1.719.611.383 1.309.575 2.095.575.436 0 .843-.057 1.222-.17.384-.118.727-.291 1.03-.518.308-.227.566-.507.774-.838.213-.331.36-.71.44-1.136l2.656.014c-.099.691-.315 1.34-.646 1.946-.327.606-.755 1.141-1.285 1.605-.53.459-1.151.819-1.861 1.079-.71.256-1.499.384-2.365.384-1.278 0-2.419-.296-3.423-.888-1.004-.592-1.794-1.447-2.372-2.564-.578-1.118-.867-2.457-.867-4.02 0-1.567.291-2.907.874-4.02.582-1.117 1.376-1.972 2.379-2.564 1.004-.592 2.14-.888 3.409-.888.81 0 1.563.114 2.259.341.696.227 1.316.561 1.861 1.001.544.436.992.971 1.342 1.605.355.63.587 1.349.696 2.159zm7.058 9.851c-1.065 0-1.989-.234-2.77-.703-.781-.469-1.387-1.124-1.818-1.967-.426-.843-.639-1.828-.639-2.954 0-1.127.213-2.114.639-2.962.431-.848 1.037-1.506 1.818-1.974.781-.469 1.704-.703 2.77-.703 1.065 0 1.989.234 2.77.703.781.469 1.385 1.127 1.811 1.974.431.848.646 1.835.646 2.962 0 1.127-.216 2.112-.646 2.954-.426.843-1.03 1.499-1.811 1.967-.781.469-1.705.703-2.77.703zm.014-2.06c.578 0 1.061-.159 1.449-.476.388-.322.677-.753.866-1.293.194-.54.291-1.141.291-1.804 0-.668-.097-1.271-.291-1.811-.189-.545-.478-.978-.866-1.3-.388-.322-.871-.483-1.449-.483-.592 0-1.084.161-1.477.483-.388.322-.679.755-.874 1.3-.189.54-.284 1.143-.284 1.811 0 .663.095 1.264.284 1.804.194.54.485.971.874 1.293.393.317.885.476 1.477.476zm7.395 1.847v-10.909h2.457v1.854h.128c.227-.625.604-1.113 1.129-1.463.526-.355 1.153-.533 1.882-.533.739 0 1.361.18 1.868.54.511.355.871.84 1.08 1.456h.114c.242-.606.649-1.089 1.222-1.449.578-.364 1.262-.547 2.053-.547 1.004 0 1.823.317 2.457.952.635.634.952 1.56.952 2.777v7.322h-2.578v-6.925c0-.677-.18-1.172-.54-1.484-.36-.317-.8-.476-1.321-.476-.62 0-1.106.194-1.456.582-.346.384-.518.883-.518 1.499v6.804h-2.521v-7.031c0-.564-.17-1.013-.511-1.35-.336-.336-.776-.504-1.321-.504-.369 0-.706.095-1.008.284-.303.185-.544.447-.725.788-.18.336-.27.729-.27 1.179v6.633h-2.571zm17.949 0v-10.909h2.571v10.909h-2.571zm1.293-12.457c-.407 0-.758-.135-1.051-.405-.293-.275-.44-.604-.44-.987 0-.388.147-.717.44-.987.294-.275.644-.412 1.051-.412.412 0 .762.137 1.051.412.294.27.44.599.44.987 0 .383-.147.713-.44.987-.289.27-.639.405-1.051.405zm6.493 6.065v6.392h-2.571v-10.909h2.457v1.854h.128c.251-.611.651-1.096 1.2-1.456.554-.36 1.238-.54 2.053-.54.753 0 1.409.161 1.967.483.563.322.999.788 1.307 1.399.313.611.467 1.352.462 2.223v6.946h-2.571v-6.548c0-.729-.189-1.3-.568-1.712-.374-.412-.893-.618-1.555-.618-.45 0-.85.099-1.2.298-.346.194-.618.476-.817.845-.194.369-.291.817-.291 1.342zm14.361 10.71c-.923 0-1.716-.126-2.379-.376-.663-.246-1.196-.578-1.598-.994-.403-.417-.682-.878-.838-1.385l2.315-.561c.104.213.256.424.454.632.199.213.467.388.803.526.341.142.769.213 1.286.213.729 0 1.332-.178 1.811-.533.478-.35.717-.928.717-1.733v-2.067h-.128c-.132.265-.327.537-.582.817-.251.279-.585.514-1.002.703-.412.189-.93.284-1.555.284-.838 0-1.598-.197-2.28-.59-.677-.398-1.217-.99-1.619-1.776-.398-.791-.597-1.78-.597-2.969 0-1.198.199-2.209.597-3.033.402-.829.944-1.456 1.626-1.882.682-.431 1.442-.646 2.28-.646.639 0 1.165.109 1.577.327.416.213.748.471.994.774.246.298.433.58.561.845h.142v-1.804h2.536v11.087c0 .933-.223 1.704-.668 2.315-.445.611-1.053 1.068-1.825 1.371-.772.303-1.648.455-2.628.455zm.021-6.492c.545 0 1.009-.133 1.392-.398.384-.265.675-.646.874-1.144.199-.497.298-1.094.298-1.79 0-.686-.099-1.288-.298-1.804-.194-.516-.483-.916-.867-1.2-.378-.289-.845-.433-1.399-.433-.573 0-1.051.149-1.434.448-.384.298-.673.708-.867 1.229-.194.516-.291 1.103-.291 1.761 0 .668.097 1.252.291 1.754.199.497.49.885.874 1.165.388.275.864.412 1.427.412zm-43.964 13.626c-.066-.62-.346-1.103-.838-1.449-.488-.346-1.122-.519-1.903-.519-.549 0-1.02.083-1.413.249-.393.166-.694.391-.902.675-.208.284-.315.608-.32.973 0 .303.069.566.206.788.142.222.334.412.575.568.241.152.509.279.803.384.294.104.589.192.888.263l1.364.341c.549.128 1.077.301 1.584.518.511.218.968.492 1.371.824.407.331.729.731.966 1.2s.355 1.018.355 1.648c0 .852-.218 1.603-.653 2.252-.436.644-1.065 1.148-1.889 1.512-.819.36-1.811.54-2.976.54-1.132 0-2.114-.175-2.947-.525-.829-.351-1.477-.862-1.946-1.534-.464-.673-.715-1.492-.753-2.458h2.592c.038.507.194.928.469 1.264.275.337.632.587 1.072.753.445.166.942.249 1.492.249.573 0 1.075-.085 1.506-.256.436-.175.776-.417 1.023-.724.246-.313.372-.677.376-1.094-.005-.379-.116-.691-.334-.938-.218-.251-.523-.459-.916-.625-.388-.171-.843-.322-1.364-.455l-1.655-.426c-1.198-.308-2.145-.774-2.841-1.399-.691-.63-1.037-1.465-1.037-2.507 0-.857.232-1.608.696-2.252.469-.644 1.106-1.143 1.91-1.498.805-.36 1.716-.54 2.734-.54 1.032 0 1.937.18 2.713.54.781.355 1.394.85 1.84 1.484.445.63.675 1.354.689 2.173h-2.535zm9.728 10.76c-1.065 0-1.989-.234-2.77-.703-.781-.469-1.387-1.125-1.818-1.967-.426-.843-.639-1.828-.639-2.955s.213-2.114.639-2.962c.431-.848 1.037-1.506 1.818-1.974.781-.469 1.705-.703 2.77-.703s1.989.234 2.77.703c.781.469 1.385 1.127 1.811 1.974.431.848.646 1.835.646 2.962 0 1.127-.215 2.112-.646 2.955-.426.842-1.03 1.498-1.811 1.967-.781.469-1.705.703-2.77.703zm.014-2.06c.578 0 1.061-.158 1.449-.475.388-.322.677-.753.867-1.293.194-.54.291-1.141.291-1.804 0-.668-.097-1.271-.291-1.811-.189-.545-.478-.978-.867-1.3-.388-.322-.871-.483-1.449-.483-.592 0-1.084.161-1.477.483-.388.322-.679.755-.874 1.3-.189.54-.284 1.143-.284 1.811 0 .663.095 1.264.284 1.804.194.54.485.971.874 1.293.393.317.885.475 1.477.475zm12.154 2.06c-1.065 0-1.989-.234-2.77-.703-.781-.469-1.387-1.125-1.818-1.967-.426-.843-.639-1.828-.639-2.955s.213-2.114.639-2.962c.431-.848 1.037-1.506 1.818-1.974.781-.469 1.704-.703 2.77-.703 1.065 0 1.989.234 2.77.703.781.469 1.385 1.127 1.811 1.974.431.848.646 1.835.646 2.962 0 1.127-.215 2.112-.646 2.955-.426.842-1.03 1.498-1.811 1.967-.781.469-1.705.703-2.77.703zm.014-2.06c.578 0 1.061-.158 1.449-.475.388-.322.677-.753.867-1.293.194-.54.291-1.141.291-1.804 0-.668-.097-1.271-.291-1.811-.189-.545-.478-.978-.867-1.3-.388-.322-.871-.483-1.449-.483-.592 0-1.084.161-1.477.483-.388.322-.679.755-.874 1.3-.189.54-.284 1.143-.284 1.811 0 .663.095 1.264.284 1.804.194.54.485.971.874 1.293.393.317.885.475 1.477.475zm9.966-4.545v6.392h-2.571v-10.909h2.457v1.854h.128c.251-.611.651-1.096 1.2-1.456.554-.36 1.238-.54 2.053-.54.753 0 1.409.161 1.967.483.564.322.999.788 1.307 1.399.313.611.467 1.352.462 2.223v6.946h-2.571v-6.548c0-.729-.189-1.3-.568-1.712-.374-.412-.892-.618-1.555-.618-.45 0-.85.099-1.2.298-.346.194-.618.476-.817.845-.194.369-.291.817-.291 1.342z" fill="#50D9D7"/><path d="M35.381 0c-2.365 0-4.298 1.023-4.298 2.275v44.298h8.567v-44.313c.029-1.252-1.904-2.26-4.269-2.26zm88.21 0c-2.366 0-4.298 1.023-4.298 2.275v44.298h8.625v-44.313c0-1.252-1.962-2.26-4.327-2.26z" fill="#1D5352"/></g><defs><clipPath id="a"><path fill="#fff" d="M0 0h159v123h-159z"/></clipPath></defs></svg>