<svg xmlns="http://www.w3.org/2000/svg" xmlns:xlink="http://www.w3.org/1999/xlink" xmlns:svgjs="http://svgjs.com/svgjs" width="278" height="148"><svg width="278" height="148" viewBox="0 0 278 148" xmlns="http://www.w3.org/2000/svg" fill="none"><g filter="url(#filter0_d_1333_15707)"><path d="M209.67 37.38h38.98c.46 4.603.21 8.201-.78 11.184-4.52 13.71-23.48 14.237-37.92 14.237l3.28 13.867h35.42c12.13 0 18.68 23.77 3.93 23.77h-33.45l3.28 14.527h3.85c14.78 0 31.6.635 40.93 12.102 2.73 3.356 4.6 7.2 6.7 11.999h-36.12c-10.14 0-20.79-.854-28.73-7.165-7.03-5.596-9.98-14.805-12.06-23.552l-9.5-40.064c-2.03-8.54-2.9-18.238 2.95-24.779 4.62-5.168 12.31-6.126 19.24-6.126z" fill="url(#paint0_linear_1333_15707)"/><path d="M4 36.068s17.23 77.07 21.23 90.92c4 13.85 22.33 15.837 32.1 2.248 7.6-10.58 8.49-12.739 8.51-13.176v-.018.018c.29.532 1.89 3.258 8.86 13.506 8 11.764 26.99 11.991 31.8.603 4.81-11.387 23.57-91.451 25.02-91.682-9.05 1.292-15.48 2.416-21.22 7.155-7.79 6.431-10.56 16.908-13.03 26.705l-9.04 35.83c-5.23-10.258-8.71-17.814-19.73-20.011-.15-.03-.31-.042-.46-.034-10.94.535-16.94 5.867-23.42 19.218l-7.37-33.691c-2.51-11.5-5.51-23.906-14.74-31.22-5.04-3.995-10.64-5.454-18.51-6.371z" fill="url(#paint1_linear_1333_15707)"/><path d="M140.92 47.977c-5.96 16.106-23.94 90.709-23.94 90.709 4.61-.023 8.38-.383 11.78-1.446 13.46-4.207 18.27-20.131 22.37-33.678l.12-.411c2.09-6.904 4.01-12.938 4.42-13.209.45-.291 2.51 6.646 4.63 14.318 3.58 12.913 7.54 28.291 20.23 32.606 3.62 1.233 7.73 1.668 12.85 1.82 0 0-18.1-77.618-22.95-90.709-4.86-13.09-23.55-16.105-29.51 0z" fill="url(#paint2_linear_1333_15707)"/><path d="M155.2 29.51c8.149 0 14.755-6.606 14.755-14.755 0-8.149-6.606-14.755-14.755-14.755-8.149 0-14.755 6.606-14.755 14.755 0 8.149 6.606 14.755 14.755 14.755z" fill="url(#paint3_linear_1333_15707)"/></g><defs><filter id="SvgjsFilter1004" x="0" y="0" width="277.89" height="147.066" filterUnits="userSpaceOnUse" color-interpolation-filters="sRGB"><feFlood flood-opacity="0" result="BackgroundImageFix"/><feColorMatrix in="SourceAlpha" values="0 0 0 0 0 0 0 0 0 0 0 0 0 0 0 0 0 0 127 0" result="hardAlpha"/><feOffset dy="4"/><feGaussianBlur stdDeviation="2"/><feComposite in2="hardAlpha" operator="out"/><feColorMatrix values="0 0 0 0 0 0 0 0 0 0 0 0 0 0 0 0 0 0 0.25 0"/><feBlend in2="BackgroundImageFix" result="effect1_dropShadow_1333_15707"/><feBlend in="SourceGraphic" in2="effect1_dropShadow_1333_15707" result="shape"/></filter><linearGradient id="SvgjsLinearGradient1003" x1="229.14" y1="37.38" x2="229.14" y2="139.066" gradientUnits="userSpaceOnUse"><stop stop-color="#F5F5F5"/><stop offset="1" stop-color="#78787A"/></linearGradient><linearGradient id="SvgjsLinearGradient1002" x1="67.76" y1="37.278" x2="65.83" y2="138.945" gradientUnits="userSpaceOnUse"><stop stop-color="#F5F5F5"/><stop offset="1" stop-color="#78787A"/></linearGradient><linearGradient id="SvgjsLinearGradient1001" x1="155.18" y1="37" x2="155.18" y2="138.686" gradientUnits="userSpaceOnUse"><stop stop-color="#F5F5F5"/><stop offset="1" stop-color="#78787A"/></linearGradient><linearGradient id="SvgjsLinearGradient1000" x1="155.2" x2="155.2" y2="29.51" gradientUnits="userSpaceOnUse"><stop stop-color="#F5F5F5"/><stop offset="1" stop-color="#78787A"/></linearGradient></defs></svg><style>@media (prefers-color-scheme: light) { :root { filter: contrast(1) brightness(0.1); } } @media (prefers-color-scheme: dark) { :root { filter: contrast(0.3846153846153846) brightness(4.5); } }</style></svg>