<svg width="201" height="200" viewBox="0 0 201 200" xmlns="http://www.w3.org/2000/svg" fill="none"><g clip-path="url(#a)"><path d="M136.809 72.643h-69.047c-.631 0-1.237.251-1.684.697-.447.447-.697 1.052-.697 1.684 0 .632.251 1.237.697 1.684.447.447 1.052.697 1.684.697h69.047c.632 0 1.238-.251 1.684-.697.447-.447.697-1.052.697-1.684 0-.631-.25-1.237-.697-1.684-.446-.447-1.052-.697-1.684-.697z" fill="#50D9D7"/><path d="M67.762 89.31h52.381c.631 0 1.237-.251 1.683-.697.447-.447.698-1.052.698-1.684 0-.631-.251-1.237-.698-1.684-.446-.447-1.052-.697-1.683-.697h-52.381c-.631 0-1.237.251-1.684.697-.447.447-.697 1.052-.697 1.684 0 .632.251 1.237.697 1.684.447.447 1.052.697 1.684.697z" fill="#1D5352"/><path d="M136.809 96.452h-69.047c-.631 0-1.237.251-1.684.697-.447.447-.697 1.052-.697 1.684 0 .632.251 1.237.697 1.684.447.446 1.052.697 1.684.697h69.047c.632 0 1.238-.251 1.684-.697.447-.447.697-1.052.697-1.684 0-.632-.25-1.237-.697-1.684-.446-.447-1.052-.697-1.684-.697z" fill="#50D9D7"/><path d="M67.762 113.119h52.381c.631 0 1.237-.251 1.683-.697.447-.447.698-1.052.698-1.684 0-.631-.251-1.237-.698-1.683-.446-.447-1.052-.698-1.683-.698h-52.381c-.631 0-1.237.251-1.684.698-.447.446-.697 1.052-.697 1.683 0 .632.251 1.237.697 1.684.447.446 1.052.697 1.684.697z" fill="#1D5352"/><path d="M136.809 120.262h-69.047c-.631 0-1.237.251-1.684.697-.447.447-.697 1.052-.697 1.684 0 .631.251 1.237.697 1.683.447.447 1.052.698 1.684.698h69.047c.632 0 1.238-.251 1.684-.698.447-.446.697-1.052.697-1.683 0-.632-.25-1.237-.697-1.684-.446-.446-1.052-.697-1.684-.697z" fill="#50D9D7"/><path d="M67.762 136.929h52.381c.631 0 1.237-.251 1.683-.697.447-.447.698-1.053.698-1.684 0-.632-.251-1.237-.698-1.684-.446-.446-1.052-.697-1.683-.697h-52.381c-.631 0-1.237.251-1.684.697-.447.447-.697 1.052-.697 1.684 0 .631.251 1.237.697 1.684.447.446 1.052.697 1.684.697z" fill="#1D5352"/><path d="M136.809 144.071h-69.047c-.631 0-1.237.251-1.684.698-.447.446-.697 1.052-.697 1.683 0 .632.251 1.237.697 1.684.447.446 1.052.697 1.684.697h69.047c.632 0 1.238-.251 1.684-.697.447-.447.697-1.052.697-1.684 0-.631-.25-1.237-.697-1.683-.446-.447-1.052-.698-1.684-.698z" fill="#50D9D7"/><path d="M120.143 155.977h-52.381c-.631 0-1.237.25-1.684.697-.447.446-.697 1.052-.697 1.684 0 .631.251 1.237.697 1.683.447.447 1.052.697 1.684.697h52.381c.631 0 1.237-.25 1.683-.697.447-.446.698-1.052.698-1.683 0-.632-.251-1.238-.698-1.684-.446-.447-1.052-.697-1.683-.697z" fill="#1D5352"/><path d="M136.809 48.833h-69.047c-.631 0-1.237.251-1.684.697-.447.447-.697 1.052-.697 1.684 0 .631.251 1.237.697 1.684.447.447 1.052.697 1.684.697h69.047c.632 0 1.238-.251 1.684-.697.447-.447.697-1.052.697-1.684 0-.631-.25-1.237-.697-1.684-.446-.447-1.052-.697-1.684-.697z" fill="#50D9D7"/><path d="M67.762 65.5h52.381c.631 0 1.237-.251 1.683-.697.447-.447.698-1.052.698-1.684 0-.631-.251-1.237-.698-1.684-.446-.447-1.052-.697-1.683-.697h-52.381c-.631 0-1.237.251-1.684.697-.447.447-.697 1.052-.697 1.684 0 .632.251 1.237.697 1.684.447.447 1.052.697 1.684.697zM2.881 180.975c1.315 0 2.381-1.066 2.381-2.381 0-1.315-1.066-2.381-2.381-2.381-1.315 0-2.381 1.066-2.381 2.381 0 1.315 1.066 2.381 2.381 2.381zM13.595 176.214h-3.571c-.631 0-1.237.251-1.684.697-.447.447-.697 1.052-.697 1.684 0 .631.251 1.237.697 1.683.447.447 1.052.698 1.684.698h3.571c.631 0 1.237-.251 1.684-.698.447-.446.697-1.052.697-1.683 0-.632-.251-1.237-.697-1.684-.447-.446-1.052-.697-1.684-.697z" fill="#1D5352"/><path d="M141.16 185.738h-9.891c-.6.047-1.16.318-1.568.759-.409.442-.635 1.021-.635 1.622 0 .602.226 1.181.635 1.622.408.442.968.713 1.568.759h9.891c.599-.046 1.159-.317 1.568-.759.408-.441.635-1.02.635-1.622 0-.601-.227-1.18-.635-1.622-.409-.441-.969-.712-1.568-.759zm-71.429 0h-9.89c-.6.047-1.16.318-1.568.759-.408.442-.635 1.021-.635 1.622 0 .602.227 1.181.635 1.622.409.442.969.713 1.568.759h9.89c.6-.046 1.16-.317 1.568-.759.409-.441.635-1.02.635-1.622 0-.601-.227-1.18-.635-1.622-.408-.441-.968-.712-1.568-.759zm54.579 0h-47.62c-.632 0-1.237.251-1.684.698-.447.446-.697 1.052-.697 1.683 0 .632.251 1.237.697 1.684.447.446 1.052.697 1.684.697h18.976v2.381h-9.452c-.631 0-1.237.251-1.684.698-.447.446-.697 1.052-.697 1.683 0 .632.251 1.237.697 1.684.447.446 1.052.697 1.684.697h29.762c.632 0 1.237-.251 1.684-.697.446-.447.697-1.052.697-1.684 0-.631-.251-1.237-.697-1.683-.447-.447-1.052-.698-1.684-.698h-10.643v-2.381h18.977c.631 0 1.237-.251 1.683-.697.447-.447.697-1.052.697-1.684 0-.631-.25-1.237-.697-1.683-.446-.447-1.052-.698-1.683-.698z" fill="#50D9D7"/><path d="M190.976 176.214h-3.571c-.632 0-1.237.251-1.684.697-.446.447-.697 1.052-.697 1.684 0 .631.251 1.237.697 1.683.447.447 1.052.698 1.684.698h3.571c.632 0 1.237-.251 1.684-.698.446-.446.697-1.052.697-1.683 0-.632-.251-1.237-.697-1.684-.447-.446-1.052-.697-1.684-.697zM198.119 180.975c1.315 0 2.381-1.066 2.381-2.381 0-1.315-1.066-2.381-2.381-2.381-1.315 0-2.381 1.066-2.381 2.381 0 1.315 1.066 2.381 2.381 2.381zM179.93 176.214h-8.762c-15.679-18.462-8.005-68.481-2.369-105.155 1.574-10.232 2.932-19.068 3.631-26.168.282-2.328.083-4.69-.583-6.939-.667-2.249-1.788-4.337-3.293-6.135-.805-.967-1.804-1.754-2.933-2.309-1.129-.555-2.362-.867-3.619-.915-.207.042-.422.042-.629 0h-118.174l-.268.027-.445-.027c-8.248 0-14.009 6.606-14.009 16.063v55.785c-.052 2.111.735 4.156 2.188 5.687 1.453 1.531 3.454 2.424 5.564 2.484h3.1c-2.801 26.56-2.989 52.935 6.399 67.6h-24.656c-.339-.045-.683-.016-1.01.083-.327.1-.629.268-.885.493-.257.225-.462.503-.603.814-.141.311-.214.649-.214.991 0 .341.073.679.214.99.141.311.347.589.603.814.257.225.559.393.885.493.327.099.671.128 1.01.084h158.858c.338.044.683.015 1.009-.084.327-.1.629-.268.886-.493.257-.225.462-.503.603-.814.141-.311.214-.649.214-.99 0-.342-.073-.68-.214-.991-.141-.311-.346-.589-.603-.814-.257-.225-.559-.393-.886-.493-.326-.099-.671-.128-1.009-.083l.001.001zm-143.701-72.364c-.847-.06-1.636-.452-2.196-1.09-.56-.638-.846-1.471-.795-2.319v-55.785c0-5.213 2.423-11.301 9.248-11.301.591.055 1.164.231 1.684.517.52.286.976.676 1.339 1.145 1.057 1.306 1.838 2.813 2.296 4.43.458 1.617.583 3.31.368 4.976-.687 6.971-2.036 15.749-3.598 25.913-1.603 10.436-3.37 21.926-4.719 33.515h-3.629zm15.385 72.361c-15.655-18.477-7.964-68.495-2.331-105.153 1.574-10.232 2.931-19.068 3.631-26.168.45-4.04-.501-8.112-2.693-11.536h111.153c.208-.042.422-.042.631 0 .59.055 1.163.231 1.683.517.519.286.975.675 1.338 1.144 1.057 1.306 1.839 2.813 2.297 4.43.459 1.617.584 3.31.37 4.977-.687 6.973-2.036 15.75-3.599 25.913-5.498 35.767-12.9 83.931 1.145 105.876h-113.625zm122.289-166.528c.707 0 1.397-.209 1.985-.602.587-.392 1.045-.95 1.315-1.603s.341-1.371.203-2.063c-.138-.693-.478-1.329-.977-1.829-.5-.499-1.136-.84-1.829-.977-.693-.138-1.411-.067-2.063.203-.653.27-1.211.728-1.603 1.315-.393.587-.602 1.278-.602 1.984.001.947.378 1.855 1.047 2.524.67.67 1.578 1.046 2.524 1.047zm0-5.357c.354 0 .699.105.993.301.293.196.522.475.657.801.135.326.171.685.102 1.032-.069.346-.239.665-.489.914-.25.25-.568.42-.914.489-.347.069-.706.034-1.032-.102-.326-.135-.605-.364-.801-.658-.197-.294-.301-.639-.301-.992 0-.474.188-.928.523-1.262.335-.335.789-.523 1.262-.523zm19.455 87.012c-.471 0-.931.14-1.323.401-.391.262-.696.633-.877 1.069-.18.435-.227.914-.135 1.376.092.462.319.886.652 1.219.333.333.757.56 1.219.652.462.092.94.045 1.375-.135.435-.18.807-.485 1.069-.877.262-.391.401-.852.401-1.323 0-.631-.252-1.236-.698-1.683-.446-.446-1.052-.697-1.683-.698zm0 3.571c-.235 0-.465-.07-.661-.201s-.349-.317-.439-.534c-.09-.218-.113-.457-.067-.688.046-.231.159-.443.325-.61.167-.166.379-.28.61-.326.231-.046.47-.022.688.068.217.09.403.243.534.438.131.196.201.426.201.661-.001.316-.126.618-.349.842-.224.223-.526.349-.842.349zm-185.714-87.743c-.471 0-.931.14-1.323.401-.392.262-.697.633-.877 1.069-.18.435-.227.914-.135 1.376.092.462.319.886.652 1.219.333.333.757.56 1.219.652.462.092.941.045 1.376-.136.435-.18.807-.485 1.069-.877.262-.392.401-.852.401-1.323-.001-.631-.252-1.237-.698-1.683-.446-.446-1.052-.697-1.683-.698zm0 3.571c-.235 0-.466-.07-.661-.201-.196-.131-.348-.317-.438-.534-.09-.218-.114-.457-.068-.688.046-.231.159-.443.326-.61.166-.166.379-.28.61-.326.231-.046.47-.022.688.068.218.09.403.243.534.438.131.196.201.426.201.661 0 .316-.126.618-.349.841-.223.223-.526.349-.841.349zM176.283 58.357c-.471 0-.931.14-1.322.401-.392.262-.697.633-.877 1.069-.181.435-.228.914-.136 1.376.092.462.319.886.652 1.219.333.333.757.56 1.219.652.462.092.94.045 1.376-.136.435-.18.806-.485 1.068-.877s.401-.852.401-1.323c0-.631-.251-1.237-.698-1.683-.446-.446-1.051-.698-1.683-.698zm0 3.571c-.235 0-.465-.07-.661-.201s-.348-.317-.438-.534c-.091-.218-.114-.457-.068-.688.046-.231.159-.443.326-.609.166-.166.378-.28.609-.326.231-.046.47-.022.688.068.217.09.403.243.534.438.131.196.201.426.201.661 0 .316-.126.618-.349.841-.223.223-.526.349-.842.349zm-132.75-40.476c0-.471-.14-.931-.401-1.323-.262-.392-.633-.697-1.069-.877-.435-.18-.914-.227-1.376-.136-.462.092-.886.319-1.219.652-.333.333-.56.757-.652 1.219-.092.462-.045.941.136 1.376.18.435.485.807.877 1.069.392.262.852.401 1.323.401.631-.001 1.237-.252 1.683-.698.446-.446.698-1.052.698-1.683zm-3.571 0c0-.235.07-.466.201-.661.131-.196.317-.348.534-.438.218-.09.457-.114.688-.068.231.046.443.159.609.326.166.167.28.379.326.61.046.231.022.47-.068.688-.09.217-.243.403-.438.534-.196.131-.426.201-.661.201-.316 0-.618-.126-.841-.349-.223-.223-.349-.526-.349-.841z" fill="#1D5352"/><path d="M13.462 82.179l1.77-2.327-1.118-.633-1.137 2.607h-.037l-1.155-2.589-1.137.652 1.751 2.273v.037l-2.739-.354v1.267l2.757-.354v.037l-1.769 2.271 1.061.671 1.212-2.626h.037l1.118 2.607 1.174-.67-1.788-2.236v-.037l2.812.336v-1.267l-2.812.373v-.038zm72.436-77.761l-1.019 1.308.612.386.698-1.512h.022l.643 1.501.676-.386-1.03-1.287v-.021l1.619.193v-.73l-1.619.214v-.021l1.019-1.34-.643-.364-.655 1.501h-.022l-.664-1.49-.656.375 1.01 1.308v.021l-1.577-.204v.73l1.587-.204v.021zm110.702 29.605v-1.242l-2.758.364v-.036l1.736-2.283-1.096-.622-1.114 2.557h-.038l-1.131-2.539-1.117.639 1.719 2.23v.036l-2.687-.346v1.242l2.705-.346v.036l-1.737 2.228 1.042.658 1.189-2.576h.035l1.096 2.558 1.152-.658-1.754-2.193v-.036l2.758.329zm-67.111-12.824l1.498-1.969-.945-.537-.961 2.206h-.032l-.978-2.191-.962.552 1.483 1.923v.032l-2.318-.3v1.071l2.333-.299v.031l-1.498 1.923.898.568 1.026-2.223h.031l.945 2.206.993-.567-1.513-1.892v-.031l2.38.283v-1.071l-2.38.316v-.032z" fill="#50D9D7"/></g><defs><clipPath id="a"><path fill="#fff" d="M.5 0h200v200h-200z"/></clipPath></defs></svg>