<svg width="229" height="180" viewBox="0 0 229 180" xmlns="http://www.w3.org/2000/svg" fill="none"><path d="M84.225 81.556c16.022 0 29.008-12.96 29.008-28.947 0-15.987-12.987-28.948-29.008-28.948s-29.009 12.96-29.009 28.948c0 15.987 12.988 28.947 29.009 28.947z" fill="#272727"/><path d="M65.281 43.168h11.381M65.281 46.441h11.381M65.281 49.715h11.381" stroke="#50D9D7" stroke-width="3" stroke-miterlimit="10" stroke-linecap="round"/><path d="M214.522 94.786v-6.395c0-1.219-.486-2.389-1.35-3.251-.864-.862-2.036-1.347-3.258-1.347h-16.265c-.605 0-1.204-.119-1.763-.35-.559-.231-1.067-.57-1.495-.997-.428-.427-.768-.934-.999-1.492-.232-.558-.351-1.156-.351-1.76v-6.395c0-.604.119-1.202.351-1.76.231-.558.571-1.065.999-1.492.428-.427.936-.766 1.495-.997.559-.231 1.158-.35 1.763-.35h.514c1.222 0 2.394-.484 3.258-1.347.864-.862 1.35-2.032 1.35-3.251v-6.395c0-1.22-.486-2.389-1.35-3.252-.864-.862-2.036-1.347-3.258-1.347h-148.642c-1.222 0-2.394.485-3.258 1.347-.864.862-1.35 2.032-1.35 3.252v6.395c0 1.22.485 2.389 1.35 3.251.864.862 2.036 1.347 3.258 1.347s2.394.484 3.258 1.347c.864.862 1.35 2.032 1.35 3.251v6.395c0 1.219-.485 2.389-1.35 3.252-.864.862-2.036 1.347-3.258 1.347h-17.82c-1.222 0-2.394.484-3.258 1.347-.864.862-1.35 2.032-1.35 3.251v6.395c0 1.22.485 2.389 1.35 3.251.864.862 2.036 1.347 3.258 1.347h6.992c1.222 0 2.394.484 3.258 1.347.864.862 1.35 2.032 1.35 3.251v6.396c0 1.219-.486 2.389-1.35 3.251-.864.862-2.036 1.347-3.258 1.347h-.017c-1.222 0-2.394.484-3.258 1.347-.864.862-1.35 2.032-1.35 3.251v6.395c0 1.22.486 2.389 1.35 3.252.864.862 2.036 1.347 3.258 1.347h1.012c.605 0 1.204.119 1.763.35.559.231 1.067.569 1.495.996.428.427.767.934.999 1.492.232.558.351 1.156.351 1.76v6.395c0 .604-.119 1.202-.351 1.76-.232.558-.571 1.065-.999 1.492-.428.427-.936.765-1.495.996-.559.232-1.158.35-1.763.35h-16.602c-1.222 0-2.394.485-3.258 1.347-.864.863-1.35 2.032-1.35 3.252v6.395c0 .604.119 1.202.351 1.76.232.558.571 1.065.999 1.491.428.427.936.766 1.495.997.559.231 1.158.35 1.763.35h177.55c1.223 0 2.395-.484 3.259-1.347.864-.862 1.349-2.031 1.349-3.251v-6.395c0-1.22-.485-2.389-1.349-3.252-.864-.862-2.036-1.347-3.259-1.347h-3.995c-.605 0-1.204-.118-1.763-.35-.559-.231-1.067-.569-1.495-.996-.428-.427-.768-.934-.999-1.492-.232-.558-.351-1.156-.351-1.76v-6.395c0-.604.119-1.202.351-1.76.231-.558.571-1.065.999-1.492.428-.427.936-.765 1.495-.996.559-.231 1.158-.35 1.763-.35h9.421c1.222 0 2.394-.485 3.258-1.347.864-.863 1.35-2.032 1.35-3.252v-6.395c0-.604-.119-1.202-.351-1.76-.232-.557-.571-1.064-.999-1.491-.428-.427-.936-.766-1.495-.997-.559-.231-1.158-.35-1.763-.35h-2.858c-1.222 0-2.394-.485-3.258-1.347-.865-.862-1.35-2.032-1.35-3.251v-6.396c0-1.219.485-2.389 1.35-3.251.864-.863 2.036-1.347 3.258-1.347h10.71c1.222 0 2.394-.484 3.258-1.347.864-.862 1.35-2.032 1.35-3.251z" fill="#272727"/><path d="M165.076 18.249h-88.455c-1.751 0-3.171 1.417-3.171 3.164v132.384c0 1.748 1.42 3.164 3.171 3.164h88.455c1.751 0 3.171-1.416 3.171-3.164v-132.384c0-1.747-1.42-3.164-3.171-3.164z" fill="#1D5352"/><path d="M159.351 25.036h-77.004c-1.751 0-3.171 1.417-3.171 3.164v118.81c0 1.747 1.42 3.164 3.171 3.164h77.004c1.751 0 3.171-1.417 3.171-3.164v-118.81c0-1.748-1.42-3.164-3.171-3.164z" fill="#272727"/><path d="M120.849 74.729c8.628 0 15.622-6.98 15.622-15.589 0-8.61-6.994-15.589-15.622-15.589s-15.622 6.98-15.622 15.589c0 8.61 6.994 15.589 15.622 15.589z" fill="#616161"/><path d="M118.224 57.78v-3.242c0-.325.064-.647.19-.947.125-.3.309-.572.54-.801.232-.229.506-.41.808-.532.302-.122.625-.184.951-.181h.271c.325-.003.648.058.95.18.302.122.577.303.808.532.232.229.415.501.541.801.125.3.189.622.189.947v1.092c.001.073.03.143.082.195.052.052.122.082.195.083l1.311.006.107-.021.091-.06.06-.09.022-.107v-.917c0-.563-.111-1.12-.327-1.64-.216-.52-.532-.992-.931-1.39-.399-.398-.873-.713-1.394-.928-.521-.215-1.08-.325-1.644-.324h-.392c-.564-.001-1.122.11-1.643.325-.521.215-.995.53-1.393.928-.399.398-.715.87-.931 1.389-.216.52-.327 1.077-.327 1.639v3.148l1.866-.087z" fill="#50D9D7"/><path d="M125.96 67.101c.328-.001.642-.131.874-.363.232-.231.363-.545.364-.873v-7.026c-.001-.327-.132-.641-.364-.873-.232-.231-.546-.362-.874-.363h-10.222c-.328.001-.643.131-.875.363-.232.231-.362.545-.363.873v7.026c.001.327.131.641.363.873.232.232.547.362.875.363h10.222z" fill="#1D5352"/><path d="M120.849 60.015c-.352.001-.688.141-.937.389-.248.248-.388.584-.389.935.006.199.057.394.151.57.093.176.226.328.388.445v1.553c0 .208.083.408.23.555.148.147.348.23.557.23.209 0 .409-.083.556-.23.148-.147.231-.347.231-.555v-1.553c.161-.117.294-.269.387-.445.094-.176.146-.371.152-.57-.001-.351-.141-.687-.39-.935-.248-.248-.585-.388-.936-.389zM79.176 132.722v14.801c0 .348.069.693.202 1.014.133.322.329.614.576.86.247.247.54.442.862.575.322.133.668.202 1.017.202h78.032c.349 0 .694-.069 1.016-.202.323-.133.616-.328.862-.575.247-.246.443-.538.576-.86.134-.321.203-.666.203-1.014v-14.801h-83.346zM162.522 27.687c0-.348-.069-.693-.203-1.015-.133-.322-.329-.614-.576-.86-.246-.246-.539-.442-.862-.575-.322-.133-.667-.202-1.016-.202h-78.032c-.349 0-.694.069-1.017.202-.322.133-.615.328-.862.575-.247.246-.442.538-.576.86-.134.322-.202.666-.202 1.015v5.303h83.346v-5.303z" fill="#50D9D7"/><path d="M120.849 29.49c2.465 0 4.463-1.994 4.463-4.454s-1.998-4.454-4.463-4.454-4.464 1.994-4.464 4.454 1.999 4.454 4.464 4.454zM120.849 145.902c2.465 0 4.463-1.994 4.463-4.454s-1.998-4.454-4.463-4.454-4.464 1.994-4.464 4.454 1.999 4.454 4.464 4.454zM112.778 80.181h-23.605c-.584 0-1.057.472-1.057 1.055v6.849c0 .582.473 1.055 1.057 1.055h23.605c.583 0 1.057-.472 1.057-1.055v-6.849c0-.582-.474-1.055-1.057-1.055z" fill="#616161"/><path d="M152.737 80.181h-29.131c-.584 0-1.057.472-1.057 1.055v39.059c0 .582.473 1.054 1.057 1.054h29.131c.584 0 1.057-.472 1.057-1.054v-39.059c0-.582-.473-1.055-1.057-1.055z" fill="#50D9D7"/><path d="M112.778 96.286h-23.605c-.584 0-1.057.472-1.057 1.055v6.849c0 .582.473 1.054 1.057 1.054h23.605c.583 0 1.057-.472 1.057-1.054v-6.849c0-.582-.474-1.055-1.057-1.055zM112.778 112.391h-23.605c-.584 0-1.057.473-1.057 1.055v6.849c0 .582.473 1.054 1.057 1.054h23.605c.583 0 1.057-.472 1.057-1.054v-6.849c0-.582-.474-1.055-1.057-1.055zM138.172 109.534h-9.004c-.173 0-.344-.046-.495-.132-.15-.087-.275-.212-.362-.362-.087-.15-.133-.321-.133-.494s.046-.344.133-.494l4.501-7.781 4.502-7.78c.087-.15.212-.275.362-.362.151-.087.322-.132.496-.132.173 0 .344.046.495.132.15.087.275.212.362.362l4.502 7.78 4.501 7.781c.087.15.133.321.133.494s-.046.344-.133.494c-.087.15-.212.275-.362.362-.151.086-.321.132-.495.132h-9.003z" fill="#616161"/><path d="M138.171 96.109c-.273 0-.495.221-.495.494v7.368c0 .273.222.494.495.494.274 0 .496-.221.496-.494v-7.368c0-.273-.222-.494-.496-.494zM139.351 106.775c.064-.65-.411-1.229-1.063-1.293-.651-.064-1.231.41-1.296 1.06-.064.65.411 1.229 1.063 1.294.651.064 1.231-.411 1.296-1.061zM61.32 133.169v-8.274c0-.829.165-1.651.485-2.416.32-.766.789-1.461 1.38-2.045.591-.584 1.291-1.045 2.062-1.357.77-.312 1.595-.469 2.426-.461h.691c.832-.008 1.656.148 2.427.46.771.312 1.471.773 2.062 1.357.591.584 1.06 1.279 1.38 2.045.32.766.484 1.588.484 2.417v2.788c.001.187.076.365.208.498s.311.208.498.211l3.345.015c.094 0 .186-.018.273-.053.087-.036.165-.088.232-.154.066-.066.119-.144.155-.23.036-.086.055-.179.055-.272v-2.341c0-1.437-.283-2.859-.834-4.186-.551-1.326-1.359-2.532-2.377-3.547-1.018-1.015-2.227-1.82-3.557-2.368-1.33-.548-2.756-.829-4.195-.827h-1.002c-1.439-.002-2.864.28-4.194.829-1.33.548-2.538 1.353-3.556 2.368-1.018 1.015-1.825 2.22-2.376 3.547-.551 1.326-.834 2.748-.834 4.184v8.034l4.762-.222z" fill="#50D9D7"/><path d="M81.066 156.961c.837-.002 1.64-.335 2.232-.926.592-.591.926-1.391.928-2.227v-17.933c-.002-.835-.336-1.636-.928-2.227-.592-.591-1.395-.924-2.232-.926h-26.091c-.837.002-1.64.335-2.232.926-.592.591-.926 1.392-.928 2.227v17.933c.002.836.336 1.636.928 2.227.592.591 1.395.924 2.232.926h26.091z" fill="#616161"/><path d="M68.02 138.874c-.897.003-1.756.36-2.391.993-.634.633-.992 1.49-.995 2.386.016.508.148 1.006.386 1.455.239.449.577.838.99 1.136v3.965c.001.531.213 1.041.589 1.416.377.375.887.586 1.42.586.532 0 1.043-.211 1.42-.586s.589-.885.589-1.416v-3.965c.412-.299.75-.687.989-1.137.239-.449.371-.946.387-1.454-.003-.896-.36-1.753-.995-2.386-.634-.633-1.494-.99-2.391-.993z" fill="#50D9D7"/><path d="M21.861 150.819h11.381M21.861 154.092h11.381M21.861 157.365h11.381M173.629 99.856h11.38M173.629 103.13h11.38M173.629 106.403h11.38" stroke="#50D9D7" stroke-width="3" stroke-miterlimit="10" stroke-linecap="round"/><path d="M48.047 112.622c3.197 0 5.788-2.586 5.788-5.776s-2.591-5.775-5.788-5.775c-3.196 0-5.788 2.585-5.788 5.775 0 3.19 2.591 5.776 5.788 5.776zM48.282 98.079c1.665 0 3.015-1.347 3.015-3.008 0-1.662-1.35-3.008-3.015-3.008s-3.015 1.347-3.015 3.008c0 1.662 1.35 3.008 3.015 3.008zM68.362 99.432c1.441 0 2.609-1.166 2.609-2.604 0-1.438-1.168-2.604-2.609-2.604s-2.609 1.166-2.609 2.604c0 1.438 1.168 2.604 2.609 2.604zM58.869 96.034c.96 0 1.739-.777 1.739-1.735 0-.958-.779-1.735-1.739-1.735-.96 0-1.739.777-1.739 1.735 0 .958.779 1.735 1.739 1.735zM60.89 107.93c2.302 0 4.169-1.862 4.169-4.16 0-2.297-1.866-4.16-4.169-4.16-2.302 0-4.169 1.863-4.169 4.16 0 2.298 1.866 4.16 4.169 4.16zM187.4 155.496c3.197 0 5.788-2.586 5.788-5.775 0-3.19-2.591-5.776-5.788-5.776-3.196 0-5.787 2.586-5.787 5.776 0 3.189 2.591 5.775 5.787 5.775zM175.15 155.575c1.665 0 3.015-1.347 3.015-3.008 0-1.662-1.35-3.008-3.015-3.008s-3.015 1.346-3.015 3.008c0 1.661 1.35 3.008 3.015 3.008zM175.15 144.549c2.302 0 4.169-1.862 4.169-4.16 0-2.297-1.867-4.16-4.169-4.16-2.302 0-4.169 1.863-4.169 4.16 0 2.298 1.867 4.16 4.169 4.16zM187.873 53.07c3.196 0 5.787-2.586 5.787-5.775 0-3.19-2.591-5.776-5.787-5.776-3.197 0-5.788 2.586-5.788 5.776s2.591 5.775 5.788 5.775zM176.392 55.674c1.441 0 2.609-1.166 2.609-2.604 0-1.438-1.168-2.604-2.609-2.604s-2.609 1.166-2.609 2.604c0 1.438 1.168 2.604 2.609 2.604zM173.193 47.294c2.303 0 4.169-1.862 4.169-4.16 0-2.297-1.866-4.16-4.169-4.16-2.302 0-4.168 1.862-4.168 4.16 0 2.297 1.866 4.16 4.168 4.16z" fill="#50D9D7"/></svg>