<svg width="20" height="20" viewBox="0 0 20 20" xmlns="http://www.w3.org/2000/svg" fill="none"><path d="M12.122 8.151l-1.53-1.53 3.525-3.525 1.53 1.53-3.525 3.525z" fill="#1D5352"/><path d="M12.741 9.433c-.331.452-.167.59-.201 1.025l-.065.273c-.058.727-.746 1.207-1.159 1.797 3.841.286 6.291-1.339 8.012-2.927.24-.221.326-.544.259-.841l-3.159-3.159-3.688 3.831z" fill="#50D9D7"/><path d="M19.35 8.328l-.491-.491-.107.173c-1.691 1.56-3.7 2.855-6.492 3.006-.202.437-.481.835-.822 1.174l-.367.365c3.745.407 6.23-1.083 8.257-2.953.368-.34.376-.919.022-1.273z" fill="#C9F3FF"/><path d="M11.007 7.447l-9.799 9.799c-.071.071-.112.166-.115.266l.554.555c.074.074.174.115.279.115.104 0 .205-.041.279-.115l9.711-9.711-.909-.909zm4.884-5.005c-.103-.002-.207.036-.286.115l-.936.936 1.055 1.055.857-.857.085-.128.03-.151-.03-.151-.085-.128-.691-.691z" fill="#B3B6C3"/><path d="M2.543 14.72c.103 0 .204-.042.276-.114.073-.074.114-.173.114-.276 0-.103-.042-.204-.114-.276-.073-.073-.173-.114-.276-.115-.103 0-.204.042-.276.115-.073.073-.114.173-.114.276 0 .103.042.204.114.276.073.073.173.114.276.114zM19.625 8.052l-3.426-3.426.659-.659c.306-.306.306-.804 0-1.11l-1.143-1.143c-.306-.306-.804-.306-1.11 0l-.659.659-.452-.452c-.153-.152-.4-.152-.553 0l-3.642 3.643c-.073.073-.114.173-.114.276 0 .104.041.203.114.276l.452.452-5.53 5.531-.945.945c-.153.153-.153.4 0 .553.153.153.4.153.553 0l.669-.669.293.293.127.085.149.03c.1 0 .2-.038.276-.114.153-.153.153-.4 0-.553l-.293-.293 3.372-3.372.447.447c.076.076.176.114.276.114.1 0 .2-.038.276-.114.153-.153.153-.4 0-.553l-.447-.447 1.33-1.33 1.147 1.147-3.244 3.244-.458-.458c-.153-.152-.4-.152-.553 0-.152.153-.152.4 0 .553l.458.458-3.536 3.536-.367-.367c-.153-.153-.4-.153-.553 0-.152.152-.152.4 0 .552l.367.367-1.637 1.637-.002.001-.002-.001-1.143-1.143-.001-.002.001-.002.953-.953c.152-.152.152-.4 0-.553-.153-.152-.4-.152-.553 0l-.953.953c-.306.306-.306.804 0 1.11l1.143 1.143c.153.153.354.229.555.229.201 0 .402-.076.555-.229l9.518-9.518c.174.218.258.493.236.771-.034.415-.137.821-.307 1.201l-.053.113c-.179.369-.419.709-.714 1.002l-.367.365c-.052.052-.089.118-.105.19-.016.072-.012.147.012.217s.068.131.126.177c.058.046.127.074.201.082.435.047.852.069 1.253.069 3.445 0 5.699-1.637 7.311-3.124.256-.236.401-.558.408-.907.007-.346-.129-.685-.374-.93zm-4.467-5.786l.002-.001.002.001 1.143 1.143.001.002-.001.002-.659.659-1.148-1.147.659-.659zm-1.94.483l.452.452 1.424 1.424-3.09 3.09-1.876-1.876 3.09-3.09zm5.844 6.565c-1.504 1.388-3.604 2.916-6.799 2.916l-.326-.005c.221-.256.412-.536.57-.834 1.49-.114 2.857-.546 4.172-1.321.186-.11.248-.349.139-.535-.11-.186-.349-.248-.535-.138-1.093.644-2.224 1.03-3.441 1.176.089-.298.146-.604.171-.914.02-.25-.01-.502-.089-.74s-.205-.458-.371-.647l3.093-3.093 3.426 3.427.11.166.035.196c-.003.134-.058.258-.156.348zM17.526 8.544l-.005.004c-.171.132-.203.377-.071.548l.137.112.173.04c.087 0 .172-.029.241-.083.17-.131.203-.375.073-.546-.13-.172-.375-.205-.547-.075z" fill="#3C3B41"/></svg>