<svg width="101" height="100" viewBox="0 0 101 100" xmlns="http://www.w3.org/2000/svg" fill="none"><path d="M68.695 25.642v-1.258h-23.105v1.258c0 .652-.151 1.296-.441 1.88-.29.584-.711 1.094-1.231 1.488-.52.395-.941.904-1.231 1.488-.29.584-.441 1.228-.441 1.88v52.914c0 1.796.713 3.518 1.983 4.788 1.27 1.27 2.992 1.983 4.788 1.983h16.25c1.796 0 3.518-.713 4.788-1.983 1.27-1.27 1.983-2.992 1.983-4.788v-52.914c0-.652-.151-1.296-.441-1.88-.29-.584-.711-1.094-1.231-1.488-.52-.395-.941-.904-1.231-1.488-.29-.584-.441-1.228-.441-1.88z" fill="#3E3E3E"/><g clip-path="url(#a)"><path d="M60.877 51.794h1.929c.023.221.01.394-.039.537-.224.658-1.162.683-1.876.683l.162.665h1.753c.6 0 .924 1.141.194 1.141h-1.655l.162.697h.191c.731 0 1.564.031 2.025.581.135.161.228.345.332.576h-1.787c-.502 0-1.029-.041-1.422-.344-.348-.268-.494-.71-.597-1.13l-.47-1.922c-.101-.41-.144-.875.146-1.189.229-.248.609-.294.952-.294z" fill="url(#b)"/><path d="M50.699 51.731s.853 3.698 1.051 4.363c.198.665 1.105.76 1.588.108.376-.508.42-.611.421-.632v-.001.001c.014.026.093.156.438.648.396.565 1.336.575 1.574.029.238-.546 1.166-4.389 1.238-4.4-.448.062-.766.116-1.05.343-.386.309-.523.811-.645 1.282l-.447 1.719c-.259-.492-.431-.855-.976-.96l-.023-.002c-.541.026-.838.282-1.159.922l-.365-1.617c-.124-.552-.273-1.147-.729-1.498-.249-.192-.526-.262-.916-.306z" fill="url(#c)"/><path d="M57.475 52.302c-.295.773-1.185 4.353-1.185 4.353.228-.001.415-.018.583-.069.666-.202.904-.966 1.107-1.616l.006-.02c.103-.331.198-.621.219-.634.022-.014.124.319.229.687.177.62.373 1.358 1.001 1.565.179.059.383.08.636.087 0 0-.896-3.725-1.136-4.353-.241-.628-1.165-.773-1.46 0z" fill="url(#d)"/><path d="M58.181 51.416c.403 0 .73-.317.73-.708 0-.391-.327-.708-.73-.708-.403 0-.73.317-.73.708 0 .391.327.708.73.708z" fill="url(#e)"/><path d="M53.834 58.052l-.025-.021-.189-.594.003-.023.022-.012.015.005.009.014.176.552h-.014l.166-.55.012-.016.018-.005.018.005.011.016.166.55h-.014l.176-.552.009-.014.015-.005.023.012.002.024-.19.594-.027.021h-.002l-.027-.021-.169-.556h.014l-.169.556-.011.017-.019.004z" fill="url(#f)"/><path d="M54.51 57.834v.037l.028.1.098.028h.081l.091-.016.034-.057.008-.019.019-.007.019.008.005.02-.05.094-.127.03h-.081l-.135-.043-.043-.138v-.114l.043-.139.135-.043h.081l.135.044.043.138v.05l-.025.027h-.359zm.126-.206l-.098.028-.028.101v.024h.333v-.024l-.028-.1-.099-.028h-.081z" fill="url(#g)"/><path d="M55.264 58.05l-.014-.035.245-.592.029-.021h.003l.029.021.245.592-.014.035-.034-.014-.066-.159h-.323l-.065.159-.034.014zm.121-.226h.28l-.14-.338-.14.338z" fill="url(#h)"/><path d="M55.936 58.052l-.026-.027v-.424l.026-.026.026.026v.078l.074-.077.115-.027.026.026-.026.027-.136.041-.053.116v.241l-.026.027z" fill="url(#i)"/><path d="M56.3 57.834v.037l.028.1.098.028h.081l.09-.016.034-.057.008-.019.019-.007.019.008.005.02-.05.094-.126.03h-.081l-.135-.043-.043-.138v-.114l.043-.139.135-.043h.081l.135.044.043.138v.05l-.026.027h-.359zm.126-.206l-.098.028-.028.101v.024h.333v-.024l-.028-.1-.098-.028h-.081z" fill="url(#j)"/><path d="M57.131 58.052l-.026-.027v-.597l.026-.027h.37l.026.027-.026.026h-.344v.242h.227l.026.026-.026.027h-.227v.25h.344l.026.026-.026.027h-.37z" fill="url(#k)"/><path d="M57.684 58.052l-.026-.027v-.424l.026-.026.025.026v.048c.032-.05.088-.075.17-.075h.028l.135.044.043.138v.268l-.026.027-.026-.027v-.268l-.028-.1-.098-.028h-.028l-.12.025-.05.077v.295l-.025.027z" fill="url(#l)"/><path d="M58.373 58.254l-.089-.025-.036-.077.005-.021.019-.008.018.007.008.02.02.04.053.011h.184l.058-.016.016-.061v-.144l-.064.054-.105.018h-.037l-.136-.043-.043-.138v-.114l.042-.138.136-.043h.081l.079.013.047.041v-.028l.026-.026.026.026v.523l-.031.098-.096.032h-.184zm.051-.255h.037l.123-.025.046-.075v-.169l-.031-.08-.095-.023h-.081l-.099.028-.028.1v.114l.028.1.099.028z" fill="url(#m)"/><path d="M58.874 57.483l-.034-.036v-.023l.034-.035h.022l.033.035v.023l-.033.036h-.022zm.011.569l-.026-.027v-.424l.026-.026.026.026v.424l-.026.027z" fill="url(#n)"/><path d="M59.121 58.052l-.026-.027v-.424l.026-.026.025.026v.048c.031-.05.088-.075.17-.075h.028l.135.044.043.138v.268l-.026.027-.026-.027v-.268l-.028-.1-.097-.028h-.028l-.12.025-.05.077v.295l-.025.027z" fill="url(#o)"/><path d="M59.735 57.834v.037l.028.1.098.028h.081l.09-.016.034-.057.008-.019.019-.007.019.008.005.02-.05.094-.126.03h-.081l-.135-.043-.043-.138v-.114l.043-.139.135-.043h.081l.135.044.043.138v.05l-.026.027h-.359zm.126-.206l-.098.028-.028.101v.024h.333v-.024l-.028-.1-.098-.028h-.081z" fill="url(#p)"/><path d="M60.33 57.834v.037l.027.1.099.028h.081l.091-.016.034-.057.008-.019.019-.007.019.008.005.02-.05.094-.126.03h-.081l-.135-.043-.043-.138v-.114l.043-.139.135-.043h.081l.135.044.043.138v.05l-.026.027h-.359zm.126-.206l-.099.028-.027.101v.024h.332v-.024l-.027-.1-.098-.028h-.081z" fill="url(#q)"/><path d="M60.912 58.052l-.026-.027v-.424l.026-.026.026.026v.078l.074-.077.116-.027.026.026-.026.027-.137.041-.053.116v.241l-.026.027z" fill="url(#r)"/></g><path d="M70.26 29.011c-.519-.395-.941-.904-1.231-1.488-.29-.584-.441-1.228-.441-1.88v-1.258h-7.617v1.258c0 .652.151 1.296.441 1.88.29.584.711 1.094 1.231 1.488.52.395.941.904 1.231 1.488.29.584.441 1.228.441 1.88v52.914c0 1.796-.713 3.518-1.983 4.788-1.27 1.27-2.992 1.983-4.788 1.983h7.617c1.796 0 3.518-.713 4.788-1.983 1.27-1.27 1.983-2.992 1.983-4.788v-52.914c0-.652-.151-1.296-.441-1.88-.29-.584-.711-1.094-1.231-1.488z" fill="#333"/><path d="M71.118 18.093v6.292c0 .334-.066.664-.193.972-.128.308-.315.588-.55.824-.236.236-.516.423-.824.55-.308.128-.638.193-.972.193h-22.653c-.673 0-1.319-.268-1.795-.744s-.744-1.122-.744-1.795v-6.292c0-.673.268-1.319.744-1.795s1.122-.744 1.795-.744h22.653c.333 0 .664.066.972.193.308.128.588.315.824.55.236.236.423.516.55.824.128.308.193.638.193.972z" fill="#E1E1E3"/><path d="M68.58 15.554h-7.617c.333 0 .664.066.972.193.308.128.588.315.824.55.236.236.423.516.55.824.128.308.193.638.193.972v6.292c0 .334-.066.664-.193.972-.128.308-.315.588-.55.824-.236.236-.516.423-.824.55-.308.128-.638.193-.972.193h7.617c.334 0 .664-.066.972-.193.308-.128.588-.315.824-.55.236-.236.423-.516.55-.824.128-.308.193-.638.193-.972v-6.292c0-.333-.066-.664-.193-.972-.128-.308-.315-.588-.55-.824-.236-.236-.516-.423-.824-.55-.308-.128-.638-.193-.972-.193z" fill="#DADADC"/><path d="M68.97 15.554h-12.187l2.23-6.691c.09-.27.262-.504.493-.67.231-.166.508-.256.792-.256h5.157c.284 0 .561.089.792.256.231.166.403.401.493.67l2.23 6.691z" fill="#AEADB3"/><path d="M66.739 8.862c-.09-.27-.262-.504-.493-.67-.231-.166-.508-.256-.792-.256h-5.078c.284 0 .561.089.792.256.231.166.403.401.493.67l2.23 6.691h5.078l-2.23-6.691z" fill="#8B8893"/><path d="M43.387 19.968h27.731v2.539h-27.731v-2.539z" fill="#3E3E3E"/><path d="M63.502 19.968h7.617v2.539h-7.617v-2.539z" fill="#333"/><path d="M31.118 41.429c-.661-.131-1.242-.518-1.617-1.077-.375-.559-.512-1.245-.382-1.905l3.936-19.924 7.213-4.916c.276-.188.585-.32.912-.388.327-.068.663-.071.991-.009.328.062.64.188.919.371s.519.419.707.694c.188.276.319.585.388.912.068.326.071.663.009.991-.062.328-.188.64-.371.919s-.419.519-.694.707l-5.495 3.745-3.532 17.884c-.065.327-.193.638-.378.916-.185.277-.423.516-.7.701-.277.186-.588.315-.915.38-.327.066-.664.066-.991.001z" fill="#AEADB3"/><path d="M42.768 18.067c1.636 0 2.962-1.326 2.962-2.962 0-1.636-1.326-2.962-2.962-2.962-1.636 0-2.962 1.326-2.962 2.962 0 1.636 1.326 2.962 2.962 2.962z" fill="#8B8893"/><path d="M66.853 70.226h-19.635c-.337 0-.66-.134-.898-.372s-.372-.561-.372-.898c0-.337.134-.66.372-.898s.561-.372.898-.372h19.635c.337 0 .66.134.898.372s.372.561.372.898c0 .337-.134.66-.372.898s-.561.372-.898.372zm0 5.078h-19.635c-.337 0-.66-.134-.898-.372s-.372-.561-.372-.898c0-.337.134-.66.372-.898s.561-.372.898-.372h19.635c.337 0 .66.134.898.372s.372.561.372.898c0 .337-.134.66-.372.898s-.561.372-.898.372z" fill="#fff"/><defs><linearGradient id="b" x1="61.84" y1="51.794" x2="61.84" y2="56.673" gradientUnits="userSpaceOnUse"><stop stop-color="#F5F5F5"/><stop offset="1" stop-color="#78787A"/></linearGradient><linearGradient id="c" x1="53.854" y1="51.789" x2="53.764" y2="56.668" gradientUnits="userSpaceOnUse"><stop stop-color="#F5F5F5"/><stop offset="1" stop-color="#78787A"/></linearGradient><linearGradient id="d" x1="58.18" y1="51.776" x2="58.18" y2="56.655" gradientUnits="userSpaceOnUse"><stop stop-color="#F5F5F5"/><stop offset="1" stop-color="#78787A"/></linearGradient><linearGradient id="e" x1="58.181" y1="50" x2="58.181" y2="51.416" gradientUnits="userSpaceOnUse"><stop stop-color="#F5F5F5"/><stop offset="1" stop-color="#78787A"/></linearGradient><linearGradient id="f" x1="57.626" y1="57.39" x2="57.626" y2="58.254" gradientUnits="userSpaceOnUse"><stop stop-color="#F5F5F5"/><stop offset="1" stop-color="#78787A"/></linearGradient><linearGradient id="g" x1="57.626" y1="57.39" x2="57.626" y2="58.254" gradientUnits="userSpaceOnUse"><stop stop-color="#F5F5F5"/><stop offset="1" stop-color="#78787A"/></linearGradient><linearGradient id="h" x1="57.627" y1="57.39" x2="57.627" y2="58.254" gradientUnits="userSpaceOnUse"><stop stop-color="#F5F5F5"/><stop offset="1" stop-color="#78787A"/></linearGradient><linearGradient id="i" x1="57.627" y1="57.39" x2="57.627" y2="58.254" gradientUnits="userSpaceOnUse"><stop stop-color="#F5F5F5"/><stop offset="1" stop-color="#78787A"/></linearGradient><linearGradient id="j" x1="57.626" y1="57.39" x2="57.626" y2="58.254" gradientUnits="userSpaceOnUse"><stop stop-color="#F5F5F5"/><stop offset="1" stop-color="#78787A"/></linearGradient><linearGradient id="k" x1="57.627" y1="57.39" x2="57.627" y2="58.254" gradientUnits="userSpaceOnUse"><stop stop-color="#F5F5F5"/><stop offset="1" stop-color="#78787A"/></linearGradient><linearGradient id="l" x1="57.626" y1="57.39" x2="57.626" y2="58.254" gradientUnits="userSpaceOnUse"><stop stop-color="#F5F5F5"/><stop offset="1" stop-color="#78787A"/></linearGradient><linearGradient id="m" x1="57.626" y1="57.39" x2="57.626" y2="58.254" gradientUnits="userSpaceOnUse"><stop stop-color="#F5F5F5"/><stop offset="1" stop-color="#78787A"/></linearGradient><linearGradient id="n" x1="57.627" y1="57.39" x2="57.627" y2="58.254" gradientUnits="userSpaceOnUse"><stop stop-color="#F5F5F5"/><stop offset="1" stop-color="#78787A"/></linearGradient><linearGradient id="o" x1="57.626" y1="57.39" x2="57.626" y2="58.254" gradientUnits="userSpaceOnUse"><stop stop-color="#F5F5F5"/><stop offset="1" stop-color="#78787A"/></linearGradient><linearGradient id="p" x1="57.626" y1="57.39" x2="57.626" y2="58.254" gradientUnits="userSpaceOnUse"><stop stop-color="#F5F5F5"/><stop offset="1" stop-color="#78787A"/></linearGradient><linearGradient id="q" x1="57.627" y1="57.39" x2="57.627" y2="58.254" gradientUnits="userSpaceOnUse"><stop stop-color="#F5F5F5"/><stop offset="1" stop-color="#78787A"/></linearGradient><linearGradient id="r" x1="57.626" y1="57.39" x2="57.626" y2="58.254" gradientUnits="userSpaceOnUse"><stop stop-color="#F5F5F5"/><stop offset="1" stop-color="#78787A"/></linearGradient><clipPath id="a"><path fill="#fff" d="M50.501 50h13.757v8.254h-13.757z"/></clipPath></defs></svg>