<svg width="40" height="40" viewBox="0 0 40 40" xmlns="http://www.w3.org/2000/svg" fill="none"><g clip-path="url(#a)" stroke="#1D5352"><path d="M15.572 27.625l-.001-1.419c0-1.935-.327-3.261-.848-4.271-.517-1.003-1.208-1.655-1.838-2.251l-.006-.005c-.638-.602-1.212-1.146-1.643-1.973-.429-.821-.736-1.961-.736-3.759 0-4.991 4.232-9.073 9.5-9.073 5.267 0 9.5 4.083 9.5 9.073 0 1.798-.307 2.938-.735 3.759-.432.826-1.005 1.37-1.643 1.973l-.006.005c-.63.595-1.321 1.248-1.838 2.25-.521 1.01-.848 2.335-.848 4.271l-.001 1.419h-8.856zm10.442-14.754c0 .601.503 1.052 1.076 1.052.573 0 1.076-.45 1.076-1.052 0-1.927-.817-3.668-2.129-4.924-1.311-1.255-3.12-2.029-5.112-2.029-.573 0-1.076.45-1.076 1.052 0 .601.503 1.052 1.076 1.052 1.412 0 2.686.548 3.606 1.428.919.88 1.483 2.09 1.483 3.422zM15.5 28.75l.036-.104.035-.021h8.856l.035.021.036.104-.036.104-.035.021h-8.856l-.035-.021-.036-.104zm.072 2l-.035-.021-.036-.104.036-.105.035-.02h8.856l.035.02.036.105-.036.104-.035.021h-8.856zm-.072 1.75l.036-.104.035-.021h8.856l.035.021.036.104-.036.104-.035.021h-8.856l-.035-.02-.036-.105zM18.123 33.625h3.754c-.31.91-1.066 1.5-1.877 1.5-.81 0-1.567-.59-1.877-1.5z"/></g><defs><clipPath id="a"><path fill="#fff" d="M0 0h40v40h-40z"/></clipPath></defs></svg>