<svg width="101" height="100" viewBox="0 0 101 100" xmlns="http://www.w3.org/2000/svg" fill="none"><path d="M79.344 16.625h6.563c.985-.004 1.932.381 2.634 1.072.702.691 1.103 1.631 1.116 2.616v29.891c0 .99-.394 1.94-1.094 2.641-.7.7-1.65 1.094-2.641 1.094h-6.563v-37.313h-.016z" fill="#FFE550"/><path d="M79.344 16.625h6.563c.985-.004 1.932.381 2.634 1.072.702.691 1.103 1.631 1.116 2.616v13.688c0 .99-.394 1.94-1.094 2.641-.7.7-1.65 1.094-2.641 1.094h-6.563v-21.109h-.016z" fill="#6CC72B"/><path d="M77.391 8.391h-54.75c-3.063 0-5.547 2.483-5.547 5.547v72.109c0 3.063 2.483 5.547 5.547 5.547h54.75c3.063 0 5.547-2.484 5.547-5.547v-72.109c0-3.063-2.483-5.547-5.547-5.547z" fill="#3E3E3E"/><g clip-path="url(#a)"><path d="M73.583 78.26h2.226c.026.255.012.454-.044.619-.258.759-1.341.788-2.165.788l.187.768h2.022c.693 0 1.067 1.316.224 1.316h-1.91l.187.804h.22c.844 0 1.804.035 2.337.67.156.186.263.399.382.664h-2.062c-.579 0-1.187-.047-1.64-.397-.401-.31-.57-.82-.689-1.304l-.542-2.218c-.116-.473-.166-1.01.168-1.372.264-.286.703-.339 1.099-.339z" fill="url(#b)"/><path d="M61.84 78.188s.984 4.267 1.212 5.034c.228.767 1.275.877 1.833.124.434-.586.485-.705.486-.73v-.001.001c.017.029.108.18.506.748.457.651 1.541.664 1.816.033.275-.63 1.346-5.064 1.429-5.076-.517.072-.884.134-1.212.396-.445.356-.603.936-.744 1.479l-.516 1.984c-.299-.568-.497-.986-1.127-1.108l-.026-.002c-.625.03-.967.325-1.337 1.064l-.421-1.866c-.143-.637-.315-1.324-.842-1.729-.288-.221-.608-.302-1.057-.353z" fill="url(#c)"/><path d="M69.658 78.847c-.34.892-1.367 5.023-1.367 5.023.263-.001.478-.021.673-.08.769-.233 1.043-1.115 1.277-1.865l.007-.023c.119-.382.229-.716.252-.731.026-.016.143.368.264.793.204.715.43 1.567 1.155 1.805.207.068.441.092.734.101 0 0-1.033-4.298-1.31-5.023-.278-.725-1.345-.892-1.685 0z" fill="url(#d)"/><path d="M70.473 77.825c.465 0 .843-.366.843-.817 0-.451-.377-.817-.843-.817-.465 0-.842.366-.842.817 0 .451.377.817.842.817z" fill="url(#e)"/><path d="M65.457 85.481l-.029-.024-.218-.686.003-.027.025-.014.017.006.011.016.203.637h-.017l.192-.635.014-.019.021-.006.021.006.013.019.192.635h-.017l.203-.637.011-.016.017-.006.026.013.003.027-.219.686-.031.024h-.002l-.031-.024-.195-.641h.016l-.195.641-.013.019-.022.005z" fill="url(#f)"/><path d="M66.237 85.23v.043l.032.115.114.033h.093l.105-.019.039-.066.009-.022.022-.007.022.009.006.023-.057.108-.146.035h-.093l-.156-.05-.05-.159v-.132l.05-.16.156-.049h.093l.156.051.049.159v.058l-.029.031h-.415zm.146-.237l-.114.032-.032.117v.028h.384v-.028l-.032-.116-.114-.033h-.093z" fill="url(#g)"/><path d="M67.106 85.478l-.017-.041.283-.683.033-.024h.003l.033.024.283.683-.016.041-.039-.016-.076-.183h-.373l-.075.183-.039.016zm.139-.261h.323l-.162-.39-.162.39z" fill="url(#h)"/><path d="M67.883 85.481l-.03-.031v-.489l.03-.03.03.03v.09l.085-.089.133-.031.03.03-.03.031-.157.047-.061.133v.278l-.03.031z" fill="url(#i)"/><path d="M68.303 85.23v.043l.032.115.114.033h.094l.104-.019.039-.066.009-.022.022-.007.022.009.006.023-.058.108-.146.035h-.094l-.156-.05-.049-.159v-.132l.049-.16.156-.049h.094l.155.051.05.159v.058l-.03.031h-.415zm.146-.237l-.114.032-.032.117v.028h.384v-.028l-.032-.116-.113-.033h-.094z" fill="url(#j)"/><path d="M69.261 85.481l-.03-.031v-.689l.03-.031h.427l.03.031-.03.03h-.397v.279h.262l.03.03-.03.031h-.262v.288h.397l.03.03-.03.031h-.427z" fill="url(#k)"/><path d="M69.899 85.481l-.03-.031v-.489l.03-.03.029.03v.056c.037-.058.102-.086.196-.086h.032l.155.051.05.159v.31l-.03.031-.03-.031v-.31l-.032-.116-.113-.033h-.032l-.139.029-.057.089v.341l-.029.031z" fill="url(#l)"/><path d="M70.695 85.714l-.103-.028-.041-.088.006-.024.022-.009.021.008.01.023.023.046.061.012h.212l.067-.019.018-.07v-.166l-.074.062-.122.021h-.043l-.157-.05-.049-.159v-.132l.049-.16.157-.05h.093l.091.015.054.047v-.032l.03-.03.03.03v.603l-.035.113-.11.037h-.212zm.059-.294h.043l.142-.028.053-.087v-.194l-.036-.092-.109-.026h-.093l-.114.033-.032.116v.132l.032.115.114.033z" fill="url(#m)"/><path d="M71.273 84.825l-.039-.041v-.026l.039-.04h.025l.038.04v.026l-.038.041h-.025zm.013.656l-.03-.031v-.489l.03-.03.03.03v.489l-.03.031z" fill="url(#n)"/><path d="M71.558 85.481l-.03-.031v-.489l.03-.03.029.03v.056c.036-.058.102-.086.196-.086h.032l.155.051.05.159v.31l-.03.031-.03-.031v-.31l-.033-.116-.113-.033h-.032l-.139.029-.057.089v.341l-.029.031z" fill="url(#o)"/><path d="M72.266 85.23v.043l.032.115.114.033h.094l.104-.019.039-.066.009-.022.022-.007.022.009.006.023-.058.108-.145.035h-.094l-.156-.05-.049-.159v-.132l.049-.16.156-.049h.094l.155.051.05.159v.058l-.03.031h-.414zm.146-.237l-.114.032-.032.117v.028h.384v-.028l-.032-.116-.113-.033h-.094z" fill="url(#p)"/><path d="M72.953 85.23v.043l.031.115.114.033h.093l.105-.019.039-.066.009-.022.022-.007.022.009.006.023-.058.108-.146.035h-.093l-.156-.05-.05-.159v-.132l.05-.16.156-.049h.093l.155.051.05.159v.058l-.03.031h-.414zm.146-.237l-.114.032-.031.117v.028h.384v-.028l-.031-.116-.114-.033h-.093z" fill="url(#q)"/><path d="M73.624 85.481l-.03-.031v-.489l.03-.03.03.03v.09l.085-.089.134-.031.03.03-.03.031-.158.047-.061.133v.278l-.03.031z" fill="url(#r)"/></g><path d="M19.391 23.047h-4.594c-.916 0-1.794-.364-2.442-1.011-.648-.648-1.011-1.526-1.011-2.442 0-.916.364-1.794 1.011-2.442.648-.648 1.526-1.011 2.442-1.011h4.594c.913.004 1.787.37 2.432 1.017.644.647 1.006 1.523 1.006 2.436s-.362 1.789-1.006 2.436-1.519 1.013-2.432 1.017zm3.438 11.75c0-.913-.362-1.789-1.006-2.436s-1.519-1.013-2.432-1.017h-4.594c-.916 0-1.794.364-2.442 1.011-.648.648-1.011 1.526-1.011 2.442 0 .916.364 1.794 1.011 2.442.648.648 1.526 1.011 2.442 1.011h4.594c.913-.004 1.787-.37 2.432-1.017.644-.647 1.006-1.523 1.006-2.436zm0 15.203c0-.913-.362-1.789-1.006-2.436s-1.519-1.013-2.432-1.017h-4.594c-.916 0-1.794.364-2.442 1.011-.648.648-1.011 1.526-1.011 2.442 0 .916.364 1.794 1.011 2.442.648.648 1.526 1.011 2.442 1.011h4.594c.913-.004 1.787-.37 2.432-1.017.644-.647 1.006-1.523 1.006-2.436zm0 15.203c0-.913-.362-1.789-1.006-2.436s-1.519-1.013-2.432-1.017h-4.594c-.916 0-1.794.364-2.442 1.011-.648.648-1.011 1.526-1.011 2.442 0 .916.364 1.794 1.011 2.442.648.647 1.526 1.011 2.442 1.011h4.594c.913-.004 1.787-.37 2.432-1.017.644-.647 1.006-1.523 1.006-2.436zm0 15.203c0-.913-.362-1.789-1.006-2.436s-1.519-1.013-2.432-1.017h-4.594c-.916 0-1.794.364-2.442 1.011-.648.648-1.011 1.526-1.011 2.442 0 .916.364 1.794 1.011 2.442.648.648 1.526 1.011 2.442 1.011h4.594c.913-.004 1.787-.37 2.432-1.017.644-.647 1.006-1.523 1.006-2.436z" fill="#E7E7E6"/><path d="M66.406 31.027h-24.922c-.414 0-.812-.165-1.105-.458-.293-.293-.458-.691-.458-1.105 0-.414.165-.812.458-1.105.293-.293.691-.458 1.105-.458h25c.414 0 .812.165 1.105.458.293.293.458.69.458 1.105 0 .414-.165.812-.458 1.105-.293.293-.69.458-1.105.458h-.078zm-3.516 5.25c0-.414-.165-.812-.458-1.105-.293-.293-.691-.458-1.105-.458h-14.766c-.414 0-.812.165-1.105.458-.293.293-.458.69-.458 1.105 0 .414.165.812.458 1.105.293.293.691.458 1.105.458h14.766c.414 0 .812-.165 1.105-.458.293-.293.458-.691.458-1.105zm-36.203-27.547v75.406c0 .414.165.812.458 1.105.293.293.691.458 1.105.458.414 0 .812-.165 1.105-.458.293-.293.458-.691.458-1.105v-75.406h-3.125z" fill="#333"/><defs><linearGradient id="b" x1="74.695" y1="78.26" x2="74.695" y2="83.891" gradientUnits="userSpaceOnUse"><stop stop-color="#F5F5F5"/><stop offset="1" stop-color="#78787A"/></linearGradient><linearGradient id="c" x1="65.48" y1="78.255" x2="65.377" y2="83.884" gradientUnits="userSpaceOnUse"><stop stop-color="#F5F5F5"/><stop offset="1" stop-color="#78787A"/></linearGradient><linearGradient id="d" x1="70.472" y1="78.239" x2="70.472" y2="83.87" gradientUnits="userSpaceOnUse"><stop stop-color="#F5F5F5"/><stop offset="1" stop-color="#78787A"/></linearGradient><linearGradient id="e" x1="70.473" y1="76.191" x2="70.473" y2="77.825" gradientUnits="userSpaceOnUse"><stop stop-color="#F5F5F5"/><stop offset="1" stop-color="#78787A"/></linearGradient><linearGradient id="f" x1="69.833" y1="84.718" x2="69.833" y2="85.714" gradientUnits="userSpaceOnUse"><stop stop-color="#F5F5F5"/><stop offset="1" stop-color="#78787A"/></linearGradient><linearGradient id="g" x1="69.833" y1="84.718" x2="69.833" y2="85.714" gradientUnits="userSpaceOnUse"><stop stop-color="#F5F5F5"/><stop offset="1" stop-color="#78787A"/></linearGradient><linearGradient id="h" x1="69.833" y1="84.718" x2="69.833" y2="85.714" gradientUnits="userSpaceOnUse"><stop stop-color="#F5F5F5"/><stop offset="1" stop-color="#78787A"/></linearGradient><linearGradient id="i" x1="69.833" y1="84.718" x2="69.833" y2="85.714" gradientUnits="userSpaceOnUse"><stop stop-color="#F5F5F5"/><stop offset="1" stop-color="#78787A"/></linearGradient><linearGradient id="j" x1="69.833" y1="84.718" x2="69.833" y2="85.714" gradientUnits="userSpaceOnUse"><stop stop-color="#F5F5F5"/><stop offset="1" stop-color="#78787A"/></linearGradient><linearGradient id="k" x1="69.833" y1="84.718" x2="69.833" y2="85.714" gradientUnits="userSpaceOnUse"><stop stop-color="#F5F5F5"/><stop offset="1" stop-color="#78787A"/></linearGradient><linearGradient id="l" x1="69.833" y1="84.718" x2="69.833" y2="85.714" gradientUnits="userSpaceOnUse"><stop stop-color="#F5F5F5"/><stop offset="1" stop-color="#78787A"/></linearGradient><linearGradient id="m" x1="69.833" y1="84.718" x2="69.833" y2="85.714" gradientUnits="userSpaceOnUse"><stop stop-color="#F5F5F5"/><stop offset="1" stop-color="#78787A"/></linearGradient><linearGradient id="n" x1="69.833" y1="84.718" x2="69.833" y2="85.714" gradientUnits="userSpaceOnUse"><stop stop-color="#F5F5F5"/><stop offset="1" stop-color="#78787A"/></linearGradient><linearGradient id="o" x1="69.833" y1="84.718" x2="69.833" y2="85.714" gradientUnits="userSpaceOnUse"><stop stop-color="#F5F5F5"/><stop offset="1" stop-color="#78787A"/></linearGradient><linearGradient id="p" x1="69.833" y1="84.718" x2="69.833" y2="85.714" gradientUnits="userSpaceOnUse"><stop stop-color="#F5F5F5"/><stop offset="1" stop-color="#78787A"/></linearGradient><linearGradient id="q" x1="69.833" y1="84.718" x2="69.833" y2="85.714" gradientUnits="userSpaceOnUse"><stop stop-color="#F5F5F5"/><stop offset="1" stop-color="#78787A"/></linearGradient><linearGradient id="r" x1="69.833" y1="84.718" x2="69.833" y2="85.714" gradientUnits="userSpaceOnUse"><stop stop-color="#F5F5F5"/><stop offset="1" stop-color="#78787A"/></linearGradient><clipPath id="a"><path fill="#fff" d="M61.611 76.191h15.873v9.524h-15.873z"/></clipPath></defs></svg>