<svg width="26" height="23" viewBox="0 0 26 23" xmlns="http://www.w3.org/2000/svg" fill="none"><path d="M16.872 10.094c-.418.56-.21.732-.254 1.271l-.107.448c-.073.901-.96 1.271-1.482 2.003 4.845.355 7.872-1.435 10.044-3.404.302-.274.411-.675.327-1.042l-3.984-3.916-4.544 4.641z" fill="#78787A"/><path d="M16.367 9.141l-1.93-1.897 4.446-4.371 1.93 1.897-4.446 4.371z" fill="#59595B"/><path d="M14.897 7.821l-12.93 12.492c-.09.088-.141.206-.145.33l.699.688c.093.092.22.143.351.143.132 0 .258-.051.351-.143l12.819-12.383-1.146-1.127zm5.675-5.863c-.13-.002-.348.045-.447.143l-.97.954 1.331 1.308.872-.857.108-.158.038-.187-.038-.187-.021-.158-.872-.857z" fill="#B3B6C3"/><path d="M25.134 8.975l-.619-.609-.135.214c-2.133 1.934-4.685 3.51-8.207 3.697-.255.542-.588 1.065-1.019 1.486h-.082c4.724.505 7.476-.89 10.034-3.209.464-.421.474-1.139.028-1.579z" fill="#B3B3B3"/><path fill-rule="evenodd" clip-rule="evenodd" d="M1.171 18.924c-.316.307-.32.807-.008 1.118l.925.922c.312.311.821.314 1.137.007l2.061-1.999-1.071-1.012c-.084-.08-.087-.211-.006-.294.081-.083.215-.085.299-.006l1.079 1.02 4.904-4.757-1.282-1.205c-.084-.079-.087-.211-.007-.294.081-.083.215-.086.299-.007l1.29 1.213 5.102-4.949c.083-.081.217-.08.299.002.082.082.081.213-.002.294l-12.67 12.289c-.483.468-1.26.463-1.736-.011l-.925-.922c-.476-.474-.471-1.238.012-1.706l1.266-1.228c.083-.081.217-.08.299.002.082.082.081.213-.002.294l-1.266 1.228zm1.686-1.928c-.082-.082-.081-.213.002-.294l.677-.657c.083-.081.217-.08.299.002.082.082.081.213-.002.294l-.677.657c-.083.081-.217.08-.299-.002zm1.354-1.314c-.082-.082-.081-.213.002-.294l9.269-8.991c.083-.081.217-.08.299.002.082.082.081.213-.002.294l-2.643 2.564 1.207 1.21c.082.082.081.214-.003.294-.083.081-.217.079-.299-.003l-1.206-1.209-4.768 4.625 1.018.902c.087.077.094.208.016.294-.078.085-.212.092-.299.015l-1.037-.918-1.255 1.217c-.083.081-.217.08-.299-.002zm13.869-13.452c-.082-.082-.081-.213.002-.294l.607-.588c.483-.468 1.26-.463 1.736.011l.925.922c.477.475.471 1.236.024 1.723l-.009.01c-.204.223-.409.445-.644.673-.083.081-.217.08-.299-.002-.082-.082-.081-.213.002-.294.226-.219.422-.433.628-.657l.008-.008c.305-.332.301-.842-.011-1.152l-.925-.922c-.312-.311-.821-.314-1.137-.007l-.607.588c-.083.081-.217.08-.299-.002zM17.172 2.21l-3.41 3.352c-.231.227-.231.596 0 .824l2 1.966c.231.227.607.227.838 0l3.649-3.587c.099-.097.099-.256 0-.353l-2.24-2.201c-.231-.227-.607-.227-.838 0zm-3.709 3.058c-.397.39-.397 1.022 0 1.412l2 1.966c.397.39 1.04.39 1.437 0l3.649-3.587c.264-.26.264-.681 0-.941l-2.24-2.201c-.397-.39-1.04-.39-1.437 0l-3.41 3.352zM15.975 12.136l-.13.224-.112.176c-.217.328-.485.671-.805 1.045-.137.16-.03.408.182.415 5.082.182 7.531-.671 10.221-3.616.35-.383.32-.967-.05-1.331l-4.674-4.594-4.08 4.011c-.284.279-.364.695-.259 1.077.27.973.172 1.748-.293 2.594zm4.632-7.093l-3.781 3.717c-.159.156-.222.41-.15.673.225.813.221 1.528-.035 2.252l-.155.377c1.238-.21 2.788-.652 3.684-.939.111-.036.231.024.267.133.036.109-.024.227-.136.262-.972.312-2.742.816-4.062 1.004-.208.347-.467.7-.772 1.071 2.344.063 4.067-.114 5.507-.622 1.499-.529 2.728-1.429 4.041-2.867.192-.21.184-.544-.035-.759l-4.375-4.3zm.246 6.052c-.054-.102-.013-.228.091-.28.368-.187.727-.396 1.079-.631.097-.065.228-.04.294.055.066.095.04.224-.056.289-.365.244-.738.462-1.122.656-.104.053-.232.013-.285-.089z" fill="#59595B"/><path d="M17.624 4.899l.264-.263.075.083c.068.126-.057.258-.155.355l.122.075.24-.239c.082-.082.297.04.197.139l-.227.226.127.079.026-.026c.1-.1.219-.209.364-.192l.132.038-.245.244c-.069.068-.147.134-.246.144-.088.008-.174-.036-.251-.083l-.352-.215c-.075-.046-.151-.108-.158-.193-.006-.067.039-.126.086-.173z" fill="url(#a)"/><path d="M16.221 6.279s.671.421.797.49c.127.07.265-.04.234-.201l-.037-.149.157.034c.139.028.269-.099.22-.21l-.489-.808c-.052.07-.087.121-.092.193-.007.097.05.189.104.274l.196.311c-.109-.036-.187-.065-.277-.006l-.003.003c-.07.078-.073.155-.021.292l-.292-.185c-.1-.063-.209-.129-.324-.118l-.171.081z" fill="url(#b)"/><path d="M17.233 5.437c.075.152.489.794.489.794l.07-.09c.061-.12-.021-.264-.09-.386l-.002-.004-.065-.122.134.069c.117.066.254.146.371.091l.1-.074s-.68-.419-.807-.477c-.127-.058-.275.047-.2.199z" fill="url(#c)"/><path d="M17.199 5.212c.055-.055.053-.146-.006-.202-.059-.057-.151-.058-.206-.003-.055.055-.052.146.006.202.059.057.151.058.206.003z" fill="url(#d)"/><path d="M17.596 6.769h-.006l-.115-.061-.003-.004.001-.005.003-.001.003.001.107.056-.002.002-.06-.103-.001-.004.002-.003.003-.002.004.001.105.057-.002.002-.059-.104-.001-.003.001-.003.005-.001.004.003.063.112-.001.007-.007.001-.106-.058.002-.002.06.104.001.004-.002.003z" fill="url(#e)"/><path d="M17.655 6.645l.006.005.019.011.018-.009.011-.011.01-.015-.004-.013-.002-.004.002-.004.004-.001.004.002.007.02-.013.022-.011.011-.025.012-.027-.014-.017-.017-.015-.026.012-.025.011-.011.025-.012.027.014.008.007.001.007-.049.049zm-.014-.047l-.009.017.011.018.004.004.046-.045-.004-.004-.019-.011-.018.009-.011.011z" fill="url(#f)"/><path d="M17.791 6.574l-.007-.003-.055-.119.001-.007.007-.001.122.053.003.007-.007.003-.033-.014-.044.044.015.032-.003.007zm-.017-.049l.038-.038-.07-.03.031.068z" fill="url(#g)"/><path d="M17.884 6.482h-.008l-.064-.062v-.007h.007l.012.011-.002-.021.012-.02h.008v.007l-.012.024.01.024.036.035.001.007z" fill="url(#h)"/><path d="M17.901 6.401l.006.005.019.011.018-.009.011-.011.01-.015-.004-.013-.002-.004.002-.004.004-.002.004.002.007.02-.013.022-.011.011-.025.012-.027-.014-.017-.017-.015-.026.012-.025.011-.011.025-.012.027.014.008.007.001.007-.049.049zm-.014-.047l-.009.017.011.018.004.004.046-.045-.004-.004-.019-.011-.018.009-.011.011z" fill="url(#i)"/><path d="M18.046 6.319h-.008l-.089-.087v-.007l.051-.05h.008v.007l-.047.047.036.035.031-.031h.008v.007l-.031.031.037.036.047-.047h.007l.001.007-.051.05z" fill="url(#j)"/><path d="M18.122 6.244h-.008l-.064-.062v-.007h.007l.007.007.012-.034.004-.004.025-.012.026.014.04.039.001.007h-.008l-.04-.039-.019-.011-.018.009-.004.004-.013.02.005.018.044.043.001.007z" fill="url(#k)"/><path d="M18.248 6.179l-.016.009-.016-.006-.002-.004.002-.004.003-.002.004.002.009.003.009-.006.025-.025.006-.01-.007-.011-.022-.021-.001.017-.012.017-.005.005-.025.012-.026-.014-.017-.017-.015-.026.012-.025.011-.011.013-.009h.013l-.004-.004v-.007h.007l.078.076.01.018-.008.018-.025.025zm-.031-.044l.005-.005.013-.02-.005-.017-.025-.024-.016-.007-.016.01-.011.011-.009.018.011.018.017.017.019.011.018-.009z" fill="url(#l)"/><path d="M18.2 5.999l-.01-.001-.003-.003-.001-.01.003-.003.01.001.003.003.001.01-.003.003zm.087.081h-.008l-.063-.062v-.007h.008l.063.062v.007z" fill="url(#m)"/><path d="M18.319 6.048h-.008l-.063-.062v-.007h.007l.007.007.012-.034.004-.004.025-.012.027.014.04.039v.007h-.008l-.04-.039-.019-.011-.017.009-.004.004-.013.02.005.018.044.043v.007z" fill="url(#n)"/><path d="M18.372 5.932l.006.005.019.011.018-.009.011-.011.01-.015-.004-.013-.002-.004.002-.004.004-.002.004.002.007.02-.013.022-.011.011-.025.012-.026-.014-.017-.017-.015-.026.012-.025.011-.011.025-.012.027.014.008.007v.007l-.049.049zm-.014-.047l-.009.017.011.018.004.004.046-.045-.004-.004-.019-.011-.018.009-.011.011z" fill="url(#o)"/><path d="M18.452 5.851l.005.005.019.011.018-.009.011-.011.01-.015-.004-.013-.002-.004.002-.004.004-.002.004.002.007.02-.013.022-.011.011-.025.012-.026-.014-.017-.017-.015-.026.012-.025.011-.011.025-.012.027.014.008.007v.007l-.049.049zm-.014-.047l-.009.018.011.018.004.004.046-.045-.004-.004-.019-.011-.018.009-.011.011z" fill="url(#p)"/><path d="M18.565 5.803h-.008l-.063-.062v-.007h.008l.012.011-.001-.021.012-.02h.008v.007l-.012.025.01.024.036.035.001.007z" fill="url(#q)"/><defs><linearGradient id="a" x1="17.756" y1="4.768" x2="18.474" y2="5.489" gradientUnits="userSpaceOnUse"><stop stop-color="#F5F5F5"/><stop offset="1" stop-color="#78787A"/></linearGradient><linearGradient id="b" x1="16.662" y1="5.857" x2="17.365" y2="6.592" gradientUnits="userSpaceOnUse"><stop stop-color="#F5F5F5"/><stop offset="1" stop-color="#78787A"/></linearGradient><linearGradient id="c" x1="17.251" y1="5.265" x2="17.969" y2="5.986" gradientUnits="userSpaceOnUse"><stop stop-color="#F5F5F5"/><stop offset="1" stop-color="#78787A"/></linearGradient><linearGradient id="d" x1="16.987" y1="5.006" x2="17.195" y2="5.216" gradientUnits="userSpaceOnUse"><stop stop-color="#F5F5F5"/><stop offset="1" stop-color="#78787A"/></linearGradient><linearGradient id="e" x1="18.016" y1="6.155" x2="18.143" y2="6.283" gradientUnits="userSpaceOnUse"><stop stop-color="#F5F5F5"/><stop offset="1" stop-color="#78787A"/></linearGradient><linearGradient id="f" x1="18.016" y1="6.155" x2="18.143" y2="6.283" gradientUnits="userSpaceOnUse"><stop stop-color="#F5F5F5"/><stop offset="1" stop-color="#78787A"/></linearGradient><linearGradient id="g" x1="18.016" y1="6.155" x2="18.143" y2="6.283" gradientUnits="userSpaceOnUse"><stop stop-color="#F5F5F5"/><stop offset="1" stop-color="#78787A"/></linearGradient><linearGradient id="h" x1="18.016" y1="6.155" x2="18.143" y2="6.283" gradientUnits="userSpaceOnUse"><stop stop-color="#F5F5F5"/><stop offset="1" stop-color="#78787A"/></linearGradient><linearGradient id="i" x1="18.016" y1="6.155" x2="18.143" y2="6.283" gradientUnits="userSpaceOnUse"><stop stop-color="#F5F5F5"/><stop offset="1" stop-color="#78787A"/></linearGradient><linearGradient id="j" x1="18.015" y1="6.155" x2="18.142" y2="6.283" gradientUnits="userSpaceOnUse"><stop stop-color="#F5F5F5"/><stop offset="1" stop-color="#78787A"/></linearGradient><linearGradient id="k" x1="18.015" y1="6.155" x2="18.142" y2="6.283" gradientUnits="userSpaceOnUse"><stop stop-color="#F5F5F5"/><stop offset="1" stop-color="#78787A"/></linearGradient><linearGradient id="l" x1="18.016" y1="6.155" x2="18.143" y2="6.283" gradientUnits="userSpaceOnUse"><stop stop-color="#F5F5F5"/><stop offset="1" stop-color="#78787A"/></linearGradient><linearGradient id="m" x1="18.015" y1="6.155" x2="18.143" y2="6.283" gradientUnits="userSpaceOnUse"><stop stop-color="#F5F5F5"/><stop offset="1" stop-color="#78787A"/></linearGradient><linearGradient id="n" x1="18.015" y1="6.155" x2="18.142" y2="6.283" gradientUnits="userSpaceOnUse"><stop stop-color="#F5F5F5"/><stop offset="1" stop-color="#78787A"/></linearGradient><linearGradient id="o" x1="18.017" y1="6.155" x2="18.144" y2="6.283" gradientUnits="userSpaceOnUse"><stop stop-color="#F5F5F5"/><stop offset="1" stop-color="#78787A"/></linearGradient><linearGradient id="p" x1="18.015" y1="6.155" x2="18.142" y2="6.283" gradientUnits="userSpaceOnUse"><stop stop-color="#F5F5F5"/><stop offset="1" stop-color="#78787A"/></linearGradient><linearGradient id="q" x1="18.016" y1="6.155" x2="18.143" y2="6.283" gradientUnits="userSpaceOnUse"><stop stop-color="#F5F5F5"/><stop offset="1" stop-color="#78787A"/></linearGradient></defs></svg>