<svg width="70" height="50" viewBox="0 0 70 50" xmlns="http://www.w3.org/2000/svg" fill="none"><path d="M51.791 50l-3.918-4.664c7.649-2.052 10.634-7.276 10.634-7.276-9.702 9.142-36.194 9.515-46.455 0 0 0 2.612 4.851 10.448 7.276l-4.291 4.664c-13.06-.187-18.097-8.955-18.097-8.955 0-19.403 8.582-34.888 8.582-34.888 8.769-6.157 16.791-6.157 16.791-6.157l.56.746c-10.821 2.985-15.485 7.836-15.485 7.836 12.687-8.582 38.806-7.836 49.067 0 .187-.187-6.157-5.224-16.045-7.836l.933-.746s8.022 0 16.791 6.157c0 0 8.582 15.485 8.582 34.888 0 0-5.037 8.769-18.097 8.955z" fill="#50D9D7"/><path d="M23.806 35.448c3.4 0 6.157-2.924 6.157-6.53 0-3.606-2.756-6.53-6.157-6.53-3.4 0-6.157 2.923-6.157 6.53 0 3.606 2.756 6.53 6.157 6.53zM45.448 35.448c3.4 0 6.157-2.924 6.157-6.53 0-3.606-2.756-6.53-6.157-6.53-3.4 0-6.157 2.923-6.157 6.53 0 3.606 2.757 6.53 6.157 6.53z" fill="#272727"/></svg>