<svg width="36" height="35" viewBox="0 0 36 35" xmlns="http://www.w3.org/2000/svg" fill="none"><path d="M25.292 5.104c0-.193-.077-.379-.214-.516s-.322-.214-.516-.214h-3.646c-1.836-.091-3.633.547-5 1.777-1.366 1.23-2.19 2.95-2.292 4.785v3.938h-3.646c-.193 0-.379.077-.516.213-.137.137-.214.322-.214.516v3.792c0 .193.077.379.214.516s.322.214.516.214h3.646v9.771c0 .193.077.379.214.516s.322.214.516.214h4.375c.193 0 .379-.077.516-.214s.213-.322.213-.516v-9.771h3.821c.162.002.32-.049.45-.147.13-.098.223-.236.265-.392l1.05-3.792c.029-.108.033-.221.011-.33-.022-.109-.068-.213-.136-.301-.068-.089-.155-.161-.255-.211-.1-.05-.21-.076-.321-.077h-4.886v-3.938c.036-.361.206-.695.476-.938s.62-.376.983-.374h3.646c.193 0 .379-.077.516-.214s.214-.322.214-.516v-3.792z" fill="#50D9D7"/></svg>