<svg width="112" height="112" viewBox="0 0 112 112" xmlns="http://www.w3.org/2000/svg" fill="none"><circle cx="56" cy="56" r="56" fill="#EDC967" filter="url(#a)"/><circle cx="56" cy="56" r="53.5" stroke="#EDC967" stroke-width="5"/><path d="M66.146 53.159c-1.08 1.448-.543 1.892-.656 3.284l-.277 1.159c-.189 2.329-2.482 3.285-3.829 5.176 12.521.918 20.346-3.71 25.958-8.798.782-.709 1.063-1.744.846-2.694l-10.296-10.121-11.745 11.994z" fill="#EDBB3C"/><path d="M64.843 50.695l-4.987-4.902 11.491-11.296 4.987 4.902-11.491 11.296z" fill="#98792A"/><path d="M61.048 47.284l-33.417 32.286c-.231.227-.365.532-.374.854l1.807 1.777c.241.237.568.37.908.37.341 0 .667-.133.908-.37l33.131-32.004-2.963-2.912zm14.667-15.152c-.337-.006-.898.116-1.155.369l-2.508 2.465 3.44 3.381 2.253-2.215c.119-.117.214-.256.279-.41.065-.153.098-.317.098-.483 0-.166-.033-.33-.098-.483-.065-.153.064-.292-.055-.41l-2.253-2.215z" fill="#EDBB3C"/><path d="M87.5 50.265l-1.601-1.573-.348.553c-5.512 4.997-12.108 9.07-21.212 9.554-.66 1.4-1.52 2.752-2.633 3.84h-.211c12.209 1.304 19.323-2.302 25.932-8.294 1.2-1.088 1.226-2.945.072-4.08z" fill="#F7EF8A"/><path fill-rule="evenodd" clip-rule="evenodd" d="M25.571 75.981c-.817.792-.826 2.086-.02 2.889l2.391 2.382c.806.803 2.122.812 2.939.019l5.326-5.166-2.767-2.616c-.218-.206-.225-.546-.015-.76.209-.214.556-.221.773-.015l2.788 2.635 12.675-12.294-3.312-3.113c-.218-.205-.226-.546-.017-.76.209-.215.555-.222.773-.017l3.335 3.135 13.186-12.79c.215-.209.561-.206.774.005.212.211.21.552-.005.76l-32.744 31.761c-1.247 1.21-3.256 1.196-4.486-.029l-2.392-2.382c-1.23-1.226-1.217-3.2.03-4.41l3.273-3.174c.215-.209.561-.206.773.005.212.211.21.552-.005.76l-3.273 3.174zm4.359-4.983c-.212-.211-.21-.552.005-.76l1.75-1.698c.215-.209.561-.206.773.005.212.211.21.552-.005.76l-1.75 1.698c-.215.209-.561.206-.773-.005zm3.5-3.395c-.212-.211-.21-.552.005-.76l23.956-23.236c.215-.209.561-.206.774.005.212.211.21.552-.005.76l-6.832 6.626 3.119 3.127c.212.212.208.552-.008.76-.216.208-.562.205-.773-.007l-3.116-3.124-12.323 11.953 2.632 2.331c.224.199.242.539.04.759-.202.221-.548.238-.772.04l-2.68-2.373-3.243 3.145c-.215.209-.561.206-.773-.005zm35.844-34.767c-.212-.211-.21-.552.005-.76l1.568-1.521c1.247-1.21 3.256-1.197 4.486.029l2.391 2.382c1.232 1.227 1.216 3.194.061 4.453l-.024.026c-.528.576-1.056 1.151-1.663 1.74-.215.209-.561.206-.773-.005-.212-.211-.21-.552.005-.76.583-.566 1.091-1.119 1.623-1.699l.019-.021c.787-.858.777-2.176-.028-2.978l-2.391-2.382c-.806-.803-2.122-.812-2.939-.019l-1.568 1.521c-.215.209-.561.206-.773-.005zM66.923 32.782l-8.812 8.663c-.598.588-.598 1.541 0 2.129l5.17 5.081c.598.588 1.568.588 2.166 0l9.431-9.271c.256-.252.256-.66 0-.912l-5.788-5.69c-.598-.588-1.568-.588-2.166 0zm-9.586 7.903c-1.025 1.008-1.025 2.642 0 3.65l5.17 5.081c1.025 1.008 2.688 1.008 3.713 0l9.431-9.271c.684-.672.684-1.761 0-2.433l-5.788-5.69c-1.025-1.008-2.688-1.008-3.713 0l-8.813 8.663zM63.83 58.437l-.336.578-.291.456c-.56.847-1.253 1.735-2.079 2.701-.354.414-.078 1.054.471 1.074 13.135.471 19.463-1.735 26.415-9.346.904-.99.827-2.5-.131-3.441l-12.08-11.874-10.545 10.366c-.734.722-.942 1.797-.669 2.782.697 2.515.444 4.518-.756 6.703zm11.97-18.331l-9.772 9.606c-.411.404-.575 1.06-.387 1.74.582 2.102.571 3.95-.089 5.819-.115.326-.249.65-.401.973 3.199-.542 7.207-1.685 9.522-2.428.287-.092.596.062.69.344.094.282-.063.586-.35.678-2.512.805-7.088 2.108-10.499 2.594-.538.897-1.208 1.808-1.995 2.767 6.059.164 10.511-.294 14.233-1.607 3.874-1.367 7.05-3.694 10.445-7.41.497-.544.477-1.405-.09-1.962l-11.306-11.113zm.636 15.642c-.139-.264-.033-.588.235-.724.953-.483 1.879-1.024 2.788-1.63.25-.167.59-.103.76.143.17.246.105.58-.145.747-.945.63-1.909 1.194-2.901 1.696-.268.136-.598.033-.737-.231z" fill="#212121"/><mask id="d"><path d="M68.091 39.733l.683-.68c.094.075.156.144.194.215.175.326-.147.666-.4.918l.315.193.62-.618c.213-.212.769.102.51.36l-.586.584.327.204.067-.067c.259-.258.565-.54.942-.496.11.013.214.049.34.099l-.633.63c-.178.177-.38.347-.636.372-.227.022-.45-.093-.649-.214l-.91-.556c-.194-.118-.389-.278-.408-.498-.015-.174.102-.325.223-.446z"/></mask><path d="M68.091 39.733l.683-.68c.094.075.156.144.194.215.175.326-.147.666-.4.918l.315.193.62-.618c.213-.212.769.102.51.36l-.586.584.327.204.067-.067c.259-.258.565-.54.942-.496.11.013.214.049.34.099l-.633.63c-.178.177-.38.347-.636.372-.227.022-.45-.093-.649-.214l-.91-.556c-.194-.118-.389-.278-.408-.498-.015-.174.102-.325.223-.446z" fill="url(#b)"/><path d="M68.774 39.053l3.185-3.844-3.554-2.845-3.22 3.208 3.589 3.481zm.194.215l-4.462 2.311.004.008 4.457-2.319zm-.4.918l-3.589-3.481-4.433 4.415 5.358 3.275 2.664-4.209zm.315.193l-2.664 4.209 3.422 2.092 2.831-2.82-3.589-3.481zm.545.325l-3.589-3.481-4.388 4.371 5.272 3.294 2.706-4.184zm.327.204l-2.706 4.184 3.435 2.146 2.859-2.849-3.589-3.481zm1.009-.563l.594-4.923h-.001l-.593 4.923zm.34.099l3.589 3.481 5.321-5.301-7.027-2.779-1.883 4.599zm-1.269 1.003l.491 4.933h.004l-.494-4.933zm-.649-.214l-2.661 4.211.003.002 2.659-4.212zm-.91-.556l2.662-4.211-.002-.001-2.659 4.212zm-.408-.498l5.025-.42v-.001l-5.025.421zm3.812 3.035l.683-.68-7.178-6.963-.683.68 7.178 6.963zm-6.091-.318c-.202-.162-.69-.586-1.083-1.318l8.923-4.622c-.468-.874-1.081-1.436-1.471-1.748l-6.37 7.687zm-1.078-1.309c-.461-.856-.605-1.786-.506-2.636.09-.775.362-1.336.532-1.631.287-.5.616-.788.442-.615l7.178 6.963c.079-.079.696-.663 1.163-1.478.522-.91 1.322-2.98.105-5.241l-8.914 4.639zm1.394 2.808l.315.193 5.328-8.419-.315-.193-5.328 8.419zm6.568-.536l.62-.618-7.178-6.963-.62.618 7.178 6.963zm.62-.618c-1.236 1.231-2.73 1.443-3.626 1.401-.887-.042-1.652-.325-2.257-.708-.543-.343-1.52-1.131-1.964-2.577-.566-1.844.079-3.623 1.18-4.719l7.178 6.963c1.23-1.225 1.902-3.14 1.298-5.108-.482-1.571-1.563-2.472-2.239-2.899-.739-.466-1.666-.805-2.709-.854-1.052-.05-2.695.202-4.038 1.539l7.178 6.963zm-6.668-6.603l-.586.584 7.178 6.963.586-.584-7.178-6.963zm.297 8.249l.327.204 5.411-8.367-.327-.205-5.411 8.367zm6.622-.498l.067-.067-7.178-6.963-.067.067 7.178 6.963zm.067-.067c.136-.136-.08.105-.462.343-.451.281-1.443.757-2.779.602l1.186-9.845c-1.712-.199-3.046.396-3.809.872-.694.433-1.192.943-1.315 1.066l7.178 6.963zm-3.241.945c-.323-.038-.579-.104-.74-.154l-.209-.071 3.767-9.197c-.154-.061-.798-.326-1.63-.423l-1.188 9.845zm-2.655-8.305l-.633.63 7.178 6.963.633-.63-7.178-6.963zm-.633.63l.13-.119c.079-.068.213-.177.398-.296.375-.242 1.033-.577 1.93-.664l.989 9.866c2.216-.215 3.542-1.635 3.731-1.824l-7.178-6.963zm2.462-1.08c.905-.087 1.603.116 1.961.251.186.07.325.139.406.181l.134.075-5.318 8.425c.148.09 1.699 1.137 3.798.935l-.981-9.867zm2.504.509l-.91-.556-5.323 8.422.91.556 5.323-8.422zm-.913-.557c.074.045.431.262.814.679.409.445 1.032 1.326 1.143 2.615l-10.049.841c.13 1.509.86 2.58 1.42 3.189.534.581 1.086.937 1.354 1.101l5.319-8.425zm1.957 3.293c.101 1.172-.269 2.082-.564 2.599-.276.485-.572.782-.648.858l-7.178-6.963c-.162.161-1.883 1.761-1.659 4.349l10.049-.843z" fill="url(#c)" mask="url(#d)"/><path d="M64.465 43.298s1.733 1.088 2.06 1.267c.327.18.685-.104.604-.52-.063-.323-.088-.378-.096-.386l.406.089c.359.072.695-.255.568-.544-.127-.289-1.285-2.059-1.264-2.088-.135.181-.226.314-.239.499-.017.252.129.489.268.708l.507.803c-.282-.093-.483-.169-.717-.016l-.009.007c-.182.201-.188.401-.053.755l-.755-.478c-.258-.163-.541-.335-.838-.305-.162.016-.288.087-.443.208z" fill="url(#e)"/><path d="M67.084 41.123c.195.394 1.265 2.052 1.265 2.052.08-.081.14-.153.18-.232.158-.311-.054-.681-.234-.997l-.005-.009-.168-.315c.003-.013.167.076.347.177.302.17.657.378.96.234.086-.041.166-.105.259-.191 0 0-1.758-1.082-2.087-1.233-.328-.151-.712.121-.517.515z" fill="url(#f)"/><path d="M66.992 40.542c.143-.142.136-.377-.016-.523-.151-.147-.39-.151-.532-.008-.143.142-.136.377.016.523.151.147.39.151.532.008z" fill="url(#g)"/><path d="M68.02 44.564l-.017.001-.297-.156-.008-.01.003-.012.007-.003.009.002.276.145-.005.005-.154-.265-.002-.01.005-.008.008-.005.01.002.272.148-.005.005-.151-.269-.002-.009.003-.007.013-.004.01.008.163.29-.002.017-.001.001-.018.002-.275-.149.005-.005.155.268.003.01-.005.008z" fill="url(#h)"/><path d="M68.175 44.245l.014.014.048.028.046-.024.029-.028.026-.038-.01-.033-.005-.01.004-.009.01-.004.01.006.019.053-.033.056-.029.028-.065.031-.069-.037-.044-.043-.038-.067.031-.064.029-.028.065-.031.068.037.02.019.001.019-.127.127zm-.035-.122l-.024.045.029.048.009.009.118-.117-.009-.009-.049-.028-.046.024-.029.028z" fill="url(#i)"/><path d="M68.524 44.06l-.019-.008-.142-.309.002-.018.001-.001.018-.002.316.136.009.018-.017.007-.085-.036-.114.114.038.083-.007.017zm-.045-.127l.099-.099-.18-.078.081.176z" fill="url(#j)"/><path d="M68.764 43.824l-.02-.001-.164-.159-.001-.019.019.001.03.029-.004-.055.03-.051.019.001.001.019-.032.063.026.062.093.09.001.019z" fill="url(#k)"/><path d="M68.81 43.614l.014.014.049.028.046-.024.029-.029.026-.038-.01-.034-.005-.01.004-.009.01-.004.01.006.019.053-.033.056-.029.029-.065.031-.068-.037-.044-.043-.039-.067.031-.064.029-.029.065-.031.069.037.019.019.001.019-.127.127zm-.035-.122l-.024.045.029.048.009.009.118-.117-.009-.009-.049-.028-.046.024-.029.029z" fill="url(#l)"/><path d="M69.187 43.403l-.02-.001-.231-.224-.001-.019.131-.13.02.001.001.019-.122.121.094.091.08-.08.019.001.001.019-.08.08.097.094.122-.121.019.001.001.019-.131.13z" fill="url(#m)"/><path d="M69.383 43.208l-.02-.001-.164-.159-.001-.019.019.001.019.018.031-.088.01-.01.065-.031.069.036.104.101.001.019-.02-.001-.104-.101-.049-.028-.046.024-.01.01-.033.052.012.046.114.111.001.019z" fill="url(#n)"/><path d="M69.706 43.04l-.041.022-.042-.016-.006-.01.004-.01.009-.004.011.004.023.008.023-.015.065-.065.014-.027-.018-.028-.056-.054-.002.043-.03.044-.013.013-.065.032-.068-.037-.044-.043-.039-.067.031-.064.029-.028.033-.023.032-.001-.011-.01-.001-.019.019.001.202.196.027.047-.022.046-.065.065zm-.08-.114l.013-.013.034-.053-.013-.044-.065-.063-.042-.019-.042.025-.029.029-.024.046.029.047.044.043.048.028.046-.024z" fill="url(#o)"/><path d="M69.583 42.575l-.026-.001-.009-.008-.001-.025.008-.008.025.001.009.008.002.025-.008.008zm.224.21l-.019-.001-.164-.159-.001-.019.019.001.164.159.001.019z" fill="url(#p)"/><path d="M69.891 42.701l-.02-.001-.164-.159-.001-.019.019.001.019.018.031-.088.01-.01.065-.031.069.037.104.101.001.019-.02-.001-.104-.101-.049-.028-.045.024-.01.01-.033.052.012.046.114.111.001.019z" fill="url(#q)"/><path d="M70.025 42.403l.014.014.049.028.046-.024.029-.029.026-.038-.01-.033-.005-.01.004-.009.01-.004.01.006.019.053-.033.056-.029.029-.065.031-.068-.037-.044-.043-.039-.067.031-.064.029-.029.065-.031.069.037.019.019.001.019-.127.127zm-.035-.122l-.024.045.029.048.009.009.118-.117-.009-.009-.049-.028-.046.024-.029.029z" fill="url(#r)"/><path d="M70.236 42.193l.014.014.048.028.046-.024.028-.028.026-.038-.01-.033-.005-.01.004-.009.01-.004.01.006.019.053-.033.056-.028.028-.065.031-.069-.036-.044-.043-.038-.067.031-.064.028-.029.065-.031.069.037.02.019.001.019-.127.127zm-.035-.122l-.024.045.029.047.009.009.118-.117-.009-.009-.049-.028-.046.024-.028.028z" fill="url(#s)"/><path d="M70.526 42.069l-.02-.001-.164-.159-.001-.019.019.001.03.029-.004-.055.031-.051.019.001.001.019-.032.063.026.062.093.09.001.019z" fill="url(#t)"/><defs><filter id="a" x="0" y="0" width="112" height="112" filterUnits="userSpaceOnUse" color-interpolation-filters="sRGB"><feFlood flood-opacity="0" result="BackgroundImageFix"/><feBlend in="SourceGraphic" in2="BackgroundImageFix" result="shape"/><feColorMatrix in="SourceAlpha" values="0 0 0 0 0 0 0 0 0 0 0 0 0 0 0 0 0 0 127 0" result="hardAlpha"/><feMorphology radius="6" in="SourceAlpha" result="effect1_innerShadow_2711_31577"/><feOffset/><feGaussianBlur stdDeviation="2"/><feComposite in2="hardAlpha" operator="arithmetic" k2="-1" k3="1"/><feColorMatrix values="0 0 0 0 0.52549 0 0 0 0 0.439216 0 0 0 0 0.0156863 0 0 0 1 0"/><feBlend in2="shape" result="effect1_innerShadow_2711_31577"/></filter><linearGradient id="b" x1="68.446" y1="39.379" x2="70.302" y2="41.243" gradientUnits="userSpaceOnUse"><stop stop-color="#F7EF8A"/><stop offset=".375" stop-color="#EDC967"/><stop offset=".786" stop-color="#D2AC47"/><stop offset="1" stop-color="#AE8625"/></linearGradient><linearGradient id="c" x1="68.446" y1="39.379" x2="70.302" y2="41.243" gradientUnits="userSpaceOnUse"><stop stop-color="#F7EF8A"/><stop offset=".359" stop-color="#EDC967"/><stop offset=".74" stop-color="#D2AC47"/><stop offset="1" stop-color="#AE8625"/></linearGradient><linearGradient id="e" x1="65.582" y1="42.185" x2="67.453" y2="44.064" gradientUnits="userSpaceOnUse"><stop stop-color="#F7EF8A"/><stop offset=".375" stop-color="#EDC967"/><stop offset=".786" stop-color="#D2AC47"/><stop offset="1" stop-color="#AE8625"/></linearGradient><linearGradient id="f" x1="67.13" y1="40.677" x2="68.986" y2="42.541" gradientUnits="userSpaceOnUse"><stop stop-color="#F7EF8A"/><stop offset=".375" stop-color="#EDC967"/><stop offset=".786" stop-color="#D2AC47"/><stop offset="1" stop-color="#AE8625"/></linearGradient><linearGradient id="g" x1="66.547" y1="40.364" x2="66.91" y2="40.37" gradientUnits="userSpaceOnUse"><stop stop-color="#F7EF8A"/><stop offset=".375" stop-color="#EDC967"/><stop offset=".786" stop-color="#D2AC47"/><stop offset="1" stop-color="#AE8625"/></linearGradient><linearGradient id="h" x1="67.836" y1="44.252" x2="68.084" y2="44.501" gradientUnits="userSpaceOnUse"><stop stop-color="#F7EF8A"/><stop offset=".375" stop-color="#EDC967"/><stop offset=".786" stop-color="#D2AC47"/><stop offset="1" stop-color="#AE8625"/></linearGradient><linearGradient id="i" x1="68.134" y1="44.089" x2="68.315" y2="44.271" gradientUnits="userSpaceOnUse"><stop stop-color="#F7EF8A"/><stop offset=".375" stop-color="#EDC967"/><stop offset=".786" stop-color="#D2AC47"/><stop offset="1" stop-color="#AE8625"/></linearGradient><linearGradient id="j" x1="68.366" y1="43.725" x2="68.614" y2="43.974" gradientUnits="userSpaceOnUse"><stop stop-color="#F7EF8A"/><stop offset=".375" stop-color="#EDC967"/><stop offset=".786" stop-color="#D2AC47"/><stop offset="1" stop-color="#AE8625"/></linearGradient><linearGradient id="k" x1="68.618" y1="43.607" x2="68.799" y2="43.789" gradientUnits="userSpaceOnUse"><stop stop-color="#F7EF8A"/><stop offset=".375" stop-color="#EDC967"/><stop offset=".786" stop-color="#D2AC47"/><stop offset="1" stop-color="#AE8625"/></linearGradient><linearGradient id="l" x1="68.769" y1="43.458" x2="68.95" y2="43.64" gradientUnits="userSpaceOnUse"><stop stop-color="#F7EF8A"/><stop offset=".375" stop-color="#EDC967"/><stop offset=".786" stop-color="#D2AC47"/><stop offset="1" stop-color="#AE8625"/></linearGradient><linearGradient id="m" x1="69" y1="43.094" x2="69.248" y2="43.342" gradientUnits="userSpaceOnUse"><stop stop-color="#F7EF8A"/><stop offset=".375" stop-color="#EDC967"/><stop offset=".786" stop-color="#D2AC47"/><stop offset="1" stop-color="#AE8625"/></linearGradient><linearGradient id="n" x1="69.265" y1="42.963" x2="69.446" y2="43.145" gradientUnits="userSpaceOnUse"><stop stop-color="#F7EF8A"/><stop offset=".375" stop-color="#EDC967"/><stop offset=".786" stop-color="#D2AC47"/><stop offset="1" stop-color="#AE8625"/></linearGradient><linearGradient id="o" x1="69.476" y1="42.753" x2="69.734" y2="43.013" gradientUnits="userSpaceOnUse"><stop stop-color="#F7EF8A"/><stop offset=".375" stop-color="#EDC967"/><stop offset=".786" stop-color="#D2AC47"/><stop offset="1" stop-color="#AE8625"/></linearGradient><linearGradient id="p" x1="69.551" y1="42.536" x2="69.803" y2="42.789" gradientUnits="userSpaceOnUse"><stop stop-color="#F7EF8A"/><stop offset=".375" stop-color="#EDC967"/><stop offset=".786" stop-color="#D2AC47"/><stop offset="1" stop-color="#AE8625"/></linearGradient><linearGradient id="q" x1="69.773" y1="42.456" x2="69.954" y2="42.638" gradientUnits="userSpaceOnUse"><stop stop-color="#F7EF8A"/><stop offset=".375" stop-color="#EDC967"/><stop offset=".786" stop-color="#D2AC47"/><stop offset="1" stop-color="#AE8625"/></linearGradient><linearGradient id="r" x1="69.984" y1="42.246" x2="70.165" y2="42.429" gradientUnits="userSpaceOnUse"><stop stop-color="#F7EF8A"/><stop offset=".375" stop-color="#EDC967"/><stop offset=".786" stop-color="#D2AC47"/><stop offset="1" stop-color="#AE8625"/></linearGradient><linearGradient id="s" x1="70.194" y1="42.037" x2="70.376" y2="42.219" gradientUnits="userSpaceOnUse"><stop stop-color="#F7EF8A"/><stop offset=".375" stop-color="#EDC967"/><stop offset=".786" stop-color="#D2AC47"/><stop offset="1" stop-color="#AE8625"/></linearGradient><linearGradient id="t" x1="70.379" y1="41.852" x2="70.561" y2="42.034" gradientUnits="userSpaceOnUse"><stop stop-color="#F7EF8A"/><stop offset=".375" stop-color="#EDC967"/><stop offset=".786" stop-color="#D2AC47"/><stop offset="1" stop-color="#AE8625"/></linearGradient></defs></svg>