<svg width="48" height="48" viewBox="0 0 48 48" xmlns="http://www.w3.org/2000/svg" fill="none"><mask id="a" style="mask-type:luminance" maskUnits="userSpaceOnUse" x="0" y="0" width="48" height="48"><path d="M47.5.25h-47.5v47.5h47.5v-47.5z" fill="#fff"/></mask><g mask="url(#a)"><path d="M4.618 23.17s-1.415-2.063.649-3.476c2.061-1.414 3.475.649 3.475.649l6.564 9.572c.225-.377.474-.75.749-1.117l-9.11-13.286s-1.414-2.061.649-3.475c2.061-1.415 3.475.648 3.475.648l8.57 12.496c.319-.261.644-.521.981-.777l-9.934-14.488s-1.414-2.061.647-3.475c2.061-1.415 3.475.647 3.475.647l9.935 14.486c.365-.225.726-.419 1.087-.622l-9.284-13.54s-1.414-2.061.649-3.475c2.061-1.415 3.475.647 3.475.647l9.817 14.316.786 1.148.706 1.031c-6.185 4.241-6.774 12.224-3.24 17.378.707 1.031 1.738.325 1.738.325-4.241-6.186-2.945-13.137 3.241-17.379l-1.828-9.127s-.681-2.406 1.724-3.088c2.405-.681 3.086 1.724 3.086 1.724l2.106 6.255c.835 2.48 1.724 4.951 2.9 7.288 3.321 6.6 1.337 14.804-4.926 19.099-6.831 4.684-16.169 2.944-20.854-3.888-.248-.362-.455-.716-.652-1.07l-.055.039-10.602-15.464z" fill="#EDBB3C"/><path d="M43.697 10.25h2.5c-.003-2.306-.92-4.517-2.55-6.147-1.631-1.631-3.841-2.548-6.147-2.55v2.5c1.643.002 3.218.656 4.38 1.817 1.162 1.162 1.815 2.737 1.817 4.38" fill="#0D8BA8"/><path d="M41.25 16.5h2.5c0-6.893-5.608-12.5-12.5-12.5v2.5c5.514 0 10 4.486 10 10zM10 46.5v-2.5c-3.75 0-6.25-2.5-6.25-6.25h-2.5c0 5 3.75 8.75 8.75 8.75zM16.25 44.053v-2.5c-5 0-10.053-5.053-10.053-10.053h-2.5c0 7.5 5.053 12.553 12.553 12.553z" fill="#0D8BA8"/></g></svg>