<svg width="36" height="35" viewBox="0 0 36 35" xmlns="http://www.w3.org/2000/svg" fill="none"><path d="M18.008 8.526c-4.967 0-8.974 4.006-8.974 8.974 0 4.967 4.006 8.974 8.974 8.974 4.967 0 8.974-4.007 8.974-8.974 0-4.967-4.006-8.974-8.974-8.974zm0 14.808c-3.21 0-5.834-2.616-5.834-5.834 0-3.218 2.616-5.834 5.834-5.834 3.218 0 5.834 2.616 5.834 5.834 0 3.218-2.624 5.834-5.834 5.834zm11.434-15.175c0 1.164-.937 2.093-2.093 2.093-1.164 0-2.093-.937-2.093-2.093s.937-2.093 2.093-2.093 2.093.937 2.093 2.093zm5.943 2.124c-.133-2.804-.773-5.287-2.827-7.334-2.046-2.046-4.53-2.687-7.334-2.827-2.89-.164-11.551-.164-14.44 0-2.796.133-5.28.773-7.334 2.819-2.054 2.046-2.687 4.53-2.827 7.334-.164 2.89-.164 11.551 0 14.44.133 2.804.773 5.287 2.827 7.333 2.054 2.046 4.53 2.687 7.334 2.827 2.89.164 11.551.164 14.44 0 2.804-.133 5.287-.773 7.334-2.827 2.046-2.046 2.687-4.53 2.827-7.333.164-2.89.164-11.543 0-14.433zm-3.733 17.533c-.609 1.531-1.789 2.71-3.327 3.327-2.304.914-7.771.703-10.317.703-2.546 0-8.021.203-10.317-.703-1.531-.609-2.71-1.788-3.327-3.327-.914-2.304-.703-7.771-.703-10.317 0-2.546-.203-8.021.703-10.317.609-1.531 1.788-2.71 3.327-3.327 2.304-.914 7.771-.703 10.317-.703 2.546 0 8.021-.203 10.317.703 1.531.609 2.71 1.788 3.327 3.327.914 2.304.703 7.771.703 10.317 0 2.546.211 8.021-.703 10.317z" fill="#50D9D7"/></svg>