<svg width="50" height="50" viewBox="0 0 50 50" xmlns="http://www.w3.org/2000/svg" fill="none"><path d="M25 46.094c11.65 0 21.094-9.444 21.094-21.094s-9.444-21.094-21.094-21.094-21.094 9.444-21.094 21.094 9.444 21.094 21.094 21.094z" fill="#50D9D7"/><path d="M6.309 34.756c-.537-1.859-.841-3.817-.841-5.85 0-11.65 9.444-21.094 21.094-21.094 8.127 0 15.169 4.603 18.692 11.337-2.539-8.8-10.638-15.244-20.255-15.244-11.65 0-21.094 9.444-21.094 21.094 0 3.523.875 6.836 2.403 9.756zM45.312 22.656c0 11.65-9.444 21.094-21.094 21.094-8.85 0-16.414-5.455-19.545-13.181 2.447 8.944 10.608 15.525 20.327 15.525 11.65 0 21.094-9.444 21.094-21.094 0-2.8-.558-5.469-1.548-7.913.486 1.777.767 3.639.767 5.569z" fill="#3ECFCD"/><path d="M25 40.625c-8.761 0-15.625-6.176-15.625-14.062 0-.259.13-.502.344-.647.217-.145.492-.174.73-.078.058.024 5.781 2.288 14.552 2.288 8.77 0 14.494-2.264 14.552-2.288.237-.098.514-.067.73.078.214.145.344.387.344.647 0 7.886-6.864 14.062-15.625 14.062zm-14.012-12.942c.598 6.563 6.422 11.38 14.012 11.38 7.591 0 13.414-4.817 14.013-11.38-2.125.683-7.122 2.005-14.013 2.005s-11.887-1.322-14.012-2.005zM25 40.625c-3.825 0-7.33-1.12-10.136-3.237-.197-.15-.313-.383-.311-.63.002-.247.12-.478.32-.623 2.967-2.175 6.469-3.322 10.127-3.322 3.658 0 7.159 1.147 10.127 3.32.198.147.319.377.32.623.002.247-.113.481-.311.63-2.806 2.119-6.311 3.239-10.136 3.239zm-8.286-3.856c2.366 1.505 5.208 2.294 8.286 2.294 3.078 0 5.92-.789 8.286-2.294-4.978-3.141-11.594-3.141-16.572 0zm20.783-14.894l-.22-.033c-.03-.008-3.028-.869-9.216-1.378-.299-.025-.558-.219-.666-.497-.108-.281-.045-.598.161-.816 2.709-2.877 7.964-4.228 8.186-4.283.425-.109.844.147.949.566.105.419-.149.842-.566.947-.042.011-3.542.913-6.086 2.697 5.109.525 7.564 1.233 7.677 1.267.414.12.65.555.528.969-.098.339-.409.561-.747.561zm-24.997 0c-.338 0-.65-.222-.748-.561-.122-.414.116-.848.528-.969.113-.033 2.567-.742 7.677-1.267-2.544-1.784-6.044-2.686-6.086-2.697-.419-.105-.672-.53-.566-.947.106-.42.525-.68.948-.566.222.055 5.477 1.406 8.186 4.283.206.219.269.536.161.816-.108.28-.366.473-.666.497-6.186.509-9.186 1.37-9.216 1.378l-.219.033z" fill="#212121"/><path d="M3.587 21.958c-1.142.608-1.578 2.027-.969 3.17.608 1.142 2.027 1.577 3.169.969 1.984-1.055 1.441-3.294 4.419-5.003.002 0-4.506-.259-6.619.864zM46.462 21.958c1.142.608 1.578 2.027.969 3.17-.608 1.142-2.027 1.577-3.169.969-1.984-1.055-1.441-3.294-4.419-5.003 0 0 4.508-.259 6.619.864z" fill="#fff"/></svg>