<svg width="36" height="35" viewBox="0 0 36 35" xmlns="http://www.w3.org/2000/svg" fill="none"><path d="M22.594 12.25c-1.118-.004-2.225.213-3.259.637-1.034.425-1.974 1.049-2.766 1.837s-1.422 1.725-1.852 2.757c-.43 1.032-.652 2.138-.654 3.256v8.575c0 .348.138.682.384.928s.58.384.928.384h3.063c.348 0 .682-.138.928-.384s.384-.58.384-.928v-8.575c0-.398.083-.791.245-1.154.162-.363.398-.688.694-.954.296-.266.644-.466 1.023-.588.378-.122.778-.163 1.173-.12.709.089 1.36.436 1.831.973.47.538.727 1.229.722 1.944v8.473c0 .348.138.682.384.928s.58.384.928.384h3.063c.348 0 .682-.138.928-.384s.384-.58.384-.928v-8.575c-.002-1.118-.224-2.224-.654-3.256-.43-1.032-1.059-1.969-1.852-2.757-.792-.788-1.732-1.413-2.766-1.837-1.034-.425-2.141-.641-3.259-.637zM10.125 13.563h-3.938c-.725 0-1.313.588-1.313 1.313v14.438c0 .725.588 1.313 1.313 1.313h3.938c.725 0 1.313-.588 1.313-1.313v-14.438c0-.725-.588-1.313-1.313-1.313zM8.156 10.938c1.812 0 3.281-1.469 3.281-3.281s-1.469-3.281-3.281-3.281-3.281 1.469-3.281 3.281 1.469 3.281 3.281 3.281z" fill="#50D9D7"/></svg>