<svg width="110" height="24" viewBox="0 0 110 24" fill="none" xmlns="http://www.w3.org/2000/svg">
<path d="M2.75311 13.9741C1.74896 12.9699 1.74896 11.3419 2.75311 10.3377C3.75726 9.33364 5.38531 9.33364 6.38947 10.3377L13.6622 17.6105C14.6664 18.6146 14.6664 20.2428 13.6622 21.2469C12.6581 22.251 11.03 22.251 10.0258 21.2469L2.75311 13.9741Z" fill="white"/>
<path d="M13.6622 21.2469C12.658 22.2509 11.03 22.2509 10.0258 21.2469C9.02167 20.2427 9.02168 18.6146 10.0258 17.6104L17.2986 10.3377C18.3027 9.33357 19.9308 9.33357 20.9349 10.3377C21.9391 11.3419 21.9391 12.9699 20.9349 13.9741L13.6622 21.2469Z" fill="white"/>
<path d="M11.8372 8.03505C13.3898 8.03505 14.6485 6.7764 14.6485 5.22377C14.6485 3.67114 13.3898 2.41248 11.8372 2.41248C10.2845 2.41248 9.02588 3.67114 9.02588 5.22377C9.02588 6.7764 10.2845 8.03505 11.8372 8.03505Z" fill="#FBC91B"/>
<path d="M39.6966 4.1828H44.153C44.4116 4.1828 44.5347 4.30619 44.5347 4.5653V21.2595C44.5347 21.4939 44.4116 21.6173 44.153 21.6173H39.7951C39.5735 21.6173 39.4012 21.5063 39.2657 21.2842L34.8831 13.4244V21.2595C34.8831 21.4939 34.76 21.6173 34.5015 21.6173H30.0327C29.8357 21.6173 29.688 21.4446 29.688 21.2595V4.5653C29.688 4.30619 29.7987 4.1828 30.0327 4.1828H34.4029C34.6862 4.1828 34.8831 4.29384 34.9816 4.51594L39.3395 12.3633V4.5653C39.3395 4.36788 39.5366 4.1828 39.6966 4.1828Z" fill="#FBC91B"/>
<path d="M62.9884 21.6173H57.9901C57.7317 21.6173 57.5594 21.5063 57.4609 21.2842L56.71 18.6314H51.9703L51.207 21.2842C51.1085 21.5063 50.9362 21.6173 50.6777 21.6173H45.6918C45.4949 21.6173 45.3964 21.4692 45.4579 21.2842L51.1578 4.51594C51.2563 4.29385 51.4532 4.1828 51.761 4.1828H56.9069C57.2147 4.1828 57.4117 4.29385 57.5101 4.51594L63.21 21.2842C63.2715 21.4446 63.1853 21.6173 62.9884 21.6173ZM52.9797 15.0162H55.7004L54.3339 10.2164L52.9797 15.0162Z" fill="#FBC91B"/>
<path d="M63.333 9.43917C63.333 6.07072 65.869 3.80042 69.7099 3.80042C71.4949 3.80042 73.7848 4.54073 75.3606 5.62652C75.5945 5.77459 75.6683 5.92265 75.5576 6.07072L73.9694 9.63659C73.8833 9.90804 73.7355 9.98207 73.514 9.84634C72.1352 9.05668 70.9533 8.61249 69.9685 8.52612C69.1929 8.53844 68.6759 8.90861 68.6759 9.40215C68.6759 9.83401 69.2914 10.2659 70.5225 10.6731C71.7535 11.0802 72.8984 11.6724 73.9572 12.4497C75.0282 13.2271 75.8161 14.6461 75.8161 16.3858C75.8284 19.7543 73.2062 21.9999 69.3283 21.9999C67.2108 21.9999 64.9704 21.3336 63.7392 20.3342C63.5177 20.1615 63.4438 20.0134 63.53 19.8777L65.1181 16.3118C65.2043 16.0403 65.352 15.9786 65.5736 16.1143C66.8539 16.8423 68.0235 17.2371 69.0821 17.3235C69.8823 17.3235 70.4117 16.9041 70.4117 16.4104C70.3993 15.9786 69.7839 15.5468 68.5528 15.115C67.3217 14.6955 66.1891 14.1032 65.1673 13.3506C64.1333 12.5732 63.333 11.1542 63.333 9.43917Z" fill="#FBC91B"/>
<path d="M79.5052 22C80.7236 22 81.7113 21.0101 81.7113 19.7889C81.7113 18.5678 80.7236 17.5778 79.5052 17.5778C78.2868 17.5778 77.2991 18.5678 77.2991 19.7889C77.2991 21.0101 78.2868 22 79.5052 22Z" fill="white"/>
<path d="M89.0895 19.0518C89.0895 20.68 87.7725 21.9999 86.148 21.9999C84.5236 21.9999 83.2067 20.68 83.2067 19.0518V7.25933C83.2067 5.63113 84.5236 4.31122 86.148 4.31122C87.7725 4.31122 89.0895 5.63113 89.0895 7.25933V19.0518Z" fill="white"/>
<path fill-rule="evenodd" clip-rule="evenodd" d="M108.233 13.1556C108.233 18.0401 104.282 21.9999 99.409 21.9999C94.5349 21.9999 90.5852 18.0401 90.5852 13.1556C90.5852 8.27096 94.5349 4.31122 99.409 4.31122C104.282 4.31122 108.233 8.27096 108.233 13.1556ZM103.495 12.9606C103.495 15.2285 101.661 17.0669 99.3985 17.0669C97.1357 17.0669 95.3015 15.2285 95.3015 12.9606C95.3015 10.6927 97.1357 8.8543 99.3985 8.8543C101.661 8.8543 103.495 10.6927 103.495 12.9606Z" fill="white"/>
</svg>
