<svg width="36" height="36" viewBox="0 0 36 36" xmlns="http://www.w3.org/2000/svg" fill="none"><path d="M17.711 25.824l-7.537-7.537c1.34-3.602 3.441-6.833 6.106-9.498 4.777-4.777 11.363-7.731 18.656-7.731l-.004.251c-.097 11.254-7.245 20.798-17.222 24.515z" fill="#fff"/><path d="M17.711 25.824l-7.537-7.537c14.1 7.922 23.456-13.744 24.759-16.979-.097 11.254-7.245 20.798-17.222 24.515z" fill="#ABBABA"/><path d="M10.175 18.285l-4.048-4.048c-1.07-1.07-.314-2.902 1.204-2.897l7.53-1.004c-1.998 2.331-3.591 5.019-4.686 7.949zm11.583 11.583l-4.043-4.044c2.93-1.094 5.618-2.688 7.949-4.686l-1.004 7.53c0 1.513-1.827 2.274-2.902 1.199z" fill="#50D9D7"/><path d="M25.264 24.145c-1.789 1.361-3.758 2.493-5.87 3.359l-1.679-1.679c2.93-1.094 5.618-2.688 7.949-4.686l-.4 3.006z" fill="#1D5352"/><path d="M32.743 11.579c1.405-3.224 2.197-6.776 2.197-10.52-3.744 0-7.296.793-10.52 2.197l8.322 8.322zM32.743 11.579c1.405-3.224 2.197-6.776 2.197-10.52-3.744 0-7.296.793-10.52 2.197l8.322 8.322z" fill="#50D9D7"/><path d="M32.742 11.605c1.378-3.157 2.16-6.635 2.192-10.296-.461 1.144-1.931 4.596-4.261 8.227l2.069 2.069zM23.173 16.19c1.858 0 3.364-1.506 3.364-3.364 0-1.858-1.506-3.364-3.364-3.364-1.858 0-3.364 1.506-3.364 3.364 0 1.858 1.506 3.364 3.364 3.364z" fill="#1D5352"/><path d="M11.54 29.208l-.017-.015.282-.25c1.311-1.311 1.311-3.438 0-4.749-1.311-1.311-3.438-1.311-4.749 0l-.25.282-.015-.017c-1.311-1.311-3.438-1.311-4.749 0-1.311 1.311-1.311 3.438 0 4.749 1.311 1.311 3.438 1.311 4.749 0-1.311 1.311-1.311 3.438 0 4.749 1.311 1.312 3.438 1.312 4.749 0 1.312-1.312 1.311-3.438 0-4.749z" fill="#fff"/><path d="M11.541 33.956c-1.314 1.314-3.441 1.314-4.751.004-.79-.79-1.104-1.876-.94-2.894.127.225.292.434.487.629 1.31 1.31 3.437 1.31 4.747 0 .524-.524.839-1.183.943-1.864.797 1.292.633 3.006-.487 4.126z" fill="#ABBABA"/><path d="M17.153 27.884c-.207-.207-.542-.207-.749 0l-1.427 1.427c-.207.207-.207.542 0 .749.207.207.542.207.749 0l1.427-1.427c.207-.207.207-.542 0-.749zm-9.038-9.038c-.207-.207-.542-.207-.749 0l-1.427 1.427c-.207.207-.207.542 0 .749.207.207.542.207.749 0l1.427-1.427c.207-.207.207-.542 0-.749z" fill="#78787A"/><path d="M10.206 12.431l-1.319.122c-.218.02-.379.213-.359.432.019.206.192.36.395.36l.037-.002 1.319-.122c.218-.02.379-.213.358-.432-.02-.218-.213-.383-.432-.358z" fill="#fff"/></svg>