<svg width="50" height="50" viewBox="0 0 50 50" xmlns="http://www.w3.org/2000/svg" fill="none"><g clip-path="url(#a)"><path fill-rule="evenodd" clip-rule="evenodd" d="M20.21 34.415l.002 1.947h9.574l.001-1.947c0-7.625 4.926-4.907 4.926-12.439 0-5.365-4.35-9.715-9.715-9.715s-9.715 4.349-9.715 9.715c0 7.533 4.926 4.814 4.926 12.439zm11.117-13.533c0 .309.251.56.56.56.309 0 .56-.251.56-.56 0-1.808-.733-3.446-1.918-4.631s-2.822-1.918-4.631-1.918c-.309 0-.56.251-.56.56 0 .309.251.56.56.56 1.499 0 2.857.608 3.839 1.59.983.983 1.59 2.34 1.59 3.839z" fill="#50D9D7"/><path d="M20.609 36.922c-.309 0-.56.251-.56.56 0 .309.251.56.56.56h8.67c.309 0 .56-.251.56-.56 0-.309-.251-.56-.56-.56h-8.67zM20.609 39.72c-.309 0-.56-.251-.56-.56 0-.309.251-.56.56-.56h8.67c.309 0 .56.251.56.56 0 .309-.251.56-.56.56h-8.67zM20.609 40.28c-.309 0-.56.251-.56.56 0 .309.251.56.56.56h8.67c.309 0 .56-.251.56-.56 0-.309-.251-.56-.56-.56h-8.67z" fill="#fff"/><path d="M9.935 20.933c-.309 0-.56.251-.56.56 0 .309.251.56.56.56h2.497c.309 0 .56-.251.56-.56 0-.309-.251-.56-.56-.56h-2.497zM12.424 13.529c-.267-.155-.609-.064-.763.203-.155.267-.063.609.203.763l2.162 1.248c.267.155.609.064.763-.203.154-.267.063-.609-.203-.763l-2.162-1.248zM18.28 8.357c-.154-.267-.496-.358-.763-.203-.267.155-.358.496-.203.763l1.248 2.162c.155.267.496.358.763.203.267-.155.358-.496.203-.763l-1.248-2.162zM25.939 6.809c0-.309-.251-.56-.56-.56-.309 0-.56.251-.56.56v2.497c0 .309.251.56.56.56.309 0 .56-.251.56-.56v-2.497zM33.343 9.298c.155-.267.063-.609-.203-.763-.267-.155-.608-.064-.763.203l-1.248 2.162c-.155.267-.064.609.203.763.267.155.608.064.763-.203l1.248-2.162zM38.514 15.154c.267-.155.358-.496.203-.763-.155-.267-.496-.358-.763-.203l-2.163 1.248c-.267.155-.358.496-.203.763.154.267.496.358.763.203l2.163-1.248zM40.062 22.813c.309 0 .56-.251.56-.56 0-.309-.251-.56-.56-.56h-2.497c-.309 0-.56.251-.56.56 0 .309.251.56.56.56h2.497z" fill="#50D9D7"/><path fill-rule="evenodd" clip-rule="evenodd" d="M27.446 41.959h-5.004c.171 1.011 1.226 1.789 2.502 1.789 1.276 0 2.331-.778 2.502-1.789z" fill="#fff"/></g><defs><clipPath id="a"><path fill="#fff" d="M0 0h50v50h-50z"/></clipPath></defs></svg>