<svg width="112" height="112" viewBox="0 0 112 112" xmlns="http://www.w3.org/2000/svg" fill="none"><circle cx="56" cy="56" r="56" fill="#3C3B41" filter="url(#a)"/><circle cx="56" cy="56" r="53.5" stroke="#3C3B41" stroke-width="5"/><path d="M66.146 53.159c-1.08 1.448-.543 1.892-.656 3.284l-.277 1.159c-.189 2.329-2.482 3.285-3.829 5.176 12.521.918 20.346-3.71 25.958-8.798.782-.709 1.063-1.744.846-2.694l-10.296-10.121-11.745 11.994z" fill="#50D9D7"/><path d="M64.843 50.695l-4.987-4.902 11.491-11.296 4.987 4.902-11.491 11.296z" fill="#1D5352"/><path d="M61.048 47.284l-33.417 32.286c-.231.227-.365.532-.374.854l1.807 1.777c.241.237.568.37.908.37.341 0 .667-.133.908-.37l33.131-32.004-2.963-2.912zm14.667-15.152c-.337-.006-.898.116-1.155.369l-2.508 2.465 3.44 3.381 2.253-2.215c.119-.117.214-.256.279-.41.065-.153.098-.317.098-.483 0-.166-.033-.33-.098-.483-.065-.153.064-.292-.055-.41l-2.253-2.215z" fill="#B3B6C3"/><path d="M87.5 50.265l-1.601-1.573-.348.553c-5.512 4.997-12.108 9.07-21.212 9.554-.66 1.4-1.52 2.752-2.633 3.84h-.211c12.209 1.304 19.323-2.302 25.932-8.294 1.2-1.088 1.226-2.945.072-4.08z" fill="#C9F3FF"/><path fill-rule="evenodd" clip-rule="evenodd" d="M25.571 75.981c-.817.792-.826 2.086-.02 2.889l2.391 2.382c.806.803 2.122.812 2.939.019l5.326-5.166-2.767-2.616c-.218-.206-.225-.546-.015-.76.209-.214.556-.221.773-.015l2.788 2.635 12.675-12.294-3.312-3.113c-.218-.205-.226-.546-.017-.76.209-.215.555-.222.773-.017l3.335 3.135 13.186-12.79c.215-.209.561-.206.774.005.212.211.21.552-.005.76l-32.744 31.761c-1.247 1.21-3.256 1.196-4.486-.029l-2.392-2.382c-1.23-1.226-1.217-3.2.03-4.41l3.273-3.174c.215-.209.561-.206.773.005.212.211.21.552-.005.76l-3.273 3.174zm4.359-4.983c-.212-.211-.21-.552.005-.76l1.75-1.698c.215-.209.561-.206.773.005.212.211.21.552-.005.76l-1.75 1.698c-.215.209-.561.206-.773-.005zm3.5-3.395c-.212-.211-.21-.552.005-.76l23.956-23.236c.215-.209.561-.206.774.005.212.211.21.552-.005.76l-6.832 6.626 3.119 3.127c.212.212.208.552-.008.76-.216.208-.562.205-.773-.007l-3.116-3.124-12.323 11.953 2.632 2.331c.224.199.242.539.04.759-.202.221-.548.238-.772.04l-2.68-2.373-3.243 3.145c-.215.209-.561.206-.773-.005zm35.844-34.767c-.212-.211-.21-.552.005-.76l1.568-1.521c1.247-1.21 3.256-1.197 4.486.029l2.391 2.382c1.232 1.227 1.216 3.194.061 4.453l-.024.026c-.528.576-1.056 1.151-1.663 1.74-.215.209-.561.206-.773-.005-.212-.211-.21-.552.005-.76.583-.566 1.091-1.119 1.623-1.699l.019-.021c.787-.858.777-2.176-.028-2.978l-2.391-2.382c-.806-.803-2.122-.812-2.939-.019l-1.568 1.521c-.215.209-.561.206-.773-.005zM66.923 32.782l-8.812 8.663c-.598.588-.598 1.541 0 2.129l5.17 5.081c.598.588 1.568.588 2.166 0l9.431-9.271c.256-.252.256-.66 0-.912l-5.788-5.69c-.598-.588-1.568-.588-2.166 0zm-9.586 7.903c-1.025 1.008-1.025 2.642 0 3.65l5.17 5.081c1.025 1.008 2.688 1.008 3.713 0l9.431-9.271c.684-.672.684-1.761 0-2.433l-5.788-5.69c-1.025-1.008-2.688-1.008-3.713 0l-8.813 8.663zM63.83 58.437l-.336.578-.291.456c-.56.847-1.253 1.735-2.079 2.701-.354.414-.078 1.054.471 1.074 13.135.471 19.463-1.735 26.415-9.346.904-.99.827-2.5-.131-3.441l-12.08-11.874-10.545 10.366c-.734.722-.942 1.797-.669 2.782.697 2.515.444 4.518-.756 6.703zm11.97-18.331l-9.772 9.606c-.411.404-.575 1.06-.387 1.74.582 2.102.571 3.95-.089 5.819-.115.326-.249.65-.401.973 3.199-.542 7.207-1.685 9.522-2.428.287-.092.596.062.69.344.094.282-.063.586-.35.678-2.512.805-7.088 2.108-10.499 2.594-.538.897-1.208 1.808-1.995 2.767 6.059.164 10.511-.294 14.233-1.607 3.874-1.367 7.05-3.694 10.445-7.41.497-.544.477-1.405-.09-1.962l-11.306-11.113zm.636 15.642c-.139-.264-.033-.588.235-.724.953-.483 1.879-1.024 2.788-1.63.25-.167.59-.103.76.143.17.246.105.58-.145.747-.945.63-1.909 1.194-2.901 1.696-.268.136-.598.033-.737-.231z" fill="#59595B"/><path d="M68.091 39.733l.683-.68c.094.075.156.144.194.215.175.326-.147.666-.4.918l.315.193.62-.618c.213-.212.769.102.51.36l-.586.584.327.204.067-.067c.259-.258.565-.54.942-.496.11.013.214.049.34.099l-.633.63c-.178.177-.38.347-.636.372-.227.022-.45-.093-.649-.214l-.91-.556c-.194-.118-.389-.278-.408-.498-.015-.174.102-.325.223-.446z" fill="url(#b)"/><path d="M64.465 43.298s1.733 1.088 2.06 1.267c.327.18.685-.104.604-.52-.063-.323-.088-.378-.096-.386l.406.089c.359.072.695-.255.568-.544-.127-.289-1.285-2.059-1.264-2.088-.135.181-.226.314-.239.499-.017.252.129.489.268.708l.507.803c-.282-.093-.483-.169-.717-.016l-.009.007c-.182.201-.188.401-.053.755l-.755-.478c-.258-.163-.541-.335-.838-.305-.162.016-.288.087-.443.208z" fill="url(#c)"/><path d="M67.084 41.123c.195.394 1.265 2.052 1.265 2.052.08-.081.14-.153.18-.232.158-.311-.054-.681-.234-.997l-.005-.009-.168-.315c.003-.013.167.076.347.177.302.17.657.378.96.234.086-.041.166-.105.259-.191 0 0-1.758-1.082-2.087-1.233-.328-.151-.712.121-.517.515z" fill="url(#d)"/><path d="M66.992 40.542c.143-.142.136-.377-.016-.523-.151-.147-.39-.151-.532-.008-.143.142-.136.377.016.523.151.147.39.151.532.008z" fill="url(#e)"/><path d="M68.02 44.564l-.017.001-.297-.156-.008-.01.003-.012.007-.003.009.002.276.145-.005.005-.154-.265-.002-.01.005-.008.008-.005.01.002.272.148-.005.005-.151-.269-.002-.009.003-.007.013-.004.01.008.163.29-.002.017-.001.001-.018.002-.275-.149.005-.005.155.268.003.01-.005.008z" fill="url(#f)"/><path d="M68.175 44.245l.014.014.048.028.046-.024.029-.028.026-.038-.01-.033-.005-.01.004-.009.01-.004.01.006.019.053-.033.056-.029.028-.065.031-.069-.037-.044-.043-.038-.067.031-.064.029-.028.065-.031.068.037.02.019.001.019-.127.127zm-.035-.122l-.024.045.029.048.009.009.118-.117-.009-.009-.049-.028-.046.024-.029.028z" fill="url(#g)"/><path d="M68.524 44.06l-.019-.008-.142-.309.002-.018.001-.001.018-.002.316.136.009.018-.017.007-.085-.036-.114.114.038.083-.007.017zm-.045-.127l.099-.099-.18-.078.081.176z" fill="url(#h)"/><path d="M68.764 43.824l-.02-.001-.164-.159-.001-.019.019.001.03.029-.004-.055.03-.051.019.001.001.019-.032.063.026.062.093.09.001.019z" fill="url(#i)"/><path d="M68.81 43.614l.014.014.049.028.046-.024.029-.029.026-.038-.01-.034-.005-.01.004-.009.01-.004.01.006.019.053-.033.056-.029.029-.065.031-.068-.037-.044-.043-.039-.067.031-.064.029-.029.065-.031.069.037.019.019.001.019-.127.127zm-.035-.122l-.024.045.029.048.009.009.118-.117-.009-.009-.049-.028-.046.024-.029.029z" fill="url(#j)"/><path d="M69.187 43.403l-.02-.001-.231-.224-.001-.019.131-.13.02.001.001.019-.122.121.094.091.08-.08.019.001.001.019-.08.08.097.094.122-.121.019.001.001.019-.131.13z" fill="url(#k)"/><path d="M69.383 43.208l-.02-.001-.164-.159-.001-.019.019.001.019.018.031-.088.01-.01.065-.031.069.036.104.101.001.019-.02-.001-.104-.101-.049-.028-.046.024-.01.01-.033.052.012.046.114.111.001.019z" fill="url(#l)"/><path d="M69.706 43.04l-.041.022-.042-.016-.006-.01.004-.01.009-.004.011.004.023.008.023-.015.065-.065.014-.027-.018-.028-.056-.054-.002.043-.03.044-.013.013-.065.032-.068-.037-.044-.043-.039-.067.031-.064.029-.028.033-.023.032-.001-.011-.01-.001-.019.019.001.202.196.027.047-.022.046-.065.065zm-.08-.114l.013-.013.034-.053-.013-.044-.065-.063-.042-.019-.042.025-.029.029-.024.046.029.047.044.043.048.028.046-.024z" fill="url(#m)"/><path d="M69.583 42.575l-.026-.001-.009-.008-.001-.025.008-.008.025.001.009.008.002.025-.008.008zm.224.21l-.019-.001-.164-.159-.001-.019.019.001.164.159.001.019z" fill="url(#n)"/><path d="M69.891 42.701l-.02-.001-.164-.159-.001-.019.019.001.019.018.031-.088.01-.01.065-.031.069.037.104.101.001.019-.02-.001-.104-.101-.049-.028-.045.024-.01.01-.033.052.012.046.114.111.001.019z" fill="url(#o)"/><path d="M70.025 42.403l.014.014.049.028.046-.024.029-.029.026-.038-.01-.033-.005-.01.004-.009.01-.004.01.006.019.053-.033.056-.029.029-.065.031-.068-.037-.044-.043-.039-.067.031-.064.029-.029.065-.031.069.037.019.019.001.019-.127.127zm-.035-.122l-.024.045.029.048.009.009.118-.117-.009-.009-.049-.028-.046.024-.029.029z" fill="url(#p)"/><path d="M70.236 42.193l.014.014.048.028.046-.024.028-.028.026-.038-.01-.033-.005-.01.004-.009.01-.004.01.006.019.053-.033.056-.028.028-.065.031-.069-.036-.044-.043-.038-.067.031-.064.028-.029.065-.031.069.037.02.019.001.019-.127.127zm-.035-.122l-.024.045.029.047.009.009.118-.117-.009-.009-.049-.028-.046.024-.028.028z" fill="url(#q)"/><path d="M70.526 42.069l-.02-.001-.164-.159-.001-.019.019.001.03.029-.004-.055.031-.051.019.001.001.019-.032.063.026.062.093.09.001.019z" fill="url(#r)"/><defs><filter id="a" x="0" y="0" width="112" height="112" filterUnits="userSpaceOnUse" color-interpolation-filters="sRGB"><feFlood flood-opacity="0" result="BackgroundImageFix"/><feBlend in="SourceGraphic" in2="BackgroundImageFix" result="shape"/><feColorMatrix in="SourceAlpha" values="0 0 0 0 0 0 0 0 0 0 0 0 0 0 0 0 0 0 127 0" result="hardAlpha"/><feMorphology radius="7" in="SourceAlpha" result="effect1_innerShadow_2711_31573"/><feOffset/><feGaussianBlur stdDeviation="8"/><feComposite in2="hardAlpha" operator="arithmetic" k2="-1" k3="1"/><feColorMatrix values="0 0 0 0 0 0 0 0 0 0 0 0 0 0 0 0 0 0 0.25 0"/><feBlend in2="shape" result="effect1_innerShadow_2711_31573"/></filter><linearGradient id="b" x1="68.432" y1="39.393" x2="70.289" y2="41.257" gradientUnits="userSpaceOnUse"><stop stop-color="#F5F5F5"/><stop offset="1" stop-color="#78787A"/></linearGradient><linearGradient id="c" x1="65.604" y1="42.207" x2="67.422" y2="44.107" gradientUnits="userSpaceOnUse"><stop stop-color="#F5F5F5"/><stop offset="1" stop-color="#78787A"/></linearGradient><linearGradient id="d" x1="67.13" y1="40.677" x2="68.986" y2="42.541" gradientUnits="userSpaceOnUse"><stop stop-color="#F5F5F5"/><stop offset="1" stop-color="#78787A"/></linearGradient><linearGradient id="e" x1="66.444" y1="40.01" x2="66.983" y2="40.551" gradientUnits="userSpaceOnUse"><stop stop-color="#F5F5F5"/><stop offset="1" stop-color="#78787A"/></linearGradient><linearGradient id="f" x1="69.106" y1="42.978" x2="69.435" y2="43.308" gradientUnits="userSpaceOnUse"><stop stop-color="#F5F5F5"/><stop offset="1" stop-color="#78787A"/></linearGradient><linearGradient id="g" x1="69.107" y1="42.979" x2="69.435" y2="43.309" gradientUnits="userSpaceOnUse"><stop stop-color="#F5F5F5"/><stop offset="1" stop-color="#78787A"/></linearGradient><linearGradient id="h" x1="69.106" y1="42.98" x2="69.434" y2="43.309" gradientUnits="userSpaceOnUse"><stop stop-color="#F5F5F5"/><stop offset="1" stop-color="#78787A"/></linearGradient><linearGradient id="i" x1="69.106" y1="42.979" x2="69.435" y2="43.309" gradientUnits="userSpaceOnUse"><stop stop-color="#F5F5F5"/><stop offset="1" stop-color="#78787A"/></linearGradient><linearGradient id="j" x1="69.107" y1="42.98" x2="69.436" y2="43.309" gradientUnits="userSpaceOnUse"><stop stop-color="#F5F5F5"/><stop offset="1" stop-color="#78787A"/></linearGradient><linearGradient id="k" x1="69.106" y1="42.98" x2="69.435" y2="43.309" gradientUnits="userSpaceOnUse"><stop stop-color="#F5F5F5"/><stop offset="1" stop-color="#78787A"/></linearGradient><linearGradient id="l" x1="69.107" y1="42.979" x2="69.435" y2="43.309" gradientUnits="userSpaceOnUse"><stop stop-color="#F5F5F5"/><stop offset="1" stop-color="#78787A"/></linearGradient><linearGradient id="m" x1="69.107" y1="42.98" x2="69.436" y2="43.309" gradientUnits="userSpaceOnUse"><stop stop-color="#F5F5F5"/><stop offset="1" stop-color="#78787A"/></linearGradient><linearGradient id="n" x1="69.106" y1="42.979" x2="69.434" y2="43.309" gradientUnits="userSpaceOnUse"><stop stop-color="#F5F5F5"/><stop offset="1" stop-color="#78787A"/></linearGradient><linearGradient id="o" x1="69.106" y1="42.979" x2="69.434" y2="43.309" gradientUnits="userSpaceOnUse"><stop stop-color="#F5F5F5"/><stop offset="1" stop-color="#78787A"/></linearGradient><linearGradient id="p" x1="69.106" y1="42.98" x2="69.435" y2="43.309" gradientUnits="userSpaceOnUse"><stop stop-color="#F5F5F5"/><stop offset="1" stop-color="#78787A"/></linearGradient><linearGradient id="q" x1="69.107" y1="42.979" x2="69.435" y2="43.309" gradientUnits="userSpaceOnUse"><stop stop-color="#F5F5F5"/><stop offset="1" stop-color="#78787A"/></linearGradient><linearGradient id="r" x1="69.106" y1="42.979" x2="69.435" y2="43.309" gradientUnits="userSpaceOnUse"><stop stop-color="#F5F5F5"/><stop offset="1" stop-color="#78787A"/></linearGradient></defs></svg>