<svg width="101" height="100" viewBox="0 0 101 100" xmlns="http://www.w3.org/2000/svg" fill="none"><path d="M43.965 49.436c-4.171-1.876-8.344-3.752-12.517-5.627-.175-.079-.332-.192-.462-.334-.13-.142-.229-.308-.293-.489-.063-.181-.089-.373-.076-.565.013-.191.066-.378.153-.549 3.419-6.647 6.839-13.294 10.258-19.942" fill="#212121"/><path d="M88.624 21.936c3.417 6.646 6.835 13.292 10.254 19.937.088.171.14.357.153.549.013.191-.013.384-.076.565-.063.181-.163.347-.293.489-.13.141-.287.255-.462.334l-12.513 5.626c-.457-9.263.534-18.541 2.937-27.499z" fill="#333"/><path d="M85.641 50.213c-.649 11.134-.682 22.296-.1 33.434.01.191-.02.383-.086.563-.067.18-.169.344-.301.483-.132.139-.291.249-.467.325-.176.076-.366.114-.558.114h-38.605c-.192 0-.381-.039-.558-.114-.176-.075-.335-.186-.467-.325s-.235-.303-.301-.483c-.067-.18-.096-.371-.086-.563.582-11.138.549-22.299-.1-33.434-.545-9.367-1.49-18.123-2.672-26.195-.101-.701-.206-1.397-.313-2.086l.19-.101h.002l6.672-3.508.002-.002.535-.281 3.539-1.863 2.482-1.307c1.163.594 2.377 1.082 3.627 1.459 3.389 1.02 6.193.957 8.017.9 1.564-.047 3.031-.102 4.93-.617 1.463-.398 2.867-.984 4.18-1.742l13.422 7.063c-1.326 8.643-2.393 18.102-2.984 28.281z" fill="#3E3E3E"/><path d="M49.707 20.146l-8.367 3.871-7.596 3.514-9.174-5.063.936-5.902.264-1.666c.582.174 1.223.35 1.92.516.395.096.809.188 1.238.275 2.456.501 4.958.744 7.465.727 3.432-.023 6.843-.534 10.131-1.518l1.754 2.891.15.248 1.279 2.107zm-34.391 29.29c-4.171-1.876-8.344-3.752-12.517-5.627-.175-.079-.332-.192-.462-.334-.13-.141-.229-.308-.293-.489-.063-.181-.089-.373-.076-.565.013-.191.065-.378.153-.549 3.42-6.646 6.839-13.294 10.258-19.942 1.091 4.627 1.883 9.32 2.371 14.049.461 4.47.65 8.963.566 13.456z" fill="#333"/><path d="M62.905 21.936c3.417 6.646 6.835 13.292 10.254 19.937.088.171.14.357.153.549.013.191-.013.384-.076.565-.063.181-.163.347-.293.489-.13.141-.287.255-.462.334l-12.513 5.626c-.222-9.255.766-18.5 2.937-27.499zM59.92 50.213c-.648 11.134-.681 22.294-.098 33.432.01.192-.02.383-.086.563-.066.18-.169.344-.301.483-.132.139-.291.25-.467.325-.176.076-.366.115-.558.115h-38.608c-.192 0-.381-.039-.558-.115-.176-.076-.335-.186-.467-.326-.132-.139-.234-.304-.3-.483-.066-.18-.095-.371-.085-.563.582-11.137.549-22.298-.1-33.432-.594-10.18-1.66-19.639-2.984-28.281l10.197-5.365.676-.356c.744 1.9 2.873 5.199 8.746 5.721h2.498l.213-.021.219.021h2.498c.297-.025.584-.061.861-.101h.002c3.467-.496 5.494-2.016 6.672-3.508l.002-.002c.141-.178.268-.354.385-.529l.15.248 2.074-1.092 1.465-.771 10.938 5.756c-1.324 8.643-2.391 18.102-2.984 28.281z" fill="#212121"/><path d="M59.975 21.936c3.417 6.646 6.835 13.292 10.254 19.937.088.171.14.357.153.549.013.191-.013.384-.076.565-.063.181-.163.347-.293.489-.13.141-.287.255-.462.334l-12.513 5.626c-.222-9.255.766-18.5 2.937-27.499z" fill="#333"/><path d="M56.99 50.213c-.648 11.134-.681 22.295-.098 33.432.01.192-.02.383-.086.563-.067.18-.169.344-.301.483-.132.139-.291.25-.467.325-.176.076-.366.115-.558.115h-38.608c-.192 0-.381-.039-.557-.115-.176-.076-.335-.186-.467-.326-.132-.139-.234-.304-.3-.483-.066-.18-.095-.371-.085-.563.582-11.137.549-22.298-.1-33.432-.594-10.18-1.66-19.639-2.984-28.281l13.422-7.063c.076.46.203.911.381 1.342.744 1.9 2.873 5.199 8.746 5.721h2.498l.213-.021c8.131-.826 8.916-7.041 8.916-7.041l3.947 2.078 9.473 4.984c-1.324 8.643-2.391 18.102-2.984 28.281z" fill="#3E3E3E"/><g clip-path="url(#a)"><path d="M40.249 40.959h2.226c.026.255.012.454-.044.619-.258.759-1.341.788-2.165.788l.187.768h2.022c.693 0 1.067 1.316.224 1.316h-1.91l.187.804h.22c.844 0 1.804.035 2.337.67.156.186.263.399.383.664h-2.062c-.579 0-1.187-.047-1.64-.397-.401-.31-.57-.82-.689-1.304l-.542-2.218c-.116-.473-.166-1.01.168-1.372.264-.286.703-.339 1.099-.339z" fill="url(#b)"/><path d="M28.506 40.886s.984 4.267 1.212 5.034c.228.767 1.275.877 1.833.125.434-.586.485-.705.486-.73v-.001.001c.017.03.108.18.506.748.457.651 1.541.664 1.816.033.275-.63 1.346-5.064 1.429-5.076-.517.072-.884.134-1.212.396-.445.356-.603.936-.744 1.479l-.516 1.984c-.299-.568-.497-.986-1.127-1.108l-.026-.002c-.625.03-.967.325-1.337 1.064l-.421-1.865c-.143-.637-.315-1.324-.842-1.729-.288-.221-.607-.302-1.057-.353z" fill="url(#c)"/><path d="M36.324 41.545c-.34.892-1.367 5.023-1.367 5.023.263-.001.478-.021.673-.08.769-.233 1.043-1.115 1.277-1.865l.007-.023c.119-.382.229-.716.252-.731.026-.016.143.368.264.793.204.715.43 1.566 1.155 1.805.207.068.441.092.734.101 0 0-1.033-4.298-1.31-5.023-.277-.725-1.345-.892-1.685 0z" fill="url(#d)"/><path d="M37.139 40.523c.465 0 .843-.366.843-.817 0-.451-.377-.817-.843-.817-.465 0-.842.366-.842.817 0 .451.377.817.842.817z" fill="url(#e)"/><path d="M32.123 48.18l-.029-.024-.218-.686.003-.027.025-.014.017.006.011.016.203.637h-.017l.192-.635.014-.019.021-.006.021.006.013.019.192.635h-.017l.203-.637.011-.016.017-.006.026.013.003.027-.219.686-.031.024h-.002l-.031-.024-.195-.642h.016l-.195.642-.012.019-.022.005z" fill="url(#f)"/><path d="M32.903 47.928v.042l.032.115.114.033h.093l.105-.019.039-.066.009-.022.022-.007.022.009.006.023-.057.108-.146.035h-.093l-.156-.05-.05-.159v-.131l.05-.16.156-.049h.093l.156.051.049.159v.058l-.029.031h-.414zm.146-.237l-.114.032-.032.117v.028h.384v-.028l-.032-.116-.114-.033h-.093z" fill="url(#g)"/><path d="M33.772 48.177l-.017-.041.283-.683.033-.024h.003l.033.024.283.683-.016.041-.039-.016-.076-.183h-.373l-.075.183-.039.016zm.139-.261h.323l-.162-.39-.162.39z" fill="url(#h)"/><path d="M34.549 48.18l-.03-.031v-.489l.03-.03.03.03v.09l.085-.089.133-.031.03.03-.03.031-.157.047-.061.133v.278l-.03.031z" fill="url(#i)"/><path d="M34.969 47.928v.042l.032.115.114.033h.094l.104-.019.039-.066.009-.022.022-.007.022.009.006.023-.058.108-.146.035h-.094l-.156-.05-.049-.159v-.131l.049-.16.156-.049h.094l.155.051.05.159v.058l-.03.031h-.415zm.146-.237l-.114.032-.032.117v.028h.384v-.028l-.032-.116-.113-.033h-.094z" fill="url(#j)"/><path d="M35.927 48.18l-.03-.031v-.689l.03-.031h.427l.03.031-.03.03h-.397v.279h.262l.03.03-.03.031h-.262v.288h.397l.03.03-.03.031h-.427z" fill="url(#k)"/><path d="M36.565 48.18l-.03-.031v-.489l.03-.03.029.03v.056c.037-.057.102-.086.196-.086h.032l.155.051.05.159v.31l-.03.031-.03-.031v-.31l-.032-.116-.113-.033h-.032l-.139.028-.057.089v.341l-.029.031z" fill="url(#l)"/><path d="M37.361 48.413l-.103-.029-.041-.089.006-.024.022-.009.021.008.01.023.023.046.061.012h.212l.067-.019.018-.07v-.166l-.074.062-.122.021h-.043l-.157-.05-.049-.159v-.131l.049-.16.157-.05h.093l.091.015.054.047v-.032l.03-.03.03.03v.603l-.035.113-.11.037h-.212zm.059-.294h.043l.142-.028.053-.087v-.195l-.036-.092-.109-.026h-.093l-.114.033-.032.116v.131l.032.115.114.033z" fill="url(#m)"/><path d="M37.939 47.524l-.039-.041v-.026l.039-.04h.025l.038.04v.026l-.038.041h-.025zm.013.656l-.03-.031v-.489l.03-.03.03.03v.489l-.03.031z" fill="url(#n)"/><path d="M38.224 48.18l-.03-.031v-.489l.03-.03.029.03v.056c.036-.057.102-.086.196-.086h.032l.155.051.05.159v.31l-.03.031-.03-.031v-.31l-.033-.116-.112-.033h-.032l-.139.028-.057.089v.341l-.029.031z" fill="url(#o)"/><path d="M38.932 47.928v.042l.032.115.114.033h.094l.104-.019.039-.066.009-.022.022-.007.022.009.006.023-.058.108-.146.035h-.094l-.156-.05-.049-.159v-.131l.049-.16.156-.049h.094l.155.051.05.159v.058l-.03.031h-.415zm.146-.237l-.114.032-.032.117v.028h.384v-.028l-.032-.116-.113-.033h-.094z" fill="url(#p)"/><path d="M39.618 47.928v.042l.031.115.114.033h.093l.105-.019.039-.066.009-.022.022-.007.022.009.006.023-.058.108-.146.035h-.093l-.156-.05-.05-.159v-.131l.05-.16.156-.049h.093l.155.051.05.159v.058l-.03.031h-.414zm.146-.237l-.114.032-.031.117v.028h.384v-.028l-.031-.116-.114-.033h-.093z" fill="url(#q)"/><path d="M40.29 48.18l-.03-.031v-.489l.03-.03.03.03v.09l.085-.089.134-.031.03.03-.03.031-.158.047-.061.133v.278l-.03.031z" fill="url(#r)"/></g><defs><linearGradient id="b" x1="41.361" y1="40.959" x2="41.361" y2="46.589" gradientUnits="userSpaceOnUse"><stop stop-color="#F5F5F5"/><stop offset="1" stop-color="#78787A"/></linearGradient><linearGradient id="c" x1="32.146" y1="40.953" x2="32.043" y2="46.583" gradientUnits="userSpaceOnUse"><stop stop-color="#F5F5F5"/><stop offset="1" stop-color="#78787A"/></linearGradient><linearGradient id="d" x1="37.138" y1="40.938" x2="37.138" y2="46.568" gradientUnits="userSpaceOnUse"><stop stop-color="#F5F5F5"/><stop offset="1" stop-color="#78787A"/></linearGradient><linearGradient id="e" x1="37.139" y1="38.889" x2="37.139" y2="40.523" gradientUnits="userSpaceOnUse"><stop stop-color="#F5F5F5"/><stop offset="1" stop-color="#78787A"/></linearGradient><linearGradient id="f" x1="36.499" y1="47.416" x2="36.499" y2="48.413" gradientUnits="userSpaceOnUse"><stop stop-color="#F5F5F5"/><stop offset="1" stop-color="#78787A"/></linearGradient><linearGradient id="g" x1="36.499" y1="47.416" x2="36.499" y2="48.413" gradientUnits="userSpaceOnUse"><stop stop-color="#F5F5F5"/><stop offset="1" stop-color="#78787A"/></linearGradient><linearGradient id="h" x1="36.499" y1="47.416" x2="36.499" y2="48.413" gradientUnits="userSpaceOnUse"><stop stop-color="#F5F5F5"/><stop offset="1" stop-color="#78787A"/></linearGradient><linearGradient id="i" x1="36.499" y1="47.416" x2="36.499" y2="48.413" gradientUnits="userSpaceOnUse"><stop stop-color="#F5F5F5"/><stop offset="1" stop-color="#78787A"/></linearGradient><linearGradient id="j" x1="36.499" y1="47.416" x2="36.499" y2="48.413" gradientUnits="userSpaceOnUse"><stop stop-color="#F5F5F5"/><stop offset="1" stop-color="#78787A"/></linearGradient><linearGradient id="k" x1="36.499" y1="47.416" x2="36.499" y2="48.413" gradientUnits="userSpaceOnUse"><stop stop-color="#F5F5F5"/><stop offset="1" stop-color="#78787A"/></linearGradient><linearGradient id="l" x1="36.499" y1="47.416" x2="36.499" y2="48.413" gradientUnits="userSpaceOnUse"><stop stop-color="#F5F5F5"/><stop offset="1" stop-color="#78787A"/></linearGradient><linearGradient id="m" x1="36.499" y1="47.416" x2="36.499" y2="48.413" gradientUnits="userSpaceOnUse"><stop stop-color="#F5F5F5"/><stop offset="1" stop-color="#78787A"/></linearGradient><linearGradient id="n" x1="36.499" y1="47.416" x2="36.499" y2="48.413" gradientUnits="userSpaceOnUse"><stop stop-color="#F5F5F5"/><stop offset="1" stop-color="#78787A"/></linearGradient><linearGradient id="o" x1="36.499" y1="47.416" x2="36.499" y2="48.413" gradientUnits="userSpaceOnUse"><stop stop-color="#F5F5F5"/><stop offset="1" stop-color="#78787A"/></linearGradient><linearGradient id="p" x1="36.499" y1="47.416" x2="36.499" y2="48.413" gradientUnits="userSpaceOnUse"><stop stop-color="#F5F5F5"/><stop offset="1" stop-color="#78787A"/></linearGradient><linearGradient id="q" x1="36.499" y1="47.416" x2="36.499" y2="48.413" gradientUnits="userSpaceOnUse"><stop stop-color="#F5F5F5"/><stop offset="1" stop-color="#78787A"/></linearGradient><linearGradient id="r" x1="36.499" y1="47.416" x2="36.499" y2="48.413" gradientUnits="userSpaceOnUse"><stop stop-color="#F5F5F5"/><stop offset="1" stop-color="#78787A"/></linearGradient><clipPath id="a"><path fill="#fff" d="M28.277 38.889h15.873v9.524h-15.873z"/></clipPath></defs></svg>