<svg width="36" height="35" viewBox="0 0 36 35" xmlns="http://www.w3.org/2000/svg" fill="none"><path d="M12.283 29.167c2.156.072 4.306-.289 6.32-1.061 2.015-.773 3.854-1.941 5.409-3.437 1.555-1.495 2.795-3.288 3.646-5.27.851-1.983 1.296-4.116 1.308-6.273.988-1.223 1.722-2.631 2.158-4.142.033-.119.03-.246-.008-.363-.038-.118-.108-.222-.204-.301-.096-.079-.212-.128-.335-.142-.123-.014-.247.008-.358.063-.517.249-1.099.329-1.664.23s-1.085-.374-1.486-.784c-.512-.561-1.131-1.013-1.821-1.33-.69-.317-1.436-.492-2.195-.515-.759-.023-1.515.106-2.222.381-.708.274-1.354.688-1.899 1.216-.746.723-1.293 1.626-1.587 2.623-.294.997-.325 2.052-.09 3.064-4.886.292-8.24-2.027-10.923-5.206-.081-.091-.186-.157-.303-.189-.117-.032-.242-.03-.358.007-.116.037-.219.107-.295.202-.077.095-.124.209-.137.33-.511 2.836-.142 5.76 1.057 8.38 1.199 2.62 3.171 4.81 5.652 6.277-1.663 1.907-3.998 3.098-6.519 3.325-.135.022-.26.086-.356.183-.097.097-.161.221-.183.356-.022.135-.002.274.058.397.06.123.157.224.278.289 2.193 1.096 4.607 1.674 7.058 1.692z" fill="#50D9D7"/></svg>