<svg width="42" height="43" viewBox="0 0 42 43" xmlns="http://www.w3.org/2000/svg" fill="none"><path d="M19.047 6.713c.647-1.284 2.479-1.284 3.126 0l1.736 3.447c.39.774 1.288 1.146 2.111.874l3.665-1.209c1.365-.45 2.661.845 2.21 2.21l-1.209 3.665c-.272.823.1 1.721.874 2.111l3.447 1.736c1.284.647 1.284 2.479 0 3.126l-3.447 1.736c-.774.39-1.146 1.288-.874 2.111l1.209 3.665c.45 1.365-.845 2.661-2.21 2.21l-3.665-1.209c-.823-.272-1.721.1-2.111.874l-1.736 3.447c-.647 1.284-2.479 1.284-3.126 0l-1.736-3.447c-.39-.774-1.288-1.146-2.111-.874l-3.665 1.209c-1.365.45-2.661-.845-2.21-2.21l1.209-3.665c.272-.823-.1-1.721-.874-2.111l-3.447-1.736c-1.284-.647-1.284-2.479 0-3.126l3.447-1.736c.774-.39 1.146-1.288.874-2.111l-1.209-3.665c-.45-1.365.845-2.661 2.21-2.21l3.665 1.209c.823.272 1.721-.1 2.111-.874l1.736-3.447z" fill="#1D5352"/><path d="M15.75 21.5l3.5 3.5 7-7" stroke="#50D9D7" stroke-width="2.5" stroke-linecap="round" stroke-linejoin="round"/></svg>