
<svg width="36" height="35" viewBox="0 0 36 35" xmlns="http://www.w3.org/2000/svg" fill="none"><path d="M34.041 14.16c.072-2.087-.384-4.159-1.327-6.023-.64-.765-1.527-1.281-2.508-1.458-4.058-.368-8.132-.519-12.206-.452-4.059-.07-8.119.076-12.162.438-.799.145-1.539.52-2.129 1.079-1.313 1.21-1.458 3.281-1.604 5.031-.212 3.146-.212 6.303 0 9.45.042.985.189 1.963.438 2.917.176.737.532 1.418 1.035 1.983.594.588 1.351.985 2.173 1.137 3.144.388 6.312.549 9.479.481 5.104.073 9.581 0 14.875-.408.842-.143 1.62-.54 2.231-1.137.408-.409.713-.908.89-1.458.522-1.6.778-3.275.758-4.958.058-.817.058-5.746.058-6.621zm-19.337 7.496v-9.027l8.633 4.536c-2.421 1.342-5.614 2.858-8.633 4.492z" fill="#50D9D7"/></svg>