<svg width="264" height="264" viewBox="0 0 264 264" fill="none" xmlns="http://www.w3.org/2000/svg">
<g filter="url(#filter0_b_3412_89605)">
<mask id="path-1-inside-1_3412_89605" fill="white">
<path fill-rule="evenodd" clip-rule="evenodd" d="M0 12C0 5.37258 5.37258 0 12 0H208.042C214.669 0 220.042 5.37258 220.042 12V66.302C220.042 67.7231 221.243 68.842 222.664 68.842C244.943 68.842 263.005 86.9033 263.005 109.183C263.005 131.463 244.943 149.524 222.664 149.524C221.243 149.524 220.042 150.643 220.042 152.064V206.575C220.042 213.202 214.669 218.575 208.042 218.575H156.247C153.57 218.575 151.517 220.925 151.517 223.603C151.517 245.882 133.456 263.944 111.176 263.944C88.8962 263.944 70.835 245.882 70.835 223.603C70.835 220.925 68.7817 218.575 66.1044 218.575H12C5.37258 218.575 0 213.202 0 206.575V12Z"/>
</mask>
<path d="M208.042 -1H12V1H208.042V-1ZM221.042 66.302V12H219.042V66.302H221.042ZM264.005 109.183C264.005 86.351 245.496 67.842 222.664 67.842V69.842C244.391 69.842 262.005 87.4555 262.005 109.183H264.005ZM222.664 150.524C245.496 150.524 264.005 132.015 264.005 109.183H262.005C262.005 130.91 244.391 148.524 222.664 148.524V150.524ZM221.042 206.575V152.064H219.042V206.575H221.042ZM156.247 219.575H208.042V217.575H156.247V219.575ZM150.517 223.603C150.517 245.33 132.903 262.944 111.176 262.944V264.944C134.008 264.944 152.517 246.435 152.517 223.603H150.517ZM111.176 262.944C89.4485 262.944 71.835 245.33 71.835 223.603H69.835C69.835 246.435 88.3439 264.944 111.176 264.944V262.944ZM12 219.575H66.1044V217.575H12V219.575ZM-1 12V206.575H1V12H-1ZM156.247 217.575C152.94 217.575 150.517 220.454 150.517 223.603H152.517C152.517 221.397 154.2 219.575 156.247 219.575V217.575ZM219.042 206.575C219.042 212.65 214.117 217.575 208.042 217.575V219.575C215.221 219.575 221.042 213.754 221.042 206.575H219.042ZM12 217.575C5.92487 217.575 1 212.65 1 206.575H-1C-1 213.754 4.8203 219.575 12 219.575V217.575ZM219.042 66.302C219.042 68.3163 220.732 69.842 222.664 69.842V67.842C221.753 67.842 221.042 67.1299 221.042 66.302H219.042ZM222.664 148.524C220.732 148.524 219.042 150.05 219.042 152.064H221.042C221.042 151.236 221.753 150.524 222.664 150.524V148.524ZM71.835 223.603C71.835 220.454 69.4114 217.575 66.1044 217.575V219.575C68.1519 219.575 69.835 221.397 69.835 223.603H71.835ZM12 -1C4.8203 -1 -1 4.8203 -1 12H1C1 5.92487 5.92487 1 12 1V-1ZM208.042 1C214.117 1 219.042 5.92487 219.042 12H221.042C221.042 4.8203 215.221 -1 208.042 -1V1Z" fill="#50D9D7" mask="url(#path-1-inside-1_3412_89605)"/>
</g>
<defs>
<filter id="filter0_b_3412_89605" x="-40" y="-40" width="343.004" height="343.944" filterUnits="userSpaceOnUse" color-interpolation-filters="sRGB">
<feFlood flood-opacity="0" result="BackgroundImageFix"/>
<feGaussianBlur in="BackgroundImageFix" stdDeviation="20"/>
<feComposite in2="SourceAlpha" operator="in" result="effect1_backgroundBlur_3412_89605"/>
<feBlend mode="normal" in="SourceGraphic" in2="effect1_backgroundBlur_3412_89605" result="shape"/>
</filter>
</defs>
</svg>
