<svg width="221" height="219" viewBox="0 0 221 219" fill="none" xmlns="http://www.w3.org/2000/svg">
<g filter="url(#filter0_b_3303_78739)">
<mask id="path-1-inside-1_3303_78739" fill="white">
<path fill-rule="evenodd" clip-rule="evenodd" d="M71.2778 3.25697C71.2778 25.5367 89.3391 43.5979 111.619 43.5979C133.898 43.5979 151.96 25.5367 151.96 3.25697C151.96 1.72174 153.166 0.419922 154.701 0.419922H208.223C214.85 0.419922 220.223 5.7925 220.223 12.4199V62.771C220.223 63.174 219.892 63.498 219.489 63.498C197.209 63.498 179.148 81.5593 179.148 103.839C179.148 126.119 197.209 144.18 219.489 144.18C219.892 144.18 220.223 144.504 220.223 144.907V206.995C220.223 213.622 214.85 218.995 208.223 218.995H160.059C154.016 218.995 149.093 214.389 146.796 208.8C140.762 194.121 126.322 183.785 109.468 183.785C92.6143 183.785 78.1743 194.121 72.1408 208.8C69.8434 214.389 64.9209 218.995 58.8778 218.995H12.1811C5.55368 218.995 0.181091 213.622 0.181091 206.995V151.451C0.181091 150.67 0.828308 150.047 1.60881 150.047C23.8885 150.047 41.9498 131.986 41.9498 109.706C41.9498 87.4267 23.8885 69.3654 1.60881 69.3654C0.828308 69.3654 0.181091 68.7427 0.181091 67.9622V12.4199C0.181091 5.79251 5.55368 0.419922 12.1811 0.419922H68.5367C70.0719 0.419922 71.2778 1.72174 71.2778 3.25697Z"/>
</mask>
<path d="M72.1408 208.8L71.2159 208.419L72.1408 208.8ZM111.619 44.5979C88.7868 44.5979 70.2778 26.0889 70.2778 3.25697H72.2778C72.2778 24.9844 89.8914 42.5979 111.619 42.5979V44.5979ZM152.96 3.25697C152.96 26.0889 134.451 44.5979 111.619 44.5979V42.5979C133.346 42.5979 150.96 24.9844 150.96 3.25697H152.96ZM208.223 1.41992H154.701V-0.580078H208.223V1.41992ZM219.223 62.771V12.4199H221.223V62.771H219.223ZM178.148 103.839C178.148 81.007 196.657 62.498 219.489 62.498V64.498C197.762 64.498 180.148 82.1116 180.148 103.839H178.148ZM219.489 145.18C196.657 145.18 178.148 126.671 178.148 103.839H180.148C180.148 125.566 197.762 143.18 219.489 143.18V145.18ZM219.223 206.995V144.907H221.223V206.995H219.223ZM160.059 217.995H208.223V219.995H160.059V217.995ZM145.871 209.18C139.986 194.863 125.903 184.785 109.468 184.785V182.785C126.742 182.785 141.539 193.379 147.721 208.419L145.871 209.18ZM109.468 184.785C93.0337 184.785 78.9504 194.863 73.0657 209.18L71.2159 208.419C77.3981 193.379 92.1949 182.785 109.468 182.785V184.785ZM12.1811 217.995H58.8778V219.995H12.1811V217.995ZM1.18109 151.451V206.995H-0.818909V151.451H1.18109ZM42.9498 109.706C42.9498 132.538 24.4408 151.047 1.60881 151.047V149.047C23.3362 149.047 40.9498 131.434 40.9498 109.706H42.9498ZM1.60881 68.3654C24.4408 68.3654 42.9498 86.8744 42.9498 109.706H40.9498C40.9498 87.979 23.3362 70.3654 1.60881 70.3654V68.3654ZM1.18109 12.4199V67.9622H-0.818909V12.4199H1.18109ZM68.5367 1.41992H12.1811V-0.580078H68.5367V1.41992ZM68.5367 -0.580078C70.6684 -0.580078 72.2778 1.21472 72.2778 3.25697H70.2778C70.2778 2.22876 69.4754 1.41992 68.5367 1.41992V-0.580078ZM1.60881 70.3654C0.298691 70.3654 -0.818909 69.3174 -0.818909 67.9622H1.18109C1.18109 68.1681 1.35793 68.3654 1.60881 68.3654V70.3654ZM73.0657 209.18C70.6746 214.997 65.4647 219.995 58.8778 219.995V217.995C64.3771 217.995 69.0122 213.781 71.2159 208.419L73.0657 209.18ZM160.059 219.995C153.472 219.995 148.262 214.997 145.871 209.18L147.721 208.419C149.925 213.781 154.56 217.995 160.059 217.995V219.995ZM221.223 206.995C221.223 214.174 215.402 219.995 208.223 219.995V217.995C214.298 217.995 219.223 213.07 219.223 206.995H221.223ZM221.223 62.771C221.223 63.7379 220.433 64.498 219.489 64.498V62.498C219.351 62.498 219.223 62.6102 219.223 62.771H221.223ZM-0.818909 12.4199C-0.818909 5.24022 5.0014 -0.580078 12.1811 -0.580078V1.41992C6.10597 1.41992 1.18109 6.34479 1.18109 12.4199H-0.818909ZM219.489 143.18C220.433 143.18 221.223 143.94 221.223 144.907H219.223C219.223 145.068 219.351 145.18 219.489 145.18V143.18ZM-0.818909 151.451C-0.818909 150.095 0.298691 149.047 1.60881 149.047V151.047C1.35791 151.047 1.18109 151.245 1.18109 151.451H-0.818909ZM208.223 -0.580078C215.402 -0.580078 221.223 5.24021 221.223 12.4199H219.223C219.223 6.34478 214.298 1.41992 208.223 1.41992V-0.580078ZM12.1811 219.995C5.00139 219.995 -0.818909 214.174 -0.818909 206.995H1.18109C1.18109 213.07 6.10596 217.995 12.1811 217.995V219.995ZM150.96 3.25697C150.96 1.21472 152.569 -0.580078 154.701 -0.580078V1.41992C153.762 1.41992 152.96 2.22876 152.96 3.25697H150.96Z" fill="#50D9D7" mask="url(#path-1-inside-1_3303_78739)"/>
</g>
<defs>
<filter id="filter0_b_3303_78739" x="-39.8184" y="-39.5801" width="300.041" height="298.575" filterUnits="userSpaceOnUse" color-interpolation-filters="sRGB">
<feFlood flood-opacity="0" result="BackgroundImageFix"/>
<feGaussianBlur in="BackgroundImageFix" stdDeviation="20"/>
<feComposite in2="SourceAlpha" operator="in" result="effect1_backgroundBlur_3303_78739"/>
<feBlend mode="normal" in="SourceGraphic" in2="effect1_backgroundBlur_3303_78739" result="shape"/>
</filter>
</defs>
</svg>
