<svg width="303" height="300" viewBox="0 0 303 300" fill="none" xmlns="http://www.w3.org/2000/svg">
<g filter="url(#filter0_b_3303_78703)">
<mask id="path-1-inside-1_3303_78703" fill="white">
<path fill-rule="evenodd" clip-rule="evenodd" d="M111.321 258.809C111.321 258.579 111.135 258.391 110.904 258.391H53.3527C46.7253 258.391 41.3527 253.018 41.3527 246.391V184.692C41.3527 184.148 40.9053 183.713 40.3619 183.713C18.0822 183.713 0.0209656 165.652 0.0209656 143.372C0.0209656 121.092 18.0822 103.031 40.3619 103.031C40.9053 103.031 41.3527 102.595 41.3527 102.052V51.816C41.3527 45.1886 46.7253 39.816 53.3527 39.816H97.4632C103.951 39.816 109.083 34.5444 111.118 28.3845C116.428 12.3081 131.575 0.706757 149.431 0.706757C167.287 0.706757 182.434 12.3081 187.745 28.3845C189.78 34.5444 194.912 39.816 201.399 39.816H249.394C256.022 39.816 261.394 45.1886 261.394 51.816V108.023C261.394 108.426 261.725 108.75 262.128 108.75C284.407 108.75 302.469 126.811 302.469 149.091C302.469 171.37 284.407 189.432 262.128 189.432C261.725 189.432 261.394 189.756 261.394 190.159V246.391C261.394 253.018 256.022 258.391 249.394 258.391H192.42C192.189 258.391 192.003 258.579 192.003 258.809C192.003 281.089 173.942 299.15 151.662 299.15C129.382 299.15 111.321 281.089 111.321 258.809Z"/>
</mask>
<path d="M111.118 28.3845L112.067 28.6982L111.118 28.3845ZM53.3527 259.391H110.904V257.391H53.3527V259.391ZM40.3527 184.692V246.391H42.3527V184.692H40.3527ZM-0.979034 143.372C-0.979034 166.204 17.53 184.713 40.3619 184.713V182.713C18.6345 182.713 1.02097 165.099 1.02097 143.372H-0.979034ZM40.3619 102.031C17.53 102.031 -0.979034 120.54 -0.979034 143.372H1.02097C1.02097 121.645 18.6345 104.031 40.3619 104.031V102.031ZM40.3527 51.816V102.052H42.3527V51.816H40.3527ZM97.4632 38.816H53.3527V40.816H97.4632V38.816ZM112.067 28.6982C117.247 13.0192 132.019 1.70676 149.431 1.70676V-0.293243C131.131 -0.293243 115.61 11.597 110.168 28.0708L112.067 28.6982ZM149.431 1.70676C166.843 1.70676 181.616 13.0192 186.795 28.6982L188.694 28.0708C183.252 11.597 167.732 -0.293243 149.431 -0.293243V1.70676ZM249.394 38.816H201.399V40.816H249.394V38.816ZM262.394 108.023V51.816H260.394V108.023H262.394ZM303.469 149.091C303.469 126.259 284.96 107.75 262.128 107.75V109.75C283.855 109.75 301.469 127.363 301.469 149.091H303.469ZM262.128 190.432C284.96 190.432 303.469 171.923 303.469 149.091H301.469C301.469 170.818 283.855 188.432 262.128 188.432V190.432ZM262.394 246.391V190.159H260.394V246.391H262.394ZM192.42 259.391H249.394V257.391H192.42V259.391ZM151.662 300.15C174.494 300.15 193.003 281.641 193.003 258.809H191.003C191.003 280.537 173.389 298.15 151.662 298.15V300.15ZM110.321 258.809C110.321 281.641 128.83 300.15 151.662 300.15V298.15C129.935 298.15 112.321 280.537 112.321 258.809H110.321ZM192.42 257.391C191.63 257.391 191.003 258.033 191.003 258.809H193.003C193.003 259.124 192.748 259.391 192.42 259.391V257.391ZM262.128 188.432C261.184 188.432 260.394 189.192 260.394 190.159H262.394C262.394 190.319 262.265 190.432 262.128 190.432V188.432ZM249.394 40.816C255.469 40.816 260.394 45.7408 260.394 51.816H262.394C262.394 44.6363 256.574 38.816 249.394 38.816V40.816ZM97.4632 40.816C104.536 40.816 109.953 35.0995 112.067 28.6982L110.168 28.0708C108.213 33.9894 103.365 38.816 97.4632 38.816V40.816ZM42.3527 51.816C42.3527 45.7408 47.2776 40.816 53.3527 40.816V38.816C46.173 38.816 40.3527 44.6363 40.3527 51.816H42.3527ZM42.3527 184.692C42.3527 183.581 41.4419 182.713 40.3619 182.713V184.713C40.3633 184.713 40.3625 184.713 40.3613 184.712C40.3606 184.712 40.3603 184.712 40.3599 184.712C40.3594 184.711 40.3576 184.709 40.3557 184.705C40.3548 184.703 40.3539 184.7 40.3534 184.697C40.3528 184.695 40.3527 184.693 40.3527 184.692H42.3527ZM260.394 246.391C260.394 252.466 255.469 257.391 249.394 257.391V259.391C256.574 259.391 262.394 253.57 262.394 246.391H260.394ZM40.3619 104.031C41.4419 104.031 42.3527 103.163 42.3527 102.052H40.3527C40.3527 102.051 40.3528 102.049 40.3534 102.046C40.3539 102.044 40.3548 102.041 40.3557 102.039C40.3576 102.035 40.3594 102.033 40.3599 102.032C40.3603 102.032 40.3606 102.032 40.3613 102.031C40.3625 102.031 40.3633 102.031 40.3619 102.031V104.031ZM260.394 108.023C260.394 108.99 261.184 109.75 262.128 109.75V107.75C262.265 107.75 262.394 107.862 262.394 108.023H260.394ZM53.3527 257.391C47.2776 257.391 42.3527 252.466 42.3527 246.391H40.3527C40.3527 253.57 46.173 259.391 53.3527 259.391V257.391ZM186.795 28.6982C188.91 35.0995 194.326 40.816 201.399 40.816V38.816C195.497 38.816 190.649 33.9894 188.694 28.0708L186.795 28.6982ZM112.321 258.809C112.321 258.033 111.694 257.391 110.904 257.391V259.391C110.576 259.391 110.321 259.124 110.321 258.809H112.321Z" fill="#50D9D7" mask="url(#path-1-inside-1_3303_78703)"/>
</g>
<defs>
<filter id="filter0_b_3303_78703" x="-39.9785" y="-39.2932" width="382.447" height="378.444" filterUnits="userSpaceOnUse" color-interpolation-filters="sRGB">
<feFlood flood-opacity="0" result="BackgroundImageFix"/>
<feGaussianBlur in="BackgroundImageFix" stdDeviation="20"/>
<feComposite in2="SourceAlpha" operator="in" result="effect1_backgroundBlur_3303_78703"/>
<feBlend mode="normal" in="SourceGraphic" in2="effect1_backgroundBlur_3303_78703" result="shape"/>
</filter>
</defs>
</svg>
