<svg width="221" height="219" viewBox="0 0 221 219" fill="none" xmlns="http://www.w3.org/2000/svg">
<g filter="url(#filter0_b_3303_78729)">
<mask id="path-1-inside-1_3303_78729" fill="white">
<path fill-rule="evenodd" clip-rule="evenodd" d="M111.437 40.76C89.1574 40.76 71.0962 22.6988 71.0962 0.419079C71.0962 0.188317 70.91 0 70.6792 0H11.9995C5.37202 0 -0.000549316 5.37258 -0.000549316 12V67.5423C-0.000549316 68.3228 0.646667 68.9455 1.42717 68.9455C23.7069 68.9455 41.7681 87.0068 41.7681 109.286C41.7681 131.566 23.7069 149.627 1.42717 149.627C0.646667 149.627 -0.000549316 150.25 -0.000549316 151.031V206.575C-0.000549316 213.202 5.37204 218.575 11.9995 218.575H69.8831C69.9476 218.575 69.9998 218.522 69.9996 218.458C69.9995 218.419 69.9995 218.38 69.9995 218.341C69.9995 196.061 88.0607 178 110.34 178C132.62 178 150.681 196.061 150.681 218.341C150.681 218.47 150.786 218.575 150.914 218.575H208.041C214.668 218.575 220.041 213.202 220.041 206.575V12C220.041 5.37258 214.668 0 208.041 0H152.195C151.964 0 151.778 0.188317 151.778 0.419079C151.778 22.6988 133.717 40.76 111.437 40.76Z"/>
</mask>
<path d="M69.9996 218.458L70.9996 218.455V218.455L69.9996 218.458ZM72.0962 0.419079C72.0962 22.1465 89.7097 39.76 111.437 39.76V41.76C88.6051 41.76 70.0962 23.2511 70.0962 0.419079H72.0962ZM70.6792 1H11.9995V-1H70.6792V1ZM0.999451 12V67.5423H-1.00055V12H0.999451ZM1.42717 67.9455C24.2592 67.9455 42.7681 86.4545 42.7681 109.286H40.7681C40.7681 87.5591 23.1546 69.9455 1.42717 69.9455V67.9455ZM42.7681 109.286C42.7681 132.118 24.2592 150.627 1.42717 150.627V148.627C23.1546 148.627 40.7681 131.014 40.7681 109.286H42.7681ZM0.999451 151.031V206.575H-1.00055V151.031H0.999451ZM11.9995 217.575H69.8831V219.575H11.9995V217.575ZM68.9996 218.46C68.9995 218.42 68.9995 218.381 68.9995 218.341H70.9995C70.9995 218.379 70.9995 218.417 70.9996 218.455L68.9996 218.46ZM68.9995 218.341C68.9995 195.509 87.5085 177 110.34 177V179C88.613 179 70.9995 196.614 70.9995 218.341H68.9995ZM110.34 177C133.172 177 151.681 195.509 151.681 218.341H149.681C149.681 196.614 132.068 179 110.34 179V177ZM150.914 217.575H208.041V219.575H150.914V217.575ZM219.041 206.575V12H221.041V206.575H219.041ZM208.041 1H152.195V-1H208.041V1ZM111.437 39.76C133.165 39.76 150.778 22.1465 150.778 0.419079H152.778C152.778 23.2511 134.269 41.76 111.437 41.76V39.76ZM152.195 1C152.523 1 152.778 0.733968 152.778 0.419079H150.778C150.778 -0.357335 151.405 -1 152.195 -1V1ZM219.041 12C219.041 5.92486 214.116 1 208.041 1V-1C215.221 -1 221.041 4.82029 221.041 12H219.041ZM208.041 217.575C214.116 217.575 219.041 212.65 219.041 206.575H221.041C221.041 213.754 215.221 219.575 208.041 219.575V217.575ZM69.8831 217.575C69.3922 217.575 68.9983 217.974 68.9996 218.46L70.9996 218.455C71.0013 219.071 70.5031 219.575 69.8831 219.575V217.575ZM0.999451 206.575C0.999451 212.65 5.92432 217.575 11.9995 217.575V219.575C4.81975 219.575 -1.00055 213.754 -1.00055 206.575H0.999451ZM151.681 218.341C151.681 217.921 151.342 217.575 150.914 217.575V219.575C150.23 219.575 149.681 219.018 149.681 218.341H151.681ZM0.999451 67.5423C0.999451 67.7481 1.17628 67.9455 1.42717 67.9455V69.9455C0.11705 69.9455 -1.00055 68.8975 -1.00055 67.5423H0.999451ZM1.42717 150.627C1.17627 150.627 0.999451 150.825 0.999451 151.031H-1.00055C-1.00055 149.675 0.11705 148.627 1.42717 148.627V150.627ZM11.9995 1C5.92432 1 0.999451 5.92487 0.999451 12H-1.00055C-1.00055 4.8203 4.81975 -1 11.9995 -1V1ZM70.0962 0.419079C70.0962 0.733957 70.3511 1 70.6792 1V-1C71.4689 -1 72.0962 -0.357324 72.0962 0.419079H70.0962Z" fill="#50D9D7" mask="url(#path-1-inside-1_3303_78729)"/>
</g>
<defs>
<filter id="filter0_b_3303_78729" x="-40" y="-40" width="300.041" height="298.575" filterUnits="userSpaceOnUse" color-interpolation-filters="sRGB">
<feFlood flood-opacity="0" result="BackgroundImageFix"/>
<feGaussianBlur in="BackgroundImageFix" stdDeviation="20"/>
<feComposite in2="SourceAlpha" operator="in" result="effect1_backgroundBlur_3303_78729"/>
<feBlend mode="normal" in="SourceGraphic" in2="effect1_backgroundBlur_3303_78729" result="shape"/>
</filter>
</defs>
</svg>
