<svg width="221" height="219" viewBox="0 0 221 219" fill="none" xmlns="http://www.w3.org/2000/svg">
<g filter="url(#filter0_b_3303_78745)">
<mask id="path-1-inside-1_3303_78745" fill="white">
<path fill-rule="evenodd" clip-rule="evenodd" d="M111.439 43.3577C89.1594 43.3577 71.0981 25.2964 71.0981 3.01674C71.0981 1.48151 69.8922 0.179688 68.357 0.179688H12.0014C5.37399 0.179688 0.00140381 5.55226 0.00140381 12.1797V206.754C0.00140381 213.382 5.37399 218.754 12.0014 218.754H208.043C214.67 218.754 220.043 213.382 220.043 206.754V144.667C220.043 144.264 219.712 143.94 219.309 143.94C197.03 143.94 178.968 125.878 178.968 103.599C178.968 81.3191 197.03 63.2578 219.309 63.2578C219.712 63.2578 220.043 62.9338 220.043 62.5308V12.1797C220.043 5.55227 214.67 0.179688 208.043 0.179688H154.521C152.986 0.179688 151.78 1.48151 151.78 3.01674C151.78 25.2964 133.719 43.3577 111.439 43.3577Z"/>
</mask>
<path d="M72.0981 3.01674C72.0981 24.7441 89.7117 42.3577 111.439 42.3577V44.3577C88.6071 44.3577 70.0981 25.8487 70.0981 3.01674H72.0981ZM12.0014 -0.820312H68.357V1.17969H12.0014V-0.820312ZM-0.998596 206.754V12.1797H1.0014V206.754H-0.998596ZM208.043 219.754H12.0014V217.754H208.043V219.754ZM221.043 144.667V206.754H219.043V144.667H221.043ZM179.968 103.599C179.968 125.326 197.582 142.94 219.309 142.94V144.94C196.477 144.94 177.968 126.431 177.968 103.599H179.968ZM219.309 64.2578C197.582 64.2578 179.968 81.8714 179.968 103.599H177.968C177.968 80.7668 196.477 62.2578 219.309 62.2578V64.2578ZM221.043 12.1797V62.5308H219.043V12.1797H221.043ZM154.521 -0.820312H208.043V1.17969H154.521V-0.820312ZM111.439 42.3577C133.166 42.3577 150.78 24.7441 150.78 3.01674H152.78C152.78 25.8487 134.271 44.3577 111.439 44.3577V42.3577ZM154.521 1.17969C153.582 1.17969 152.78 1.98852 152.78 3.01674H150.78C150.78 0.974488 152.389 -0.820312 154.521 -0.820312V1.17969ZM219.043 12.1797C219.043 6.10456 214.118 1.17969 208.043 1.17969V-0.820312C215.223 -0.820312 221.043 4.99999 221.043 12.1797H219.043ZM219.309 62.2578C219.172 62.2578 219.043 62.37 219.043 62.5308H221.043C221.043 63.4976 220.253 64.2578 219.309 64.2578V62.2578ZM219.043 144.667C219.043 144.828 219.172 144.94 219.309 144.94V142.94C220.253 142.94 221.043 143.7 221.043 144.667H219.043ZM208.043 217.754C214.118 217.754 219.043 212.829 219.043 206.754H221.043C221.043 213.934 215.223 219.754 208.043 219.754V217.754ZM1.0014 206.754C1.0014 212.829 5.92627 217.754 12.0014 217.754V219.754C4.8217 219.754 -0.998596 213.934 -0.998596 206.754H1.0014ZM12.0014 1.17969C5.92627 1.17969 1.0014 6.10455 1.0014 12.1797H-0.998596C-0.998596 4.99998 4.8217 -0.820312 12.0014 -0.820312V1.17969ZM70.0981 3.01674C70.0981 1.98853 69.2957 1.17969 68.357 1.17969V-0.820312C70.4887 -0.820312 72.0981 0.974483 72.0981 3.01674H70.0981Z" fill="#50D9D7" mask="url(#path-1-inside-1_3303_78745)"/>
</g>
<defs>
<filter id="filter0_b_3303_78745" x="-39.998" y="-39.8203" width="300.041" height="298.575" filterUnits="userSpaceOnUse" color-interpolation-filters="sRGB">
<feFlood flood-opacity="0" result="BackgroundImageFix"/>
<feGaussianBlur in="BackgroundImageFix" stdDeviation="20"/>
<feComposite in2="SourceAlpha" operator="in" result="effect1_backgroundBlur_3303_78745"/>
<feBlend mode="normal" in="SourceGraphic" in2="effect1_backgroundBlur_3303_78745" result="shape"/>
</filter>
</defs>
</svg>
