<svg width="303" height="258" viewBox="0 0 303 258" fill="none" xmlns="http://www.w3.org/2000/svg">
<g filter="url(#filter0_b_3303_78709)">
<mask id="path-1-inside-1_3303_78709" fill="white">
<path fill-rule="evenodd" clip-rule="evenodd" d="M41.3801 245.941C41.3801 252.569 46.7527 257.941 53.3801 257.941H249.422C256.049 257.941 261.422 252.569 261.422 245.941V189.711C261.422 189.308 261.752 188.984 262.155 188.984C284.435 188.984 302.496 170.923 302.496 148.643C302.496 126.364 284.435 108.302 262.155 108.302C261.752 108.302 261.422 107.978 261.422 107.575V51.3668C261.422 44.7394 256.049 39.3668 249.422 39.3668H201.427C194.94 39.3668 189.807 34.0952 187.772 27.9353C182.462 11.8589 167.315 0.257538 149.459 0.257538C131.603 0.257538 116.456 11.8589 111.145 27.9353C109.111 34.0952 103.978 39.3668 97.4908 39.3668H53.3801C46.7527 39.3668 41.3801 44.7394 41.3801 51.3668V101.603C41.3801 102.146 40.9326 102.582 40.3893 102.582C18.1096 102.582 0.0483093 120.643 0.0483093 142.923C0.0483093 165.202 18.1096 183.264 40.3893 183.264C40.9326 183.264 41.3801 183.699 41.3801 184.243V245.941Z"/>
</mask>
<path d="M111.145 27.9353L110.196 27.6216L111.145 27.9353ZM249.422 256.941H53.3801V258.941H249.422V256.941ZM260.422 189.711V245.941H262.422V189.711H260.422ZM301.496 148.643C301.496 170.371 283.883 187.984 262.155 187.984V189.984C284.987 189.984 303.496 171.475 303.496 148.643H301.496ZM262.155 109.302C283.883 109.302 301.496 126.916 301.496 148.643H303.496C303.496 125.811 284.987 107.302 262.155 107.302V109.302ZM260.422 51.3668V107.575H262.422V51.3668H260.422ZM201.427 40.3668H249.422V38.3668H201.427V40.3668ZM149.459 1.25754C166.871 1.25754 181.643 12.57 186.823 28.2489L188.722 27.6216C183.28 11.1478 167.759 -0.742462 149.459 -0.742462V1.25754ZM112.095 28.2489C117.274 12.57 132.047 1.25754 149.459 1.25754V-0.742462C131.158 -0.742462 115.638 11.1478 110.196 27.6216L112.095 28.2489ZM53.3801 40.3668H97.4908V38.3668H53.3801V40.3668ZM42.3801 101.603V51.3668H40.3801V101.603H42.3801ZM1.04831 142.923C1.04831 121.195 18.6619 103.582 40.3893 103.582V101.582C17.5573 101.582 -0.951691 120.091 -0.951691 142.923H1.04831ZM40.3893 182.264C18.6619 182.264 1.04831 164.65 1.04831 142.923H-0.951691C-0.951691 165.755 17.5573 184.264 40.3893 184.264V182.264ZM42.3801 245.941V184.243H40.3801V245.941H42.3801ZM40.3893 184.264C40.3906 184.264 40.3899 184.264 40.3886 184.263C40.388 184.263 40.3877 184.263 40.3872 184.262C40.3868 184.262 40.3849 184.26 40.3831 184.256C40.3821 184.253 40.3813 184.251 40.3808 184.248C40.3802 184.246 40.3801 184.244 40.3801 184.243H42.3801C42.3801 183.131 41.4692 182.264 40.3893 182.264V184.264ZM110.196 27.6216C108.241 33.5402 103.393 38.3668 97.4908 38.3668V40.3668C104.564 40.3668 109.98 34.6503 112.095 28.2489L110.196 27.6216ZM201.427 38.3668C195.525 38.3668 190.677 33.5402 188.722 27.6216L186.823 28.2489C188.937 34.6503 194.354 40.3668 201.427 40.3668V38.3668ZM262.422 51.3668C262.422 44.1871 256.601 38.3668 249.422 38.3668V40.3668C255.497 40.3668 260.422 45.2916 260.422 51.3668H262.422ZM262.422 189.711C262.422 189.872 262.293 189.984 262.155 189.984V187.984C261.211 187.984 260.422 188.745 260.422 189.711H262.422ZM262.155 107.302C262.293 107.302 262.422 107.415 262.422 107.575H260.422C260.422 108.542 261.211 109.302 262.155 109.302V107.302ZM40.3801 101.603C40.3801 101.602 40.3802 101.6 40.3808 101.597C40.3813 101.595 40.3821 101.592 40.3831 101.59C40.3849 101.585 40.3868 101.584 40.3872 101.583C40.3877 101.583 40.388 101.582 40.3886 101.582C40.3899 101.582 40.3906 101.582 40.3893 101.582V103.582C41.4692 103.582 42.3801 102.714 42.3801 101.603H40.3801ZM53.3801 256.941C47.305 256.941 42.3801 252.017 42.3801 245.941H40.3801C40.3801 253.121 46.2004 258.941 53.3801 258.941V256.941ZM53.3801 38.3668C46.2004 38.3668 40.3801 44.1871 40.3801 51.3668H42.3801C42.3801 45.2916 47.305 40.3668 53.3801 40.3668V38.3668ZM249.422 258.941C256.601 258.941 262.422 253.121 262.422 245.941H260.422C260.422 252.017 255.497 256.941 249.422 256.941V258.941Z" fill="#50D9D7" mask="url(#path-1-inside-1_3303_78709)"/>
</g>
<defs>
<filter id="filter0_b_3303_78709" x="-39.9512" y="-39.7424" width="382.447" height="337.684" filterUnits="userSpaceOnUse" color-interpolation-filters="sRGB">
<feFlood flood-opacity="0" result="BackgroundImageFix"/>
<feGaussianBlur in="BackgroundImageFix" stdDeviation="20"/>
<feComposite in2="SourceAlpha" operator="in" result="effect1_backgroundBlur_3303_78709"/>
<feBlend mode="normal" in="SourceGraphic" in2="effect1_backgroundBlur_3303_78709" result="shape"/>
</filter>
</defs>
</svg>
