<svg width="221" height="220" viewBox="0 0 221 220" fill="none" xmlns="http://www.w3.org/2000/svg">
<g filter="url(#filter0_b_3303_78734)">
<mask id="path-1-inside-1_3303_78734" fill="white">
<path fill-rule="evenodd" clip-rule="evenodd" d="M112.38 41.7288C90.1008 41.7288 72.0395 23.6675 72.0395 1.38783C72.0395 1.15707 71.8533 0.96875 71.6226 0.96875H12.9428C6.31538 0.96875 0.94281 6.34133 0.94281 12.9688V68.5111C0.94281 69.2916 1.59001 69.9143 2.37051 69.9143C24.6502 69.9143 42.7115 87.9755 42.7115 110.255C42.7115 132.535 24.6502 150.596 2.37051 150.596C1.59001 150.596 0.94281 151.219 0.94281 151.999V207.543C0.94281 214.171 6.3154 219.543 12.9428 219.543H208.984C215.612 219.543 220.984 214.171 220.984 207.543V145.456C220.984 145.053 220.654 144.729 220.251 144.729C197.971 144.729 179.91 126.668 179.91 104.388C179.91 82.1081 197.971 64.0469 220.251 64.0469C220.654 64.0469 220.984 63.7228 220.984 63.3198V12.9687C220.984 6.34132 215.612 0.96875 208.984 0.96875H153.138C152.908 0.96875 152.721 1.15707 152.721 1.38783C152.721 23.6675 134.66 41.7288 112.38 41.7288Z"/>
</mask>
<path d="M73.0395 1.38783C73.0395 23.1152 90.6531 40.7288 112.38 40.7288V42.7288C89.5485 42.7288 71.0395 24.2198 71.0395 1.38783H73.0395ZM71.6226 1.96875H12.9428V-0.03125H71.6226V1.96875ZM1.94281 12.9688V68.5111H-0.0571899V12.9688H1.94281ZM2.37051 68.9143C25.2025 68.9143 43.7115 87.4232 43.7115 110.255H41.7115C41.7115 88.5278 24.0979 70.9143 2.37051 70.9143V68.9143ZM43.7115 110.255C43.7115 133.087 25.2025 151.596 2.37051 151.596V149.596C24.0979 149.596 41.7115 131.983 41.7115 110.255H43.7115ZM1.94281 151.999V207.543H-0.0571899V151.999H1.94281ZM12.9428 218.543H208.984V220.543H12.9428V218.543ZM219.984 207.543V145.456H221.984V207.543H219.984ZM220.251 145.729C197.419 145.729 178.91 127.22 178.91 104.388H180.91C180.91 126.115 198.523 143.729 220.251 143.729V145.729ZM178.91 104.388C178.91 81.5559 197.419 63.0469 220.251 63.0469V65.0469C198.523 65.0469 180.91 82.6604 180.91 104.388H178.91ZM219.984 63.3198V12.9687H221.984V63.3198H219.984ZM208.984 1.96875H153.138V-0.03125H208.984V1.96875ZM112.38 40.7288C134.108 40.7288 151.721 23.1152 151.721 1.38783H153.721C153.721 24.2198 135.212 42.7288 112.38 42.7288V40.7288ZM153.138 1.96875C153.467 1.96875 153.721 1.70272 153.721 1.38783H151.721C151.721 0.611415 152.349 -0.03125 153.138 -0.03125V1.96875ZM219.984 12.9687C219.984 6.89361 215.06 1.96875 208.984 1.96875V-0.03125C216.164 -0.03125 221.984 5.78904 221.984 12.9687H219.984ZM219.984 145.456C219.984 145.617 220.113 145.729 220.251 145.729V143.729C221.195 143.729 221.984 144.489 221.984 145.456H219.984ZM208.984 218.543C215.06 218.543 219.984 213.619 219.984 207.543H221.984C221.984 214.723 216.164 220.543 208.984 220.543V218.543ZM1.94281 207.543C1.94281 213.619 6.86768 218.543 12.9428 218.543V220.543C5.76311 220.543 -0.0571899 214.723 -0.0571899 207.543H1.94281ZM220.251 63.0469C220.113 63.0469 219.984 63.159 219.984 63.3198H221.984C221.984 64.2867 221.195 65.0469 220.251 65.0469V63.0469ZM1.94281 68.5111C1.94281 68.7169 2.11963 68.9143 2.37051 68.9143V70.9143C1.06039 70.9143 -0.0571899 69.8662 -0.0571899 68.5111H1.94281ZM2.37051 151.596C2.11963 151.596 1.94281 151.794 1.94281 151.999H-0.0571899C-0.0571899 150.644 1.06039 149.596 2.37051 149.596V151.596ZM12.9428 1.96875C6.86768 1.96875 1.94281 6.89362 1.94281 12.9688H-0.0571899C-0.0571899 5.78905 5.76311 -0.03125 12.9428 -0.03125V1.96875ZM71.0395 1.38783C71.0395 1.70271 71.2944 1.96875 71.6226 1.96875V-0.03125C72.4122 -0.03125 73.0395 0.611426 73.0395 1.38783H71.0395Z" fill="#50D9D7" mask="url(#path-1-inside-1_3303_78734)"/>
</g>
<defs>
<filter id="filter0_b_3303_78734" x="-39.0566" y="-39.0312" width="300.041" height="298.575" filterUnits="userSpaceOnUse" color-interpolation-filters="sRGB">
<feFlood flood-opacity="0" result="BackgroundImageFix"/>
<feGaussianBlur in="BackgroundImageFix" stdDeviation="20"/>
<feComposite in2="SourceAlpha" operator="in" result="effect1_backgroundBlur_3303_78734"/>
<feBlend mode="normal" in="SourceGraphic" in2="effect1_backgroundBlur_3303_78734" result="shape"/>
</filter>
</defs>
</svg>
