<svg width="262" height="258" viewBox="0 0 262 258" fill="none" xmlns="http://www.w3.org/2000/svg">
<g filter="url(#filter0_b_3303_78699)">
<mask id="path-1-inside-1_3303_78699" fill="white">
<path fill-rule="evenodd" clip-rule="evenodd" d="M261.373 245.684C261.373 252.311 256 257.684 249.373 257.684H53.3315C46.7041 257.684 41.3315 252.311 41.3315 245.684V183.987C41.3315 183.444 40.8839 183.008 40.3404 183.008C18.0607 183.008 -0.000518799 164.947 -0.000518799 142.667C-0.000518799 120.387 18.0607 102.326 40.3404 102.326C40.8839 102.326 41.3315 101.89 41.3315 101.347V51.109C41.3315 44.4816 46.7041 39.109 53.3315 39.109H99.8604C106.348 39.109 111.48 33.8374 113.515 27.6775C118.826 11.6011 133.972 -0.000274658 151.828 -0.000274658C169.685 -0.000274658 184.831 11.6011 190.142 27.6775C192.177 33.8374 197.309 39.109 203.797 39.109H249.373C256 39.109 261.373 44.4815 261.373 51.109V245.684Z"/>
</mask>
<path d="M113.515 27.6775L112.566 27.3638L113.515 27.6775ZM53.3315 258.684H249.373V256.684H53.3315V258.684ZM40.3315 183.987V245.684H42.3315V183.987H40.3315ZM-1.00052 142.667C-1.00052 165.499 17.5085 184.008 40.3404 184.008V182.008C18.613 182.008 0.999481 164.394 0.999481 142.667H-1.00052ZM40.3404 101.326C17.5085 101.326 -1.00052 119.835 -1.00052 142.667H0.999481C0.999481 120.939 18.613 103.326 40.3404 103.326V101.326ZM40.3315 51.109V101.347H42.3315V51.109H40.3315ZM99.8604 38.109H53.3315V40.109H99.8604V38.109ZM114.465 27.9911C119.644 12.3122 134.416 0.999725 151.828 0.999725V-1.00027C133.528 -1.00027 118.007 10.89 112.566 27.3638L114.465 27.9911ZM151.828 0.999725C169.241 0.999725 184.013 12.3122 189.192 27.9911L191.091 27.3638C185.65 10.89 170.129 -1.00027 151.828 -1.00027V0.999725ZM249.373 38.109H203.797V40.109H249.373V38.109ZM262.373 245.684V51.109H260.373V245.684H262.373ZM189.192 27.9911C191.307 34.3924 196.724 40.109 203.797 40.109V38.109C197.895 38.109 193.047 33.2824 191.091 27.3638L189.192 27.9911ZM99.8604 40.109C106.933 40.109 112.35 34.3924 114.465 27.9911L112.566 27.3638C110.61 33.2824 105.762 38.109 99.8604 38.109V40.109ZM42.3315 51.109C42.3315 45.0338 47.2563 40.109 53.3315 40.109V38.109C46.1518 38.109 40.3315 43.9293 40.3315 51.109H42.3315ZM42.3315 183.987C42.3315 182.876 41.4205 182.008 40.3404 182.008V184.008C40.3418 184.008 40.3411 184.008 40.3399 184.007C40.3393 184.007 40.3389 184.007 40.3385 184.007C40.3381 184.006 40.3363 184.004 40.3345 184C40.3335 183.998 40.3327 183.995 40.3322 183.993C40.3316 183.99 40.3315 183.988 40.3315 183.987H42.3315ZM40.3404 103.326C41.4205 103.326 42.3315 102.458 42.3315 101.347H40.3315C40.3315 101.346 40.3316 101.344 40.3322 101.341C40.3327 101.339 40.3335 101.336 40.3345 101.334C40.3363 101.33 40.3381 101.328 40.3385 101.327C40.339 101.327 40.3393 101.327 40.3399 101.326C40.3411 101.326 40.3418 101.326 40.3404 101.326V103.326ZM249.373 258.684C256.553 258.684 262.373 252.863 262.373 245.684H260.373C260.373 251.759 255.448 256.684 249.373 256.684V258.684ZM249.373 40.109C255.448 40.109 260.373 45.0338 260.373 51.109H262.373C262.373 43.9293 256.553 38.109 249.373 38.109V40.109ZM53.3315 256.684C47.2563 256.684 42.3315 251.759 42.3315 245.684H40.3315C40.3315 252.863 46.1518 258.684 53.3315 258.684V256.684Z" fill="#50D9D7" mask="url(#path-1-inside-1_3303_78699)"/>
</g>
<defs>
<filter id="filter0_b_3303_78699" x="-40" y="-40.0002" width="341.373" height="337.684" filterUnits="userSpaceOnUse" color-interpolation-filters="sRGB">
<feFlood flood-opacity="0" result="BackgroundImageFix"/>
<feGaussianBlur in="BackgroundImageFix" stdDeviation="20"/>
<feComposite in2="SourceAlpha" operator="in" result="effect1_backgroundBlur_3303_78699"/>
<feBlend mode="normal" in="SourceGraphic" in2="effect1_backgroundBlur_3303_78699" result="shape"/>
</filter>
</defs>
</svg>
