<svg width="221" height="219" viewBox="0 0 221 219" fill="none" xmlns="http://www.w3.org/2000/svg">
<g filter="url(#filter0_b_3411_89600)">
<mask id="path-1-inside-1_3411_89600" fill="white">
<path fill-rule="evenodd" clip-rule="evenodd" d="M-0.000549316 12C-0.000549316 5.37258 5.37204 0 11.9995 0H208.041C214.668 0 220.041 5.37258 220.041 12V61.3383C220.041 62.0317 219.467 62.5859 218.774 62.5859C196.494 62.5859 178.433 80.6472 178.433 102.927C178.433 125.207 196.494 143.268 218.774 143.268C219.467 143.268 220.041 143.822 220.041 144.516V206.575C220.041 213.202 214.668 218.575 208.041 218.575H159.532C153.433 218.575 148.483 213.888 146.216 208.226C140.265 193.37 125.734 182.877 108.752 182.877C91.7704 182.877 77.2392 193.37 71.2889 208.226C69.0212 213.888 64.0712 218.575 57.9724 218.575H11.9995C5.37204 218.575 -0.000549316 213.202 -0.000549316 206.575V150.381C-0.000549316 149.688 0.572113 149.135 1.26451 149.135C23.5442 149.135 41.6055 131.074 41.6055 108.794C41.6055 86.5144 23.5442 68.4531 1.26451 68.4531C0.572113 68.4531 -0.000549316 67.8997 -0.000549316 67.2073V12Z"/>
</mask>
<path d="M71.2889 208.226L72.2172 208.598L71.2889 208.226ZM146.216 208.226L147.144 207.854L146.216 208.226ZM208.041 1H11.9995V-1H208.041V1ZM219.041 61.3383V12H221.041V61.3383H219.041ZM177.433 102.927C177.433 80.0949 195.942 61.5859 218.774 61.5859V63.5859C197.047 63.5859 179.433 81.1995 179.433 102.927H177.433ZM218.774 144.268C195.942 144.268 177.433 125.759 177.433 102.927H179.433C179.433 124.654 197.047 142.268 218.774 142.268V144.268ZM219.041 206.575V144.516H221.041V206.575H219.041ZM159.532 217.575H208.041V219.575H159.532V217.575ZM145.287 208.598C139.484 194.108 125.312 183.877 108.752 183.877V181.877C126.157 181.877 141.047 192.632 147.144 207.854L145.287 208.598ZM108.752 183.877C92.1929 183.877 78.0208 194.108 72.2172 208.598L70.3606 207.854C76.4577 192.632 91.3478 181.877 108.752 181.877V183.877ZM11.9995 217.575H57.9724V219.575H11.9995V217.575ZM0.999451 150.381V206.575H-1.00055V150.381H0.999451ZM42.6055 108.794C42.6055 131.626 24.0965 150.135 1.26451 150.135V148.135C22.9919 148.135 40.6055 130.521 40.6055 108.794H42.6055ZM1.26451 67.4531C24.0965 67.4531 42.6055 85.9621 42.6055 108.794H40.6055C40.6055 87.0667 22.9919 69.4531 1.26451 69.4531V67.4531ZM0.999451 12V67.2073H-1.00055V12H0.999451ZM1.26451 69.4531C0.0399017 69.4531 -1.00055 68.4719 -1.00055 67.2073H0.999451C0.999451 67.3276 1.10432 67.4531 1.26451 67.4531V69.4531ZM72.2172 208.598C69.8575 214.489 64.6201 219.575 57.9724 219.575V217.575C63.5221 217.575 68.185 213.286 70.3606 207.854L72.2172 208.598ZM159.532 219.575C152.884 219.575 147.647 214.489 145.287 208.598L147.144 207.854C149.32 213.286 153.982 217.575 159.532 217.575V219.575ZM221.041 206.575C221.041 213.754 215.221 219.575 208.041 219.575V217.575C214.116 217.575 219.041 212.65 219.041 206.575H221.041ZM221.041 61.3383C221.041 62.6039 220 63.5859 218.774 63.5859V61.5859C218.935 61.5859 219.041 61.4595 219.041 61.3383H221.041ZM218.774 142.268C220 142.268 221.041 143.25 221.041 144.516H219.041C219.041 144.394 218.935 144.268 218.774 144.268V142.268ZM-1.00055 150.381C-1.00055 149.116 0.0399017 148.135 1.26451 148.135V150.135C1.10434 150.135 0.999451 150.261 0.999451 150.381H-1.00055ZM11.9995 1C5.92432 1 0.999451 5.92487 0.999451 12H-1.00055C-1.00055 4.8203 4.81975 -1 11.9995 -1V1ZM11.9995 219.575C4.81975 219.575 -1.00055 213.754 -1.00055 206.575H0.999451C0.999451 212.65 5.92432 217.575 11.9995 217.575V219.575ZM208.041 -1C215.221 -1 221.041 4.8203 221.041 12H219.041C219.041 5.92487 214.116 1 208.041 1V-1Z" fill="#50D9D7" mask="url(#path-1-inside-1_3411_89600)"/>
</g>
<defs>
<filter id="filter0_b_3411_89600" x="-40" y="-40" width="300.041" height="298.575" filterUnits="userSpaceOnUse" color-interpolation-filters="sRGB">
<feFlood flood-opacity="0" result="BackgroundImageFix"/>
<feGaussianBlur in="BackgroundImageFix" stdDeviation="20"/>
<feComposite in2="SourceAlpha" operator="in" result="effect1_backgroundBlur_3411_89600"/>
<feBlend mode="normal" in="SourceGraphic" in2="effect1_backgroundBlur_3411_89600" result="shape"/>
</filter>
</defs>
</svg>
