<svg width="305" height="265" viewBox="0 0 305 265" fill="none" xmlns="http://www.w3.org/2000/svg">
<g filter="url(#filter0_b_3303_78694)">
<mask id="path-1-inside-1_3303_78694" fill="white">
<path fill-rule="evenodd" clip-rule="evenodd" d="M261.61 12.4062C261.61 5.77883 256.238 0.40625 249.61 0.40625H53.5686C46.9412 0.40625 41.5686 5.77882 41.5686 12.4062V62.7574C41.5686 63.1604 41.2381 63.4844 40.8351 63.4844C18.5554 63.4844 0.494141 81.5456 0.494141 103.825C0.494141 126.105 18.5554 144.166 40.8351 144.166C41.2381 144.166 41.5686 144.49 41.5686 144.893V206.981C41.5686 213.608 46.9412 218.981 53.5686 218.981H107.16C109.89 218.981 111.982 221.382 111.982 224.112C111.982 246.392 130.043 264.453 152.323 264.453C174.602 264.453 192.664 246.392 192.664 224.112C192.664 221.382 194.755 218.981 197.485 218.981H249.61C256.238 218.981 261.61 213.608 261.61 206.981V152.176C261.61 150.98 262.614 150.034 263.811 150.034C286.09 150.034 304.152 131.972 304.152 109.693C304.152 87.413 286.09 69.3518 263.811 69.3518C262.614 69.3518 261.61 68.4055 261.61 67.2093V12.4062Z"/>
</mask>
<path d="M53.5686 1.40625H249.61V-0.59375H53.5686V1.40625ZM42.5686 62.7574V12.4062H40.5686V62.7574H42.5686ZM1.49414 103.825C1.49414 82.0979 19.1077 64.4844 40.8351 64.4844V62.4844C18.0031 62.4844 -0.505859 80.9934 -0.505859 103.825H1.49414ZM40.8351 143.166C19.1077 143.166 1.49414 125.553 1.49414 103.825H-0.505859C-0.505859 126.657 18.0031 145.166 40.8351 145.166V143.166ZM42.5686 206.981V144.893H40.5686V206.981H42.5686ZM107.16 217.981H53.5686V219.981H107.16V217.981ZM152.323 263.453C130.595 263.453 112.982 245.84 112.982 224.112H110.982C110.982 246.944 129.491 265.453 152.323 265.453V263.453ZM191.664 224.112C191.664 245.84 174.05 263.453 152.323 263.453V265.453C175.155 265.453 193.664 246.944 193.664 224.112H191.664ZM249.61 217.981H197.485V219.981H249.61V217.981ZM260.61 152.176V206.981H262.61V152.176H260.61ZM303.152 109.693C303.152 131.42 285.538 149.034 263.811 149.034V151.034C286.643 151.034 305.152 132.525 305.152 109.693H303.152ZM263.811 70.3518C285.538 70.3518 303.152 87.9653 303.152 109.693H305.152C305.152 86.8607 286.643 68.3518 263.811 68.3518V70.3518ZM260.61 12.4062V67.2093H262.61V12.4062H260.61ZM262.61 152.176C262.61 151.567 263.132 151.034 263.811 151.034V149.034C262.097 149.034 260.61 150.393 260.61 152.176H262.61ZM107.16 219.981C109.259 219.981 110.982 221.852 110.982 224.112H112.982C112.982 220.912 110.521 217.981 107.16 217.981V219.981ZM263.811 68.3518C263.132 68.3518 262.61 67.8188 262.61 67.2093H260.61C260.61 68.9922 262.097 70.3518 263.811 70.3518V68.3518ZM40.5686 206.981C40.5686 214.161 46.3889 219.981 53.5686 219.981V217.981C47.4935 217.981 42.5686 213.056 42.5686 206.981H40.5686ZM249.61 219.981C256.79 219.981 262.61 214.161 262.61 206.981H260.61C260.61 213.056 255.685 217.981 249.61 217.981V219.981ZM40.5686 62.7574C40.5686 62.5965 40.6974 62.4844 40.8351 62.4844V64.4844C41.7787 64.4844 42.5686 63.7242 42.5686 62.7574H40.5686ZM40.8351 145.166C40.6974 145.166 40.5686 145.054 40.5686 144.893H42.5686C42.5686 143.926 41.7788 143.166 40.8351 143.166V145.166ZM193.664 224.112C193.664 221.852 195.387 219.981 197.485 219.981V217.981C194.124 217.981 191.664 220.912 191.664 224.112H193.664ZM249.61 1.40625C255.685 1.40625 260.61 6.33112 260.61 12.4062H262.61C262.61 5.22655 256.79 -0.59375 249.61 -0.59375V1.40625ZM53.5686 -0.59375C46.3889 -0.59375 40.5686 5.22654 40.5686 12.4062H42.5686C42.5686 6.33111 47.4934 1.40625 53.5686 1.40625V-0.59375Z" fill="#50D9D7" mask="url(#path-1-inside-1_3303_78694)"/>
</g>
<defs>
<filter id="filter0_b_3303_78694" x="-39.5059" y="-39.5938" width="383.658" height="344.047" filterUnits="userSpaceOnUse" color-interpolation-filters="sRGB">
<feFlood flood-opacity="0" result="BackgroundImageFix"/>
<feGaussianBlur in="BackgroundImageFix" stdDeviation="20"/>
<feComposite in2="SourceAlpha" operator="in" result="effect1_backgroundBlur_3303_78694"/>
<feBlend mode="normal" in="SourceGraphic" in2="effect1_backgroundBlur_3303_78694" result="shape"/>
</filter>
</defs>
</svg>
