<svg width="221" height="219" viewBox="0 0 221 219" fill="none" xmlns="http://www.w3.org/2000/svg">
<g filter="url(#filter0_b_3303_78719)">
<mask id="path-1-inside-1_3303_78719" fill="white">
<path fill-rule="evenodd" clip-rule="evenodd" d="M220.041 12C220.041 5.37258 214.668 0 208.041 0H11.9995C5.37204 0 -0.000549316 5.37259 -0.000549316 12V68.7282C-0.000549316 68.8484 0.0971985 68.9455 0.217361 68.9455C22.4971 68.9455 40.5583 87.0068 40.5583 109.286C40.5583 131.566 22.4971 149.627 0.217361 149.627C0.167206 149.627 0.11705 149.627 0.066925 149.627C0.0297089 149.627 -0.000549316 149.657 -0.000549316 149.694V206.575C-0.000549316 213.202 5.37204 218.575 11.9995 218.575H58.7764C65.2329 218.575 70.3515 213.351 72.4064 207.23C77.7716 191.249 92.8706 179.736 110.658 179.736C128.446 179.736 143.545 191.249 148.91 207.23C150.965 213.351 156.084 218.575 162.541 218.575H208.041C214.668 218.575 220.041 213.202 220.041 206.575V12Z"/>
</mask>
<path d="M72.4064 207.23L71.4585 206.912L72.4064 207.23ZM148.91 207.23L149.858 206.912L148.91 207.23ZM11.9995 -1H208.041V1H11.9995V-1ZM-1.00055 68.7282V12H0.999451V68.7282H-1.00055ZM39.5583 109.286C39.5583 87.5591 21.9448 69.9455 0.217361 69.9455V67.9455C23.0493 67.9455 41.5583 86.4545 41.5583 109.286H39.5583ZM0.217361 148.627C21.9448 148.627 39.5583 131.014 39.5583 109.286H41.5583C41.5583 132.118 23.0493 150.627 0.217361 150.627V148.627ZM0.0705719 148.627C0.119492 148.627 0.168427 148.627 0.217361 148.627V150.627C0.165985 150.627 0.114609 150.627 0.0632782 150.627L0.0705719 148.627ZM-1.00055 206.575V149.694H0.999451V206.575H-1.00055ZM58.7764 219.575H11.9995V217.575H58.7764V219.575ZM110.658 180.736C93.313 180.736 78.587 191.962 73.3544 207.548L71.4585 206.912C76.9562 190.536 92.4281 178.736 110.658 178.736V180.736ZM147.962 207.548C142.73 191.962 128.004 180.736 110.658 180.736V178.736C128.889 178.736 144.361 190.536 149.858 206.912L147.962 207.548ZM208.041 219.575H162.541V217.575H208.041V219.575ZM221.041 12V206.575H219.041V12H221.041ZM58.7764 217.575C64.6503 217.575 69.4843 212.792 71.4585 206.912L73.3544 207.548C71.2188 213.909 65.8155 219.575 58.7764 219.575V217.575ZM0.999451 206.575C0.999451 212.65 5.92432 217.575 11.9995 217.575V219.575C4.81975 219.575 -1.00055 213.754 -1.00055 206.575H0.999451ZM0.0624084 150.627C0.579239 150.629 0.999451 150.211 0.999451 149.694H-1.00055C-1.00055 149.103 -0.519821 148.624 0.0714417 148.627L0.0624084 150.627ZM0.999451 68.7282C0.999451 68.2926 0.646011 67.9455 0.217361 67.9455V69.9455C-0.451614 69.9455 -1.00055 69.4041 -1.00055 68.7282H0.999451ZM208.041 217.575C214.116 217.575 219.041 212.65 219.041 206.575H221.041C221.041 213.754 215.221 219.575 208.041 219.575V217.575ZM208.041 -1C215.221 -1 221.041 4.8203 221.041 12H219.041C219.041 5.92487 214.116 1 208.041 1V-1ZM149.858 206.912C151.833 212.792 156.667 217.575 162.541 217.575V219.575C155.501 219.575 150.098 213.909 147.962 207.548L149.858 206.912ZM11.9995 1C5.92432 1 0.999451 5.92487 0.999451 12H-1.00055C-1.00055 4.8203 4.81975 -1 11.9995 -1V1Z" fill="#50D9D7" mask="url(#path-1-inside-1_3303_78719)"/>
</g>
<defs>
<filter id="filter0_b_3303_78719" x="-40" y="-40" width="300.041" height="298.575" filterUnits="userSpaceOnUse" color-interpolation-filters="sRGB">
<feFlood flood-opacity="0" result="BackgroundImageFix"/>
<feGaussianBlur in="BackgroundImageFix" stdDeviation="20"/>
<feComposite in2="SourceAlpha" operator="in" result="effect1_backgroundBlur_3303_78719"/>
<feBlend mode="normal" in="SourceGraphic" in2="effect1_backgroundBlur_3303_78719" result="shape"/>
</filter>
</defs>
</svg>
