<svg width="221" height="220" viewBox="0 0 221 220" fill="none" xmlns="http://www.w3.org/2000/svg">
<g filter="url(#filter0_b_3303_78678)">
<mask id="path-1-inside-1_3303_78678" fill="white">
<path fill-rule="evenodd" clip-rule="evenodd" d="M110.719 46.2579C88.4396 46.2579 70.3783 28.1967 70.3783 5.91699C70.3783 3.12272 68.2405 0.660156 65.4463 0.660156H12.2104C5.58298 0.660156 0.210388 6.03273 0.210388 12.6601V207.235C0.210388 213.862 5.58298 219.235 12.2104 219.235H58.9071C64.9502 219.235 69.8727 214.629 72.1701 209.04C78.2036 194.361 92.6436 184.025 109.498 184.025C126.352 184.025 140.792 194.361 146.825 209.04C149.123 214.629 154.045 219.235 160.088 219.235H208.252C214.879 219.235 220.252 213.862 220.252 207.235V145.147C220.252 144.744 219.921 144.42 219.518 144.42C197.239 144.42 179.177 126.359 179.177 104.079C179.177 81.7995 197.239 63.7383 219.518 63.7383C219.921 63.7383 220.252 63.4143 220.252 63.0112V12.6602C220.252 6.03274 214.879 0.660156 208.252 0.660156H155.992C153.198 0.660156 151.06 3.12272 151.06 5.91699C151.06 28.1967 132.999 46.2579 110.719 46.2579Z"/>
</mask>
<path d="M72.1701 209.04L71.2452 208.66L72.1701 209.04ZM71.3783 5.91699C71.3783 27.6444 88.9919 45.2579 110.719 45.2579V47.2579C87.8873 47.2579 69.3783 28.749 69.3783 5.91699H71.3783ZM12.2104 -0.339844H65.4463V1.66016H12.2104V-0.339844ZM-0.789612 207.235V12.6601H1.21039V207.235H-0.789612ZM58.9071 220.235H12.2104V218.235H58.9071V220.235ZM109.498 185.025C93.063 185.025 78.9797 195.103 73.095 209.42L71.2452 208.66C77.4274 193.619 92.2242 183.025 109.498 183.025V185.025ZM145.9 209.42C140.016 195.103 125.932 185.025 109.498 185.025V183.025C126.771 183.025 141.568 193.619 147.75 208.66L145.9 209.42ZM208.252 220.235H160.088V218.235H208.252V220.235ZM221.252 145.147V207.235H219.252V145.147H221.252ZM180.177 104.079C180.177 125.807 197.791 143.42 219.518 143.42V145.42C196.686 145.42 178.177 126.911 178.177 104.079H180.177ZM219.518 64.7383C197.791 64.7383 180.177 82.3518 180.177 104.079H178.177C178.177 81.2473 196.686 62.7383 219.518 62.7383V64.7383ZM221.252 12.6602V63.0112H219.252V12.6602H221.252ZM155.992 -0.339844H208.252V1.66016H155.992V-0.339844ZM110.719 45.2579C132.447 45.2579 150.06 27.6444 150.06 5.91699H152.06C152.06 28.749 133.551 47.2579 110.719 47.2579V45.2579ZM219.252 145.147C219.252 145.308 219.381 145.42 219.518 145.42V143.42C220.462 143.42 221.252 144.18 221.252 145.147H219.252ZM208.252 218.235C214.327 218.235 219.252 213.31 219.252 207.235H221.252C221.252 214.414 215.432 220.235 208.252 220.235V218.235ZM58.9071 218.235C64.4064 218.235 69.0415 214.021 71.2452 208.66L73.095 209.42C70.7039 215.237 65.494 220.235 58.9071 220.235V218.235ZM155.992 1.66016C153.831 1.66016 152.06 3.59045 152.06 5.91699H150.06C150.06 2.65499 152.565 -0.339844 155.992 -0.339844V1.66016ZM1.21039 207.235C1.21039 213.31 6.13525 218.235 12.2104 218.235V220.235C5.03069 220.235 -0.789612 214.414 -0.789612 207.235H1.21039ZM219.252 12.6602C219.252 6.58502 214.327 1.66016 208.252 1.66016V-0.339844C215.432 -0.339844 221.252 5.48045 221.252 12.6602H219.252ZM12.2104 1.66016C6.13525 1.66016 1.21039 6.58502 1.21039 12.6601H-0.789612C-0.789612 5.48045 5.03069 -0.339844 12.2104 -0.339844V1.66016ZM147.75 208.66C149.954 214.021 154.589 218.235 160.088 218.235V220.235C153.501 220.235 148.291 215.237 145.9 209.42L147.75 208.66ZM219.518 62.7383C219.381 62.7383 219.252 62.8504 219.252 63.0112H221.252C221.252 63.9781 220.462 64.7383 219.518 64.7383V62.7383ZM69.3783 5.91699C69.3783 3.59045 67.6073 1.66016 65.4463 1.66016V-0.339844C68.8737 -0.339844 71.3783 2.65499 71.3783 5.91699H69.3783Z" fill="#50D9D7" mask="url(#path-1-inside-1_3303_78678)"/>
</g>
<defs>
<filter id="filter0_b_3303_78678" x="-39.7891" y="-39.3398" width="300.041" height="298.575" filterUnits="userSpaceOnUse" color-interpolation-filters="sRGB">
<feFlood flood-opacity="0" result="BackgroundImageFix"/>
<feGaussianBlur in="BackgroundImageFix" stdDeviation="20"/>
<feComposite in2="SourceAlpha" operator="in" result="effect1_backgroundBlur_3303_78678"/>
<feBlend mode="normal" in="SourceGraphic" in2="effect1_backgroundBlur_3303_78678" result="shape"/>
</filter>
</defs>
</svg>
