<svg width="316" height="309" viewBox="0 0 316 309" fill="none" xmlns="http://www.w3.org/2000/svg">
<g filter="url(#filter0_d_3303_78775)">
<mask id="path-1-inside-1_3303_78775" fill="white">
<path fill-rule="evenodd" clip-rule="evenodd" d="M268.804 48.2947C268.804 41.6673 263.431 36.2947 256.804 36.2947H209.065C202.898 36.2947 197.915 31.5077 195.685 25.7581C189.839 10.686 175.198 0 158.06 0C140.923 0 126.282 10.686 120.436 25.7581C118.206 31.5077 113.222 36.2947 107.056 36.2947H60.7621C54.1346 36.2947 48.7621 41.6673 48.7621 48.2947V95.0129C48.7621 97.3776 46.7057 99.2031 44.341 99.2031C22.0613 99.2031 4 117.264 4 139.544C4 161.824 22.0613 179.885 44.341 179.885C46.7057 179.885 48.7621 181.711 48.7621 184.075V242.869C48.7621 249.497 54.1346 254.869 60.7621 254.869H114.353C117.084 254.869 119.176 257.271 119.176 260.001C119.176 282.281 137.237 300.342 159.516 300.342C181.796 300.342 199.857 282.281 199.857 260.001C199.857 257.271 201.949 254.869 204.679 254.869H256.804C263.431 254.869 268.804 249.497 268.804 242.869V188.065C268.804 186.868 269.808 185.922 271.004 185.922C293.284 185.922 311.345 167.861 311.345 145.581C311.345 123.301 293.284 105.24 271.004 105.24C269.808 105.24 268.804 104.294 268.804 103.098V48.2947Z"/>
</mask>
<path d="M120.436 25.7581L119.504 25.3965L120.436 25.7581ZM209.065 37.2947H256.804V35.2947H209.065V37.2947ZM158.06 1C174.771 1 189.051 11.4195 194.753 26.1198L196.617 25.3965C190.627 9.95243 175.624 -1 158.06 -1V1ZM121.368 26.1198C127.07 11.4195 141.35 1 158.06 1V-1C140.497 -1 125.494 9.95242 119.504 25.3965L121.368 26.1198ZM60.7621 37.2947H107.056V35.2947H60.7621V37.2947ZM49.7621 95.0129V48.2947H47.7621V95.0129H49.7621ZM5 139.544C5 117.817 22.6135 100.203 44.341 100.203V98.2031C21.509 98.2031 3 116.712 3 139.544H5ZM44.341 178.885C22.6135 178.885 5 161.271 5 139.544H3C3 162.376 21.509 180.885 44.341 180.885V178.885ZM49.7621 242.869V184.075H47.7621V242.869H49.7621ZM114.353 253.869H60.7621V255.869H114.353V253.869ZM159.516 299.342C137.789 299.342 120.176 281.729 120.176 260.001H118.176C118.176 282.833 136.685 301.342 159.516 301.342V299.342ZM198.857 260.001C198.857 281.729 181.244 299.342 159.516 299.342V301.342C182.348 301.342 200.857 282.833 200.857 260.001H198.857ZM256.804 253.869H204.679V255.869H256.804V253.869ZM267.804 188.065V242.869H269.804V188.065H267.804ZM310.345 145.581C310.345 167.309 292.731 184.922 271.004 184.922V186.922C293.836 186.922 312.345 168.413 312.345 145.581H310.345ZM271.004 106.24C292.731 106.24 310.345 123.854 310.345 145.581H312.345C312.345 122.749 293.836 104.24 271.004 104.24V106.24ZM267.804 48.2947V103.098H269.804V48.2947H267.804ZM271.004 104.24C270.325 104.24 269.804 103.707 269.804 103.098H267.804C267.804 104.881 269.291 106.24 271.004 106.24V104.24ZM269.804 188.065C269.804 187.455 270.325 186.922 271.004 186.922V184.922C269.291 184.922 267.804 186.282 267.804 188.065H269.804ZM47.7621 242.869C47.7621 250.049 53.5824 255.869 60.7621 255.869V253.869C54.6869 253.869 49.7621 248.944 49.7621 242.869H47.7621ZM44.341 180.885C46.2243 180.885 47.7621 182.331 47.7621 184.075H49.7621C49.7621 181.09 47.187 178.885 44.341 178.885V180.885ZM200.857 260.001C200.857 257.741 202.58 255.869 204.679 255.869V253.869C201.318 253.869 198.857 256.801 198.857 260.001H200.857ZM60.7621 35.2947C53.5824 35.2947 47.7621 41.115 47.7621 48.2947H49.7621C49.7621 42.2195 54.6869 37.2947 60.7621 37.2947V35.2947ZM119.504 25.3965C117.363 30.9141 112.667 35.2947 107.056 35.2947V37.2947C113.778 37.2947 119.048 32.1013 121.368 26.1198L119.504 25.3965ZM256.804 37.2947C262.879 37.2947 267.804 42.2196 267.804 48.2947H269.804C269.804 41.115 263.983 35.2947 256.804 35.2947V37.2947ZM256.804 255.869C263.983 255.869 269.804 250.049 269.804 242.869H267.804C267.804 248.944 262.879 253.869 256.804 253.869V255.869ZM47.7621 95.0129C47.7621 96.757 46.2243 98.2031 44.341 98.2031V100.203C47.187 100.203 49.7621 97.9982 49.7621 95.0129H47.7621ZM114.353 255.869C116.453 255.869 118.176 257.741 118.176 260.001H120.176C120.176 256.801 117.715 253.869 114.353 253.869V255.869ZM209.065 35.2947C203.454 35.2947 198.757 30.9141 196.617 25.3965L194.753 26.1198C197.073 32.1013 202.343 37.2947 209.065 37.2947V35.2947Z" fill="#50D9D7" mask="url(#path-1-inside-1_3303_78775)"/>
</g>
<defs>
<filter id="filter0_d_3303_78775" x="0" y="0" width="315.346" height="308.342" filterUnits="userSpaceOnUse" color-interpolation-filters="sRGB">
<feFlood flood-opacity="0" result="BackgroundImageFix"/>
<feColorMatrix in="SourceAlpha" type="matrix" values="0 0 0 0 0 0 0 0 0 0 0 0 0 0 0 0 0 0 127 0" result="hardAlpha"/>
<feOffset dy="4"/>
<feGaussianBlur stdDeviation="2"/>
<feComposite in2="hardAlpha" operator="out"/>
<feColorMatrix type="matrix" values="0 0 0 0 0 0 0 0 0 0 0 0 0 0 0 0 0 0 0.25 0"/>
<feBlend mode="normal" in2="BackgroundImageFix" result="effect1_dropShadow_3303_78775"/>
<feBlend mode="normal" in="SourceGraphic" in2="effect1_dropShadow_3303_78775" result="shape"/>
</filter>
</defs>
</svg>
