<svg width="221" height="219" viewBox="0 0 221 219" fill="none" xmlns="http://www.w3.org/2000/svg">
<g filter="url(#filter0_b_3303_78817)">
<mask id="path-1-inside-1_3303_78817" fill="white">
<path fill-rule="evenodd" clip-rule="evenodd" d="M68.6767 4.4972C68.6767 26.7769 86.738 44.8382 109.018 44.8382C131.297 44.8382 149.359 26.7769 149.359 4.4972C149.359 2.09313 151.213 0 153.617 0H208.041C214.668 0 220.041 5.37258 220.041 12V64.0112C220.041 64.4143 219.71 64.7383 219.307 64.7383C197.028 64.7383 178.967 82.7995 178.967 105.079C178.967 127.359 197.028 145.42 219.307 145.42C219.71 145.42 220.041 145.744 220.041 146.147V206.575C220.041 213.202 214.668 218.575 208.041 218.575H159.195C153.342 218.575 148.516 214.241 146.124 208.898C139.825 194.828 125.7 185.025 109.287 185.025C92.873 185.025 78.7487 194.828 72.4491 208.898C70.0572 214.241 65.2317 218.575 59.3783 218.575H11.9995C5.37204 218.575 -0.000549316 213.202 -0.000549316 206.575V152.691C-0.000549316 151.91 0.646667 151.288 1.42717 151.288C23.7069 151.288 41.7681 133.226 41.7681 110.947C41.7681 88.6669 23.7069 70.6057 1.42717 70.6057C0.646667 70.6057 -0.000549316 69.983 -0.000549316 69.2025V12C-0.000549316 5.37258 5.37204 0 11.9995 0H64.4183C66.8223 0 68.6767 2.09313 68.6767 4.4972Z"/>
</mask>
<path d="M72.4491 208.898L71.5364 208.49L72.4491 208.898ZM109.018 45.8382C86.1857 45.8382 67.6767 27.3292 67.6767 4.4972H69.6767C69.6767 26.2246 87.2903 43.8382 109.018 43.8382V45.8382ZM150.359 4.4972C150.359 27.3292 131.85 45.8382 109.018 45.8382V43.8382C130.745 43.8382 148.359 26.2246 148.359 4.4972H150.359ZM208.041 1H153.617V-1H208.041V1ZM219.041 64.0112V12H221.041V64.0112H219.041ZM177.967 105.079C177.967 82.2473 196.476 63.7383 219.307 63.7383V65.7383C197.58 65.7383 179.967 83.3518 179.967 105.079H177.967ZM219.307 146.42C196.476 146.42 177.967 127.911 177.967 105.079H179.967C179.967 126.807 197.58 144.42 219.307 144.42V146.42ZM219.041 206.575V146.147H221.041V206.575H219.041ZM159.195 217.575H208.041V219.575H159.195V217.575ZM145.212 209.307C139.067 195.583 125.292 186.025 109.287 186.025V184.025C126.109 184.025 140.582 194.073 147.037 208.49L145.212 209.307ZM109.287 186.025C93.2814 186.025 79.5062 195.583 73.3618 209.307L71.5364 208.49C77.9912 194.073 92.4645 184.025 109.287 184.025V186.025ZM11.9995 217.575H59.3783V219.575H11.9995V217.575ZM0.999451 152.691V206.575H-1.00055V152.691H0.999451ZM42.7681 110.947C42.7681 133.779 24.2592 152.288 1.42717 152.288V150.288C23.1546 150.288 40.7681 132.674 40.7681 110.947H42.7681ZM1.42717 69.6057C24.2592 69.6057 42.7681 88.1146 42.7681 110.947H40.7681C40.7681 89.2192 23.1546 71.6057 1.42717 71.6057V69.6057ZM0.999451 12V69.2025H-1.00055V12H0.999451ZM64.4183 1H11.9995V-1H64.4183V1ZM64.4183 -1C67.4441 -1 69.6767 1.613 69.6767 4.4972H67.6767C67.6767 2.57326 66.2005 1 64.4183 1V-1ZM1.42717 71.6057C0.11705 71.6057 -1.00055 70.5576 -1.00055 69.2025H0.999451C0.999451 69.4083 1.17628 69.6057 1.42717 69.6057V71.6057ZM73.3618 209.307C70.8707 214.871 65.7577 219.575 59.3783 219.575V217.575C64.7056 217.575 69.2437 213.611 71.5364 208.49L73.3618 209.307ZM159.195 219.575C152.816 219.575 147.703 214.871 145.212 209.307L147.037 208.49C149.33 213.611 153.868 217.575 159.195 217.575V219.575ZM221.041 206.575C221.041 213.754 215.221 219.575 208.041 219.575V217.575C214.116 217.575 219.041 212.65 219.041 206.575H221.041ZM221.041 64.0112C221.041 64.9781 220.251 65.7383 219.307 65.7383V63.7383C219.17 63.7383 219.041 63.8504 219.041 64.0112H221.041ZM-1.00055 12C-1.00055 4.8203 4.81975 -1 11.9995 -1V1C5.92432 1 0.999451 5.92487 0.999451 12H-1.00055ZM219.307 144.42C220.251 144.42 221.041 145.18 221.041 146.147H219.041C219.041 146.308 219.17 146.42 219.307 146.42V144.42ZM-1.00055 152.691C-1.00055 151.336 0.11705 150.288 1.42717 150.288V152.288C1.17627 152.288 0.999451 152.485 0.999451 152.691H-1.00055ZM208.041 -1C215.221 -1 221.041 4.82029 221.041 12H219.041C219.041 5.92486 214.116 1 208.041 1V-1ZM11.9995 219.575C4.81975 219.575 -1.00055 213.754 -1.00055 206.575H0.999451C0.999451 212.65 5.92432 217.575 11.9995 217.575V219.575ZM148.359 4.4972C148.359 1.613 150.591 -1 153.617 -1V1C151.835 1 150.359 2.57326 150.359 4.4972H148.359Z" fill="#50D9D7" mask="url(#path-1-inside-1_3303_78817)"/>
</g>
<defs>
<filter id="filter0_b_3303_78817" x="-40" y="-40" width="300.041" height="298.575" filterUnits="userSpaceOnUse" color-interpolation-filters="sRGB">
<feFlood flood-opacity="0" result="BackgroundImageFix"/>
<feGaussianBlur in="BackgroundImageFix" stdDeviation="20"/>
<feComposite in2="SourceAlpha" operator="in" result="effect1_backgroundBlur_3303_78817"/>
<feBlend mode="normal" in="SourceGraphic" in2="effect1_backgroundBlur_3303_78817" result="shape"/>
</filter>
</defs>
</svg>
