<svg width="262" height="299" viewBox="0 0 262 299" fill="none" xmlns="http://www.w3.org/2000/svg">
<g filter="url(#filter0_b_3303_78714)">
<mask id="path-1-inside-1_3303_78714" fill="white">
<path fill-rule="evenodd" clip-rule="evenodd" d="M191.682 258.341C191.682 257.607 192.268 257 193.001 257H249.042C255.669 257 261.042 251.627 261.042 245V50.4254C261.042 43.7979 255.669 38.4254 249.042 38.4254H203.089C196.679 38.4254 191.582 33.2737 189.497 27.213C184.05 11.3791 169.024 0.00167847 151.341 0.00167847C133.658 0.00167847 118.632 11.3791 113.185 27.213C111.1 33.2737 106.002 38.4254 99.5931 38.4254H53C46.3726 38.4254 41 43.7979 41 50.4254V100.664C41 101.027 40.7032 101.318 40.341 101.318C18.0613 101.318 0 119.379 0 141.659C0 163.939 18.0613 182 40.341 182C40.7032 182 41 182.292 41 182.654V245C41 251.627 46.3726 257 53 257H109.681C110.414 257 111 257.607 111 258.341C111 280.62 129.061 298.682 151.341 298.682C173.621 298.682 191.682 280.62 191.682 258.341Z"/>
</mask>
<path d="M189.497 27.213L188.552 27.5383L189.497 27.213ZM249.042 258H193.001V256H249.042V258ZM262.042 50.4254V245H260.042V50.4254H262.042ZM203.089 37.4254H249.042V39.4254H203.089V37.4254ZM188.552 27.5383C183.239 12.0957 168.584 1.00168 151.341 1.00168V-0.998322C169.464 -0.998322 184.861 10.6626 190.443 26.8877L188.552 27.5383ZM151.341 1.00168C134.098 1.00168 119.443 12.0957 114.13 27.5383L112.239 26.8877C117.821 10.6626 133.218 -0.998322 151.341 -0.998322V1.00168ZM53 37.4254H99.5931V39.4254H53V37.4254ZM40 100.664V50.4254H42V100.664H40ZM-1 141.659C-1 118.827 17.509 100.318 40.341 100.318V102.318C18.6135 102.318 1 119.932 1 141.659H-1ZM40.341 183C17.509 183 -1 164.491 -1 141.659H1C1 163.386 18.6135 181 40.341 181V183ZM40 245V182.654H42V245H40ZM109.681 258H53V256H109.681V258ZM151.341 299.682C128.509 299.682 110 281.173 110 258.341H112C112 280.068 129.614 297.682 151.341 297.682V299.682ZM192.682 258.341C192.682 281.173 174.173 299.682 151.341 299.682V297.682C173.068 297.682 190.682 280.068 190.682 258.341H192.682ZM40.341 181C41.2451 181 42 181.729 42 182.654H40C40 182.854 40.1614 183 40.341 183V181ZM42 100.664C42 101.589 41.2451 102.318 40.341 102.318V100.318C40.1614 100.318 40 100.464 40 100.664H42ZM53 39.4254C46.9248 39.4254 42 44.3502 42 50.4254H40C40 43.2457 45.8203 37.4254 53 37.4254V39.4254ZM114.13 27.5383C111.963 33.8382 106.581 39.4254 99.5931 39.4254V37.4254C105.424 37.4254 110.236 32.7092 112.239 26.8877L114.13 27.5383ZM203.089 39.4254C196.101 39.4254 190.719 33.8382 188.552 27.5383L190.443 26.8877C192.446 32.7092 197.258 37.4254 203.089 37.4254V39.4254ZM109.681 256C110.988 256 112 257.076 112 258.341H110C110 258.138 109.841 258 109.681 258V256ZM260.042 50.4254C260.042 44.3502 255.117 39.4254 249.042 39.4254V37.4254C256.221 37.4254 262.042 43.2457 262.042 50.4254H260.042ZM42 245C42 251.075 46.9248 256 53 256V258C45.8203 258 40 252.18 40 245H42ZM249.042 256C255.117 256 260.042 251.075 260.042 245H262.042C262.042 252.18 256.221 258 249.042 258V256ZM190.682 258.341C190.682 257.076 191.694 256 193.001 256V258C192.841 258 192.682 258.138 192.682 258.341H190.682Z" fill="#50D9D7" mask="url(#path-1-inside-1_3303_78714)"/>
</g>
<defs>
<filter id="filter0_b_3303_78714" x="-40" y="-39.9985" width="341.041" height="378.68" filterUnits="userSpaceOnUse" color-interpolation-filters="sRGB">
<feFlood flood-opacity="0" result="BackgroundImageFix"/>
<feGaussianBlur in="BackgroundImageFix" stdDeviation="20"/>
<feComposite in2="SourceAlpha" operator="in" result="effect1_backgroundBlur_3303_78714"/>
<feBlend mode="normal" in="SourceGraphic" in2="effect1_backgroundBlur_3303_78714" result="shape"/>
</filter>
</defs>
</svg>
