<svg width="263" height="301" viewBox="0 0 263 301" fill="none" xmlns="http://www.w3.org/2000/svg">
<g filter="url(#filter0_b_3303_78689)">
<mask id="path-1-inside-1_3303_78689" fill="white">
<path fill-rule="evenodd" clip-rule="evenodd" d="M109.51 0.125C92.3723 0.125 77.7308 10.811 71.885 25.8831C69.655 31.6327 64.6716 36.4197 58.5047 36.4197H12.2109C5.58352 36.4197 0.210938 41.7923 0.210938 48.4197V242.994C0.210938 249.622 5.58353 254.994 12.2109 254.994H65.8022C68.5326 254.994 70.6243 257.396 70.6243 260.126C70.6243 282.406 88.6855 300.467 110.965 300.467C133.245 300.467 151.306 282.406 151.306 260.126C151.306 257.396 153.398 254.994 156.128 254.994H208.253C214.88 254.994 220.253 249.622 220.253 242.994V188.19C220.253 186.993 221.257 186.047 222.453 186.047C244.733 186.047 262.794 167.986 262.794 145.706C262.794 123.426 244.733 105.365 222.453 105.365C221.257 105.365 220.253 104.419 220.253 103.223V48.4197C220.253 41.7923 214.88 36.4197 208.253 36.4197H160.514C154.348 36.4197 149.364 31.6327 147.134 25.8831C141.288 10.811 126.647 0.125 109.51 0.125Z"/>
</mask>
<path d="M147.134 25.8831L148.066 25.5215L147.134 25.8831ZM72.8173 26.2447C78.5189 11.5445 92.7987 1.125 109.51 1.125V-0.875C91.9459 -0.875 76.9427 10.0774 70.9526 25.5215L72.8173 26.2447ZM12.2109 37.4197H58.5047V35.4197H12.2109V37.4197ZM1.21094 242.994V48.4197H-0.789062V242.994H1.21094ZM65.8022 253.994H12.2109V255.994H65.8022V253.994ZM110.965 299.467C89.2378 299.467 71.6243 281.854 71.6243 260.126H69.6243C69.6243 282.958 88.1332 301.467 110.965 301.467V299.467ZM150.306 260.126C150.306 281.854 132.693 299.467 110.965 299.467V301.467C133.797 301.467 152.306 282.958 152.306 260.126H150.306ZM208.253 253.994H156.128V255.994H208.253V253.994ZM219.253 188.19V242.994H221.253V188.19H219.253ZM261.794 145.706C261.794 167.434 244.18 185.047 222.453 185.047V187.047C245.285 187.047 263.794 168.538 263.794 145.706H261.794ZM222.453 106.365C244.18 106.365 261.794 123.979 261.794 145.706H263.794C263.794 122.874 245.285 104.365 222.453 104.365V106.365ZM219.253 48.4197V103.223H221.253V48.4197H219.253ZM160.514 37.4197H208.253V35.4197H160.514V37.4197ZM109.51 1.125C126.22 1.125 140.5 11.5445 146.202 26.2448L148.066 25.5215C142.076 10.0774 127.073 -0.875 109.51 -0.875V1.125ZM160.514 35.4197C154.903 35.4197 150.206 31.0391 148.066 25.5215L146.202 26.2448C148.522 32.2263 153.792 37.4197 160.514 37.4197V35.4197ZM221.253 188.19C221.253 187.58 221.774 187.047 222.453 187.047V185.047C220.739 185.047 219.253 186.407 219.253 188.19H221.253ZM208.253 255.994C215.432 255.994 221.253 250.174 221.253 242.994H219.253C219.253 249.069 214.328 253.994 208.253 253.994V255.994ZM221.253 48.4197C221.253 41.24 215.432 35.4197 208.253 35.4197V37.4197C214.328 37.4197 219.253 42.3446 219.253 48.4197H221.253ZM65.8022 255.994C67.9012 255.994 69.6243 257.866 69.6243 260.126H71.6243C71.6243 256.926 69.1639 253.994 65.8022 253.994V255.994ZM152.306 260.126C152.306 257.866 154.029 255.994 156.128 255.994V253.994C152.767 253.994 150.306 256.926 150.306 260.126H152.306ZM222.453 104.365C221.774 104.365 221.253 103.832 221.253 103.223H219.253C219.253 105.006 220.739 106.365 222.453 106.365V104.365ZM-0.789062 242.994C-0.789062 250.174 5.03124 255.994 12.2109 255.994V253.994C6.13581 253.994 1.21094 249.069 1.21094 242.994H-0.789062ZM12.2109 35.4197C5.03124 35.4197 -0.789062 41.24 -0.789062 48.4197H1.21094C1.21094 42.3445 6.1358 37.4197 12.2109 37.4197V35.4197ZM70.9526 25.5215C68.8126 31.0391 64.1162 35.4197 58.5047 35.4197V37.4197C65.227 37.4197 70.4973 32.2263 72.8173 26.2447L70.9526 25.5215Z" fill="#50D9D7" mask="url(#path-1-inside-1_3303_78689)"/>
</g>
<defs>
<filter id="filter0_b_3303_78689" x="-39.7891" y="-39.875" width="342.582" height="380.342" filterUnits="userSpaceOnUse" color-interpolation-filters="sRGB">
<feFlood flood-opacity="0" result="BackgroundImageFix"/>
<feGaussianBlur in="BackgroundImageFix" stdDeviation="20"/>
<feComposite in2="SourceAlpha" operator="in" result="effect1_backgroundBlur_3303_78689"/>
<feBlend mode="normal" in="SourceGraphic" in2="effect1_backgroundBlur_3303_78689" result="shape"/>
</filter>
</defs>
</svg>
