<svg version="1" xmlns="http://www.w3.org/2000/svg" width="1112pt" height="1112pt" viewBox="0 0 1112.000000 1112.000000"><path d="M609 261c-2.5.6-5.2 1.3-6 1.6-.8.4-2.1.8-2.7 1-4.1.8-15.7 8.7-21.5 14.5-11.2 11.3-17.2 25.4-17 39.9.1 8.8 1.3 16.5 3.1 19.9.6 1.1 1 2.4.9 2.8-.2.4.8 2.5 2 4.5 1.3 2.1 2 4.3 1.6 4.9-.4.8-.3.9.4.5 1.5-.9 1.6.6.1 2.1-.8.8-.7 1.3.2 1.8.7.5 1 .4.5-.3-.3-.6-.2-1.3.2-1.6 1-.6 7.9 7.4 7.4 8.6-.1.5.1.7.6.5.8-.2 2.5 1.1 6.8 5 1.3 1.2 2.4 1.9 2.4 1.5 0-.4.4-.2.8.5.4.6 1.4 1.3 2.2 1.5.8.2 2 1.2 2.7 2.3.7 1.1 1.2 1.4 1.3.7 0-1 .4-1 2.3 0 1.2.7 2.6 1.1 3.1 1 .5-.2.6.5.2 1.4-.5 1.4-.4 1.5.8.5 1-.8 2.1-.9 4.1-.1 7.7 2.9 23.1 2.8 32.1-.3 2.2-.8 4.9-1.3 6.1-1.2 1.2.1 1.9-.3 1.7-1-.3-.6 1.1-1.7 3.1-2.4 1.9-.7 3.5-1.7 3.5-2.3 0-.6.7-.5 1.7.3.9.8 1.4.9 1.1.4-1-1.6.3-3 4.7-5.4 2.2-1.1 3.5-2.1 2.8-2.1-.6 0 1-2.2 3.7-5 2.6-2.7 4.6-5.1 4.3-5.3-.2-.2.3-1 1.2-1.7.8-.7 1.5-1.8 1.5-2.4 0-.7.9-3.1 2-5.4 1.1-2.2 2-4.8 2-5.6 0-.8.4-1.7.8-2 .7-.4 1.3-4.6 1.5-10.4.1-1.2.4-2.2.8-2.2s.6-.8.4-1.8c-.2-.9-.4-1.7-.5-1.7-.1 0-.3-1.8-.4-4-.2-2.2-.6-5.4-1-7-.3-1.7-.8-3.9-1-5-1.6-8.5-16-29.4-20.3-29.5-.7 0-1.3-.4-1.3-.8 0-1.4-10.3-7-17-9.2-7.4-2.4-22.9-3.5-30-2zM571.6 357.8c-.3.4.4.9 1.5.9 2.3.2 2.5-.3.4-1-.8-.4-1.6-.3-1.9.1zM667 358.4c0 .2.8 1 1.8 1.7 1.5 1.3 1.6 1.2.3-.4s-2.1-2.1-2.1-1.3zM583.6 367.3c.3 1 .9 1.5 1.2 1.2.3-.3 0-1.1-.7-1.8-1-.9-1.1-.8-.5.6zM662.6 367.9c-1.4 1.5-1.5 2.1-.4 2.7.7.4 1 .3.5-.1-.4-.5 0-1.7 1-2.7.9-1 1.4-1.8 1.1-1.8-.3 0-1.3.9-2.2 1.9zM603.3 377.3c0 .8.6 1.4 1.4 1.4.9 0 1-.4.2-1.4-.6-.7-1.2-1.3-1.4-1.3-.1 0-.2.6-.2 1.3zM635.5 377.9c-.3.5-.2 1.2.3 1.5.5.3.9-.1.9-.9 0-1.7-.3-1.9-1.2-.6zM649 378.1c0 .5.5.7 1 .4.6-.3 1-.8 1-1.1 0-.2-.4-.4-1-.4-.5 0-1 .5-1 1.1zM652.6 377.8c-.3.5.1.9.9.9s1.2-.4.9-.9c-.3-.4-.7-.8-.9-.8-.2 0-.6.4-.9.8zM586.6 379.8c-.3.5.1.9.9.9s1.2-.4.9-.9c-.3-.4-.7-.8-.9-.8-.2 0-.6.4-.9.8zM609 379.9c0 .6.4 1.2.8 1.5.5.3.9-.1.9-.9s-.4-1.5-.9-1.5c-.4 0-.8.4-.8.9zM625.3 380.7c0 .9.4 1 1.2.3.7-.5 1.5-.7 1.8-.3.4.3.7.1.7-.5s-.8-1-1.8-.9c-1 0-1.9.7-1.9 1.4zM659.5 380c-.3.5-.1 1 .4 1 .6 0 1.1-.5 1.1-1 0-.6-.2-1-.4-1-.3 0-.8.4-1.1 1zM593.6 381.9c-.3.5.2 1.5 1.2 2.2 1.5 1.2 1.6 1.2.5-.2-.7-.9-1-1.9-.6-2.2.3-.4.4-.7 0-.7-.3 0-.8.4-1.1.9zM618.6 382.2c.3.4.9.8 1.5.8.5 0 .9-.4.9-.8 0-.5-.7-.9-1.5-.9s-1.2.4-.9.9zM643.5 382.9c-.3.5-.2 1.2.3 1.5.5.3.9-.1.9-.9 0-1.7-.3-1.9-1.2-.6zM623.3 384.5c0 .8.4 1.2.9.9.5-.3.6-1 .3-1.5-.9-1.3-1.2-1.1-1.2.6zM626 383.5c0 .2.6.8 1.3 1.4 1 .8 1.4.7 1.4-.2 0-.8-.6-1.4-1.4-1.4-.7 0-1.3.1-1.3.2zM599.6 386.2c.3.4 1.1.5 1.9.1 2.1-.7 1.9-1.2-.4-1-1.1 0-1.8.5-1.5.9zM605.5 386c.3.5.8 1 1.1 1 .2 0 .4-.5.4-1 0-.6-.5-1-1.1-1-.5 0-.7.4-.4 1zM634.6 388.2c.3.5 1 .6 1.5.3 1.3-.9 1.1-1.2-.6-1.2-.8 0-1.2.4-.9.9zM611 389.4c0 .2.7.7 1.6 1 .8.3 1.2.2.9-.4-.6-1-2.5-1.4-2.5-.6zM619 390.1c0 .5.5.7 1 .4.6-.3 1-.8 1-1.1 0-.2-.4-.4-1-.4-.5 0-1 .5-1 1.1zM624 392c-.9.6-1 1-.3 1 .6 0 1.5-.5 1.8-1 .8-1.2.4-1.2-1.5 0zM16.4 405.8c.2.9 1 4.4 1.7 7.7s1.3 6.2 1.4 6.5c1.2 5.6 1.9 8.8 2.2 10 .2.8.5 2.4.7 3.5.2 1.1.5 2 .6 2 .1 0 .3 1.1.4 2.5.2 1.4.5 3.2.8 4 1.5 3.8 5 20.3 5.2 24.2 0 1.4.4 2.4.8 2.2.4-.3.7.4.7 1.3.1 3.7.6 7.8 1.1 8.3.8.7 4.4 16.3 4.2 17.7-.2.6.2 1.4.8 1.8.7.4.7 1.3-.1 2.7-.8 1.5-.8 1.9 0 1.4.6-.4 1.1-.4 1.2.1 0 .4.3 1.7.5 2.8.3 1.1.6 2.9.8 4 .2 1.1.9 4.2 1.5 6.9.7 2.7.9 5.6.7 6.3-.3.8-.2 1.2.2.9.4-.2 1.2 1.5 1.8 3.9.5 2.4.7 4.2.4 4-.4-.2-.7.2-.7 1s.4 1.2.9.9c.4-.3.9.2.9 1 .2 1.7.5 3.4.8 3.8.1.2.4 1.7.7 3.5.6 5 .8 5.7 1.8 6.5.6.4.4 1.4-.5 2.4-.8 1-.9 1.5-.2 1.1.7-.5 1.4.4 1.9 2.5 1 4.7 1.6 8 1.7 10.5.1 1.3.5 2.3.9 2.3.5 0 2.1 6.5 2.3 9.5 0 .5.4 1.6.8 2.2.5.7.6 1.3.2 1.3-.3 0-.1.9.5 2.1.9 1.5.8 2.4-.1 3.5-.7.8-.8 1.4-.3 1.2.5-.2 1.1.1 1.2.7.2.5.8 1.7 1.3 2.6.5 1 .3 2.1-.4 2.9-.9 1-.9 1.1 0 .6.7-.4 1.2.1 1.3 1.1.4 6.7.6 8.1 1.1 7.7 1-.6 2.1 6.4 1.3 7.9-.4.6-.3.8.1.4.9-.8 6.6 22.2 5.8 23.5-.2.5.2.8.9.8 1 0 1 .2-.1.9-.8.5-.9 1-.3 1.2.6.2 1.3 1.5 1.5 2.9.2 1.4.7 3.3 1.2 4.3.4 1 .5 2 .2 2.4-.4.3.1 1.9.9 3.5.9 1.6 1.3 3.6 1 4.4-.3.8 0 1.4.6 1.4s.9.3.5.6c-.3.3-.2 1.7.4 3.1.5 1.5.5 2.2 0 1.8-.5-.3-.3.8.5 2.5.9 1.6 1.3 3.4 1 3.9-.4.5-.1 1.3.4 1.6.8.5.5 1.4-.7 2.8-1.6 1.9-1.6 2-.1.8 1.2-.9 1.8-1 1.8-.2 0 1.4.1 1.7 1.5 6.6.7 2.2 1.1 4.8.9 5.7-.1 1 .1 1.8.6 1.8.4 0 1.1 1.9 1.5 4.2.4 2.4 1 5.2 1.2 6.3.3 1.1.5 2.4.7 3 .1.5.4 1.4.8 2 .3.5.9 2.7 1.2 4.9.4 2.1.9 4.3 1.3 4.9.3.5.1.7-.5.3-.6-.3-1.4-.1-1.8.5-.4.7-.3.9.3.6.6-.4 1.7.1 2.4 1 1.2 1.4 1.2 1.6-.1.8s-1.3-.7-.1.8c.7.9 1 1.7.6 1.7s-.2.6.4 1.4c.7.8 1.3 3 1.4 5 .1 2 .4 3.6.7 3.6.3 0 .7 1.1.8 2.6.1 1.4.6 3.3 1.1 4.2.5.9 1 3.3 1.2 5.2.2 1.9.7 3.7 1.1 4 .4.3.8 2.1 1 3.9.1 1.8.6 3.5 1 3.7.4.3.8 1.8.8 3.3 0 1.5.4 3.1 1 3.7.5.5 1 2.8 1.2 5.1.2 2.2.6 3.9 1.1 3.6.4-.2.8.3.8 1.1.2 2.4 1.3 5.8 3 8.8.6 1.2.6 1.8 0 1.8s.1 1.2 1.4 2.6c1.4 1.5 2.2 3 1.9 3.5-.3.5-.1.9.3.9 1.3 0 4.4 5.6 3.6 6.4-.4.4 0 .4 1 0 1-.3 1.7-.1 1.7.5s1.1 2.1 2.5 3.3c1.3 1.1 2.2 2.5 1.9 3-.3.4.1.8.8.8 2 .1 8.9 5.6 8 6.5-.4.5-.1.5.6.1s2.7.1 4.5 1.1c1.8 1.1 5.3 2.6 7.9 3.3 2.6.8 4.5 1.6 4.3 1.9-.2.4.9.7 2.3.7 1.5.1 6.5.5 11.2.9 9.8.8 8.8.9 16.3-.5 3.2-.6 6.3-.7 6.9-.4.7.4.8.2.4-.4-.4-.7-.3-1.2.3-1.2.5 0 1.7-.3 2.5-.6 1.2-.4 1.5-.2 1 .9-.3.8 0 1.8.7 2.3.7.4 1 .3.6-.4-1.1-1.6.3-4.2 2.2-4.2 1 0 2.6-.6 3.6-1.4 1.1-.8 2.4-1.2 3.1-.9.6.2 1.4-.3 1.7-1.1.4-.9 1.3-1.6 2.2-1.6.8 0 1.5-.5 1.5-1.1 0-.5.4-.8.8-.5.7.4 6-3.2 12.1-8.4 1.6-1.5 2.7-1.8 3.5-1 .9.7 1.3.5 1.3-.5 0-.8-.4-1.2-.9-.9-.4.3-.8.1-.8-.5 0-.5.9-1.3 2.1-1.6 1.1-.4 1.8-.9 1.5-1.2-.8-.9 1.8-3.1 3.2-2.6.7.3 1 0 .7-.8-.3-.8.9-2.9 2.5-4.8 1.7-1.8 3-3.7 3-4 0-.3 1-1.7 2.3-3.1 1.3-1.4 2.6-3.3 3-4.3.4-1.1 1.2-1.5 1.9-1.1.7.4 1 .4.6-.1-.4-.4-.2-1.7.3-2.8.9-1.6 1.3-1.7 2.1-.6.7 1 .8.8.3-.7-.3-1.3.1-2.6 1-3.4.8-.7 1.5-1.9 1.5-2.6 0-.8.4-1.4.8-1.4s1.6-1.4 2.6-3c.9-1.7 2.2-2.7 2.8-2.4.7.4.8.2.4-.4-.4-.6 1.6-4.5 4.4-8.6 2.7-4.1 5-8 5-8.7 0-.6.7-.8 1.6-.5 1.4.5 1.5.4.4-.9-.7-.8-.8-1.5-.2-1.5.5 0 1.3-1.2 1.7-2.7l.7-2.8 1.9 2.5c1.9 2.5 2.6 5.6 1.1 4.6-.4-.2-1.4 0-2.2.5-1.1.7-.8.8 1.1.5 3-.5 6.4 2.7 5.5 5-.3.8-.2 1.3.3 1 .5-.4 2.2 1.4 3.8 3.9 1.5 2.5 3.2 4.5 3.7 4.5s.2.8-.5 1.7c-.8.9-.9 1.4-.2 1 1.1-.7 5.3 4.1 5.3 6.1 0 .5.7 1.2 1.5 1.6.8.3 1.5 1.2 1.5 2.1 0 .8.4 1.5 1 1.5.5 0 1.2 1.1 1.6 2.5.3 1.4 1.1 2.5 1.6 2.5.6 0 .8.7.4 1.5-.3.8-.1 1.4.3 1.2 1-.2 7.4 8.1 7.7 9.9.1.5 1.5 2.4 3 4 1.6 1.6 3.9 4.1 5 5.6 1.2 1.4 2.7 2.7 3.3 2.9.7.3 1.3 1.2 1.5 2.1.1 1 .6 2.1 1.1 2.5.4.4.5.2.1-.5-1.3-2.1.5-1.3 4.7 2.3 2.2 1.9 4.7 3.5 5.5 3.5.9 0 1.2.6.8 1.6-.3.9-.2 1.2.5.9.5-.4 3.1.3 5.7 1.6s5.1 2.2 5.5 2.1c.4-.1 1 .5 1.3 1.3.3.8 1 1.2 1.5.9 1.2-.7 5.1.5 4.5 1.4-.2.4 1 .8 2.7.9 3.1.1 8.2 1 8.2 1.3 0 .4 5.4 1.1 11 1.4 7.4.4 7.3.4 5.5 1.7-1.3.9-1.3 1 0 .6.8-.2 1.4-1 1.2-1.7-.2-.7.9-1.1 3-.9 1.8.2 3.9 0 4.6-.5.7-.4 1.2-.2 1.2.6 0 .9.2 1 .8.1.4-.6 2.1-1.3 3.7-1.6 2.9-.4 4.3-.8 9.1-2.7 1.4-.5 2.6-.4 3.3.3.9.9 1.1.8.7-.3-.4-1.1.9-2.2 4.4-3.8 9.4-4.3 18-13 22.8-23.2 1.9-4.1 3.5-8 3.5-8.7 0-.7.4-1.3.9-1.3.4 0 .7-.3.7-.8-.3-1.8.2-3.3 1-2.8.4.3.6-.6.3-1.9-.2-1.4 0-2.5.5-2.5s1-1.2 1.1-2.7c.1-1.5.5-2.9 1-3.2.4-.3.8-1.9 1-3.6.2-1.6.7-3.2 1.1-3.5.3-.3.6-1.2.6-2-.1-.8.5-2.3 1.3-3.3 1.1-1.3 1.2-1.7.2-1.7-.9 0-.9-.4-.2-1.3.5-.6 1.2-2.6 1.5-4.2.2-1.7 1.2-4.7 2-6.8 1.7-4 1.7-3.9 1.7-6.3 0-.9.5-1.2 1.3-.8.9.5.9.4 0-.6-.8-.9-.8-2 .3-4.5.7-1.8 1.6-4.6 1.9-6.3.3-1.7.9-4.2 1.4-5.5.6-1.4.7-2.8.4-3.1-.4-.3-.1-.6.5-.6s.9-.9.7-2c-.2-1.1 0-2 .4-2 .5 0 .9-1.2.9-2.6-.1-1.5.3-2.9.8-3.3.5-.3 1-1.5 1.1-2.6.5-4.9 1.4-8.8 2.5-10.8.7-1.2 1.2-3.1 1.3-4.2.3-5.3 1.8-9.6 3.1-9.1 1.1.4 1.1.2.2-1.3-.9-1.4-.8-2.7.4-5.7.9-2.2 2.1-6.5 2.8-9.7.8-3.9 1.5-5.5 2.3-5 .8.4.7.1-.1-.9-1.1-1.4-1-1.8.4-2.6 1.1-.6 1.3-1.2.6-1.6-.8-.5-.7-1.8.2-4.4.8-2.1 2.6-8.8 4.1-15 1.8-7.2 3.2-10.9 3.9-10.5.8.4.8.3 0-.6-.8-.9-.8-2.2.2-5.1.7-2.1 1.5-4.9 1.8-6.2 1-5.6 2.9-11.4 4-12 .8-.5.7-.8-.3-.8s-1.1-.4-.3-1.3c1.1-1.3 1.2-1.6 1.2-4.8 0-1.1.4-1.8.9-1.5.5.4.7-.3.4-1.4-.4-1.3.1-2.7 1.3-3.6 1.1-.9 1.3-1.3.7-.9-.7.3-1.3.2-1.3-.4 0-.5.6-1.2 1.2-1.4 1-.4 1-.6 0-.6-1-.1-1-.6-.2-2.1.6-1.1.8-2 .4-2-.3 0-.2-.6.4-1.3.6-.6 1.1-1.5 1.1-2 .1-.4.2-.9.2-1.2.1-.3.2-1.4.3-2.5 0-1.2.7-2.5 1.5-2.9.9-.6 1-1 .2-1.6-.9-.5-.9-1 0-2.1.6-.8.9-1.4.5-1.4-.3 0-.1-1.2.5-2.8 1.1-2.7 1.5-4.3 2.5-9.7.3-1.6.8-3.2 1.2-3.5.4-.3.8-1.4.9-2.5.2-2.6 1.2-7.6 1.9-9.5.3-.8.8-2.6 1-4 .3-1.4.7-3.2 1.1-4 .3-.8.7-2.4.8-3.5 0-1.2.7-1.9 1.5-1.7 1.2.3 1.2.1.3-.9-.9-.9-.9-1.7-.2-3.2.6-1.1 1.2-2.9 1.4-4.1.7-5.4 1.8-9.5 2.5-9.1.4.2.5-.7.2-2-.2-1.4 0-2.5.4-2.5.5 0 1-1 1-2.3.2-2.9.8-4.9 1.7-6.5.5-.6.5-1.2.1-1.2-.3 0 0-.8.7-1.7.8-.9.9-1.4.2-1-.7.4-.5-1.1.6-4.1 1-2.6 1.6-5.3 1.3-6-.2-.6 0-1.2.5-1.2s.9-.9 1-1.9c.1-1.7 2.6-11.7 4-16.1.2-.8.4-1.5.3-1.5-.1 0 3.1-11 3.7-12.5.3-.8.5-2.1.4-2.8-.1-.6.3-1.2.9-1.2.6 0 .9-.4.6-.8-.3-.5.1-2.6.8-4.8.7-2.1 1.6-5.1 2-6.7.6-2.6.5-2.7-2.1-2.3-1.6.3-8.4 1.4-15.3 2.6-6.9 1.1-14.3 2.5-16.5 3-2.2.6-5.1 1.3-6.4 1.6-1.3.3-3.2.9-4.3 1.5-1 .5-1.8.7-1.8.5 0-1.3-22.2 8.1-22.8 9.6-.2.5-.8.8-1.2.8-1.5 0-9.4 5.7-15.1 10.7-6.4 5.7-10.1 9.9-15.2 16.7-2 2.8-4.2 5.6-4.7 6.3-.6.7-1 1.5-1 1.7 0 .3-1.4 2.8-3.1 5.5-2.8 4.7-10.7 21.8-11.4 25.1-.2.8-.4 1.6-.5 1.7-.2.2-.3.6-.5 1-.1.5-.4 1.5-.8 2.3-.7 1.7-4.6 13.7-5.2 16-1.2 4.3-2.6 9.7-3 11-.2.8-.4 1.5-.5 1.5-.2 0-.8 2.6-1.6 6.5-.3 1.9-1 4-1.5 4.6-.5.6-.6 1.3-.4 1.6.3.3.1 1.8-.6 3.4-.6 1.6-1.3 4-1.6 5.4-.3 1.4-.6 2.9-.7 3.5-1.7 7.4-2.7 12.5-2.4 12.8.2.2-.3 1.2-1.1 2.1-.8.9-1.5 3.2-1.7 5.1-.1 1.8-.5 3.9-1 4.6-.4.7-.9 2.2-1 3.3-.1 1.2-.5 3.1-.8 4.3-.6 2.1-1.2 4.7-2.1 8.3-.2.8-.4 1.5-.5 1.5-.1 0-.3.8-.5 1.7-1.5 8.1-4 16.6-4.7 16.2-.4-.3-.5.1-.2.9s-.2 4.1-1.1 7.3c-1.8 6.6-1.8 6.9-3.5 13.9-.6 2.7-1.4 5.7-1.7 6.5-.3.8-.7 2.1-.9 2.9-.5 2.7-2.6 11.6-2.9 12.6-.1.5-.3 1.3-.4 1.7-.1.4-.7 2.2-1.2 4-.6 1.8-1.2 4.4-1.4 5.8-1 5.3-1.1 6-1.8 6.6-.4.4-.7 1.4-.7 2.3 0 .9-.5 3.4-1.1 5.6l-1.1 4-2.4-4.5c-1.3-2.5-2.6-5.2-2.9-6-.4-.8-1.1-2.4-1.8-3.5-.6-1.1-2.9-5.4-5-9.5-2.2-4.1-4.8-8.7-5.9-10.2-1-1.4-1.8-3.1-1.8-3.6 0-.6-.3-1.2-.7-1.4-.5-.2-2.6-2.9-4.8-6.1-4.8-7.1-14.8-17.5-21-21.7-10.2-7-27.3-13.4-35.8-13.3-25.2.4-47.3 11.4-65.9 33.1-1.6 1.7-2.8 3.6-2.8 4.1 0 .5-.4 1.1-.8 1.3-1.1.4-7.7 10.2-7.3 10.7.1.2-.1.7-.6 1-1.4 1-5.7 8.2-9 15.1-1.8 3.6-3.8 7.4-4.6 8.4-1.4 1.9-1.5 1.7-2.3-2.5-.4-2.4-.8-5.2-.7-6.1 0-1-.3-1.6-.6-1.3-.4.2-1.3-3.1-2.1-7.3-1.6-8.9-1.4-8.1-2.3-10.7-.8-2.4-1.7-7-2.3-11-.2-1.7-1.5-7.7-2.8-13.4-1.4-5.8-2.3-10.8-2-11.2.2-.4 0-.9-.5-1.1-.5-.1-1.1-2.1-1.5-4.3-.7-4.7-1.4-8-1.6-8-.1 0-.3-1.1-.4-2.5-.2-1.4-.5-3.2-.8-4-.4-.8-.9-2.9-1.2-4.5-.4-1.7-.9-4.4-1.3-6-.4-1.7-.7-4-.7-5.3-.1-1.2-.4-2.2-.7-2.2-.4 0-1-2.1-1.3-4.8-.4-2.6-.9-5.4-1.1-6.2-.2-.8-.7-2.6-1-4-.3-1.4-.9-3.9-1.2-5.5-.7-4-.9-4.7-1.6-6.5-.3-.8-.8-2.9-1-4.5-.2-1.7-.6-3.7-.9-4.5-.7-1.9-2.8-12.2-3.2-15.3-.1-1.2-.6-2.8-1-3.5-.4-.7-.4-1.7-.1-2.2.3-.6.2-1-.3-1-.6 0-1.3-1.7-1.7-3.8-.7-4-6-22.4-7.5-25.7-.4-1.1-1.8-4.7-3-8-12.1-32.8-34-59-60-71.6-5.4-2.6-16.2-6.6-20-7.4-.8-.2-3.7-.9-6.5-1.5-2.7-.6-6-1.4-7.2-1.6-1.3-.2-3.5-.6-5-.9-1.6-.3-4.8-.8-7.3-1.1-2.5-.3-5.5-.7-6.8-.9-1.8-.3-2.2 0-1.8 1.3zM615.6 407.7c-.4.4-1.4.8-2.4.9-7 1-9.8 1.6-10.9 2.6-.7.6-1.3.8-1.3.5 0-.8-12.9 6.1-14.6 7.8-.8.7-2.4 2.2-3.7 3.2-3.9 3.1-11.7 13.4-14.7 19.2-2.5 5-8.7 21.3-9.5 25.1-.2.8-.4 1.6-.5 1.7-.2.2-.4.7-.5 1.3-.1.5-.3 1.1-.4 1.2-.2.2-.4 1.3-.6 2.4-.3 1.2-1 3.4-1.6 5-.7 1.6-1.3 3.3-1.4 3.9-.7 4.3-1.9 7.5-2.7 7.5-.5 0-.6.5-.3 1 .3.6.1 2.5-.5 4.3-2.3 6.8-6.3 21.3-6.3 22.9-.1 1-.4 1.8-.7 1.8-.4 0-.7.6-.7 1.2-.1.7-1.1 4.9-2.3 9.3-1.1 4.4-3 11.1-4 15-1 3.8-3 11-4.3 16-1.3 4.9-2.7 10.3-3.1 11.8-.4 1.8-1.1 2.5-1.9 2.1-.9-.5-.9-.4 0 .6.9.9.8 2.2-.3 5.2-.8 2.2-1.4 4.9-1.4 6 0 1-.4 1.6-1 1.3-.6-.3-.7.1-.4.9.3.9.3 2.4-.1 3.3-.4 1-.9 2.7-1.2 3.8-.9 4.8-1.1 6-1.3 6-.2 0-.4.9-.6 2-.1 1.1-1.3 5.6-2.4 10-1.2 4.4-2.3 8.4-2.4 9-.1.5-.6 1.7-1.1 2.5-.5.8-1 2.6-1.1 4-.1 1.4-.6 4.3-1.2 6.5-4.2 15.9-6.3 24.3-6.7 26.5-.3 1.4-.8 3.2-1.2 4-.3.8-.7 2.2-.8 3-.1.8-.7 3.5-1.5 6-.7 2.5-1.4 5.2-1.6 6-.1.8-.5 2.4-.7 3.5-2.2 8.5-3.9 15.5-4.3 18-.3 1.6-1 3.5-1.5 4.1-.5.6-.6 1.4-.3 1.7.3.3.2 1.2-.2 1.9s-.9 1.9-1 2.8c-.1.8-.5 2.4-.7 3.5-.3 1.1-1.3 4.9-2.2 8.5-.9 3.6-1.7 6.9-1.9 7.5-.1.5-.8 3.6-1.5 6.7-.7 3.2-1.6 5.8-2 5.8-.3 0-.6 1.2-.5 2.7.1 1.6-.1 3.2-.5 3.8-.3.5-.6 1.4-.7 2-.1.5-.5 2.3-.9 4-.3 1.6-.7 3.6-.7 4.2-.1.7-.4 1.3-.8 1.3-.3 0-.6.8-.6 1.7-.1 2.3-1.4 8.4-1.9 9.3-.2.4-.7 2.2-1 4.1-.4 1.9-.8 3.8-.9 4.4-.1.5-.5 1.6-.9 2.2-.5.7-.6 1.3-.4 1.3.2 0-.1 2.4-.9 5.2-.7 2.9-2.2 8.9-3.3 13.3-1 4.4-1.7 8.3-1.5 8.7.3.5 3.4.7 7 .5 3.5-.2 6.9.2 7.5.7.9.8 1 .7.4-.3-.7-1.1 0-1.3 3.3-.8 2.3.3 4 .2 3.7-.2-.2-.4 1.4-.7 3.5-.6 2.3.1 4-.3 4-.9 0-.6.5-.4 1 .4.8 1.2 1 1.2 1 .1 0-1.1.3-1.1 1.7 0 1.4 1.2 1.6 1.2.8 0-.6-1-.4-1.3.6-.9.8.3 2.3 0 3.4-.8 2.5-1.9 3.5-1.8 2.9.3-.5 1.7-.5 1.7.6 0 .6-.9 1.5-1.5 2.1-1.2.5.4.9.1.9-.4 0-.6.8-1.1 1.8-1.1s2.2-.3 2.6-.7c.3-.4 1.6-.8 2.8-1 1.2-.2 2.7-.8 3.3-1.3.7-.5 1.5-.7 1.8-.3.4.3.7.1.7-.6s.4-1 .8-.7c.5.3 1.9-.4 3-1.5 1.2-1 2.4-1.9 2.7-1.9 1.1.1 6.5-3.5 6.5-4.3 0-.5.7-.6 1.6-.3 1 .4 1.3.2.8-.6s-.2-.9 1-.5c.9.4 1.5.3 1.2-.2-.3-.4.3-1.6 1.4-2.6 1.5-1.4 2.3-1.5 3.4-.6s1.6.9 2.2 0c.4-.7.3-.9-.4-.5-.6.3-1.4.2-1.7-.4-.7-1.1 8.4-10.7 9.7-10.3.4.2.5-.3.2-1.1s.3-2 1.3-2.7c1-.8 3.2-3.5 4.8-6.1 1.7-2.7 3.4-4.8 3.8-4.8.5 0 .5-.5.1-1.2-.5-.8-.2-.9 1-.5.9.4 1.4.3 1.1-.2-.7-1.2 1.5-6.1 2.7-6.1.5 0 .7-.4.4-.9-.3-.4.8-2.9 2.4-5.4 1.5-2.5 2.5-4.9 2.2-5.3-.4-.4.2-.4 1.3 0 1.5.5 1.7.4.9-.4-1.3-1.3 1.3-8 3-7.6.6.2.8.1.4-.1-1.2-.7-1-3.3.2-3.3.6 0 1-.9 1-2s.5-2 1.1-2c.5 0 .8-.4.4-1-1-1.6 2.3-8.2 3.7-7.4 1 .5 1 .4.1-.6-1.4-1.6.4-6.3 2.1-5.3.6.4.6 0-.1-.8-.7-.9-.9-2-.5-2.5.5-.5 1.4-2.8 2.2-5.1.8-2.6 1.7-4 2.4-3.6.6.4.5 0-.2-.9-.9-1.1-1-1.8-.2-2.3.6-.3.8-1.1.5-1.6-.4-.5.2-.9 1.2-1 1 0 1.3-.3.6-.6-.9-.3-1-1-.4-2.1.5-.9 1.1-2.2 1.3-2.7.1-.6.7-.9 1.1-.7.4.1.3-.7-.3-1.8s-.7-2-.2-2c.4 0 .8-.9.9-2.1.1-1.2 1.1-3.8 2.1-6 1.1-2.1 1.4-3.5.8-3.2-.6.4-.5-.1.3-1 .7-.9 1-1.7.6-1.7s0-1.2 1-2.6c1.1-1.8 1.2-2.4.4-1.8-1.2.6-1.2.5 0-.9.7-.9 1-1.7.6-1.7s-.2-.6.4-1.3c.6-.8.8-1.7.4-2-.3-.4-.1-.7.6-.7s1-.4.7-.8c-.7-1.1 2.9-12.4 3.6-11.7.3.4.6 0 .5-.7-.1-4.2.5-5.9 2.6-6.8 1.7-.7 1.8-.9.5-.9-2.1-.1-2.3-1.4-.5-3.3.6-.7 1.4-2.4 1.5-3.8.2-1.4.9-3.1 1.4-3.8.6-.6.8-1.2.5-1.2-.3 0-.1-1.3.4-3 .6-1.6 1.5-2.7 2-2.4.5.3.6-.2.3-1.1-.9-2.1 1.6-5.1 2.7-3.3 1.3 1.9 1.1 3-.3 2.3-.7-.4-.5 0 .4.8 1 .8 1.5 1.7 1.1 2-.3.4-.1.7.6.7.9 0 1.2 1 .9 2.9-.2 1.7-.1 2.8.4 2.5.4-.3 1 .1 1.2.8 2.4 8.4 2.9 10.4 3 11.3.1.5.4 1.2.8 1.5.8.6 1.9 5.4 2.1 8.7.1 1.3.5 2.3 1 2.3s.7.7.3 1.5c-.3.8-.1 1.5.5 1.5s.9.7.5 1.5c-.3.8-.1 1.5.4 1.5s.7.9.5 2c-.2 1.1.1 2 .7 2s.8.9.5 2c-.3 1.1-.1 2 .4 2s.8.3.7.7c0 .5.1 1.5.5 2.3.5 1.3 1.5 5.2 2.2 8.5.2.5 1.2 4.2 2.3 8 1.2 3.9 2.3 7.9 2.5 9 .2 1.1.8 2.8 1.2 3.9.4 1 .8 3.1.9 4.6.1 1.5.5 2.5 1 2.2.5-.3.7.2.3 1.1-.3.9-.2 1.7.4 1.9.5.2 1.2 1.4 1.4 2.8.3 1.4 1.7 5.6 3.1 9.5 1.5 3.8 2.7 7.9 2.8 9 0 1.1.7 2.5 1.5 3.1.7.6 1.4 2.5 1.5 4.1 0 1.7.5 3.1 1.1 3 .5-.1 1 .2 1.1.8.5 2.9 1.7 5.5 2.6 5.5.5 0 .7.4.4.9-.3.5.3 1.9 1.3 3.2 1 1.3 2.1 3.6 2.5 5.1.3 1.6 1.1 2.8 1.6 2.8.6 0 1 .5 1 1.2 0 .6 1.1 2.6 2.6 4.5 1.4 1.8 2.2 3.3 1.8 3.3-.4 0 .3.9 1.6 2s1.9 2 1.4 2-.1.5.9 1.1c.9.5 1.7 1.4 1.7 1.9s1.1 2.1 2.6 3.5c1.4 1.4 2.3 2.9 2 3.4-.3.5.2 1.5 1.2 2.2 1.5 1.3 1.6 1.2.3-.4-2.1-2.7-.1-2 2.9 1 4.2 4.4 8.3 7.7 11.3 9.2 1.5.8 2.6 2 2.3 2.7-.3.7.2 1 1.5.7 1.1-.3 1.9 0 1.9.8 0 .7.3.9.6.6 1-.9 4.6 1.2 3.9 2.3-.3.6.1.7 1 .4.8-.4 2.2-.1 3 .6.8.7 1.5.9 1.5.6 0-.4 1-.1 2.3.6 1.2.7 3.3 1.4 4.7 1.6 1.3.2 2.7.6 3 1 .3.4 2.3.8 4.5 1 2.2.2 4.2.6 4.5 1 .3.4 1.2.7 2 .7.8-.1 2.1.4 2.9.9 1.1.8 1.3.8.8 0-.5-.9.3-1 2.8-.4 1.9.4 3.5.5 3.5.1 0-.3.5.1 1 .9s1 1 1 .4 1.4-.9 3.3-.6c1.7.2 6.6.5 10.8.6l7.5.3-2.9-12.1c-1.5-6.6-3.3-13.8-3.8-15.9-.5-2.1-.7-4.2-.4-4.7.3-.4 0-1-.5-1.2-.6-.2-1.2-1.9-1.4-3.8-.2-1.9-.6-4.2-.9-5-.4-.8-1.5-5.4-2.6-10.2-1.1-4.8-2.4-10-2.7-11.5-.4-1.6-.7-4.2-.8-6-.1-1.7-.4-2.9-.8-2.6-.5.2-.8.1-.9-.4 0-.4-.3-1.7-.5-2.8l-.8-4c-.2-1.1-.6-2.7-.9-3.5-.3-.8-.8-2.9-1.1-4.5-.3-1.7-1.2-5.7-2-9.1-.8-3.4-1.7-7.2-2-8.5-.3-1.3-.7-3.3-1.1-4.4-.3-1.1-1.2-4.9-2.1-8.5-2.1-8.9-5.1-20.7-5.4-21.7-.5-1.7-2.7-11.2-3.4-14.8-.2-1.1-1.8-7.6-3.6-14.4-1.7-6.8-2.9-13-2.6-13.8.3-.8.1-1.1-.4-.8-.6.3-1.1-.1-1.1-.9-.1-.9-.2-1.9-.3-2.4-.1-.4-.6-2.5-1.1-4.7-.4-2.2-1-4.7-1.3-5.5-.2-.8-.5-2.5-.6-3.8 0-1.2-.4-2.2-.7-2.2-.4 0-.9-1.2-1.2-2.8-1.1-5.6-1.8-8.9-3.8-16-1.1-4.1-1.8-8-1.5-8.8.3-.8.2-1.3-.3-1-.5.3-1.1-.7-1.4-2.2-.9-4.8-1.8-8.6-3.7-15.7-1-3.9-2.1-8.1-2.3-9.5-.3-1.4-.8-3.2-1.1-4-.3-.8-.8-2.6-1.1-4-.2-1.4-1.1-4.9-2-7.9-.8-3-1.6-6.4-1.8-7.5-.2-1.2-.7-2.9-1.2-3.8-.4-1-.8-2.9-.9-4.3 0-1.4-.4-2.5-.7-2.5-.3 0-1.1-2.4-1.8-5.3-2.3-10.5-2.4-10.7-7.1-27.2-1.8-6.1-3.3-11.5-3.4-12-.1-.6-.4-1.5-.7-2-.4-.6-.5-2-.4-3.2.1-1.2-.2-2-.6-1.8-.3.3-1.2-1.7-1.8-4.3-2.2-8.8-8.6-24.2-10.3-25-.5-.2-.8-1-.8-1.8s-3.9-5.4-8.7-10.2c-6.8-6.7-10.7-9.7-17-12.9-4.6-2.4-8.3-4-8.3-3.7 0 .4-.7.1-1.5-.6s-1.5-1-1.5-.6c0 .3-1.2.1-2.7-.5-1.6-.6-6.1-1.2-10.1-1.5-4-.2-7.7-.6-8.1-.9-.5-.2-1.1-.1-1.5.2zM823.6 409.7c-.1.1-3.1.5-6.6.8-44.2 4.4-68 25.9-72.6 65.5-.8 6.6-1 24-.3 24 .4 0 .7 1.5.7 3.2 0 1.8.1 3.5.2 3.8.1.3.3 1.4.4 2.5.2 1.1.6 4.1 1 6.7.4 2.6.7 5 .7 5.3.1.2.6 2.6 1.3 5.2.7 2.7 1.2 5.8 1.1 7-.1 1.2.2 2 .7 1.7.4-.3.8.7.8 2.3 0 1.5.4 3.5 1 4.3.6.9.5 2-.3 2.9-.9 1.1-.9 1.3 0 .8 1.1-.7 1.6.6 2.9 7.8.3 1.6 1.6 7.2 2.9 12.4 1.3 5.2 2.2 9.8 1.9 10.3-.3.4-.1.8.4.8s1.2 1.7 1.5 3.7c.3 2.1.9 5.1 1.3 6.8.3 1.6.7 3.6.7 4.2 0 .7.3 1.3.7 1.3.5 0 1.1 3.7 1.4 8.7.1 1.1.4 1.9.9 1.6.4-.2.8.7.8 2.1.2 2.8.3 3.3 1.2 5.6.3.8 1.1 3.9 1.7 6.9.8 4.1.7 5.7-.2 7-1.1 1.4-1.1 1.4.4.3 1.5-1.2 1.7-.8 2.4 3.5.4 2.6 1.3 6.4 2 8.4.9 2.8 1 4 .1 4.9-.9 1-.9 1.1 0 .6.8-.4 1.4.6 1.9 3.1.4 2.1.7 3.9.6 4-.1.2.5 2 1.3 4.2 1 2.9 1.1 4.2.2 5.1-.9.9-.9 1.1-.1.7 1.7-1 2.6 2.3 1.2 4.1-.7.9-.8 1.3-.2.9 1.2-.7 3.4 5.4 3.4 9.6 0 1.4.5 2.9 1.1 3.3.8.4.7.9-.2 1.5-.9.5-.9.9-.3.9.7 0 1.5 1.7 1.9 3.7.5 2.1 1 4.5 1.2 5.3.3.8.5 2.2.7 3 .1.9.5 2 .9 2.6.3.6.7 2.7.9 4.7.1 2.1.5 3.7.8 3.7.3 0 .7 1.2.8 2.6.1 1.4.5 3.1.9 3.7.4.7.8 1.5.9 1.9.1.5.2.9.4 1 .1.2.3 1.2.6 2.3.2 1.1.6 3.5 1 5.3.3 1.8 1 3.5 1.5 3.8 1.1.6 1.2 4.1.2 4.7-.5.2-.3.2.4.1 1.2-.3 3.5 5 2.6 6-.4.3-.1.6.5.6.7 0 1.2.8 1.2 1.8s.3 2.2.8 2.6c.4.4.7 1.1.8 1.4 0 .4 1.7 4 3.7 8.1 2 4 3.4 7.8 3 8.4-.3.5-.2.7.4.4.5-.4 1.6.6 2.4 2.1.8 1.5 2.2 3.6 3.2 4.7 1 1 1.5 2.5 1.2 3.3-.2.7-.1 1.1.3.8 1.2-.7 4.4 3.3 3.6 4.6-.4.6-.3.8.3.5 1-.6 2.8 1.9 2.5 3.5-.1.4.6.4 1.5.1 1.2-.5 1.5-.2 1 1-.4 1-.2 1.6.6 1.4.7-.1 1.1.4.9 1.1-.1.8.2 1.1.6.8.5-.3 2.3.7 3.9 2.2 4.2 3.8 6.8 5.9 9.2 7.1 1.3.7 1.8 1.8 1.5 2.9-.5 1.3-.4 1.4.4.3.9-1.2 1.2-1.2 2.4 0 .8.8 3.8 2.5 6.6 3.8 2.8 1.3 4.9 2.8 4.6 3.2-.3.5.2.6 1 .3.9-.3 1.6-.1 1.6.5s.3 1 .8 1c1.7-.3 3.3.2 2.9.9-.3.4.7.8 2.1.8 1.5.1 5 1.1 7.8 2.1 2.8 1.1 6.9 2.4 9 2.8 2.1.5 4.2.9 4.7 1 .4.2 1.3.3 2 .4.8.1.7.4-.3 1.1-.9.6-1 1-.3 1 .6 0 1.5-.5 1.8-1 .4-.6 1.1-.7 1.7-.4.5.4 2.7.9 4.7 1.1 2 .3 4.5 1.2 5.6 2.1 1.9 1.6 1.9 1.6.6-.1-1.3-1.7-1.2-1.8 1.4-1.3 1.6.3 3.2 1.1 3.7 1.8.5.9.8.9.8.1 0-.6.8-1 1.8-.9 1 .2 1.7 1.1 1.6 2.3-.1 1.1.5 2 1.3 2 .9 0 1-.4.4-1-.5-.5-.7-1.5-.5-2.2.6-1.4 4.5-.8 5.6.9.5.8.8.7.8-.2 0-.6.5-1.2 1.1-1.2.5 0 .7.6.3 1.2-.5 1-.4 1 .6.1 1.1-1 1.6-.9 2.7.5.9 1.1 1.2 1.2 1.1.3-.2-.9.8-1.4 3-1.5 1.9 0 3.6.2 3.8.5.2.4 2.2.5 4.5.3 2.9-.3 3.8-.1 3.3.8-.5.7-.3.8.7.2 2.1-1.3 7-1.4 9.2-.2 1.1.5 1.7.6 1.4.1-.4-.6 3.6-.9 9.9-.9 7 .1 10.3.4 10 1.2-.2.6.2 1.1.9 1.1s1.1-.6.9-1.2c-.6-1.4 11.3-1.4 13.5-.1 1 .6 1.2.5.7-.2-.4-.7-.1-1.2.8-1.2.8 0 1.7.6 1.9 1.2.4 1 .6 1 .6 0 .1-.6.6-1.2 1.2-1.2.5 0 .7.6.3 1.2-.5.8 0 .7 1.1-.2 1.9-1.6 2.1-1.6 4.4.3.8.7 1.2.7.9.2-.4-.7 3.1-1 10.3-1 7.5 0 10.8.3 10.5 1.1-.2.6.2 1.1.9 1.1s1.1-.5.9-1.2c-.3-.6.6-1.1 2.1-1.1 1.4 0 2.5.5 2.5 1 0 .7.3.8.8.1 1-1.3 8.2-1.4 8.2-.1 0 .6.5.4 1-.4.9-1.3 1.1-1.3 2 0 .5.8 1 1 1 .4 0-1.1 3.5-1.2 4.6-.1.4.4 1.4.7 2.3.6 1.2 0 1.1-.2-.3-.8-1.1-.4 3.6-.7 10.3-.7 8.3.1 12 .4 11.7 1.2-.2.6.2 1.1.9 1.1s1.1-.5.9-1.1c-.3-.8 3.5-1.1 12.7-1.1 7.2 0 13.3-.3 13.5-.7.2-.3-.1-1.9-.8-3.5-.6-1.5-1.2-3-1.3-3.3 0-.3-1.9-4.1-4-8.5-2.2-4.4-3.9-8.3-3.7-8.8.1-.4-.1-.7-.6-.7-.4 0-1.6-1.7-2.7-3.8-6.7-12.9-18.8-26.9-31.3-36.5-10.2-7.8-34.2-19.2-44.5-21.1-1.2-.3-2.2-.5-2.2-.6 0-.1-.7-.3-1.5-.5s-4.4-1-8-1.8c-3.6-.8-8.7-1.8-11.3-2.2-2.7-.3-5.6-.8-6.5-1-6.4-1.2-22.2-2.4-39-3-7.9-.2-14.7-.7-15.3-1-.5-.4-.9-.1-.9.5s-.5.8-1 .5c-1.5-.9-10.4-1-11.8-.1-.7.4-1.2.4-1.2-.1 0-.4-3.8-.7-8.4-.6l-8.5.3-1.5-5.3c-.8-2.8-1.9-7.7-2.5-10.7-1.3-6.3-2.1-10.1-2.5-11.5-.2-.6-.6-2.8-1.1-5-.4-2.2-1.2-4.8-1.7-5.8-.6-1.2-.5-1.7.4-1.7 1 0 1-.2-.1-.9-.7-.5-1-1.4-.7-2 .4-.6.2-1.1-.5-1.1-.8 0-.7-.5.2-1.7.8-.9.9-1.4.3-1-1.2.7-3.8-8.8-2.9-10.4.4-.5 4.8-.8 9.8-.7 5.1.1 9.8-.1 10.4-.5.7-.5 2.2.2 3.4 1.4 1.9 1.9 2 1.9 1.5.2s-.1-1.8 4.2-1.6c11.7.8 18.4.8 18.8.1.3-.5 1-.6 1.5-.2.5.3.6 1.1.2 1.7-.4.7 0 .6 1-.2.9-.7 1.7-1 1.7-.5s.4.3.9-.5c1.1-1.7 3.2-.5 2.4 1.4-.3.8 0 1.5.6 1.5s1-.6.9-1.3c-.3-1.2 2.1-1.5 13.7-1.7 2.8 0 7.6.1 10.8.3 3.2.2 6.1-.1 6.4-.5.2-.5 1.6-.2 2.9.6 1.7 1.2 2.2 1.3 1.8.3-.3-.9.2-1.3 1.8-1.1 1.3.1 2.3.3 2.3.4 0 .7 6.7.5 7.1-.2.3-.5 1.7-.2 3 .6 1.7 1.2 2.2 1.3 1.8.3-.5-1.5 2.2-1.7 4.4-.3.7.4 1.9.3 2.7-.4 1.1-.9 1.8-.7 3.5 1 1.9 1.9 2.1 2 1.6.3-.5-1.6-.1-1.8 3.2-1.6 7.7.5 18.2.1 18.2-.8 0-.3.7-.6 1.5-.7l3-.4c.8-.1 1.5-.5 1.5-1s.4-.7.9-.3c.5.3 1.3 0 1.7-.6.4-.8.9-.7 1.5.2.7 1.2.9 1.2.9 0 0-1.4 5-6.6 5-5.3 0 1.8 7-13 7.2-15.2.1-1.4.5-2.6.8-2.6.4 0 .5-1.7.4-3.8-.1-2 .3-4.3 1-5.1.8-1.1.8-1.3-.1-.7-.9.5-1.3-.2-1.4-2.6-.2-5.3-.6-8-2.2-13.1-.8-2.6-1.2-4.7-.9-4.7.4 0 .3-.4-.3-.8-.5-.4-2-3-3.3-5.7-7.5-16.1-22.7-29.1-36.2-31.2-2.5-.3-36.8-.6-76.2-.7-64 0-71.8-.2-72.3-1.5-.3-.9-.9-3.9-1.5-6.6-1.7-8.3-2-9.8-3.7-16-1.3-5.3-2-8.2-2.7-12-.1-.6-.5-1.6-.9-2.3-.5-.7-.3-1.2.5-1.2 1 0 1-.2.1-.8-.7-.5-1.4-2.1-1.5-3.8-.1-1.6-.5-3.1-.9-3.4-.3-.3-.9-2.2-1.2-4.2-.5-3.5-.4-3.7 2.1-3.4 1.6.1 2.6.8 2.4 1.5-.1.7.2 1 .8.6.6-.3.8-1.1.5-1.6-.4-.5.3-.9 1.5-.9s1.9.4 1.5.9c-.3.5-.1 1.3.5 1.6.6.4.9.1.8-.6-.2-.9 1.5-1.4 5.5-1.6 3.7-.2 5.6.1 5.2.7-.3.6-.1 1 .4 1 .6 0 1.1-.5 1.1-1.1 0-.7 1.8-1 5-.7 2.8.1 5 .1 5-.2 0-.3 3.8-.5 8.4-.5 4.6 0 8.2-.3 7.9-.8-.2-.4 0-.7.6-.7.5 0 1.2.6 1.5 1.2.5 1 .7 1 1.2 0 .3-.6 1-1.2 1.5-1.2.6 0 .7.6.3 1.2-.6 1-.5 1 .7.1.8-.6 3.9-1.4 6.9-1.7 8.6-1 11.2-1.4 15-2.2 1.9-.4 4.9-.8 6.7-.8 1.7-.1 2.9-.5 2.5-1-.3-.5.2-.7 1-.3.9.3 2.1 0 2.7-.6.6-.6 1.1-.7 1.1-.3 0 .5.7.3 1.5-.4.9-.7 1.8-1 2.2-.7.3.4 1.2.2 2-.4.7-.6 1.3-.8 1.3-.5 0 .4 1 0 2.1-.8 1.2-.8 2.8-1.2 3.5-.9.8.3 1.4-.1 1.4-.8 0-.7.3-.9.7-.6.3.4 1.1.3 1.7-.2 2.1-1.6 4.7-2.1 4.1-.8-.4.6-.1.5.7-.4 1.8-2.2 10.9-6.9 12-6.3.5.3.7 0 .6-.8-.2-.8.6-1.2 2.2-1.1 1.4.1 1.9-.1 1.2-.4-.9-.3-.7-1 .9-2.4 1.2-1 2.6-1.6 3.2-1.2.5.3.7.2.4-.4-.8-1.2 8.7-10.6 9.7-9.6.4.4.4.1.1-.8-.3-.8.5-2.8 1.9-4.4 1.4-1.6 2.4-3.3 2.3-3.9-.1-.6.6-1 1.6-1 1.3.1 1.5-.1.8-1-.7-.8-.5-2.1.5-4.1.8-1.6 1.6-3.6 1.8-4.4 1.4-6.6 2-8 2.9-7.4.5.3.7.1.4-.4-1.1-1.7.4-13.3 1.6-12.6.6.4.7.1.2-.8-.5-.7-1-6.3-1.1-12.2-.2-6-.6-11.2-.9-11.6-.6-.5-170.3-.9-170.9-.4zM984.6 473.8c-.3.5.1.9.9.9s1.2-.4.9-.9c-.3-.4-.7-.8-.9-.8-.2 0-.6.4-.9.8zM981.3 477.5c0 .8.4 1.2.9.9.5-.3.6-1 .3-1.5-.9-1.3-1.2-1.1-1.2.6zM975 485.4c0 .2.7.7 1.6 1 .8.3 1.2.2.9-.4-.6-1-2.5-1.4-2.5-.6zM971.3 487.5c0 .8.4 1.2.9.9.5-.3.6-1 .3-1.5-.9-1.3-1.2-1.1-1.2.6zM971.5 490.9c-.3.5-.2 1.2.3 1.5.5.3.9-.1.9-.9 0-1.7-.3-1.9-1.2-.6zM967 491.4c0 .2.7.7 1.6 1 .8.3 1.2.2.9-.4-.6-1-2.5-1.4-2.5-.6zM958.5 494c-.3.6.1.7.9.4 1.8-.7 2.1-1.4.7-1.4-.6 0-1.3.4-1.6 1zM951 499.5c0 .7 3 1.3 3.4.7.3-.4-.4-.9-1.5-.9-1-.1-1.9 0-1.9.2zM941.6 503.8c-.3.5.1.9.9.9s1.2-.4.9-.9c-.3-.4-.7-.8-.9-.8-.2 0-.6.4-.9.8zM917.9 508.7c-1.2 1.6-1.2 1.7.2.6.9-.7 2-.9 2.4-.5.5.4.5.1.1-.6-.9-1.6-1.1-1.5-2.7.5zM943.6 508.2c.3.5 1 .6 1.5.3 1.3-.9 1.1-1.2-.6-1.2-.8 0-1.2.4-.9.9zM947.5 508.9c-.3.5-.2 1.2.3 1.5.5.3.9-.1.9-.9 0-1.7-.3-1.9-1.2-.6zM899.4 510.9c.4.6.3 1.8-.3 2.5-.8.9-.7 1.3.2 1.3 1.6 0 2-3.4.5-4.3-.7-.4-.8-.2-.4.5zM938.9 511.7c-1.3 1.6-1.2 1.7.4.4.9-.7 1.7-1.5 1.7-1.7 0-.8-.8-.3-2.1 1.3zM881.9 512.7c-1.2 1.6-1.2 1.7.2.6.9-.7 2-.9 2.4-.5.5.4.5.1.1-.6-.9-1.6-1.1-1.5-2.7.5zM903 512.1c0 .5.5.7 1 .4.6-.3 1-.8 1-1.1 0-.2-.4-.4-1-.4-.5 0-1 .5-1 1.1zM918 511.5c0 .2.6.8 1.3 1.4 1 .8 1.4.7 1.4-.2 0-.8-.6-1.4-1.4-1.4-.7 0-1.3.1-1.3.2zM933.4 512.6c.1.8.4 1.5.7 1.6.2.2.3.1.2-.1-.2-.2.2-.9.7-1.6.7-.8.5-1.2-.4-1.2-.8 0-1.3.6-1.2 1.3zM891.9 512.5c-.1.3-.2.8-.3 1.2-.1.5-.5 1.5-1 2.3-.7 1.2-.6 1.3.4.3 1.3-1.2 2.3-4.3 1.4-4.3-.2 0-.5.2-.5.5zM895.3 513.5c0 .8.4 1.2.9.9.5-.3.6-1 .3-1.5-.9-1.3-1.2-1.1-1.2.6zM929.5 514c.3.5.8 1 1.1 1 .2 0 .4-.5.4-1 0-.6-.5-1-1.1-1-.5 0-.7.4-.4 1zM847.5 516c.3.5.8 1 1.1 1 .2 0 .4-.5.4-1 0-.6-.5-1-1.1-1-.5 0-.7.4-.4 1zM857.6 516.2c.3.5 1 .6 1.5.3 1.3-.9 1.1-1.2-.6-1.2-.8 0-1.2.4-.9.9zM882 515.4c0 .2.8 1 1.8 1.7 1.5 1.3 1.6 1.2.3-.4s-2.1-2.1-2.1-1.3zM921.6 517.9c-.3.5.2 1.5 1.2 2.2 1.5 1.2 1.6 1.2.5-.2-.7-.9-1-1.9-.6-2.2.3-.4.4-.7 0-.7-.3 0-.8.4-1.1.9zM875 518.4c0 .2.8 1 1.8 1.7 1.5 1.3 1.6 1.2.3-.4s-2.1-2.1-2.1-1.3zM879 519.4c0 .2.7.7 1.6 1 .8.3 1.2.2.9-.4-.6-1-2.5-1.4-2.5-.6zM873.5 520.9c-.3.5-.2 1.2.3 1.5.5.3.9-.1.9-.9 0-1.7-.3-1.9-1.2-.6zM889.6 521.9c-.3.5.2 1.5 1.2 2.2 1.5 1.2 1.6 1.2.5-.2-.7-.9-1-1.9-.6-2.2.3-.4.4-.7 0-.7-.3 0-.8.4-1.1.9zM496 532c-.9.6-1 1-.3 1 .6 0 1.5-.5 1.8-1 .8-1.2.4-1.2-1.5 0zM52 592c-.9.6-1 1-.3 1 .6 0 1.5-.5 1.8-1 .8-1.2.4-1.2-1.5 0zM59 612c0 .5.5 1 1.1 1 .5 0 .7-.5.4-1-.3-.6-.8-1-1.1-1-.2 0-.4.4-.4 1zM62 627.4c0 .2.8 1 1.8 1.7 1.5 1.3 1.6 1.2.3-.4s-2.1-2.1-2.1-1.3zM618.6 636.2c.3.5 1 .6 1.5.3 1.3-.9 1.1-1.2-.6-1.2-.8 0-1.2.4-.9.9zM620 638c-.9.6-1 1-.3 1 .6 0 1.5-.5 1.8-1 .8-1.2.4-1.2-1.5 0zM625.5 642c-.3.5-.1 1 .4 1 .6 0 1.1-.5 1.1-1 0-.6-.2-1-.4-1-.3 0-.8.4-1.1 1zM879.9 663.7c0 .5-.2 1.6-.4 2.6-.2 1.1-.1 1.6.3 1.3.8-.8 1.4-4.6.7-4.6-.3 0-.5.3-.6.7zM889.6 663.8c-.3.5.1.9.9.9s1.2-.4.9-.9c-.3-.4-.7-.8-.9-.8-.2 0-.6.4-.9.8zM906 663.4c0 .2.8 1 1.8 1.7 1.5 1.3 1.6 1.2.3-.4s-2.1-2.1-2.1-1.3zM953.3 664.5c0 .8.4 1.2.9.9.5-.3.6-1 .3-1.5-.9-1.3-1.2-1.1-1.2.6zM1000.6 664.2c.3.5.9.7 1.2.4.3-.3 1.2 0 2.1.6 1.3 1 1.4 1 .4-.2-1.5-1.6-4.6-2.3-3.7-.8zM1019.5 664.1c-.3.4.2.6 1 .5 2.1-.3 2.8-1.3 1-1.3-.9 0-1.8.4-2 .8zM883 664.4c0 .2.8 1 1.8 1.7 1.5 1.3 1.6 1.2.3-.4s-2.1-2.1-2.1-1.3zM975.6 665.3c.3 1 .9 1.5 1.2 1.2.3-.3 0-1.1-.7-1.8-1-.9-1.1-.8-.5.6zM910.6 665.8c-.3.5.1.9.9.9s1.2-.4.9-.9c-.3-.4-.7-.8-.9-.8-.2 0-.6.4-.9.8zM914.9 666.3c.6.8.7 1.8.3 2.2-.4.5-.1.5.6.1 1-.6 1-1.1.1-2.2-.6-.8-1.4-1.4-1.6-1.4-.3 0 0 .6.6 1.3zM946.6 665.8c-.3.5.1.9.9.9s1.5-.4 1.5-.9c0-.4-.4-.8-.9-.8-.6 0-1.2.4-1.5.8zM1006.6 665.8c-.3.5.1.9.9.9s1.2-.4.9-.9c-.3-.4-.7-.8-.9-.8-.2 0-.6.4-.9.8zM1010.9 666.3c.6.8.7 1.8.3 2.2-.4.5-.1.5.6.1 1-.6 1-1.1.1-2.2-.6-.8-1.4-1.4-1.6-1.4-.3 0 0 .6.6 1.3zM923.3 668.7c0 .9.4 1 1.4.2.7-.6 1.3-1.2 1.3-1.4 0-.1-.6-.2-1.3-.2-.8 0-1.4.6-1.4 1.4zM937 668.1c0 .5.5.7 1 .4.6-.3 1-.8 1-1.1 0-.2-.4-.4-1-.4-.5 0-1 .5-1 1.1zM954 667.5c0 .2.6.8 1.3 1.4 1 .8 1.4.7 1.4-.2 0-.8-.6-1.4-1.4-1.4-.7 0-1.3.1-1.3.2zM970 667.4c0 .2.8 1 1.8 1.7 1.5 1.3 1.6 1.2.3-.4s-2.1-2.1-2.1-1.3zM986 667.4c0 .2.8 1 1.8 1.7 1.5 1.3 1.6 1.2.3-.4s-2.1-2.1-2.1-1.3zM1013.7 668.5c-.4.8-.3 1.6.1 1.9.4.3.9-.4.9-1.5.2-2.3-.3-2.5-1-.4zM943.3 669.5c0 .8.4 1.2.9.9.5-.3.6-1 .3-1.5-.9-1.3-1.2-1.1-1.2.6zM949.3 669.5c0 .8.4 1.2.9.9.5-.3.6-1 .3-1.5-.9-1.3-1.2-1.1-1.2.6zM1021 670.1c0 .5.5.7 1 .4.6-.3 1-.8 1-1.1 0-.2-.4-.4-1-.4-.5 0-1 .5-1 1.1zM926.9 671.7c-1.3 1.6-1.2 1.7.4.4.9-.7 1.7-1.5 1.7-1.7 0-.8-.8-.3-2.1 1.3zM884.6 672.2c.3.5 1 .6 1.5.3 1.3-.9 1.1-1.2-.6-1.2-.8 0-1.2.4-.9.9zM899 672c0 .5.5 1 1.1 1 .5 0 .7-.5.4-1-.3-.6-.8-1-1.1-1-.2 0-.4.4-.4 1zM937.5 672.9c-.3.5-.2 1.2.3 1.5.5.3.9-.1.9-.9 0-1.7-.3-1.9-1.2-.6zM907.6 674.2c.3.4 1.1.5 1.9.1 2.1-.7 1.9-1.2-.4-1-1.1 0-1.8.5-1.5.9zM919.5 674c.3.5.8 1 1.1 1 .2 0 .4-.5.4-1 0-.6-.5-1-1.1-1-.5 0-.7.4-.4 1zM927.6 674.7c-.6 1.4-.5 1.5.5.6.7-.7 1-1.5.7-1.8-.3-.3-.9.2-1.2 1.2zM951.5 674c.3.5.8 1 1.1 1 .2 0 .4-.5.4-1 0-.6-.5-1-1.1-1-.5 0-.7.4-.4 1zM965.5 673.9c-.3.5-.2 1.2.3 1.5.5.3.9-.1.9-.9 0-1.7-.3-1.9-1.2-.6zM973.5 673.9c-.3.5-.2 1.2.3 1.5.5.3.9-.1.9-.9 0-1.7-.3-1.9-1.2-.6zM981.3 675.1c-.2 2.3.3 2.5 1 .4.4-.8.3-1.6-.1-1.9-.4-.3-.9.4-.9 1.5zM989.3 675.1c-.2 2.3.3 2.5 1 .4.4-.8.3-1.6-.1-1.9-.4-.3-.9.4-.9 1.5zM995.5 674c.3.5.8 1 1.1 1 .2 0 .4-.5.4-1 0-.6-.5-1-1.1-1-.5 0-.7.4-.4 1zM602.9 683.7c-1.3 1.6-1.2 1.7.4.4 1.6-1.3 2.1-2.1 1.3-2.1-.2 0-1 .8-1.7 1.7zM456 684c-.9.6-1 1-.3 1 .6 0 1.5-.5 1.8-1 .8-1.2.4-1.2-1.5 0zM71.5 686.9c-.3.5-.2 1.2.3 1.5.5.3.9-.1.9-.9 0-1.7-.3-1.9-1.2-.6zM779.6 699.3c.3 1 .9 1.5 1.2 1.2.3-.3 0-1.1-.7-1.8-1-.9-1.1-.8-.5.6zM592 728c-.9.6-1 1-.3 1 .6 0 1.5-.5 1.8-1 .8-1.2.4-1.2-1.5 0zM265 736c0 .5.6.9 1.3.7.6-.1 1.1.4.9 1.1-.1.8.2 1.1.8.7.8-.5.7-1.1-.1-2.1-1.3-1.6-2.9-1.8-2.9-.4zM263.3 737.7c.4.3.1 1.3-.6 2.2-1.1 1.4-1 1.4.5.2 1.6-1.2 1.6-3.1.1-3.1-.4 0-.3.3 0 .7zM267.9 744.7c-1.3 1.6-1.2 1.7.4.4 1.6-1.3 2.1-2.1 1.3-2.1-.2 0-1 .8-1.7 1.7zM256.6 746.2c.3.5 1 .6 1.5.3 1.3-.9 1.1-1.2-.6-1.2-.8 0-1.2.4-.9.9zM253 750.1c0 .5.5.7 1 .4.6-.3 1-.8 1-1.1 0-.2-.4-.4-1-.4-.5 0-1 .5-1 1.1zM273 750c0 .5.5 1 1.1 1 .5 0 .7-.5.4-1-.3-.6-.8-1-1.1-1-.2 0-.4.4-.4 1zM258 751.4c0 .2.8 1 1.8 1.7 1.5 1.3 1.6 1.2.3-.4s-2.1-2.1-2.1-1.3zM277.4 756.4c.1.8.5 1.8.8 2.2.4.3.5-.1.4-1-.1-.8-.5-1.8-.8-2.2-.4-.3-.5.1-.4 1zM247.5 758c.3.5.8 1 1.1 1 .2 0 .4-.5.4-1 0-.6-.5-1-1.1-1-.5 0-.7.4-.4 1zM665.6 757.8c-.3.4.4.9 1.5.9 2.3.2 2.5-.3.4-1-.8-.4-1.6-.3-1.9.1zM573.5 762c-.3.5-.1 1 .4 1 .6 0 1.1-.5 1.1-1 0-.6-.2-1-.4-1-.3 0-.8.4-1.1 1zM243 764c0 .5.5 1 1.1 1 .5 0 .7-.5.4-1-.3-.6-.8-1-1.1-1-.2 0-.4.4-.4 1zM286.1 768.4c-.9 1.1-.9 1.6.1 2.2.7.4 1 .4.6-.1-.4-.4-.3-1.4.3-2.2.6-.7.9-1.3.6-1.3-.2 0-1 .6-1.6 1.4zM243.5 772c.3.5.8 1 1.1 1 .2 0 .4-.5.4-1 0-.6-.5-1-1.1-1-.5 0-.7.4-.4 1zM817.5 774c.3.5.8 1 1.1 1 .2 0 .4-.5.4-1 0-.6-.5-1-1.1-1-.5 0-.7.4-.4 1zM675 776.1c0 .5.5.7 1 .4.6-.3 1-.8 1-1.1 0-.2-.4-.4-1-.4-.5 0-1 .5-1 1.1zM293.5 778c-.3.5-.1 1 .4 1 .6 0 1.1-.5 1.1-1 0-.6-.2-1-.4-1-.3 0-.8.4-1.1 1zM291.5 783.1c-.4.6-.5 1.2-.2 1.5.2.3.7-.2 1-1.1.7-1.7.1-2-.8-.4zM104 784c-.9.6-1 1-.3 1 .6 0 1.5-.5 1.8-1 .8-1.2.4-1.2-1.5 0zM827.6 783.8c-.3.5.1.9.9.9s1.2-.4.9-.9c-.3-.4-.7-.8-.9-.8-.2 0-.6.4-.9.8zM298.5 786c-.3.6.1.7.9.4 1.8-.7 2.1-1.4.7-1.4-.6 0-1.3.4-1.6 1zM425.3 786.9c0 1.1.5 1.8.9 1.5.4-.3.5-1.1.1-1.9-.7-2.1-1.2-1.9-1 .4zM557 786.1c0 .5.5.7 1 .4.6-.3 1-.8 1-1.1 0-.2-.4-.4-1-.4-.5 0-1 .5-1 1.1zM683.5 786c-.3.5-.1 1 .4 1 .6 0 1.1-.5 1.1-1 0-.6-.2-1-.4-1-.3 0-.8.4-1.1 1zM823.3 786.5c0 .8.4 1.2.9.9.5-.3.6-1 .3-1.5-.9-1.3-1.2-1.1-1.2.6zM829 790.1c0 .5.5.7 1 .4.6-.3 1-.8 1-1.1 0-.2-.4-.4-1-.4-.5 0-1 .5-1 1.1zM307.6 791.8c-.3.5.1.9.9.9s1.2-.4.9-.9c-.3-.4-.7-.8-.9-.8-.2 0-.6.4-.9.8zM423 791.9c0 .6.4 1.3 1 1.6.6.3.7-.1.4-.9-.7-1.8-1.4-2.1-1.4-.7zM827.6 794.7c-.6 1.4-.5 1.5.5.6.7-.7 1-1.5.7-1.8-.3-.3-.9.2-1.2 1.2zM838.6 793.8c-.3.5.1.9.9.9s1.2-.4.9-.9c-.3-.4-.7-.8-.9-.8-.2 0-.6.4-.9.8zM309.5 798c.3.5.8 1 1.1 1 .2 0 .4-.5.4-1 0-.6-.5-1-1.1-1-.5 0-.7.4-.4 1zM419.5 798c.3.5.8 1 1.1 1 .2 0 .4-.5.4-1 0-.6-.5-1-1.1-1-.5 0-.7.4-.4 1zM847.5 797.7c.3.3 0 1.1-.5 1.8-.7.8-.5 1.2.4 1.2 1.4 0 1.6-2.2.3-3.2-.4-.3-.5-.2-.2.2zM843 800.1c0 .5.5.7 1 .4.6-.3 1-.8 1-1.1 0-.2-.4-.4-1-.4-.5 0-1 .5-1 1.1zM207.3 802.5c0 .8.4 1.2.9.9.5-.3.6-1 .3-1.5-.9-1.3-1.2-1.1-1.2.6zM538.9 803.7c-1.3 1.6-1.2 1.7.4.4.9-.7 1.7-1.5 1.7-1.7 0-.8-.8-.3-2.1 1.3zM699 802.4c0 .2.8 1 1.8 1.7 1.5 1.3 1.6 1.2.3-.4s-2.1-2.1-2.1-1.3zM847 802.4c0 .2.8 1 1.8 1.7 1.5 1.3 1.6 1.2.3-.4s-2.1-2.1-2.1-1.3zM409.3 804.9c0 1.1.5 1.8.9 1.5.4-.3.5-1.1.1-1.9-.7-2.1-1.2-1.9-1 .4zM851.3 804.5c0 .8.4 1.2.9.9.5-.3.6-1 .3-1.5-.9-1.3-1.2-1.1-1.2.6zM854.6 804.2c.3.5 1 .6 1.5.3 1.3-.9 1.1-1.2-.6-1.2-.8 0-1.2.4-.9.9zM312.5 806c-.3.6.1.7.9.4 1.8-.7 2.1-1.4.7-1.4-.6 0-1.3.4-1.6 1zM403.9 806.2c-.5 1.8-.6 3.8-.1 3.4.7-.8 1.2-3.6.6-3.6-.2 0-.4.1-.5.2zM543.1 807.3c-.8 1-.7 1.4.2 1.4.8 0 1.4-.6 1.4-1.4 0-.7-.1-1.3-.2-1.3-.2 0-.8.6-1.4 1.3zM865.7 806.7c-1 .9-.9 2.3.1 2.3.5 0 .9-.7.9-1.5 0-1.7-.1-1.8-1-.8zM122.6 807.8c-.2.4.4.8 1.4.8 1 0 1.6-.4 1.4-.8-.3-.4-.9-.8-1.4-.8-.5 0-1.1.4-1.4.8zM317 808c0 .5.5 1 1.1 1 .5 0 .7-.5.4-1-.3-.6-.8-1-1.1-1-.2 0-.4.4-.4 1zM413 808c0 .5.5 1 1.1 1 .5 0 .7-.5.4-1-.3-.6-.8-1-1.1-1-.2 0-.4.4-.4 1zM525.3 808.5c0 .8.4 1.2.9.9.4-.3.8-.9.8-1.5 0-.5-.4-.9-.8-.9-.5 0-.9.7-.9 1.5zM851.5 808c-.3.5-.1 1 .4 1 .6 0 1.1-.5 1.1-1 0-.6-.2-1-.4-1-.3 0-.8.4-1.1 1zM861.3 808.5c0 .8.4 1.2.9.9.4-.3.8-.9.8-1.5 0-.5-.4-.9-.8-.9-.5 0-.9.7-.9 1.5zM868 807.4c0 .2.8 1 1.8 1.7 1.5 1.3 1.6 1.2.3-.4s-2.1-2.1-2.1-1.3zM321.5 810c-.3.5-.1 1 .4 1 .6 0 1.1-.5 1.1-1 0-.6-.2-1-.4-1-.3 0-.8.4-1.1 1zM399 809.4c0 .2.7.7 1.6 1 .8.3 1.2.2.9-.4-.6-1-2.5-1.4-2.5-.6zM518 810c-.9.6-1 1-.3 1 .6 0 1.5-.5 1.8-1 .8-1.2.4-1.2-1.5 0zM703 809.9c0 .6.4 1.3 1 1.6.6.3.7-.1.4-.9-.7-1.8-1.4-2.1-1.4-.7zM407.1 811.3c-.8 1-.7 1.4.2 1.4.8 0 1.4-.6 1.4-1.4 0-.7-.1-1.3-.2-1.3-.2 0-.8.6-1.4 1.3zM139 812.1c0 .5.5.7 1 .4.6-.3 1-.8 1-1.1 0-.2-.4-.4-1-.4-.5 0-1 .5-1 1.1zM191.6 812.7c-.6 1.4-.5 1.5.5.6.7-.7 1-1.5.7-1.8-.3-.3-.9.2-1.2 1.2zM337.5 812.1c-.3.4.2.6 1 .5 2.1-.3 2.8-1.3 1-1.3-.9 0-1.8.4-2 .8zM530.7 812.1c.7.7 1.5 1 1.8.7.3-.3-.2-.9-1.2-1.2-1.4-.6-1.5-.5-.6.5zM861.7 812.5c-.4.8-.3 1.6.1 1.9.4.3.9-.4.9-1.5.2-2.3-.3-2.5-1-.4zM867 812.2c0 .4.4.8.9.8.6 0 1.2-.4 1.5-.8.3-.5-.1-.9-.9-.9s-1.5.4-1.5.9zM713.5 812.9c-.3.5-.2 1.2.3 1.5.5.3.9-.1.9-.9 0-1.7-.3-1.9-1.2-.6zM147 814c0 .5.5 1 1.1 1 .5 0 .7-.5.4-1-.3-.6-.8-1-1.1-1-.2 0-.4.4-.4 1zM329.5 814c-.3.5-.1 1 .4 1 .6 0 1.1-.5 1.1-1 0-.6-.2-1-.4-1-.3 0-.8.4-1.1 1zM717.5 814c.3.5.8 1 1.1 1 .2 0 .4-.5.4-1 0-.6-.5-1-1.1-1-.5 0-.7.4-.4 1zM727.3 815.1c-.2 2.3.3 2.5 1 .4.4-.8.3-1.6-.1-1.9-.4-.3-.9.4-.9 1.5zM730.6 814.2c.3.4.9.8 1.5.8.5 0 .9-.4.9-.8 0-.5-.7-.9-1.5-.9s-1.2.4-.9.9zM141.5 814.9c-.3.5-.2 1.2.3 1.5.5.3.9-.1.9-.9 0-1.7-.3-1.9-1.2-.6zM151.3 815.5c0 .8.4 1.5.9 1.5.4 0 .8-.4.8-.9 0-.6-.4-1.2-.8-1.5-.5-.3-.9.1-.9.9zM175.9 814.2c-.5 1.8-.6 3.8-.1 3.4.7-.8 1.2-3.6.6-3.6-.2 0-.4.1-.5.2zM737.6 815.3c.3 1 .9 1.5 1.2 1.2.3-.3 0-1.1-.7-1.8-1-.9-1.1-.8-.5.6zM887.4 816c0 1.3.4 1.6 1 1 .7-.7.7-1.3 0-2-.6-.6-1-.3-1 1zM129.5 816c-.3.5-.1 1 .4 1 .6 0 1.1-.5 1.1-1 0-.6-.2-1-.4-1-.3 0-.8.4-1.1 1zM159.6 816.2c.3.5 1 .6 1.5.3 1.3-.9 1.1-1.2-.6-1.2-.8 0-1.2.4-.9.9zM204.6 816.2c.3.5 1 .6 1.5.3 1.3-.9 1.1-1.2-.6-1.2-.8 0-1.2.4-.9.9zM351.4 816.6c.1.7.6 1.7 1 2.1.4.4.6.1.4-.7-.2-.9.3-1.4 1.2-1.2.8.2 1.1 0 .7-.4-1.3-1.4-3.5-1.2-3.3.2zM373.5 815.9c-.3.5-.2 1.2.3 1.5.5.3.9-.1.9-.9 0-1.7-.3-1.9-1.2-.6zM485.3 816.5c0 .8.4 1.2.9.9.5-.3.6-1 .3-1.5-.9-1.3-1.2-1.1-1.2.6zM499.9 815.2c-.5 1.8-.6 3.8-.1 3.4.7-.8 1.2-3.6.6-3.6-.2 0-.4.1-.5.2zM711 816c0 .5.5 1 1.1 1 .5 0 .7-.5.4-1-.3-.6-.8-1-1.1-1-.2 0-.4.4-.4 1zM723.6 816.7c-.6 1.4-.5 1.5.5.6.7-.7 1-1.5.7-1.8-.3-.3-.9.2-1.2 1.2zM740.5 816.1c-.3.4.2.6 1 .5 2.1-.3 2.8-1.3 1-1.3-.9 0-1.8.4-2 .8zM745.5 815.9c-.3.5-.2 1.2.3 1.5.5.3.9-.1.9-.9 0-1.7-.3-1.9-1.2-.6zM847.5 816c-.3.5-.1 1 .4 1 .6 0 1.1-.5 1.1-1 0-.6-.2-1-.4-1-.3 0-.8.4-1.1 1zM147.5 816.9c-.3.5-.2 1.2.3 1.5.5.3.9-.1.9-.9 0-1.7-.3-1.9-1.2-.6zM873.5 816.9c-.3.5-.2 1.2.3 1.5.5.3.9-.1.9-.9 0-1.7-.3-1.9-1.2-.6zM171 817.8c0 .5.7.9 1.5.9s1.2-.4.9-.9c-.3-.4-.9-.8-1.5-.8-.5 0-.9.4-.9.8zM502.5 818c-.3.6.1.7.9.4 1.8-.7 2.1-1.4.7-1.4-.6 0-1.3.4-1.6 1zM521.5 818c-.3.5-.1 1 .4 1 .6 0 1.1-.5 1.1-1 0-.6-.2-1-.4-1-.3 0-.8.4-1.1 1zM717.5 817.9c-.3.5-.2 1.2.3 1.5.5.3.9-.1.9-.9 0-1.7-.3-1.9-1.2-.6zM760.6 817.8c-.3.5.1.9.9.9s1.2-.4.9-.9c-.3-.4-.7-.8-.9-.8-.2 0-.6.4-.9.8zM869.6 817.8c-.3.5.1.9.9.9s1.2-.4.9-.9c-.3-.4-.7-.8-.9-.8-.2 0-.6.4-.9.8zM926.6 817.8c-.3.5.1.9.9.9s1.2-.4.9-.9c-.3-.4-.7-.8-.9-.8-.2 0-.6.4-.9.8zM507.5 818.9c-.3.5-.2 1.2.3 1.5.5.3.9-.1.9-.9 0-1.7-.3-1.9-1.2-.6zM932.9 819.7c-1.3 1.6-1.2 1.7.4.4 1.6-1.3 2.1-2.1 1.3-2.1-.2 0-1 .8-1.7 1.7zM953 818.3c0 .2.6 1 1.4 1.6 1.1.9 1.6.9 2.2-.1.4-.7.4-1-.1-.6-.4.4-1.4.3-2.2-.3-.7-.6-1.3-.9-1.3-.6zM963.5 818.9c-.3.5-.2 1.2.3 1.5.5.3.9-.1.9-.9 0-1.7-.3-1.9-1.2-.6zM977 818.3c0 .2.6 1 1.4 1.6 1.1.9 1.6.9 2.2-.1.4-.7.4-1-.1-.6-.4.4-1.4.3-2.2-.3-.7-.6-1.3-.9-1.3-.6zM998.9 819.7c-1.3 1.6-1.2 1.7.4.4 1.6-1.3 2.1-2.1 1.3-2.1-.2 0-1 .8-1.7 1.7zM1059.5 818.9c-.3.5-.2 1.2.3 1.5.5.3.9-.1.9-.9 0-1.7-.3-1.9-1.2-.6zM371.3 820.5c0 .8.4 1.2.9.9.5-.3.6-1 .3-1.5-.9-1.3-1.2-1.1-1.2.6zM374 819.4c0 .2.8 1 1.8 1.7 1.5 1.3 1.6 1.2.3-.4s-2.1-2.1-2.1-1.3zM389.7 820.5c-.4.8-.3 1.6.1 1.9.4.3.9-.4.9-1.5.2-2.3-.3-2.5-1-.4zM491.3 820.5c0 .8.4 1.2.9.9.5-.3.6-1 .3-1.5-.9-1.3-1.2-1.1-1.2.6zM743.6 820.2c.3.5 1 .6 1.5.3 1.3-.9 1.1-1.2-.6-1.2-.8 0-1.2.4-.9.9zM902.5 820c-.3.6.1.7.9.4 1.8-.7 2.1-1.4.7-1.4-.6 0-1.3.4-1.6 1zM989.6 819.8c-.3.5.1.9.9.9s1.2-.4.9-.9c-.3-.4-.7-.8-.9-.8-.2 0-.6.4-.9.8zM1004 820c-.9.6-1 1-.3 1 .6 0 1.5-.5 1.8-1 .8-1.2.4-1.2-1.5 0zM1025.6 819.9c-.3.4.6.7 1.9.7 1.4 0 2.2-.2 1.9-.5-.8-.8-3.4-1-3.8-.2zM1031.4 821.6c0 2.3 1.1 2.4 1.1.1.1-.7.7-1.1 1.5-.9.8.2 1.1 0 .7-.4-1.6-1.7-3.3-1.1-3.3 1.2zM1041 819.9c0 .6.4 1.3 1 1.6.6.3.7-.1.4-.9-.7-1.8-1.4-2.1-1.4-.7zM1045.6 820.7c-.6 1.4-.5 1.5.5.6.7-.7 1-1.5.7-1.8-.3-.3-.9.2-1.2 1.2zM181 822.1c0 .5.5.7 1 .4.6-.3 1-.8 1-1.1 0-.2-.4-.4-1-.4-.5 0-1 .5-1 1.1zM385 822.1c0 .5.5.7 1 .4.6-.3 1-.8 1-1.1 0-.2-.4-.4-1-.4-.5 0-1 .5-1 1.1zM731.5 822.1c-.3.4.2.6 1 .5 2.1-.3 2.8-1.3 1-1.3-.9 0-1.8.4-2 .8zM757.5 822c.3.5.8 1 1.1 1 .2 0 .4-.5.4-1 0-.6-.5-1-1.1-1-.5 0-.7.4-.4 1zM761 822.1c0 .5.5.7 1 .4.6-.3 1-.8 1-1.1 0-.2-.4-.4-1-.4-.5 0-1 .5-1 1.1zM881.6 822.2c.3.4 1.1.5 1.9.1 2.1-.7 1.9-1.2-.4-1-1.1 0-1.8.5-1.5.9zM930.7 822.1c.7.7 1.5 1 1.8.7.3-.3-.2-.9-1.2-1.2-1.4-.6-1.5-.5-.6.5zM939 822.2c0 .4.4.8.9.8.6 0 1.2-.4 1.5-.8.3-.5-.1-.9-.9-.9s-1.5.4-1.5.9zM943.9 821.2c-.5 1.8-.6 3.8-.1 3.4.7-.8 1.2-3.6.6-3.6-.2 0-.4.1-.5.2zM980 822c-.9.6-1 1-.3 1 .6 0 1.5-.5 1.8-1 .8-1.2.4-1.2-1.5 0zM1051.3 822.5c0 .8.4 1.2.9.9.5-.3.6-1 .3-1.5-.9-1.3-1.2-1.1-1.2.6zM747.6 823.3c.3 1 .9 1.5 1.2 1.2.3-.3 0-1.1-.7-1.8-1-.9-1.1-.8-.5.6zM891.5 823.1c-.4.6-.5 1.2-.2 1.5.2.3.7-.2 1-1.1.7-1.7.1-2-.8-.4zM997 822.4c0 .2.8 1 1.8 1.7 1.5 1.3 1.6 1.2.3-.4s-2.1-2.1-2.1-1.3zM753 824c0 .5.5 1 1.1 1 .5 0 .7-.5.4-1-.3-.6-.8-1-1.1-1-.2 0-.4.4-.4 1zM935 823.4c0 .2.7.7 1.6 1 .8.3 1.2.2.9-.4-.6-1-2.5-1.4-2.5-.6zM966 823.4c0 .2.8 1 1.8 1.7 1.5 1.3 1.6 1.2.3-.4s-2.1-2.1-2.1-1.3zM1046 823.5c0 .2.6.8 1.3 1.4 1 .8 1.4.7 1.4-.2 0-.8-.6-1.4-1.4-1.4-.7 0-1.3.1-1.3.2zM1065.5 824c.3.5.8 1 1.1 1 .2 0 .4-.5.4-1 0-.6-.5-1-1.1-1-.5 0-.7.4-.4 1zM157.6 825.8c-.3.5.1.9.9.9s1.2-.4.9-.9c-.3-.4-.7-.8-.9-.8-.2 0-.6.4-.9.8zM360.6 826.2c.3.5 1 .6 1.5.3 1.3-.9 1.1-1.2-.6-1.2-.8 0-1.2.4-.9.9zM373.4 826.2c-.4.7-.4 1 .1.6.4-.4 1.5-.2 2.4.5 1.4 1.1 1.4 1 .2-.6-1.6-2-1.8-2.1-2.7-.5zM499 825.9c0 .6.4 1.3 1 1.6.6.3.7-.1.4-.9-.7-1.8-1.4-2.1-1.4-.7zM925.5 826c.3.5.8 1 1.1 1 .2 0 .4-.5.4-1 0-.6-.5-1-1.1-1-.5 0-.7.4-.4 1zM1005 826.1c0 .5.5.7 1 .4.6-.3 1-.8 1-1.1 0-.2-.4-.4-1-.4-.5 0-1 .5-1 1.1zM1017.5 826c.3.5.8 1 1.1 1 .2 0 .4-.5.4-1 0-.6-.5-1-1.1-1-.5 0-.7.4-.4 1zM1053.5 826c.3.5.8 1 1.1 1 .2 0 .4-.5.4-1 0-.6-.5-1-1.1-1-.5 0-.7.4-.4 1zM1069 826.1c0 .5.5.7 1 .4.6-.3 1-.8 1-1.1 0-.2-.4-.4-1-.4-.5 0-1 .5-1 1.1zM982.9 827.7c-1.3 1.6-1.2 1.7.4.4 1.6-1.3 2.1-2.1 1.3-2.1-.2 0-1 .8-1.7 1.7zM991 826.4c0 .2.8 1 1.8 1.7 1.5 1.3 1.6 1.2.3-.4s-2.1-2.1-2.1-1.3zM178.6 828.2c.3.5 1 .6 1.5.3 1.3-.9 1.1-1.2-.6-1.2-.8 0-1.2.4-.9.9zM929.6 827.8c-.3.5.1.9.9.9s1.2-.4.9-.9c-.3-.4-.7-.8-.9-.8-.2 0-.6.4-.9.8zM963 828c0 .5.5 1 1.1 1 .5 0 .7-.5.4-1-.3-.6-.8-1-1.1-1-.2 0-.4.4-.4 1zM1011 828c0 .5.5 1 1.1 1 .5 0 .7-.5.4-1-.3-.6-.8-1-1.1-1-.2 0-.4.4-.4 1zM1040 828.5c-.7.9-1.1 1.7-.9 2 .3.2 1-.5 1.7-1.5 1.4-2.4 1-2.6-.8-.5zM1079 828.1c0 .5.5.7 1 .4.6-.3 1-.8 1-1.1 0-.2-.4-.4-1-.4-.5 0-1 .5-1 1.1zM1051.5 829.1c-.4.6-.5 1.2-.2 1.5.2.3.7-.2 1-1.1.7-1.7.1-2-.8-.4zM1029.6 829.9c-.3.5.2 1.5 1.2 2.2 1.5 1.2 1.6 1.2.5-.2-.7-.9-1-1.9-.6-2.2.3-.4.4-.7 0-.7-.3 0-.8.4-1.1.9z"/></svg>