<svg width="512" height="512" viewBox="0 0 512 512" xmlns="http://www.w3.org/2000/svg" fill="none"><path d="M452 0c-.377 0-.75.018-1.124.029-.188-.014-.375-.029-.566-.029h-328.999c-9.943.011-19.474 3.966-26.505 10.996-7.03 7.03-10.985 16.562-10.996 26.504v389.5h-55.496c-.985 0-1.96.194-2.87.571-.91.377-1.737.929-2.433 1.626-.697.696-1.249 1.523-1.626 2.433-.377.91-.571 1.885-.571 2.87v40c.011 9.942 3.966 19.474 10.996 26.504 7.03 7.03 16.562 10.985 26.504 10.996h333c.272-.001.544-.016.815-.046 9.616-.477 18.681-4.63 25.323-11.6 6.641-6.971 10.35-16.226 10.362-25.854v-389.5h55.871c.985 0 1.96-.194 2.87-.571.91-.377 1.737-.929 2.433-1.626.697-.697 1.249-1.523 1.626-2.433.377-.91.571-1.885.571-2.87v-38.314c-.012-10.389-4.144-20.349-11.49-27.696-7.346-7.346-17.306-11.478-27.696-11.49zm-393.685 497c-5.965-.007-11.684-2.379-15.903-6.598-4.218-4.218-6.591-9.937-6.597-15.902v-32.5h314v31c-.006 8.704 2.915 17.157 8.293 24h-299.793zm354.5-457.814v433.814c0 6.365-2.529 12.47-7.03 16.971-4.5 4.5-10.605 7.029-16.97 7.029-6.365 0-12.47-2.529-16.971-7.029-4.501-4.501-7.029-10.606-7.029-16.971v-38.5c0-.985-.194-1.96-.571-2.87-.377-.91-.929-1.737-1.626-2.433-.696-.697-1.523-1.249-2.433-1.626-.91-.377-1.885-.571-2.87-.571l-.5.025-.5-.025h-257.505v-389.5c.007-5.965 2.38-11.684 6.598-15.902s9.937-6.591 15.903-6.598h299.892c-5.439 6.888-8.394 15.409-8.388 24.186zm63.371 30.814h-48.371v-30.814c0-6.415 2.548-12.566 7.084-17.102 4.535-4.536 10.687-7.084 17.101-7.084 6.415 0 12.567 2.548 17.102 7.084 4.536 4.536 7.084 10.687 7.084 17.102v30.814zm-135.615 211.125c-2.264-7.402-9.364-10.945-15.071-13.792-2.544-1.27-6.029-3.008-6.879-4.224-.97-1.384-1.426-5.245-1.791-8.346-.735-6.214-1.647-13.948-7.635-18.451-6.032-4.54-13.757-3.268-19.963-2.247-2.891.476-6.852 1.127-8.386.597-1.481-.511-4.162-3.432-6.119-5.564-4.282-4.666-9.611-10.473-17.245-10.605l-.265-.002c-7.254 0-12.388 5.185-16.924 9.765-2.234 2.257-5.015 5.065-6.721 5.587-1.707.518-5.583-.252-8.697-.873-6.398-1.279-13.649-2.723-19.707 1.517-6.256 4.378-7.427 12.172-8.368 18.435-.43 2.863-1.019 6.784-1.961 8.036-.977 1.299-4.623 2.972-7.286 4.193-5.716 2.622-12.83 5.887-15.295 13.025-2.445 7.083 1.123 14.005 3.989 19.566 1.431 2.777 3.212 6.232 3.183 7.923-.026 1.482-1.942 4.871-3.342 7.347-3.139 5.551-7.046 12.46-4.782 19.862 2.263 7.403 9.364 10.946 15.071 13.793 2.544 1.27 6.029 3.008 6.88 4.224.97 1.384 1.425 5.245 1.791 8.346.733 6.214 1.646 13.948 7.634 18.452 6.034 4.54 13.757 3.268 19.963 2.246 2.891-.476 6.849-1.127 8.386-.597 1.481.511 4.162 3.432 6.119 5.564 4.283 4.666 9.611 10.473 17.245 10.605l.265.002c7.254 0 12.388-5.185 16.923-9.765 2.235-2.257 5.016-5.065 6.722-5.587 1.707-.518 5.582.252 8.696.873 6.399 1.278 13.65 2.724 19.708-1.517 6.255-4.378 7.426-12.172 8.368-18.435.429-2.863 1.018-6.784 1.961-8.036.977-1.299 4.623-2.972 7.286-4.193 5.717-2.622 12.831-5.887 15.295-13.025 2.444-7.083-1.122-14.004-3.989-19.565-1.431-2.778-3.212-6.233-3.182-7.924.025-1.482 1.942-4.872 3.342-7.347 3.138-5.55 7.045-12.46 4.781-19.863zm-18.275 42.005c1.177 2.282 3.367 6.531 3.153 7.775-.596 1.198-5.01 3.223-7.381 4.311-4.573 2.098-9.758 4.476-13.017 8.808-3.224 4.288-4.066 9.886-4.808 14.826-.395 2.626-1.129 7.514-2.07 8.335-1.197.54-5.604-.339-8.237-.865-5.015-1-10.699-2.134-16.017-.506-5.319 1.626-9.397 5.743-12.995 9.376-1.887 1.907-5.048 5.099-6.259 5.32-1.326-.152-4.667-3.793-6.463-5.749-3.378-3.681-7.206-7.853-12.276-9.603-2.14-.703-4.382-1.045-6.634-1.01-3.049.082-6.088.412-9.084.986-2.574.425-7.365 1.214-8.475.597-.927-.956-1.487-5.702-1.788-8.251-.593-5.022-1.265-10.712-4.399-15.191-3.035-4.336-8.049-6.838-12.473-9.045-2.286-1.139-7.043-3.513-7.423-4.756-.38-1.241 2.237-5.869 3.495-8.093 2.434-4.303 5.191-9.18 5.283-14.472.094-5.465-2.532-10.559-4.847-15.053-1.177-2.283-3.367-6.531-3.154-7.775.596-1.197 5.01-3.222 7.382-4.311 4.573-2.098 9.758-4.476 13.017-8.808 3.225-4.287 4.066-9.886 4.808-14.826.394-2.626 1.129-7.514 2.07-8.335 1.201-.541 5.606.339 8.237.865 5.015 1 10.7 2.135 16.016.507 5.32-1.626 9.397-5.744 12.995-9.377 1.888-1.907 5.049-5.099 6.26-5.32 1.326.152 4.667 3.793 6.463 5.749 3.378 3.681 7.206 7.853 12.277 9.603 5.123 1.767 10.753.843 15.717.024 2.575-.424 7.364-1.213 8.475-.596.927.955 1.487 5.702 1.788 8.251.593 5.021 1.265 10.711 4.4 15.19 3.034 4.336 8.048 6.837 12.472 9.045 2.286 1.139 7.043 3.514 7.423 4.755v.001c.38 1.242-2.237 5.869-3.495 8.093-2.434 4.303-5.192 9.181-5.282 14.471-.095 5.466 2.53 10.56 4.846 15.054zm-185.734-122.13h238.753c1.989 0 3.897-.79 5.303-2.197 1.407-1.406 2.197-3.314 2.197-5.303 0-1.989-.79-3.897-2.197-5.303-1.406-1.407-3.314-2.197-5.303-2.197h-238.753c-1.989 0-3.896.79-5.303 2.197-1.406 1.406-2.197 3.314-2.197 5.303 0 1.989.791 3.897 2.197 5.303 1.407 1.407 3.314 2.197 5.303 2.197zm0-45h238.753c1.989 0 3.897-.79 5.303-2.197 1.407-1.406 2.197-3.314 2.197-5.303 0-1.989-.79-3.897-2.197-5.303-1.406-1.407-3.314-2.197-5.303-2.197h-238.753c-1.989 0-3.896.79-5.303 2.197-1.406 1.406-2.197 3.314-2.197 5.303 0 1.989.791 3.897 2.197 5.303 1.407 1.407 3.314 2.197 5.303 2.197zm16.688-45h206.25c5.966-.007 11.685-2.38 15.903-6.598s6.591-9.937 6.597-15.902v-21c-.006-5.965-2.379-11.684-6.597-15.902s-9.937-6.591-15.903-6.598h-206.25c-5.965.007-11.684 2.38-15.902 6.598s-6.591 9.937-6.598 15.902v21c.007 5.965 2.38 11.684 6.598 15.902 4.218 4.219 9.937 6.591 15.902 6.598zm-7.5-43.5c.003-1.989.794-3.895 2.2-5.301 1.406-1.406 3.312-2.197 5.3-2.199h206.25c1.989.002 3.895.793 5.301 2.199 1.406 1.406 2.197 3.312 2.199 5.301v21c-.002 1.989-.793 3.895-2.199 5.301-1.406 1.406-3.312 2.197-5.301 2.199h-206.25c-1.988-.002-3.894-.793-5.3-2.199-1.406-1.406-2.197-3.312-2.2-5.301v-21zM259.381 273c2.825 0 5.089 2.338 4.997 5.162l-1.162 35.92c-.088 2.697-2.299 4.838-4.998 4.838h-3.6c-2.698 0-4.91-2.141-4.997-4.838l-1.163-35.92c-.091-2.824 2.172-5.162 4.997-5.162h5.926zm-2.979 67.119c-2.305 0-4.287-.819-5.946-2.456-1.637-1.637-2.456-3.619-2.456-5.946 0-2.284.819-4.233 2.456-5.849 1.659-1.637 3.641-2.456 5.946-2.456 2.219 0 4.169.819 5.849 2.456 1.702 1.616 2.553 3.565 2.553 5.849 0 1.551-.399 2.962-1.196 4.233-.775 1.271-1.799 2.284-3.07 3.038-1.249.754-2.628 1.131-4.136 1.131z" fill="#1D5352"/></svg>