<svg width="112" height="112" viewBox="0 0 112 112" fill="none" xmlns="http://www.w3.org/2000/svg">
<g id="Tools">
<g id="Ellipse 168" filter="url(#filter0_i_2711_31573)">
<path d="M112 56C112 86.9279 86.9279 112 56 112C25.0721 112 0 86.9279 0 56C0 25.0721 25.0721 0 56 0C86.9279 0 112 25.0721 112 56Z" fill="#3C3B41"/>
</g>
<g id="Ellipse 168 (Stroke)" filter="url(#filter1_i_2711_31573)">
<path fill-rule="evenodd" clip-rule="evenodd" d="M56 108.364C84.9196 108.364 108.364 84.9196 108.364 56C108.364 27.0804 84.9196 3.63636 56 3.63636C27.0804 3.63636 3.63636 27.0804 3.63636 56C3.63636 84.9196 27.0804 108.364 56 108.364ZM56 112C86.9279 112 112 86.9279 112 56C112 25.0721 86.9279 0 56 0C25.0721 0 0 25.0721 0 56C0 86.9279 25.0721 112 56 112Z" fill="#3C3B41"/>
</g>
<g id="Group 184">
<path id="Vector" d="M66.1464 53.1586C65.0661 54.6065 65.6039 55.0503 65.4904 56.4424L65.2136 57.6012C65.0242 59.93 62.7312 60.8857 61.3848 62.7775C73.9058 63.6952 81.7308 59.0675 87.3424 53.9796C88.1243 53.2707 88.4049 52.2355 88.1879 51.286L77.8915 41.1646L66.1464 53.1586Z" fill="#50D9D7"/>
<path id="Vector_2" d="M64.8425 50.6953L59.8555 45.7932L71.347 34.4973L76.3339 39.3994L64.8425 50.6953Z" fill="#1D5352"/>
<path id="Vector_3" d="M61.0476 47.2843L27.6303 79.5702C27.399 79.7971 27.265 80.1026 27.2559 80.4238L29.0629 82.2007C29.3038 82.4374 29.6305 82.5704 29.9711 82.5704C30.3118 82.5704 30.6385 82.4374 30.8794 82.2007L64.0102 50.1966L61.0476 47.2843ZM75.7147 32.1323C75.3779 32.1261 74.8163 32.2482 74.5592 32.5009L72.0512 34.9662L75.4913 38.3476L77.7444 36.1327C77.8638 36.0155 77.9584 35.8763 78.023 35.7231C78.0876 35.5699 78.1208 35.4057 78.1208 35.2399C78.1208 35.0741 78.0876 34.9099 78.023 34.7567C77.9584 34.6036 78.0872 34.4644 77.9679 34.3472L75.7147 32.1323Z" fill="#B3B6C3"/>
<path id="Vector_4" d="M87.5 50.2653L85.8994 48.6919L85.5517 49.2454C80.04 54.2428 73.4441 58.3158 64.3402 58.7994C63.6801 60.1996 62.8199 61.5512 61.7068 62.6394H61.4961C73.7047 63.9432 80.8189 60.3379 87.4283 54.3455C88.6286 53.2572 88.6545 51.4007 87.5 50.2653Z" fill="#C9F3FF"/>
<path id="Rectangle 118 (Stroke)" fill-rule="evenodd" clip-rule="evenodd" d="M25.5713 75.9805C24.7542 76.773 24.7454 78.0665 25.5517 78.8696L27.9431 81.252C28.7493 82.0551 30.0653 82.0638 30.8823 81.2713L36.208 76.1055L33.4406 73.4899C33.2228 73.2842 33.216 72.9438 33.4254 72.7298C33.6347 72.5157 33.981 72.509 34.1987 72.7148L36.9869 75.35L49.6617 63.056L46.3494 59.9426C46.1311 59.7374 46.1234 59.397 46.3321 59.1824C46.5409 58.9678 46.8871 58.9602 47.1054 59.1654L50.4406 62.3004L63.6265 49.5106C63.8416 49.302 64.1879 49.3043 64.4 49.5157C64.6122 49.727 64.6099 50.0674 64.3949 50.276L31.6506 82.0366C30.4036 83.2463 28.395 83.2331 27.1645 82.0072L24.773 79.6249C23.5425 78.399 23.5559 76.4247 24.803 75.2151L28.0755 72.0409C28.2905 71.8323 28.6368 71.8346 28.8489 72.0459C29.0611 72.2573 29.0588 72.5977 28.8438 72.8062L25.5713 75.9805ZM29.9299 70.9974C29.7177 70.7861 29.7201 70.4457 29.9351 70.2371L31.6853 68.5395C31.9003 68.3309 32.2466 68.3332 32.4587 68.5446C32.6709 68.7559 32.6686 69.0963 32.4536 69.3049L30.7034 71.0025C30.4884 71.2111 30.1421 71.2088 29.9299 70.9974ZM33.4303 67.6022C33.2182 67.3908 33.2205 67.0504 33.4355 66.8418L57.3914 43.6055C57.6064 43.3969 57.9527 43.3992 58.1649 43.6106C58.3771 43.8219 58.3748 44.1623 58.1598 44.3709L51.3282 50.9972L54.4469 54.1238C54.6584 54.3358 54.655 54.6762 54.4393 54.8841C54.2236 55.092 53.8773 55.0886 53.6659 54.8766L50.5496 51.7524L38.2265 63.7054L40.8584 66.0363C41.0828 66.235 41.1008 66.575 40.8986 66.7956C40.6965 67.0162 40.3506 67.0339 40.1262 66.8351L37.4465 64.4619L34.2038 67.6072C33.9888 67.8158 33.6425 67.8135 33.4303 67.6022ZM69.2743 32.8348C69.0622 32.6235 69.0645 32.2831 69.2795 32.0745L70.8474 30.5538C72.0944 29.3441 74.1029 29.3573 75.3335 30.5832L77.725 32.9655C78.9572 34.193 78.9414 36.1597 77.7861 37.4186L77.7625 37.4444C77.2341 38.0202 76.7067 38.5949 76.0994 39.184C75.8844 39.3925 75.5381 39.3903 75.3259 39.1789C75.1137 38.9676 75.116 38.6272 75.3311 38.4186C75.9141 37.8531 76.4223 37.2994 76.9546 36.7194L76.9739 36.6984C77.761 35.8407 77.7509 34.5222 76.9463 33.7207L74.5549 31.3384C73.7486 30.5353 72.4327 30.5266 71.6157 31.3191L70.0478 32.8399C69.8328 33.0484 69.4865 33.0462 69.2743 32.8348Z" fill="#59595B"/>
<path id="Rectangle 119 (Stroke)" fill-rule="evenodd" clip-rule="evenodd" d="M66.9228 32.7821L58.1103 41.4452C57.5123 42.0331 57.5123 42.9863 58.1104 43.5742L63.28 48.6556C63.8781 49.2434 64.8478 49.2434 65.4458 48.6555L74.8771 39.3841C75.1334 39.1321 75.1334 38.7236 74.8771 38.4717L69.0886 32.782C68.4905 32.1942 67.5209 32.1942 66.9228 32.7821ZM57.3368 40.6849C56.3116 41.6928 56.3116 43.3267 57.3369 44.3345L62.5066 49.4159C63.5318 50.4237 65.1941 50.4236 66.2193 49.4158L75.6506 40.1444C76.3341 39.4725 76.3341 38.3832 75.6505 37.7114L69.8621 32.0217C68.8368 31.0139 67.1745 31.014 66.1493 32.0218L57.3368 40.6849Z" fill="#59595B"/>
<path id="Rectangle 120 (Stroke)" fill-rule="evenodd" clip-rule="evenodd" d="M63.8302 58.4372C63.7253 58.6283 63.6132 58.8208 63.4938 59.0152C63.4013 59.1658 63.3045 59.3176 63.2032 59.4707C62.6432 60.3179 61.9501 61.2061 61.124 62.1721C60.7702 62.5859 61.0459 63.2259 61.5955 63.2456C74.7301 63.7168 81.0581 61.5111 88.0109 53.8995C88.9153 52.9093 88.8376 51.3997 87.8803 50.4587L75.8004 38.585L65.2554 48.9513C64.5209 49.6733 64.3136 50.7486 64.5865 51.7338C65.2832 54.2493 65.0302 56.2514 63.8302 58.4372ZM75.8005 40.1057L66.0289 49.7116C65.618 50.1155 65.4538 50.7719 65.642 51.4514C66.2241 53.5533 66.2125 55.4013 65.5526 57.2705C65.4376 57.5962 65.3038 57.92 65.1518 58.2437C68.3507 57.7013 72.3586 56.5582 74.6741 55.8159C74.9613 55.7238 75.27 55.878 75.3637 56.1603C75.4573 56.4426 75.3005 56.7461 75.0133 56.8381C72.501 57.6435 67.9257 58.9459 64.5146 59.432C63.9763 60.3291 63.3064 61.2401 62.5191 62.1989C68.578 62.3627 73.0305 61.9044 76.7519 60.5915C80.6257 59.2248 83.8018 56.8979 87.1969 53.1811C87.6938 52.6372 87.6738 51.7763 87.1068 51.219L75.8005 40.1057ZM76.436 55.7474C76.2975 55.4835 76.4029 55.1592 76.6713 55.0231C77.6238 54.5402 78.5504 53.9991 79.4589 53.3927C79.7089 53.226 80.049 53.2899 80.2187 53.5356C80.3883 53.7812 80.3233 54.1156 80.0734 54.2824C79.1288 54.9127 78.1645 55.4759 77.1728 55.9787C76.9043 56.1149 76.5745 56.0113 76.436 55.7474Z" fill="#59595B"/>
</g>
<g id="logos">
<g id="Group">
<path id="Vector_5" d="M68.0914 39.7328L68.7742 39.0526C68.8677 39.1275 68.9302 39.1966 68.9682 39.2676C69.1436 39.5935 68.8213 39.9338 68.5683 40.1858L68.8833 40.3783L69.5038 39.7603C69.7163 39.5486 70.2724 39.8625 70.014 40.1199L69.4281 40.7036L69.7553 40.908L69.8227 40.8408C70.0816 40.5829 70.3881 40.3008 70.7644 40.3446C70.8746 40.3574 70.9787 40.394 71.1046 40.4438L70.4719 41.0741C70.2943 41.251 70.0919 41.4215 69.8356 41.4464C69.6085 41.4682 69.3858 41.3538 69.1869 41.2326L68.2765 40.6767C68.0824 40.5583 67.8871 40.3988 67.8681 40.1788C67.853 40.0051 67.97 39.8537 68.0914 39.7328Z" fill="url(#paint0_linear_2711_31573)"/>
<path id="Vector_6" d="M64.4648 43.2981C64.4648 43.2981 66.1979 44.3857 66.5251 44.5654C66.8524 44.7451 67.2104 44.461 67.1292 44.0457C67.0658 43.7225 67.0413 43.6681 67.0336 43.6599C67.032 43.6594 67.0321 43.6584 67.0332 43.6596C67.0334 43.6597 67.0335 43.6598 67.0336 43.6599C67.0485 43.6644 67.1272 43.6856 67.4396 43.7486C67.7982 43.8209 68.1351 43.4936 68.0078 43.2045C67.8807 42.9155 66.7225 41.1459 66.7436 41.1165C66.6091 41.2977 66.5173 41.4301 66.5048 41.6156C66.4877 41.8674 66.6337 42.1045 66.7724 42.324L67.2794 43.1272C66.9973 43.0337 66.796 42.9583 66.5622 43.111C66.559 43.1131 66.556 43.1157 66.5535 43.1184C66.3718 43.319 66.3657 43.5197 66.5001 43.8733L65.7454 43.395C65.4878 43.2317 65.2049 43.0605 64.9074 43.0899C64.7449 43.1058 64.6197 43.1773 64.4648 43.2981Z" fill="url(#paint1_linear_2711_31573)"/>
<path id="Vector_7" d="M67.0842 41.1235C67.2788 41.5176 68.3492 43.1752 68.3492 43.1752C68.4296 43.0943 68.4889 43.0221 68.5288 42.9436C68.6864 42.6329 68.475 42.2622 68.2952 41.9466L68.2897 41.9371C68.1981 41.7763 68.1197 41.6341 68.1218 41.622C68.1243 41.6089 68.2892 41.6979 68.4688 41.7991C68.7713 41.9693 69.1263 42.1772 69.4287 42.0335C69.515 41.9925 69.5951 41.9286 69.6876 41.842C69.6876 41.842 67.9292 40.7597 67.6011 40.6085C67.2729 40.4576 66.8895 40.7294 67.0842 41.1235Z" fill="url(#paint2_linear_2711_31573)"/>
<path id="Vector_8" d="M66.992 40.5417C67.1348 40.3995 67.1278 40.1652 66.9765 40.0184C66.8252 39.8716 66.5868 39.8679 66.444 40.0101C66.3013 40.1523 66.3082 40.3866 66.4595 40.5334C66.6109 40.6802 66.8493 40.6839 66.992 40.5417Z" fill="url(#paint3_linear_2711_31573)"/>
</g>
<g id="Group 144">
<path id="Vector_9" d="M68.0196 44.5643C68.015 44.5688 68.0096 44.569 68.0027 44.5654L67.7057 44.409C67.7019 44.407 67.6992 44.4037 67.6978 44.3992C67.6963 44.3946 67.6973 44.3905 67.7008 44.387C67.7028 44.3851 67.7052 44.384 67.708 44.3837C67.7108 44.3832 67.7137 44.3839 67.7168 44.3856L67.9926 44.5309L67.9875 44.536L67.8334 44.2707C67.8312 44.2672 67.8306 44.2638 67.8313 44.2604C67.8321 44.2571 67.8336 44.2544 67.8359 44.2521C67.8381 44.2498 67.8409 44.2484 67.8443 44.2475C67.8477 44.2467 67.8512 44.2473 67.8546 44.2496L68.1265 44.3976L68.1214 44.4026L67.97 44.1335C67.9684 44.1302 67.9676 44.1274 67.9678 44.1249C67.9681 44.122 67.9692 44.1197 67.9711 44.1177C67.9752 44.1137 67.9793 44.1126 67.9837 44.1141C67.9883 44.1154 67.9915 44.1182 67.9937 44.1221L68.1566 44.412C68.1604 44.4188 68.1599 44.4245 68.155 44.4294L68.1543 44.4301C68.1494 44.435 68.1434 44.4357 68.1367 44.4319L67.8618 44.2827L67.8667 44.2778L68.0221 44.546C68.0245 44.5501 68.0254 44.5534 68.0247 44.5561C68.024 44.5589 68.0222 44.5617 68.0196 44.5643Z" fill="url(#paint4_linear_2711_31573)"/>
<path id="Vector_10" d="M68.1752 44.2451L68.1895 44.2589C68.2078 44.2767 68.2238 44.2861 68.2379 44.2867C68.2519 44.2871 68.2671 44.2791 68.2837 44.2625L68.3123 44.2341C68.327 44.2194 68.3356 44.2068 68.3381 44.1961C68.3404 44.1853 68.3371 44.1742 68.3281 44.1627C68.3252 44.1592 68.3238 44.1557 68.3235 44.1527C68.3232 44.1496 68.3246 44.1465 68.3278 44.1434C68.3308 44.1404 68.334 44.1391 68.3374 44.1396C68.3409 44.1396 68.3441 44.1416 68.3471 44.1453C68.3621 44.1626 68.3682 44.1802 68.3659 44.1979C68.3634 44.2158 68.3524 44.2344 68.3328 44.254L68.3042 44.2824C68.2825 44.304 68.261 44.3145 68.2396 44.3138C68.2181 44.3129 68.1953 44.3007 68.1711 44.2772L68.1269 44.2344C68.1023 44.2106 68.0895 44.1882 68.0885 44.1672C68.0873 44.1461 68.0977 44.1248 68.1197 44.1034L68.1483 44.075C68.1702 44.0532 68.1916 44.043 68.2131 44.0438C68.2342 44.0447 68.2571 44.0569 68.2814 44.0805L68.301 44.0995C68.3079 44.1062 68.3083 44.1125 68.3024 44.1184L68.1752 44.2451ZM68.1402 44.1233C68.1233 44.1397 68.1153 44.1546 68.1161 44.1685C68.1167 44.1822 68.1266 44.1979 68.1453 44.2161L68.1547 44.2252L68.2726 44.1078L68.2632 44.0987C68.2446 44.0806 68.2283 44.0714 68.2145 44.0708C68.2008 44.0702 68.1856 44.0781 68.1688 44.0949L68.1402 44.1233Z" fill="url(#paint5_linear_2711_31573)"/>
<path id="Vector_11" d="M68.5242 44.0602C68.5159 44.0632 68.5098 44.0603 68.5055 44.052L68.3632 43.7435C68.3596 43.7366 68.3604 43.7305 68.3653 43.7256L68.3664 43.7246C68.3714 43.7198 68.3774 43.7191 68.3846 43.7222L68.7003 43.858C68.7089 43.8619 68.7119 43.8679 68.7091 43.8761C68.7059 43.8844 68.7002 43.8865 68.6917 43.8827L68.6069 43.8462L68.4925 43.9602L68.5309 44.0429C68.5348 44.0512 68.5326 44.057 68.5242 44.0602ZM68.4795 43.9328L68.5787 43.834L68.3983 43.7565L68.4795 43.9328Z" fill="url(#paint6_linear_2711_31573)"/>
<path id="Vector_12" d="M68.7641 43.824C68.758 43.8301 68.7514 43.8299 68.7445 43.8232L68.5805 43.6641C68.5737 43.6576 68.5735 43.6512 68.5796 43.645C68.5856 43.6391 68.5921 43.6393 68.5988 43.6458L68.6289 43.675C68.6219 43.6564 68.6207 43.638 68.6252 43.62C68.6298 43.6018 68.64 43.5848 68.6556 43.5693C68.6619 43.563 68.6683 43.5633 68.675 43.5699C68.682 43.5766 68.6824 43.5829 68.6761 43.5892C68.6555 43.6098 68.6446 43.6309 68.6438 43.6525C68.6428 43.674 68.6514 43.6947 68.6697 43.7146L68.7629 43.8049C68.7698 43.8116 68.77 43.8181 68.7641 43.824Z" fill="url(#paint7_linear_2711_31573)"/>
<path id="Vector_13" d="M68.8098 43.6137L68.824 43.6275C68.8424 43.6453 68.8586 43.6545 68.8725 43.6552C68.8865 43.6557 68.9017 43.6477 68.9183 43.6311L68.947 43.6025C68.9617 43.5878 68.9702 43.5753 68.9727 43.5647C68.9752 43.5537 68.9719 43.5426 68.9627 43.5312C68.96 43.5276 68.9584 43.5243 68.9581 43.5212C68.958 43.518 68.9594 43.5149 68.9624 43.512C68.9654 43.509 68.9686 43.5077 68.9721 43.508C68.9755 43.5082 68.9788 43.51 68.9819 43.5137C68.9967 43.5311 69.003 43.5486 69.0005 43.5665C68.9981 43.5842 68.9871 43.6028 68.9675 43.6224L68.9388 43.651C68.9171 43.6726 68.8955 43.6831 68.8742 43.6823C68.8529 43.6813 68.83 43.6691 68.8058 43.6457L68.7617 43.6029C68.7371 43.579 68.7243 43.5566 68.7231 43.5358C68.7219 43.5147 68.7323 43.4934 68.7543 43.472L68.783 43.4434C68.8048 43.4218 68.8264 43.4114 68.8477 43.4124C68.869 43.4132 68.8919 43.4253 68.9162 43.4489L68.9357 43.4679C68.9426 43.4746 68.9431 43.4809 68.937 43.487L68.8098 43.6137ZM68.7748 43.4919C68.7579 43.5082 68.7499 43.5232 68.7507 43.5371C68.7515 43.5506 68.7612 43.5665 68.7799 43.5847L68.7893 43.5938L68.9072 43.4763L68.8978 43.4673C68.8792 43.4492 68.8631 43.4398 68.8491 43.4393C68.8354 43.4387 68.8202 43.4467 68.8035 43.4633L68.7748 43.4919Z" fill="url(#paint8_linear_2711_31573)"/>
<path id="Vector_14" d="M69.1867 43.4028C69.1806 43.4089 69.174 43.4088 69.1671 43.402L68.9361 43.178C68.9292 43.1713 68.9289 43.1648 68.9351 43.1587L69.0659 43.0284C69.0721 43.0223 69.0785 43.0226 69.0854 43.0293C69.0922 43.0359 69.0926 43.0421 69.0864 43.0483L68.9647 43.1695L69.0582 43.2602L69.1386 43.1802C69.1449 43.1739 69.1513 43.1742 69.158 43.1808C69.1649 43.1874 69.1654 43.1938 69.1591 43.2L69.0787 43.2801L69.1753 43.3739L69.2971 43.2526C69.3032 43.2465 69.3096 43.2468 69.3163 43.2534C69.3233 43.2601 69.3237 43.2664 69.3176 43.2725L69.1867 43.4028Z" fill="url(#paint9_linear_2711_31573)"/>
<path id="Vector_15" d="M69.3832 43.2076C69.3769 43.2138 69.3705 43.2135 69.3636 43.2068L69.1996 43.0477C69.1928 43.0411 69.1924 43.0349 69.1987 43.0286C69.2047 43.0227 69.2111 43.023 69.2178 43.0295L69.2366 43.0477C69.2285 43.0179 69.2389 42.9886 69.2678 42.9598L69.2776 42.9501C69.2993 42.9284 69.3209 42.918 69.3422 42.9191C69.3635 42.9198 69.3864 42.932 69.4107 42.9556L69.5146 43.0564C69.5215 43.0631 69.522 43.0694 69.5158 43.0755C69.5097 43.0816 69.5031 43.0814 69.4962 43.0747L69.3923 42.9739C69.3737 42.9559 69.3575 42.9466 69.3437 42.946C69.3297 42.9456 69.3147 42.9534 69.2981 42.97L69.2883 42.9797C69.2702 42.9977 69.2592 43.0149 69.2553 43.0314C69.2513 43.0479 69.2555 43.0633 69.2676 43.0778L69.3818 43.1886C69.3887 43.1953 69.3892 43.2016 69.3832 43.2076Z" fill="url(#paint10_linear_2711_31573)"/>
<path id="Vector_16" d="M69.7059 43.0404C69.692 43.0542 69.6785 43.0614 69.6648 43.0625C69.6513 43.0636 69.6373 43.0582 69.6225 43.0463C69.6188 43.0433 69.6166 43.0402 69.6164 43.0366C69.616 43.0331 69.6173 43.0299 69.6203 43.027C69.6231 43.0242 69.6262 43.0227 69.6293 43.023C69.6326 43.023 69.6362 43.0244 69.6399 43.0274C69.6484 43.0338 69.6559 43.0364 69.6625 43.0352C69.6693 43.0338 69.6768 43.029 69.6854 43.0205L69.7504 42.9557C69.7605 42.9456 69.7655 42.9366 69.7648 42.9291C69.7645 42.9212 69.7584 42.9119 69.747 42.9008L69.6911 42.8466C69.695 42.8607 69.6943 42.8751 69.6894 42.8894C69.6843 42.9037 69.6742 42.9184 69.6591 42.9334L69.646 42.9465C69.6241 42.9683 69.6026 42.9787 69.5812 42.978C69.5599 42.9769 69.5371 42.9648 69.5128 42.9413L69.4687 42.8985C69.4441 42.8746 69.4312 42.8525 69.4301 42.8318C69.4291 42.8108 69.4396 42.7893 69.4615 42.7675L69.4901 42.7391C69.5014 42.7277 69.5124 42.7201 69.523 42.7162C69.5334 42.7125 69.5442 42.7121 69.5554 42.715L69.5447 42.7046C69.5379 42.698 69.5377 42.6916 69.5438 42.6855C69.55 42.6794 69.5563 42.6797 69.5631 42.6862L69.7654 42.8825C69.7825 42.8991 69.7915 42.915 69.7924 42.93C69.7934 42.9451 69.7861 42.9605 69.7709 42.9756L69.7059 43.0404ZM69.6255 42.9266L69.6386 42.9135C69.6569 42.8953 69.6682 42.8778 69.6727 42.8608C69.6772 42.8438 69.6729 42.829 69.6599 42.8163L69.5947 42.7531C69.58 42.7388 69.566 42.7325 69.5528 42.7341C69.5397 42.7356 69.5256 42.7439 69.5106 42.7589L69.482 42.7874C69.4654 42.804 69.4573 42.8192 69.4579 42.8329C69.4586 42.8463 69.4682 42.8622 69.4869 42.8804L69.5311 42.9232C69.5494 42.9409 69.5656 42.9501 69.5795 42.9509C69.5935 42.9513 69.6089 42.9432 69.6255 42.9266Z" fill="url(#paint11_linear_2711_31573)"/>
<path id="Vector_17" d="M69.5834 42.5745C69.5753 42.5825 69.5667 42.5821 69.5574 42.5731L69.5486 42.5646C69.5396 42.5559 69.5392 42.5475 69.5472 42.5395L69.555 42.5318C69.5628 42.5239 69.5712 42.5245 69.5801 42.5332L69.589 42.5417C69.5982 42.5507 69.599 42.559 69.5911 42.5668L69.5834 42.5745ZM69.8072 42.7841C69.8011 42.7902 69.7947 42.7899 69.7878 42.7831L69.6238 42.6241C69.617 42.6175 69.6166 42.6113 69.6228 42.6051C69.6289 42.599 69.6352 42.5994 69.642 42.6059L69.806 42.765C69.8129 42.7717 69.8134 42.778 69.8072 42.7841Z" fill="url(#paint12_linear_2711_31573)"/>
<path id="Vector_18" d="M69.891 42.7007C69.8847 42.707 69.8783 42.7066 69.8714 42.6999L69.7074 42.5408C69.7006 42.5343 69.7002 42.528 69.7066 42.5218C69.7125 42.5158 69.7189 42.5161 69.7256 42.5227L69.7444 42.5409C69.7361 42.5112 69.7467 42.4818 69.7756 42.453L69.7854 42.4432C69.8071 42.4216 69.8287 42.4112 69.85 42.4122C69.8714 42.413 69.8942 42.4252 69.9186 42.4488L70.0224 42.5495C70.0293 42.5562 70.0298 42.5625 70.0237 42.5686C70.0175 42.5747 70.0109 42.5745 70.004 42.5678L69.9002 42.4671C69.8815 42.449 69.8653 42.4398 69.8513 42.4393C69.8375 42.4387 69.8223 42.4467 69.8059 42.4631L69.7961 42.4729C69.778 42.4909 69.767 42.5081 69.7631 42.5246C69.7591 42.541 69.7633 42.5565 69.7754 42.571L69.8896 42.6818C69.8965 42.6885 69.897 42.6948 69.891 42.7007Z" fill="url(#paint13_linear_2711_31573)"/>
<path id="Vector_19" d="M70.0246 42.4025L70.0389 42.4163C70.0572 42.4341 70.0734 42.4433 70.0874 42.4441C70.1013 42.4445 70.1165 42.4365 70.1331 42.4199L70.1619 42.3913C70.1766 42.3766 70.1852 42.364 70.1875 42.3535C70.1901 42.3425 70.1867 42.3314 70.1775 42.3201C70.1748 42.3164 70.1732 42.3131 70.1729 42.3101C70.1728 42.3068 70.1742 42.3038 70.1772 42.3008C70.1802 42.2978 70.1834 42.2965 70.187 42.2968C70.1904 42.297 70.1937 42.2989 70.1967 42.3025C70.2115 42.32 70.2179 42.3375 70.2153 42.3553C70.213 42.373 70.202 42.3916 70.1824 42.4112L70.1536 42.4398C70.1319 42.4614 70.1104 42.4719 70.089 42.4712C70.0677 42.4701 70.0449 42.458 70.0207 42.4345L69.9765 42.3917C69.9519 42.3678 69.9391 42.3454 69.9379 42.3246C69.9368 42.3035 69.9472 42.2822 69.9691 42.2609L69.9979 42.2322C70.0196 42.2106 70.0412 42.2002 70.0625 42.2012C70.0839 42.202 70.1067 42.2141 70.1311 42.2378L70.1506 42.2567C70.1575 42.2634 70.1579 42.2697 70.1518 42.2758L70.0246 42.4025ZM69.9896 42.2807C69.9727 42.2971 69.9647 42.312 69.9655 42.3259C69.9663 42.3394 69.976 42.3553 69.9948 42.3735L70.0041 42.3826L70.122 42.2652L70.1127 42.2561C70.094 42.238 70.0779 42.2286 70.064 42.2282C70.0502 42.2276 70.035 42.2355 70.0184 42.2521L69.9896 42.2807Z" fill="url(#paint14_linear_2711_31573)"/>
<path id="Vector_20" d="M70.2357 42.1926L70.25 42.2064C70.2683 42.2242 70.2844 42.2336 70.2983 42.2343C70.3122 42.2348 70.3276 42.2266 70.3443 42.21L70.3728 42.1816C70.3875 42.1669 70.3961 42.1543 70.3986 42.1436C70.401 42.1328 70.3977 42.1217 70.3885 42.1103C70.3857 42.1067 70.3841 42.1034 70.3838 42.1003C70.3837 42.0971 70.3852 42.0941 70.3882 42.0911C70.3913 42.0879 70.3946 42.0866 70.3979 42.0871C70.4013 42.0873 70.4046 42.0891 70.4076 42.0928C70.4226 42.1101 70.4288 42.1278 70.4263 42.1456C70.4239 42.1633 70.4129 42.1819 70.3933 42.2015L70.3648 42.2299C70.343 42.2516 70.3213 42.2622 70.3001 42.2613C70.2787 42.2604 70.2558 42.2482 70.2316 42.2248L70.1875 42.182C70.1629 42.1581 70.1501 42.1357 70.149 42.1147C70.1477 42.0938 70.1583 42.0723 70.1803 42.051L70.2088 42.0225C70.2307 42.0007 70.2521 41.9905 70.2734 41.9915C70.2948 41.9923 70.3176 42.0044 70.342 42.0281L70.3615 42.047C70.3684 42.0537 70.3689 42.06 70.3627 42.0661L70.2357 42.1926ZM70.2008 42.0708C70.1839 42.0872 70.1757 42.1023 70.1765 42.1162C70.1773 42.1297 70.1871 42.1454 70.2059 42.1636L70.2152 42.1727L70.333 42.0555L70.3236 42.0464C70.305 42.0283 70.2889 42.0189 70.2751 42.0183C70.2612 42.0178 70.246 42.0258 70.2293 42.0424L70.2008 42.0708Z" fill="url(#paint15_linear_2711_31573)"/>
<path id="Vector_21" d="M70.5258 42.0691C70.5197 42.0752 70.5131 42.075 70.5062 42.0683L70.3422 41.9092C70.3354 41.9027 70.3352 41.8963 70.3413 41.8902C70.3474 41.8841 70.3538 41.8844 70.3606 41.8909L70.3906 41.9201C70.3836 41.9015 70.3824 41.8832 70.3869 41.8651C70.3915 41.8469 70.4018 41.83 70.4175 41.8143C70.4236 41.8082 70.43 41.8085 70.4368 41.815C70.4437 41.8217 70.4441 41.828 70.438 41.8341C70.4172 41.8549 70.4065 41.8759 70.4055 41.8976C70.4045 41.9191 70.4131 41.9398 70.4314 41.9597L70.5246 42.05C70.5315 42.0567 70.5319 42.063 70.5258 42.0691Z" fill="url(#paint16_linear_2711_31573)"/>
</g>
</g>
</g>
<defs>
<filter id="filter0_i_2711_31573" x="0" y="0" width="112" height="112" filterUnits="userSpaceOnUse" color-interpolation-filters="sRGB">
<feFlood flood-opacity="0" result="BackgroundImageFix"/>
<feBlend mode="normal" in="SourceGraphic" in2="BackgroundImageFix" result="shape"/>
<feColorMatrix in="SourceAlpha" type="matrix" values="0 0 0 0 0 0 0 0 0 0 0 0 0 0 0 0 0 0 127 0" result="hardAlpha"/>
<feOffset/>
<feGaussianBlur stdDeviation="8"/>
<feComposite in2="hardAlpha" operator="arithmetic" k2="-1" k3="1"/>
<feColorMatrix type="matrix" values="0 0 0 0 0 0 0 0 0 0 0 0 0 0 0 0 0 0 0.25 0"/>
<feBlend mode="normal" in2="shape" result="effect1_innerShadow_2711_31573"/>
</filter>
<filter id="filter1_i_2711_31573" x="0" y="0" width="112" height="112" filterUnits="userSpaceOnUse" color-interpolation-filters="sRGB">
<feFlood flood-opacity="0" result="BackgroundImageFix"/>
<feBlend mode="normal" in="SourceGraphic" in2="BackgroundImageFix" result="shape"/>
<feColorMatrix in="SourceAlpha" type="matrix" values="0 0 0 0 0 0 0 0 0 0 0 0 0 0 0 0 0 0 127 0" result="hardAlpha"/>
<feOffset/>
<feGaussianBlur stdDeviation="8"/>
<feComposite in2="hardAlpha" operator="arithmetic" k2="-1" k3="1"/>
<feColorMatrix type="matrix" values="0 0 0 0 0 0 0 0 0 0 0 0 0 0 0 0 0 0 0.25 0"/>
<feBlend mode="normal" in2="shape" result="effect1_innerShadow_2711_31573"/>
</filter>
<linearGradient id="paint0_linear_2711_31573" x1="68.4324" y1="39.393" x2="70.2888" y2="41.2565" gradientUnits="userSpaceOnUse">
<stop stop-color="#F5F5F5"/>
<stop offset="1" stop-color="#78787A"/>
</linearGradient>
<linearGradient id="paint1_linear_2711_31573" x1="65.6042" y1="42.2073" x2="67.4225" y2="44.1066" gradientUnits="userSpaceOnUse">
<stop stop-color="#F5F5F5"/>
<stop offset="1" stop-color="#78787A"/>
</linearGradient>
<linearGradient id="paint2_linear_2711_31573" x1="67.1301" y1="40.6769" x2="68.9864" y2="42.5405" gradientUnits="userSpaceOnUse">
<stop stop-color="#F5F5F5"/>
<stop offset="1" stop-color="#78787A"/>
</linearGradient>
<linearGradient id="paint3_linear_2711_31573" x1="66.444" y1="40.0101" x2="66.9827" y2="40.5509" gradientUnits="userSpaceOnUse">
<stop stop-color="#F5F5F5"/>
<stop offset="1" stop-color="#78787A"/>
</linearGradient>
<linearGradient id="paint4_linear_2711_31573" x1="69.106" y1="42.9784" x2="69.4346" y2="43.3083" gradientUnits="userSpaceOnUse">
<stop stop-color="#F5F5F5"/>
<stop offset="1" stop-color="#78787A"/>
</linearGradient>
<linearGradient id="paint5_linear_2711_31573" x1="69.1066" y1="42.9794" x2="69.4352" y2="43.3093" gradientUnits="userSpaceOnUse">
<stop stop-color="#F5F5F5"/>
<stop offset="1" stop-color="#78787A"/>
</linearGradient>
<linearGradient id="paint6_linear_2711_31573" x1="69.1055" y1="42.9795" x2="69.4341" y2="43.3093" gradientUnits="userSpaceOnUse">
<stop stop-color="#F5F5F5"/>
<stop offset="1" stop-color="#78787A"/>
</linearGradient>
<linearGradient id="paint7_linear_2711_31573" x1="69.1063" y1="42.9794" x2="69.4349" y2="43.3093" gradientUnits="userSpaceOnUse">
<stop stop-color="#F5F5F5"/>
<stop offset="1" stop-color="#78787A"/>
</linearGradient>
<linearGradient id="paint8_linear_2711_31573" x1="69.1073" y1="42.9795" x2="69.4359" y2="43.3094" gradientUnits="userSpaceOnUse">
<stop stop-color="#F5F5F5"/>
<stop offset="1" stop-color="#78787A"/>
</linearGradient>
<linearGradient id="paint9_linear_2711_31573" x1="69.1061" y1="42.9795" x2="69.4347" y2="43.3094" gradientUnits="userSpaceOnUse">
<stop stop-color="#F5F5F5"/>
<stop offset="1" stop-color="#78787A"/>
</linearGradient>
<linearGradient id="paint10_linear_2711_31573" x1="69.1068" y1="42.9793" x2="69.4354" y2="43.3092" gradientUnits="userSpaceOnUse">
<stop stop-color="#F5F5F5"/>
<stop offset="1" stop-color="#78787A"/>
</linearGradient>
<linearGradient id="paint11_linear_2711_31573" x1="69.1073" y1="42.9795" x2="69.4359" y2="43.3093" gradientUnits="userSpaceOnUse">
<stop stop-color="#F5F5F5"/>
<stop offset="1" stop-color="#78787A"/>
</linearGradient>
<linearGradient id="paint12_linear_2711_31573" x1="69.1056" y1="42.9794" x2="69.4342" y2="43.3092" gradientUnits="userSpaceOnUse">
<stop stop-color="#F5F5F5"/>
<stop offset="1" stop-color="#78787A"/>
</linearGradient>
<linearGradient id="paint13_linear_2711_31573" x1="69.1057" y1="42.9794" x2="69.4343" y2="43.3093" gradientUnits="userSpaceOnUse">
<stop stop-color="#F5F5F5"/>
<stop offset="1" stop-color="#78787A"/>
</linearGradient>
<linearGradient id="paint14_linear_2711_31573" x1="69.1062" y1="42.9796" x2="69.4348" y2="43.3094" gradientUnits="userSpaceOnUse">
<stop stop-color="#F5F5F5"/>
<stop offset="1" stop-color="#78787A"/>
</linearGradient>
<linearGradient id="paint15_linear_2711_31573" x1="69.1068" y1="42.9794" x2="69.4354" y2="43.3093" gradientUnits="userSpaceOnUse">
<stop stop-color="#F5F5F5"/>
<stop offset="1" stop-color="#78787A"/>
</linearGradient>
<linearGradient id="paint16_linear_2711_31573" x1="69.1065" y1="42.9793" x2="69.4351" y2="43.3092" gradientUnits="userSpaceOnUse">
<stop stop-color="#F5F5F5"/>
<stop offset="1" stop-color="#78787A"/>
</linearGradient>
</defs>
</svg>
