<svg width="262" height="258" viewBox="0 0 262 258" xmlns="http://www.w3.org/2000/svg" fill="none"><g filter="url(#a)"><mask id="c"><path fill-rule="evenodd" clip-rule="evenodd" d="M0 12c0-6.627 5.373-12 12-12h196.042c6.627 0 12 5.373 12 12v61.697c0 .543.447.979.991.979 22.279 0 40.341 18.061 40.341 40.341 0 22.279-18.062 40.341-40.341 40.341-.544 0-.991.435-.991.979v50.238c0 6.627-5.373 12-12 12h-46.529c-6.488 0-11.62 5.271-13.655 11.431-5.311 16.077-20.457 27.678-38.313 27.678-17.857 0-33.003-11.601-38.314-27.678-2.035-6.16-7.167-11.431-13.655-11.431h-45.577c-6.627 0-12-5.373-12-12v-194.575z"/></mask><path fill-rule="evenodd" clip-rule="evenodd" d="M0 12c0-6.627 5.373-12 12-12h196.042c6.627 0 12 5.373 12 12v61.697c0 .543.447.979.991.979 22.279 0 40.341 18.061 40.341 40.341 0 22.279-18.062 40.341-40.341 40.341-.544 0-.991.435-.991.979v50.238c0 6.627-5.373 12-12 12h-46.529c-6.488 0-11.62 5.271-13.655 11.431-5.311 16.077-20.457 27.678-38.313 27.678-17.857 0-33.003-11.601-38.314-27.678-2.035-6.16-7.167-11.431-13.655-11.431h-45.577c-6.627 0-12-5.373-12-12v-194.575z" fill="url(#b)"/><path d="M147.858 230.006l.95.314-.95-.314zm60.184-231.006h-196.042v2h196.042v-2zm13 74.697v-61.697h-2v61.697h2zm41.332 41.32c0-22.832-18.509-41.341-41.341-41.341v2c21.727 0 39.341 17.614 39.341 39.341h2zm-41.341 41.341c22.832 0 41.341-18.509 41.341-41.341h-2c0 21.727-17.614 39.341-39.341 39.341v2zm.009 50.217v-50.238h-2v50.238h2zm-59.529 13h46.529v-2h-46.529v2zm-14.605 10.117c-5.179 15.679-19.951 26.992-37.363 26.992v2c18.3 0 33.821-11.89 39.263-28.364l-1.9-.628zm-37.363 26.992c-17.413 0-32.185-11.313-37.364-26.992l-1.899.628c5.442 16.474 20.963 28.364 39.263 28.364v-2zm-97.545-37.109h45.577v-2h-45.577v2zm-13-207.575v194.575h2v-194.575h-2zm73.181 217.692c-2.115-6.401-7.531-12.117-14.604-12.117v2c5.902 0 10.75 4.826 12.705 10.745l1.899-.628zm89.332-12.117c-7.073 0-12.49 5.716-14.605 12.117l1.9.628c1.955-5.919 6.803-10.745 12.705-10.745v-2zm57.529-11c0 6.075-4.925 11-11 11v2c7.179 0 13-5.821 13-13h-2zm0-132.878c0 1.111.911 1.979 1.991 1.979v-2l.001.001.005.007.002.007.001.006h-2zm1.991 80.661c-1.08 0-1.991.868-1.991 1.979h2l-.001.005-.002.008-.005.006-.001.001v.001-2zm-209.033-155.358c-7.18 0-13 5.82-13 13h2c0-6.075 4.925-11 11-11v-2zm0 218.575c-6.075 0-11-4.925-11-11h-2c0 7.179 5.82 13 13 13v-2zm196.042-216.575c6.075 0 11 4.925 11 11h2c0-7.18-5.821-13-13-13v2z" fill="#3C3B41" mask="url(#c)"/></g><defs><filter id="a" x="-40" y="-40" width="341.373" height="337.684" filterUnits="userSpaceOnUse" color-interpolation-filters="sRGB"><feFlood flood-opacity="0" result="BackgroundImageFix"/><feGaussianBlur in="BackgroundImageFix" stdDeviation="20"/><feComposite in2="SourceAlpha" operator="in" result="effect1_backgroundBlur_3570_80063"/><feBlend in="SourceGraphic" in2="effect1_backgroundBlur_3570_80063" result="shape"/></filter><linearGradient id="b" x1="131.209" y1="35.193" x2="131.209" y2="263.973" gradientUnits="userSpaceOnUse"><stop stop-color="#272727" stop-opacity=".94"/><stop offset="0" stop-color="#272727" stop-opacity=".83"/><stop offset="1" stop-color="#272727" stop-opacity=".08"/></linearGradient></defs></svg>