<svg width="303" height="300" viewBox="0 0 303 300" xmlns="http://www.w3.org/2000/svg" fill="none"><g filter="url(#a)"><mask id="c"><path fill-rule="evenodd" clip-rule="evenodd" d="M111.321 258.809c0-.23-.186-.418-.417-.418h-57.551c-6.627 0-12-5.373-12-12v-61.699c0-.544-.447-.979-.991-.979-22.28 0-40.341-18.061-40.341-40.341s18.061-40.341 40.341-40.341c.543 0 .991-.436.991-.979v-50.236c0-6.627 5.373-12 12-12h44.111c6.488 0 11.62-5.272 13.655-11.432 5.31-16.076 20.457-27.678 38.313-27.678s33.003 11.601 38.314 27.678c2.035 6.16 7.167 11.432 13.654 11.432h47.995c6.628 0 12 5.373 12 12v56.207c0 .403.331.727.734.727 22.279 0 40.341 18.061 40.341 40.341 0 22.279-18.062 40.341-40.341 40.341-.403 0-.734.324-.734.727v56.232c0 6.627-5.372 12-12 12h-56.974c-.231 0-.417.188-.417.418 0 22.28-18.061 40.341-40.341 40.341s-40.341-18.061-40.341-40.341z"/></mask><path fill-rule="evenodd" clip-rule="evenodd" d="M111.321 258.809c0-.23-.186-.418-.417-.418h-57.551c-6.627 0-12-5.373-12-12v-61.699c0-.544-.447-.979-.991-.979-22.28 0-40.341-18.061-40.341-40.341s18.061-40.341 40.341-40.341c.543 0 .991-.436.991-.979v-50.236c0-6.627 5.373-12 12-12h44.111c6.488 0 11.62-5.272 13.655-11.432 5.31-16.076 20.457-27.678 38.313-27.678s33.003 11.601 38.314 27.678c2.035 6.16 7.167 11.432 13.654 11.432h47.995c6.628 0 12 5.373 12 12v56.207c0 .403.331.727.734.727 22.279 0 40.341 18.061 40.341 40.341 0 22.279-18.062 40.341-40.341 40.341-.403 0-.734.324-.734.727v56.232c0 6.627-5.372 12-12 12h-56.974c-.231 0-.417.188-.417.418 0 22.28-18.061 40.341-40.341 40.341s-40.341-18.061-40.341-40.341z" fill="url(#b)"/><path d="M111.118 28.384l.949.314-.949-.314zm-57.765 231.007h57.551v-2h-57.551v2zm-13-74.699v61.699h2v-61.699h-2zm-41.332-41.32c0 22.832 18.509 41.341 41.341 41.341v-2c-21.727 0-39.341-17.614-39.341-39.341h-2zm41.341-41.341c-22.832 0-41.341 18.509-41.341 41.341h2c0-21.727 17.614-39.341 39.341-39.341v-2zm-.009-50.215v50.236h2v-50.236h-2zm57.111-13h-44.111v2h44.111v-2zm14.604-10.118c5.18-15.679 19.952-26.991 37.364-26.991v-2c-18.3 0-33.821 11.89-39.263 28.364l1.899.627zm37.364-26.991c17.412 0 32.185 11.312 37.364 26.991l1.899-.627c-5.442-16.474-20.962-28.364-39.263-28.364v2zm99.963 37.109h-47.995v2h47.995v-2zm13 69.207v-56.207h-2v56.207h2zm41.075 41.068c0-22.832-18.509-41.341-41.341-41.341v2c21.727 0 39.341 17.613 39.341 39.341h2zm-41.341 41.341c22.832 0 41.341-18.509 41.341-41.341h-2c0 21.727-17.614 39.341-39.341 39.341v2zm.266 55.959v-56.232h-2v56.232h2zm-69.974 13h56.974v-2h-56.974v2zm-40.758 40.759c22.832 0 41.341-18.509 41.341-41.341h-2c0 21.728-17.614 39.341-39.341 39.341v2zm-41.341-41.341c0 22.832 18.509 41.341 41.341 41.341v-2c-21.727 0-39.341-17.613-39.341-39.341h-2zm82.099-1.418c-.79 0-1.417.642-1.417 1.418h2c0 .315-.255.582-.583.582v-2zm69.708-68.959c-.944 0-1.734.76-1.734 1.727h2c0 .16-.129.273-.266.273v-2zm-12.734-147.616c6.075 0 11 4.925 11 11h2c0-7.18-5.82-13-13-13v2zm-151.931 0c7.073 0 12.49-5.717 14.604-12.118l-1.899-.627c-1.955 5.919-6.803 10.745-12.705 10.745v2zm-55.111 11c0-6.075 4.925-11 11-11v-2c-7.18 0-13 5.82-13 13h2zm0 132.876c0-1.111-.911-1.979-1.991-1.979v2l-.001-.001h-.001l-.004-.007-.002-.008-.001-.005h2zm218.041 61.699c0 6.075-4.925 11-11 11v2c7.18 0 13-5.821 13-13h-2zm-220.032-142.36c1.08 0 1.991-.868 1.991-1.979h-2l.001-.006.002-.007.004-.007.001-.001h.001v2zm220.032 3.992c0 .967.79 1.727 1.734 1.727v-2c.137 0 .266.112.266.273h-2zm-207.041 149.368c-6.075 0-11-4.925-11-11h-2c0 7.179 5.82 13 13 13v-2zm133.442-228.693c2.115 6.401 7.531 12.118 14.604 12.118v-2c-5.902 0-10.75-4.827-12.705-10.745l-1.899.627zm-74.474 230.111c0-.776-.627-1.418-1.417-1.418v2c-.328 0-.583-.267-.583-.582h2z" fill="#3C3B41" mask="url(#c)"/></g><defs><filter id="a" x="-39.978" y="-39.293" width="382.447" height="378.444" filterUnits="userSpaceOnUse" color-interpolation-filters="sRGB"><feFlood flood-opacity="0" result="BackgroundImageFix"/><feGaussianBlur in="BackgroundImageFix" stdDeviation="20"/><feComposite in2="SourceAlpha" operator="in" result="effect1_backgroundBlur_3247_78323"/><feBlend in="SourceGraphic" in2="effect1_backgroundBlur_3247_78323" result="shape"/></filter><linearGradient id="b" x1="150.64" y1="258.391" x2="150.64" y2="-6.577" gradientUnits="userSpaceOnUse"><stop stop-color="#272727" stop-opacity=".94"/><stop offset="0" stop-color="#272727" stop-opacity=".83"/><stop offset="1" stop-color="#272727" stop-opacity=".08"/></linearGradient></defs></svg>