<svg width="221" height="219" viewBox="0 0 221 219" xmlns="http://www.w3.org/2000/svg" fill="none"><g filter="url(#a)"><mask id="c"><path fill-rule="evenodd" clip-rule="evenodd" d="M111.439 43.358c-22.28 0-40.341-18.061-40.341-40.341 0-1.535-1.206-2.837-2.741-2.837h-56.356c-6.627 0-12 5.373-12 12v194.574c0 6.628 5.373 12 12 12h196.042c6.627 0 12-5.372 12-12v-62.087c0-.403-.331-.727-.734-.727-22.279 0-40.341-18.062-40.341-40.341 0-22.28 18.062-40.341 40.341-40.341.403 0 .734-.324.734-.727v-50.351c0-6.627-5.373-12-12-12h-53.522c-1.535 0-2.741 1.302-2.741 2.837 0 22.28-18.061 40.341-40.341 40.341z"/></mask><path fill-rule="evenodd" clip-rule="evenodd" d="M111.439 43.358c-22.28 0-40.341-18.061-40.341-40.341 0-1.535-1.206-2.837-2.741-2.837h-56.356c-6.627 0-12 5.373-12 12v194.574c0 6.628 5.373 12 12 12h196.042c6.627 0 12-5.372 12-12v-62.087c0-.403-.331-.727-.734-.727-22.279 0-40.341-18.062-40.341-40.341 0-22.28 18.062-40.341 40.341-40.341.403 0 .734-.324.734-.727v-50.351c0-6.627-5.373-12-12-12h-53.522c-1.535 0-2.741 1.302-2.741 2.837 0 22.28-18.061 40.341-40.341 40.341z" fill="url(#b)"/><path d="M72.098 3.017c0 21.727 17.614 39.341 39.341 39.341v2c-22.832 0-41.341-18.509-41.341-41.341h2zm-60.097-3.837h56.356v2h-56.356v-2zm-13 207.574v-194.574h2v194.574h-2zm209.042 13h-196.042v-2h196.042v2zm13-75.087v62.087h-2v-62.087h2zm-41.075-41.068c0 21.727 17.614 39.341 39.341 39.341v2c-22.832 0-41.341-18.509-41.341-41.341h2zm39.341-39.341c-21.727 0-39.341 17.614-39.341 39.341h-2c0-22.832 18.509-41.341 41.341-41.341v2zm1.734-52.078v50.351h-2v-50.351h2zm-66.522-13h53.522v2h-53.522v-2zm-43.082 43.178c21.727 0 39.341-17.614 39.341-39.341h2c0 22.832-18.509 41.341-41.341 41.341v-2zm43.082-41.178c-.939 0-1.741.809-1.741 1.837h-2c0-2.042 1.609-3.837 3.741-3.837v2zm64.522 11c0-6.075-4.925-11-11-11v-2c7.18 0 13 5.82 13 13h-2zm.266 50.078c-.137 0-.266.112-.266.273h2c0 .967-.79 1.727-1.734 1.727v-2zm-.266 82.409c0 .161.129.273.266.273v-2c.944 0 1.734.76 1.734 1.727h-2zm-11 73.087c6.075 0 11-4.925 11-11h2c0 7.18-5.82 13-13 13v-2zm-207.042-11c0 6.075 4.925 11 11 11v2c-7.18 0-13-5.82-13-13h2zm11-205.574c-6.075 0-11 4.925-11 11h-2c0-7.18 5.82-13 13-13v2zm58.097 1.837c0-1.028-.802-1.837-1.741-1.837v-2c2.132 0 3.741 1.795 3.741 3.837h-2z" fill="#3C3B41" mask="url(#c)"/></g><defs><filter id="a" x="-39.998" y="-39.82" width="300.041" height="298.575" filterUnits="userSpaceOnUse" color-interpolation-filters="sRGB"><feFlood flood-opacity="0" result="BackgroundImageFix"/><feGaussianBlur in="BackgroundImageFix" stdDeviation="20"/><feComposite in2="SourceAlpha" operator="in" result="effect1_backgroundBlur_3247_78365"/><feBlend in="SourceGraphic" in2="effect1_backgroundBlur_3247_78365" result="shape"/></filter><linearGradient id="b" x1="110.022" y1=".18" x2="110.022" y2="218.754" gradientUnits="userSpaceOnUse"><stop stop-color="#272727" stop-opacity=".94"/><stop offset="0" stop-color="#272727" stop-opacity=".83"/><stop offset="1" stop-color="#272727" stop-opacity=".08"/></linearGradient></defs></svg>