<svg width="303" height="258" viewBox="0 0 303 258" xmlns="http://www.w3.org/2000/svg" fill="none"><g filter="url(#a)"><mask id="c"><path fill-rule="evenodd" clip-rule="evenodd" d="M41.38 245.941c0 6.628 5.373 12 12 12h196.042c6.627 0 12-5.372 12-12v-56.23c0-.403.33-.727.733-.727 22.28 0 40.341-18.061 40.341-40.341 0-22.279-18.061-40.341-40.341-40.341-.403 0-.733-.324-.733-.727v-56.208c0-6.627-5.373-12-12-12h-47.995c-6.487 0-11.62-5.272-13.655-11.431-5.31-16.076-20.457-27.678-38.313-27.678s-33.003 11.601-38.314 27.678c-2.034 6.16-7.167 11.431-13.654 11.431h-44.111c-6.627 0-12 5.373-12 12v50.236c0 .543-.447.979-.991.979-22.28 0-40.341 18.061-40.341 40.341 0 22.279 18.061 40.341 40.341 40.341.543 0 .991.435.991.979v61.698z"/></mask><path fill-rule="evenodd" clip-rule="evenodd" d="M41.38 245.941c0 6.628 5.373 12 12 12h196.042c6.627 0 12-5.372 12-12v-56.23c0-.403.33-.727.733-.727 22.28 0 40.341-18.061 40.341-40.341 0-22.279-18.061-40.341-40.341-40.341-.403 0-.733-.324-.733-.727v-56.208c0-6.627-5.373-12-12-12h-47.995c-6.487 0-11.62-5.272-13.655-11.431-5.31-16.076-20.457-27.678-38.313-27.678s-33.003 11.601-38.314 27.678c-2.034 6.16-7.167 11.431-13.654 11.431h-44.111c-6.627 0-12 5.373-12 12v50.236c0 .543-.447.979-.991.979-22.28 0-40.341 18.061-40.341 40.341 0 22.279 18.061 40.341 40.341 40.341.543 0 .991.435.991.979v61.698z" fill="url(#b)"/><path d="M111.145 27.935l-.949-.314.949.314zm138.277 229.006h-196.042v2h196.042v-2zm11-67.23v56.23h2v-56.23h-2zm41.074-41.068c0 21.728-17.613 39.341-39.341 39.341v2c22.832 0 41.341-18.509 41.341-41.341h-2zm-39.341-39.341c21.728 0 39.341 17.614 39.341 39.341h2c0-22.832-18.509-41.341-41.341-41.341v2zm-1.733-57.935v56.208h2v-56.208h-2zm-58.995-11h47.995v-2h-47.995v2zm-51.968-39.109c17.412 0 32.184 11.312 37.364 26.991l1.899-.627c-5.442-16.474-20.963-28.364-39.263-28.364v2zm-37.364 26.991c5.179-15.679 19.952-26.991 37.364-26.991v-2c-18.301 0-33.821 11.89-39.263 28.364l1.899.627zm-58.715 12.118h44.111v-2h-44.111v2zm-11 61.236v-50.236h-2v50.236h2zm-41.332 41.32c0-21.728 17.614-39.341 39.341-39.341v-2c-22.832 0-41.341 18.509-41.341 41.341h2zm39.341 39.341c-21.727 0-39.341-17.614-39.341-39.341h-2c0 22.832 18.509 41.341 41.341 41.341v-2zm1.991 63.677v-61.698h-2v61.698h2zm-1.991-61.677l-.001-.001-.001-.001-.004-.006-.002-.008-.001-.005h2c0-1.112-.911-1.979-1.991-1.979v2zm69.807-156.642c-1.955 5.919-6.803 10.745-12.705 10.745v2c7.073 0 12.489-5.716 14.604-12.118l-1.899-.627zm91.231 10.745c-5.902 0-10.75-4.827-12.705-10.745l-1.899.627c2.114 6.401 7.531 12.118 14.604 12.118v-2zm60.995 13c0-7.18-5.821-13-13-13v2c6.075 0 11 4.925 11 11h2zm0 138.344c0 .161-.129.273-.267.273v-2c-.944 0-1.733.761-1.733 1.727h2zm-.267-82.409c.138 0 .267.113.267.273h-2c0 .967.789 1.727 1.733 1.727v-2zm-221.775-5.699l.001-.006.002-.007.004-.007.001-.001h.001v2c1.08 0 1.991-.868 1.991-1.979h-2zm13 155.338c-6.075 0-11-4.924-11-11h-2c0 7.18 5.82 13 13 13v-2zm0-218.574c-7.18 0-13 5.82-13 13h2c0-6.075 4.925-11 11-11v-2zm196.042 220.574c7.179 0 13-5.82 13-13h-2c0 6.076-4.925 11-11 11v2z" fill="#3C3B41" mask="url(#c)"/></g><defs><filter id="a" x="-39.951" y="-39.742" width="382.447" height="337.684" filterUnits="userSpaceOnUse" color-interpolation-filters="sRGB"><feFlood flood-opacity="0" result="BackgroundImageFix"/><feGaussianBlur in="BackgroundImageFix" stdDeviation="20"/><feComposite in2="SourceAlpha" operator="in" result="effect1_backgroundBlur_3247_78329"/><feBlend in="SourceGraphic" in2="effect1_backgroundBlur_3247_78329" result="shape"/></filter><linearGradient id="b" x1="150.667" y1="222.749" x2="150.667" y2="-6.032" gradientUnits="userSpaceOnUse"><stop stop-color="#272727" stop-opacity=".94"/><stop offset="0" stop-color="#272727" stop-opacity=".83"/><stop offset="1" stop-color="#272727" stop-opacity=".08"/></linearGradient></defs></svg>