<svg width="262" height="258" viewBox="0 0 262 258" xmlns="http://www.w3.org/2000/svg" fill="none"><g filter="url(#a)"><mask id="c"><path fill-rule="evenodd" clip-rule="evenodd" d="M261.373 245.684c0 6.627-5.373 12-12 12h-196.041c-6.627 0-12-5.373-12-12v-61.697c0-.543-.448-.979-.991-.979-22.28 0-40.341-18.061-40.341-40.341s18.061-40.341 40.341-40.341c.543 0 .991-.436.991-.979v-50.238c0-6.627 5.373-12 12-12h46.529c6.488 0 11.62-5.272 13.655-11.432 5.311-16.076 20.457-27.678 38.313-27.678 17.857 0 33.003 11.601 38.314 27.678 2.035 6.16 7.167 11.432 13.655 11.432h45.576c6.627 0 12 5.372 12 12v194.575z"/></mask><path fill-rule="evenodd" clip-rule="evenodd" d="M261.373 245.684c0 6.627-5.373 12-12 12h-196.041c-6.627 0-12-5.373-12-12v-61.697c0-.543-.448-.979-.991-.979-22.28 0-40.341-18.061-40.341-40.341s18.061-40.341 40.341-40.341c.543 0 .991-.436.991-.979v-50.238c0-6.627 5.373-12 12-12h46.529c6.488 0 11.62-5.272 13.655-11.432 5.311-16.076 20.457-27.678 38.313-27.678 17.857 0 33.003 11.601 38.314 27.678 2.035 6.16 7.167 11.432 13.655 11.432h45.576c6.627 0 12 5.372 12 12v194.575z" fill="url(#b)"/><path d="M113.515 27.677l-.949-.314.949.314zm-60.184 231.007h196.041v-2h-196.041v2zm-13-74.697v61.697h2v-61.697h-2zm-41.332-41.32c0 22.832 18.509 41.341 41.341 41.341v-2c-21.727 0-39.341-17.614-39.341-39.341h-2zm41.341-41.341c-22.832 0-41.341 18.509-41.341 41.341h2c0-21.728 17.614-39.341 39.341-39.341v-2zm-.009-50.217v50.238h2v-50.238h-2zm59.529-13h-46.529v2h46.529v-2zm14.605-10.118c5.179-15.679 19.951-26.991 37.363-26.991v-2c-18.3 0-33.821 11.89-39.262 28.364l1.899.627zm37.363-26.991c17.413 0 32.185 11.312 37.364 26.991l1.899-.627c-5.441-16.474-20.962-28.364-39.263-28.364v2zm97.545 37.109h-45.576v2h45.576v-2zm13 207.575v-194.575h-2v194.575h2zm-73.181-217.693c2.115 6.401 7.532 12.118 14.605 12.118v-2c-5.902 0-10.75-4.827-12.706-10.745l-1.899.627zm-89.332 12.118c7.073 0 12.49-5.717 14.605-12.118l-1.899-.627c-1.956 5.919-6.804 10.745-12.706 10.745v2zm-57.529 11c0-6.075 4.925-11 11-11v-2c-7.18 0-13 5.82-13 13h2zm0 132.878c0-1.111-.911-1.979-1.991-1.979v2l-.001-.001h-.001l-.004-.007-.002-.007-.001-.006h2zm-1.991-80.661c1.08 0 1.991-.868 1.991-1.979h-2l.001-.006.002-.007.004-.007.001-.001h.001v2zm209.033 155.358c7.18 0 13-5.821 13-13h-2c0 6.075-4.925 11-11 11v2zm0-218.575c6.075 0 11 4.925 11 11h2c0-7.18-5.82-13-13-13v2zm-196.041 216.575c-6.075 0-11-4.925-11-11h-2c0 7.179 5.82 13 13 13v-2z" fill="#3C3B41" mask="url(#c)"/></g><defs><filter id="a" x="-40" y="-40" width="341.373" height="337.684" filterUnits="userSpaceOnUse" color-interpolation-filters="sRGB"><feFlood flood-opacity="0" result="BackgroundImageFix"/><feGaussianBlur in="BackgroundImageFix" stdDeviation="20"/><feComposite in2="SourceAlpha" operator="in" result="effect1_backgroundBlur_3247_78319"/><feBlend in="SourceGraphic" in2="effect1_backgroundBlur_3247_78319" result="shape"/></filter><linearGradient id="b" x1="130.164" y1="222.491" x2="130.164" y2="-6.289" gradientUnits="userSpaceOnUse"><stop stop-color="#272727" stop-opacity=".94"/><stop offset="0" stop-color="#272727" stop-opacity=".83"/><stop offset="1" stop-color="#272727" stop-opacity=".08"/></linearGradient></defs></svg>