<svg width="221" height="220" viewBox="0 0 221 220" xmlns="http://www.w3.org/2000/svg" fill="none"><g filter="url(#a)"><mask id="c"><path fill-rule="evenodd" clip-rule="evenodd" d="M.529 12.896c0-6.627 5.373-12 12-12h196.041c6.628 0 12 5.373 12 12v49.338c0 .693-.573 1.248-1.267 1.248-22.279 0-40.341 18.061-40.341 40.341s18.062 40.341 40.341 40.341c.694 0 1.267.555 1.267 1.248v62.059c0 6.628-5.372 12-12 12h-48.508c-6.099 0-11.049-4.687-13.317-10.348-5.95-14.856-20.481-25.35-37.463-25.35s-31.513 10.494-37.464 25.35c-2.268 5.661-7.218 10.348-13.317 10.348h-45.973c-6.627 0-12-5.372-12-12v-46.307c0-6.316 5.01-11.371 10.952-13.514 15.543-5.605 26.654-20.484 26.654-37.959s-11.111-32.355-26.654-37.96c-5.942-2.143-10.952-7.197-10.952-13.513v-45.321z"/></mask><path fill-rule="evenodd" clip-rule="evenodd" d="M.529 12.896c0-6.627 5.373-12 12-12h196.041c6.628 0 12 5.373 12 12v49.338c0 .693-.573 1.248-1.267 1.248-22.279 0-40.341 18.061-40.341 40.341s18.062 40.341 40.341 40.341c.694 0 1.267.555 1.267 1.248v62.059c0 6.628-5.372 12-12 12h-48.508c-6.099 0-11.049-4.687-13.317-10.348-5.95-14.856-20.481-25.35-37.463-25.35s-31.513 10.494-37.464 25.35c-2.268 5.661-7.218 10.348-13.317 10.348h-45.973c-6.627 0-12-5.372-12-12v-46.307c0-6.316 5.01-11.371 10.952-13.514 15.543-5.605 26.654-20.484 26.654-37.959s-11.111-32.355-26.654-37.96c-5.942-2.143-10.952-7.197-10.952-13.513v-45.321z" fill="url(#b)"/><path d="M11.481 71.731l-.339.941.339-.941zm60.337 137.392l.928.372-.928-.372zm74.927 0l.928-.372-.928.372zm-135.264-61.473l.339.941-.339-.941zm197.089-145.754h-196.041v-2h196.041v2zm11 60.338v-49.338h2v49.338h-2zm-41.608 41.588c0-22.832 18.509-41.341 41.341-41.341v2c-21.727 0-39.341 17.614-39.341 39.341h-2zm41.341 41.341c-22.832 0-41.341-18.509-41.341-41.341h2c0 21.728 17.614 39.341 39.341 39.341v2zm.267 62.307v-62.059h2v62.059h-2zm-59.508 11h48.508v2h-48.508v-2zm-14.245-8.976c-5.804-14.49-19.976-24.722-36.535-24.722v-2c17.404 0 32.294 10.755 38.391 25.978l-1.856.744zm-36.535-24.722c-16.56 0-30.732 10.232-36.535 24.722l-1.857-.744c6.097-15.223 20.987-25.978 38.392-25.978v2zm-96.753 33.698h45.973v2h-45.973v-2zm-11-57.307v46.307h-2v-46.307h2zm37.606-51.473c0 17.909-11.388 33.157-27.315 38.9l-.678-1.881c15.159-5.467 25.993-19.979 25.993-37.019h2zm-27.315-38.901c15.927 5.743 27.315 20.991 27.315 38.901h-2c0-17.041-10.834-31.553-25.993-37.02l.678-1.881zm-10.291-57.894v45.321h-2v-45.321h2zm9.613 59.775c-6.178-2.228-11.613-7.568-11.613-14.454h2c0 5.747 4.586 10.515 10.291 12.573l-.678 1.881zm61.605 136.824c-2.36 5.891-7.597 10.976-14.245 10.976v-2c5.55 0 10.213-4.288 12.388-9.72l1.857.744zm87.316 10.976c-6.648 0-11.886-5.085-14.245-10.976l1.856-.744c2.176 5.432 6.839 9.72 12.389 9.72v2zm61.508-13c0 7.18-5.82 13-13 13v-2c6.075 0 11-4.925 11-11h2zm0-145.236c0 1.266-1.041 2.248-2.267 2.248v-2c.162 0 .267-.126.267-.248h2zm-2.267 80.929c1.226 0 2.267.982 2.267 2.248h-2c0-.121-.105-.248-.267-.248v-2zm-219.774 18c0-6.886 5.434-12.226 11.613-14.454l.678 1.881c-5.705 2.058-10.291 6.826-10.291 12.573h-2zm13-159.268c-6.075 0-11 4.925-11 11h-2c0-7.18 5.82-13 13-13v2zm0 218.575c-7.18 0-13-5.82-13-13h2c0 6.075 4.925 11 11 11v2zm196.041-220.575c7.18 0 13 5.82 13 13h-2c0-6.075-4.925-11-11-11v-2z" fill="#3C3B41" mask="url(#c)"/></g><defs><filter id="a" x="-39.471" y="-39.103" width="300.041" height="298.575" filterUnits="userSpaceOnUse" color-interpolation-filters="sRGB"><feFlood flood-opacity="0" result="BackgroundImageFix"/><feGaussianBlur in="BackgroundImageFix" stdDeviation="20"/><feComposite in2="SourceAlpha" operator="in" result="effect1_backgroundBlur_3247_78285"/><feBlend in="SourceGraphic" in2="effect1_backgroundBlur_3247_78285" result="shape"/></filter><linearGradient id="b" x1="110.55" y1=".896" x2="110.55" y2="219.471" gradientUnits="userSpaceOnUse"><stop stop-color="#272727" stop-opacity=".94"/><stop offset="0" stop-color="#272727" stop-opacity=".83"/><stop offset="1" stop-color="#272727" stop-opacity=".08"/></linearGradient></defs></svg>