<svg width="305" height="265" viewBox="0 0 305 265" xmlns="http://www.w3.org/2000/svg" fill="none"><g filter="url(#a)"><mask id="c"><path fill-rule="evenodd" clip-rule="evenodd" d="M261.61 12.406c0-6.627-5.372-12-12-12h-196.041c-6.627 0-12 5.373-12 12v50.351c0 .403-.331.727-.734.727-22.28 0-40.341 18.061-40.341 40.341s18.061 40.341 40.341 40.341c.403 0 .734.324.734.727v62.088c0 6.627 5.373 12 12 12h53.591c2.73 0 4.822 2.401 4.822 5.131 0 22.28 18.061 40.341 40.341 40.341 22.279 0 40.341-18.061 40.341-40.341 0-2.73 2.091-5.131 4.821-5.131h52.125c6.628 0 12-5.373 12-12v-54.805c0-1.196 1.004-2.142 2.201-2.142 22.279 0 40.341-18.062 40.341-40.341 0-22.28-18.062-40.341-40.341-40.341-1.197 0-2.201-.946-2.201-2.142v-54.803z"/></mask><path fill-rule="evenodd" clip-rule="evenodd" d="M261.61 12.406c0-6.627-5.372-12-12-12h-196.041c-6.627 0-12 5.373-12 12v50.351c0 .403-.331.727-.734.727-22.28 0-40.341 18.061-40.341 40.341s18.061 40.341 40.341 40.341c.403 0 .734.324.734.727v62.088c0 6.627 5.373 12 12 12h53.591c2.73 0 4.822 2.401 4.822 5.131 0 22.28 18.061 40.341 40.341 40.341 22.279 0 40.341-18.061 40.341-40.341 0-2.73 2.091-5.131 4.821-5.131h52.125c6.628 0 12-5.373 12-12v-54.805c0-1.196 1.004-2.142 2.201-2.142 22.279 0 40.341-18.062 40.341-40.341 0-22.28-18.062-40.341-40.341-40.341-1.197 0-2.201-.946-2.201-2.142v-54.803z" fill="url(#b)"/><path d="M53.569 1.406h196.041v-2h-196.041v2zm-11 61.351v-50.351h-2v50.351h2zm-41.074 41.068c0-21.727 17.614-39.341 39.341-39.341v-2c-22.832 0-41.341 18.509-41.341 41.341h2zm39.341 39.341c-21.727 0-39.341-17.613-39.341-39.341h-2c0 22.832 18.509 41.341 41.341 41.341v-2zm1.734 63.815v-62.088h-2v62.088h2zm64.591 11h-53.591v2h53.591v-2zm45.163 45.472c-21.728 0-39.341-17.613-39.341-39.341h-2c0 22.832 18.509 41.341 41.341 41.341v-2zm39.341-39.341c0 21.728-17.614 39.341-39.341 39.341v2c22.832 0 41.341-18.509 41.341-41.341h-2zm57.946-6.131h-52.125v2h52.125v-2zm11-65.805v54.805h2v-54.805h-2zm42.542-42.483c0 21.727-17.614 39.341-39.341 39.341v2c22.832 0 41.341-18.509 41.341-41.341h-2zm-39.341-39.341c21.727 0 39.341 17.614 39.341 39.341h2c0-22.832-18.509-41.341-41.341-41.341v2zm-3.201-57.946v54.803h2v-54.803h-2zm2 139.77c0-.609.522-1.142 1.201-1.142v-2c-1.714 0-3.201 1.359-3.201 3.142h2zm-155.45 67.805c2.099 0 3.822 1.871 3.822 4.131h2c0-3.2-2.461-6.131-5.822-6.131v2zm156.651-151.629c-.679 0-1.201-.533-1.201-1.142h-2c0 1.783 1.487 3.142 3.201 3.142v-2zm-223.242 138.629c0 7.18 5.82 13 13 13v-2c-6.075 0-11-4.925-11-11h-2zm209.041 13c7.18 0 13-5.82 13-13h-2c0 6.075-4.925 11-11 11v2zm-209.041-157.224c0-.161.129-.273.266-.273v2c.944 0 1.734-.76 1.734-1.727h-2zm.266 82.409c-.138 0-.266-.112-.266-.273h2c0-.967-.79-1.727-1.734-1.727v2zm152.829 78.946c0-2.26 1.723-4.131 3.821-4.131v-2c-3.361 0-5.821 2.931-5.821 6.131h2zm55.946-222.706c6.075 0 11 4.925 11 11h2c0-7.18-5.82-13-13-13v2zm-196.041-2c-7.18 0-13 5.82-13 13h2c0-6.075 4.925-11 11-11v-2z" fill="#3C3B41" mask="url(#c)"/></g><defs><filter id="a" x="-39.506" y="-39.594" width="383.658" height="344.047" filterUnits="userSpaceOnUse" color-interpolation-filters="sRGB"><feFlood flood-opacity="0" result="BackgroundImageFix"/><feGaussianBlur in="BackgroundImageFix" stdDeviation="20"/><feComposite in2="SourceAlpha" operator="in" result="effect1_backgroundBlur_3247_78314"/><feBlend in="SourceGraphic" in2="effect1_backgroundBlur_3247_78314" result="shape"/></filter><linearGradient id="b" x1="152.323" y1=".406" x2="152.323" y2="264.453" gradientUnits="userSpaceOnUse"><stop stop-color="#272727" stop-opacity=".94"/><stop offset="0" stop-color="#272727" stop-opacity=".83"/><stop offset="1" stop-color="#272727" stop-opacity=".08"/></linearGradient></defs></svg>