<svg width="221" height="219" viewBox="0 0 221 219" xmlns="http://www.w3.org/2000/svg" fill="none"><g filter="url(#a)"><mask id="c"><path fill-rule="evenodd" clip-rule="evenodd" d="M220.041 12c0-6.627-5.373-12-12-12h-196.041c-6.627 0-12 5.373-12 12v56.728c0 .12.098.217.218.217 22.28 0 40.341 18.061 40.341 40.341s-18.061 40.341-40.341 40.341h-.15l-.067.067v56.881c0 6.627 5.373 12 12 12h46.777c6.456 0 11.575-5.224 13.63-11.345 5.365-15.981 20.464-27.494 38.252-27.494 17.788 0 32.887 11.513 38.252 27.494 2.055 6.121 7.174 11.345 13.631 11.345h45.5c6.627 0 12-5.373 12-12v-194.575z"/></mask><path fill-rule="evenodd" clip-rule="evenodd" d="M220.041 12c0-6.627-5.373-12-12-12h-196.041c-6.627 0-12 5.373-12 12v56.728c0 .12.098.217.218.217 22.28 0 40.341 18.061 40.341 40.341s-18.061 40.341-40.341 40.341h-.15l-.067.067v56.881c0 6.627 5.373 12 12 12h46.777c6.456 0 11.575-5.224 13.63-11.345 5.365-15.981 20.464-27.494 38.252-27.494 17.788 0 32.887 11.513 38.252 27.494 2.055 6.121 7.174 11.345 13.631 11.345h45.5c6.627 0 12-5.373 12-12v-194.575z" fill="url(#b)"/><path d="M72.406 207.23l-.948-.318.948.318zm76.504 0l.948-.318-.948.318zm-136.91-208.23h196.041v2h-196.041v-2zm-13 69.728v-56.728h2v56.728h-2zm40.559 40.558c0-21.727-17.614-39.341-39.341-39.341v-2c22.832 0 41.341 18.509 41.341 41.341h-2zm-39.341 39.341c21.727 0 39.341-17.613 39.341-39.341h2c0 22.832-18.509 41.341-41.341 41.341v-2zm-.147 0h.147v2h-.154l.007-2zm-1.071 57.948v-56.881h2v56.881h-2zm59.777 13h-46.777v-2h46.777v2zm51.882-38.839c-17.345 0-32.071 11.226-37.304 26.812l-1.896-.636c5.498-16.376 20.97-28.176 39.2-28.176v2zm37.304 26.812c-5.232-15.586-19.958-26.812-37.304-26.812v-2c18.231 0 33.703 11.8 39.2 28.176l-1.896.636zm60.079 12.027h-45.5v-2h45.5v2zm13-207.575v194.575h-2v-194.575h2zm-162.265 205.575c5.874 0 10.708-4.783 12.682-10.663l1.896.636c-2.136 6.361-7.539 12.027-14.578 12.027v-2zm-57.777-11c0 6.075 4.925 11 11 11v2c-7.18 0-13-5.821-13-13h2zm-.937-55.948c.517.002.937-.416.937-.933h-2c0-.591.481-1.07 1.072-1.067l-.009 2zm.937-81.899c0-.436-.353-.783-.782-.783v2c-.669 0-1.218-.541-1.218-1.217h2zm207.042 148.847c6.075 0 11-4.925 11-11h2c0 7.179-5.82 13-13 13v-2zm0-218.575c7.18 0 13 5.82 13 13h-2c0-6.075-4.925-11-11-11v-2zm-58.183 207.912c1.975 5.88 6.809 10.663 12.683 10.663v2c-7.04 0-12.443-5.666-14.579-12.027l1.896-.636zm-137.858-205.912c-6.075 0-11 4.925-11 11h-2c0-7.18 5.82-13 13-13v2z" fill="#3C3B41" mask="url(#c)"/></g><defs><filter id="a" x="-40" y="-40" width="300.041" height="298.575" filterUnits="userSpaceOnUse" color-interpolation-filters="sRGB"><feFlood flood-opacity="0" result="BackgroundImageFix"/><feGaussianBlur in="BackgroundImageFix" stdDeviation="20"/><feComposite in2="SourceAlpha" operator="in" result="effect1_backgroundBlur_3247_78339"/><feBlend in="SourceGraphic" in2="effect1_backgroundBlur_3247_78339" result="shape"/></filter><linearGradient id="b" x1="110.02" x2="110.02" y2="218.575" gradientUnits="userSpaceOnUse"><stop stop-color="#272727" stop-opacity=".94"/><stop offset="0" stop-color="#272727" stop-opacity=".83"/><stop offset="1" stop-color="#272727" stop-opacity=".08"/></linearGradient></defs></svg>