<svg width="221" height="220" viewBox="0 0 221 220" xmlns="http://www.w3.org/2000/svg" fill="none"><g filter="url(#a)"><mask id="c"><path fill-rule="evenodd" clip-rule="evenodd" d="M69.319 3.497c0 22.28 18.061 40.341 40.341 40.341s40.341-18.061 40.341-40.341c0-1.535 1.206-2.837 2.741-2.837h55.942c6.627 0 12 5.373 12 12v50.351c0 .403-.331.727-.734.727-22.28 0-40.341 18.061-40.341 40.341s18.061 40.341 40.341 40.341c.403 0 .734.324.734.727v62.088c0 6.627-5.373 12-12 12h-48.164c-6.043 0-10.966-4.606-13.263-10.195-6.034-14.679-20.474-25.015-37.328-25.015-16.854 0-31.294 10.336-37.327 25.015-2.297 5.589-7.22 10.195-13.263 10.195h-46.697c-6.627 0-12-5.373-12-12v-55.544c0-.781.647-1.403 1.428-1.403 22.28 0 40.341-18.062 40.341-40.341 0-22.28-18.061-40.341-40.341-40.341-.78 0-1.428-.623-1.428-1.403v-55.542c0-6.627 5.373-12 12-12h53.936c1.535 0 2.741 1.302 2.741 2.837z"/></mask><path fill-rule="evenodd" clip-rule="evenodd" d="M69.319 3.497c0 22.28 18.061 40.341 40.341 40.341s40.341-18.061 40.341-40.341c0-1.535 1.206-2.837 2.741-2.837h55.942c6.627 0 12 5.373 12 12v50.351c0 .403-.331.727-.734.727-22.28 0-40.341 18.061-40.341 40.341s18.061 40.341 40.341 40.341c.403 0 .734.324.734.727v62.088c0 6.627-5.373 12-12 12h-48.164c-6.043 0-10.966-4.606-13.263-10.195-6.034-14.679-20.474-25.015-37.328-25.015-16.854 0-31.294 10.336-37.327 25.015-2.297 5.589-7.22 10.195-13.263 10.195h-46.697c-6.627 0-12-5.373-12-12v-55.544c0-.781.647-1.403 1.428-1.403 22.28 0 40.341-18.062 40.341-40.341 0-22.28-18.061-40.341-40.341-40.341-.78 0-1.428-.623-1.428-1.403v-55.542c0-6.627 5.373-12 12-12h53.936c1.535 0 2.741 1.302 2.741 2.837z" fill="url(#b)"/><path d="M72.602 209.04l-.925-.38.925.38zm37.058-164.202c-22.832 0-41.341-18.509-41.341-41.341h2c0 21.727 17.614 39.341 39.341 39.341v2zm41.341-41.341c0 22.832-18.509 41.341-41.341 41.341v-2c21.728 0 39.341-17.614 39.341-39.341h2zm57.683-1.837h-55.942v-2h55.942v2zm11 61.351v-50.351h2v50.351h-2zm-41.075 41.068c0-22.832 18.509-41.341 41.341-41.341v2c-21.727 0-39.341 17.614-39.341 39.341h-2zm41.341 41.341c-22.832 0-41.341-18.509-41.341-41.341h2c0 21.728 17.614 39.341 39.341 39.341v2zm-.266 61.815v-62.088h2v62.088h-2zm-59.164 11h48.164v2h-48.164v-2zm-14.188-8.815c-5.885-14.317-19.968-24.395-36.403-24.395v-2c17.274 0 32.071 10.594 38.253 25.635l-1.85.76zm-36.403-24.395c-16.434 0-30.518 10.078-36.402 24.395l-1.85-.76c6.182-15.041 20.979-25.635 38.252-25.635v2zm-97.287 33.21h46.697v2h-46.697v-2zm-11-66.544v55.544h-2v-55.544h2zm41.769-41.744c0 22.832-18.509 41.341-41.341 41.341v-2c21.727 0 39.341-17.614 39.341-39.341h2zm-41.341-41.341c22.832 0 41.341 18.509 41.341 41.341h-2c0-21.728-17.614-39.341-39.341-39.341v-2zm-.428-55.945v55.542h-2v-55.542h2zm64.936-11h-53.936v-2h53.936v2zm0-2c2.132 0 3.741 1.795 3.741 3.837h-2c0-1.028-.802-1.837-1.741-1.837v-2zm-64.508 70.946c-1.31 0-2.428-1.048-2.428-2.403h2c0 .206.177.403.428.403v2zm71.457 138.814c-2.391 5.817-7.601 10.815-14.188 10.815v-2c5.499 0 10.134-4.214 12.338-9.575l1.85.76zm86.993 10.815c-6.587 0-11.797-4.998-14.188-10.815l1.85-.76c2.203 5.361 6.839 9.575 12.338 9.575v2zm61.164-13c0 7.179-5.821 13-13 13v-2c6.075 0 11-4.925 11-11h2zm0-144.224c0 .967-.79 1.727-1.734 1.727v-2c-.138 0-.266.112-.266.273h2zm-222.042-50.351c0-7.18 5.82-13 13-13v2c-6.075 0-11 4.925-11 11h-2zm220.308 130.76c.944 0 1.734.76 1.734 1.727h-2c0 .161.128.273.266.273v-2zm-220.308 8.271c0-1.355 1.118-2.403 2.428-2.403v2c-.251 0-.428.197-.428.403h-2zm209.042-152.031c7.179 0 13 5.82 13 13h-2c0-6.075-4.925-11-11-11v-2zm-196.042 220.575c-7.18 0-13-5.821-13-13h2c0 6.075 4.925 11 11 11v2zm136.359-216.738c0-2.042 1.61-3.837 3.741-3.837v2c-.938 0-1.741.809-1.741 1.837h-2z" fill="#3C3B41" mask="url(#c)"/></g><defs><filter id="a" x="-39.357" y="-39.34" width="300.041" height="298.575" filterUnits="userSpaceOnUse" color-interpolation-filters="sRGB"><feFlood flood-opacity="0" result="BackgroundImageFix"/><feGaussianBlur in="BackgroundImageFix" stdDeviation="20"/><feComposite in2="SourceAlpha" operator="in" result="effect1_backgroundBlur_3247_78343"/><feBlend in="SourceGraphic" in2="effect1_backgroundBlur_3247_78343" result="shape"/></filter><linearGradient id="b" x1="110.663" y1=".66" x2="110.663" y2="219.235" gradientUnits="userSpaceOnUse"><stop stop-color="#272727" stop-opacity=".94"/><stop offset="0" stop-color="#272727" stop-opacity=".83"/><stop offset="1" stop-color="#272727" stop-opacity=".08"/></linearGradient></defs></svg>