<svg width="263" height="301" viewBox="0 0 263 301" xmlns="http://www.w3.org/2000/svg" fill="none"><g filter="url(#a)"><mask id="c"><path fill-rule="evenodd" clip-rule="evenodd" d="M109.51.125c-17.138 0-31.779 10.686-37.625 25.758-2.23 5.75-7.213 10.537-13.38 10.537h-46.294c-6.627 0-12 5.373-12 12v194.574c0 6.628 5.373 12 12 12h53.591c2.73 0 4.822 2.402 4.822 5.132 0 22.28 18.061 40.341 40.341 40.341s40.341-18.061 40.341-40.341c0-2.73 2.092-5.132 4.822-5.132h52.125c6.627 0 12-5.372 12-12v-54.804c0-1.197 1.004-2.143 2.2-2.143 22.28 0 40.341-18.061 40.341-40.341s-18.061-40.341-40.341-40.341c-1.196 0-2.2-.946-2.2-2.142v-54.803c0-6.627-5.373-12-12-12h-47.739c-6.166 0-11.15-4.787-13.38-10.537-5.846-15.072-20.487-25.758-37.624-25.758z"/></mask><path fill-rule="evenodd" clip-rule="evenodd" d="M109.51.125c-17.138 0-31.779 10.686-37.625 25.758-2.23 5.75-7.213 10.537-13.38 10.537h-46.294c-6.627 0-12 5.373-12 12v194.574c0 6.628 5.373 12 12 12h53.591c2.73 0 4.822 2.402 4.822 5.132 0 22.28 18.061 40.341 40.341 40.341s40.341-18.061 40.341-40.341c0-2.73 2.092-5.132 4.822-5.132h52.125c6.627 0 12-5.372 12-12v-54.804c0-1.197 1.004-2.143 2.2-2.143 22.28 0 40.341-18.061 40.341-40.341s-18.061-40.341-40.341-40.341c-1.196 0-2.2-.946-2.2-2.142v-54.803c0-6.627-5.373-12-12-12h-47.739c-6.166 0-11.15-4.787-13.38-10.537-5.846-15.072-20.487-25.758-37.624-25.758z" fill="url(#b)"/><path d="M147.134 25.883l.932-.362-.932.362zm-74.317.362c5.702-14.7 19.981-25.12 36.693-25.12v-2c-17.564 0-32.567 10.952-38.557 26.396l1.865.723zm-60.606 11.175h46.294v-2h-46.294v2zm-11 205.574v-194.574h-2v194.574h2zm64.591 11h-53.591v2h53.591v-2zm45.163 45.473c-21.727 0-39.341-17.613-39.341-39.341h-2c0 22.832 18.509 41.341 41.341 41.341v-2zm39.341-39.341c0 21.728-17.613 39.341-39.341 39.341v2c22.832 0 41.341-18.509 41.341-41.341h-2zm57.947-6.132h-52.125v2h52.125v-2zm11-65.804v54.804h2v-54.804h-2zm42.541-42.484c0 21.728-17.614 39.341-39.341 39.341v2c22.832 0 41.341-18.509 41.341-41.341h-2zm-39.341-39.341c21.727 0 39.341 17.614 39.341 39.341h2c0-22.832-18.509-41.341-41.341-41.341v2zm-3.2-57.945v54.803h2v-54.803h-2zm-58.739-11h47.739v-2h-47.739v2zm-51.004-36.295c16.71 0 30.99 10.419 36.692 25.12l1.864-.723c-5.99-15.444-20.993-26.396-38.556-26.396v2zm51.004 34.295c-5.611 0-10.308-4.381-12.448-9.898l-1.864.723c2.32 5.982 7.59 11.175 14.312 11.175v-2zm60.739 152.77c0-.61.521-1.143 1.2-1.143v-2c-1.714 0-3.2 1.36-3.2 3.143h2zm-13 67.804c7.179 0 13-5.82 13-13h-2c0 6.075-4.925 11-11 11v2zm13-207.574c0-7.18-5.821-13-13-13v2c6.075 0 11 4.925 11 11h2zm-155.451 207.574c2.099 0 3.822 1.872 3.822 4.132h2c0-3.2-2.46-6.132-5.822-6.132v2zm86.504 4.132c0-2.26 1.723-4.132 3.822-4.132v-2c-3.361 0-5.822 2.932-5.822 6.132h2zm70.147-155.761c-.679 0-1.2-.533-1.2-1.142h-2c0 1.783 1.486 3.142 3.2 3.142v-2zm-223.242 138.629c0 7.18 5.82 13 13 13v-2c-6.075 0-11-4.925-11-11h-2zm13-207.574c-7.18 0-13 5.82-13 13h2c0-6.075 4.925-11 11-11v-2zm58.742-9.898c-2.14 5.518-6.836 9.898-12.448 9.898v2c6.722 0 11.993-5.193 14.313-11.175l-1.865-.723z" fill="#3C3B41" mask="url(#c)"/></g><defs><filter id="a" x="-39.789" y="-39.875" width="342.582" height="380.342" filterUnits="userSpaceOnUse" color-interpolation-filters="sRGB"><feFlood flood-opacity="0" result="BackgroundImageFix"/><feGaussianBlur in="BackgroundImageFix" stdDeviation="20"/><feComposite in2="SourceAlpha" operator="in" result="effect1_backgroundBlur_3247_78309"/><feBlend in="SourceGraphic" in2="effect1_backgroundBlur_3247_78309" result="shape"/></filter><linearGradient id="b" x1="150.624" y1="36.418" x2="150.624" y2="300.467" gradientUnits="userSpaceOnUse"><stop stop-color="#272727" stop-opacity=".94"/><stop offset="0" stop-color="#272727" stop-opacity=".83"/><stop offset="1" stop-color="#272727" stop-opacity=".08"/></linearGradient></defs></svg>