<svg width="160" height="160" viewBox="0 0 160 160" xmlns="http://www.w3.org/2000/svg" fill="none"><g filter="url(#a)"><mask id="b"><path fill-rule="evenodd" clip-rule="evenodd" d="M50.89 4.5c0 16.158 13.099 29.257 29.257 29.257s29.257-13.099 29.257-29.257c0-.519-.014-1.034-.04-1.546-.063-1.205.864-2.267 2.071-2.267h46.149c1.105 0 2 .895 2 2v43.218c0 .293-.24.528-.532.528-16.158 0-29.257 13.099-29.257 29.257s13.099 29.257 29.257 29.257c.292 0 .532.235.532.528v51.732c0 1.105-.895 2-2 2h-155.584c-1.105 0-2-.895-2-2v-154.52c0-1.105.895-2 2-2h46.859c1.207 0 2.134 1.062 2.071 2.267-.027.512-.04 1.028-.04 1.546z"/></mask><path fill-rule="evenodd" clip-rule="evenodd" d="M50.89 4.5c0 16.158 13.099 29.257 29.257 29.257s29.257-13.099 29.257-29.257c0-.519-.014-1.034-.04-1.546-.063-1.205.864-2.267 2.071-2.267h46.149c1.105 0 2 .895 2 2v43.218c0 .293-.24.528-.532.528-16.158 0-29.257 13.099-29.257 29.257s13.099 29.257 29.257 29.257c.292 0 .532.235.532.528v51.732c0 1.105-.895 2-2 2h-155.584c-1.105 0-2-.895-2-2v-154.52c0-1.105.895-2 2-2h46.859c1.207 0 2.134 1.062 2.071 2.267-.027.512-.04 1.028-.04 1.546z" fill="#1D5352"/><path d="M50.93 2.954l-.999-.052.999.052zm58.434 0l-.999.052.999-.052zm-29.217 31.803c-16.711 0-30.257-13.547-30.257-30.257h2c0 15.606 12.651 28.257 28.257 28.257v2zm30.257-30.257c0 16.711-13.547 30.257-30.257 30.257v-2c15.606 0 28.257-12.651 28.257-28.257h2zm-.042-1.598c.028.529.042 1.062.042 1.598h-2c0-.501-.013-1-.039-1.494l1.997-.104zm47.222-1.215h-46.149v-2h46.149v2zm1 44.218v-43.218h2v43.218h-2zm.468 1.528c-15.606 0-28.257 12.651-28.257 28.257h-2c0-16.711 13.546-30.257 30.257-30.257v2zm-28.257 28.257c0 15.606 12.651 28.257 28.257 28.257v2c-16.711 0-30.257-13.546-30.257-30.257h2zm27.789 81.517v-51.732h2v51.732h-2zm-156.584 1h155.584v2h-155.584v-2zm-1-155.52v154.52h-2v-154.52h2zm47.859-1h-46.859v-2h46.859v2zm1.031 2.814c0-.536.014-1.069.042-1.598l1.997.104c-.026.495-.039.993-.039 1.494h-2zm-1.031-4.814c1.83 0 3.16 1.593 3.07 3.319l-1.997-.104c.036-.685-.488-1.215-1.072-1.215v-2zm-49.859 3c0-1.657 1.343-3 3-3v2c-.552 0-1 .448-1 1h-2zm3 157.52c-1.657 0-3-1.343-3-3h2c0 .552.448 1 1 1v2zm158.584-3c0 1.657-1.343 3-3 3v-2c.553 0 1-.448 1-1h2zm0-111.302c0 .856-.699 1.528-1.532 1.528v-2c-.248 0-.468.201-.468.472h2zm-1.532 58.042c.833 0 1.532.672 1.532 1.528h-2c0 .271.22.472.468.472v-2zm-1.468-104.26c1.657 0 3 1.343 3 3h-2c0-.552-.447-1-1-1v-2zm-49.219 3.319c-.09-1.726 1.24-3.319 3.07-3.319v2c-.584 0-1.108.53-1.073 1.215l-1.997.104z" fill="#50D9D7" mask="url(#b)"/></g><defs><filter id="a" x="-40" y="-39.313" width="239.584" height="238.521" filterUnits="userSpaceOnUse" color-interpolation-filters="sRGB"><feFlood flood-opacity="0" result="BackgroundImageFix"/><feGaussianBlur in="BackgroundImageFix" stdDeviation="20"/><feComposite in2="SourceAlpha" operator="in" result="effect1_backgroundBlur_3436_79989"/><feBlend in="SourceGraphic" in2="effect1_backgroundBlur_3436_79989" result="shape"/></filter></defs></svg>