<svg width="36" height="36" viewBox="0 0 36 36" xmlns="http://www.w3.org/2000/svg" fill="none"><g clip-path="url(#a)"><path fill-rule="evenodd" clip-rule="evenodd" d="M14.551 24.779l.001 1.402h6.893l.001-1.402c0-5.49 3.547-3.533 3.547-8.956 0-3.863-3.132-6.995-6.995-6.995s-6.995 3.132-6.995 6.995c0 5.424 3.547 3.466 3.547 8.956zm8.004-9.744c0 .223.18.403.403.403.223 0 .403-.18.403-.403 0-1.302-.528-2.481-1.381-3.334-.853-.853-2.032-1.381-3.334-1.381-.223 0-.403.18-.403.403 0 .223.181.403.403.403 1.079 0 2.057.438 2.764 1.145.707.707 1.145 1.685 1.145 2.764z" fill="#1D5352"/><path d="M14.839 26.584c-.223 0-.403.18-.403.403 0 .223.181.403.403.403h6.242c.223 0 .403-.181.403-.403 0-.223-.181-.403-.403-.403h-6.242zM14.839 28.599c-.223 0-.403-.181-.403-.403 0-.223.181-.403.403-.403h6.242c.223 0 .403.18.403.403 0 .223-.181.403-.403.403h-6.242zM14.839 29.002c-.223 0-.403.18-.403.403 0 .223.181.403.403.403h6.242c.223 0 .403-.18.403-.403 0-.223-.181-.403-.403-.403h-6.242z" fill="#88A5A5"/><path fill-rule="evenodd" clip-rule="evenodd" d="M19.761 30.211h-3.603c.123.728.883 1.288 1.802 1.288s1.678-.56 1.802-1.288z" fill="#1D5352"/></g><defs><clipPath id="a"><path fill="#fff" d="M0 0h36v36h-36z"/></clipPath></defs></svg>