<svg width="50" height="50" viewBox="0 0 50 50" xmlns="http://www.w3.org/2000/svg" fill="none"><path d="M9.727 40.227l4.867-2.297c-1.094-.445-2.086-1.031-2.977-1.75l-1.891 4.047z" fill="#50D9D7"/><path fill-rule="evenodd" clip-rule="evenodd" d="M11.891 35.625c1.008.836 2.172 1.492 3.461 1.953l3.813-1.797c-2.352-.617-4.344-1.617-5.945-2.977l-1.328 2.82z" fill="#fff"/><path d="M15.336 28.273l-1.867 3.984c1.711 1.5 3.914 2.555 6.547 3.133l3.063-1.445c-2.867-1.297-5.476-3.203-7.742-5.672z" fill="#50D9D7"/><path d="M17.141 24.406l-1.539 3.281v.008c2.391 2.633 5.141 4.617 8.188 5.906l4.555-2.148c-4.859-.438-8.625-2.805-11.203-7.047z" fill="#fff"/><path d="M25.195 9.297l2.063.641.641 2.055c.024.094.109.172.211.188h.039c.086 0 .172-.039.219-.109l1.25-1.758 2.156.024c.086-.016.188-.055.242-.141.047-.094.039-.203-.023-.281l-1.297-1.727.695-2.039c.031-.094.008-.203-.063-.273-.07-.07-.172-.094-.273-.063l-2.047.695-1.727-1.289c-.078-.055-.187-.07-.273-.023-.094.047-.148.141-.148.242l.031 2.156-1.766 1.25c-.078.055-.125.156-.109.258.016.086.086.164.18.195zM38.328 16.508c.047-.094.039-.195-.023-.273l-1.289-1.727.688-2.047c.039-.094.008-.203-.063-.274-.07-.078-.172-.094-.273-.063l-2.039.688-1.727-1.289c-.086-.055-.188-.07-.281-.024-.094.039-.148.141-.141.242l.023 2.156-1.758 1.25c-.086.055-.125.156-.109.258.016.101.094.188.188.211l2.055.641.641 2.055c.031.102.109.172.211.188l.02.004.02.004c.086 0 .164-.039.219-.117l1.25-1.758 2.156.031c.086-.024.188-.07.234-.156zM44.836 22.75l-1.297-1.727.695-2.039c.031-.094.008-.203-.063-.273-.07-.078-.172-.094-.273-.063l-2.047.688-1.727-1.289c-.078-.055-.188-.07-.273-.023-.094.047-.148.141-.148.242l.031 2.156-1.766 1.25c-.078.055-.125.156-.109.258.016.102.086.18.18.211l2.063.641.641 2.055c.023.094.109.172.211.188h.039c.086 0 .164-.039.211-.109l1.25-1.758 2.156.023c.094-.008.195-.055.242-.141.055-.094.039-.203-.016-.289zM17.445 23.758c2.656 4.594 6.703 7.008 12.031 7.172l2.555-1.211-11.844-11.805-2.742 5.844z" fill="#50D9D7"/><path fill-rule="evenodd" clip-rule="evenodd" d="M23.313 18.945c-.086-.547.188-.93.242-1 .526-.641-.11-1.468-.161-1.535l-.003-.004c-.086-.102-.125-.227-.109-.352.016-.133.07-.25.172-.328.086-.07.195-.109.305-.109.141 0 .273.063.367.172.422.516 1.008 1.742.195 2.742l-.003.007c-.02.038-.073.142-.051.266.031.172.18.352.438.531.102.078.172.188.195.313.024.125-.008.258-.078.359-.094.125-.242.203-.398.203-.102 0-.195-.031-.274-.086-.484-.336-.766-.734-.836-1.18zm1.945 2.734c-.156 0-.305-.078-.391-.203-.078-.102-.102-.234-.086-.352.024-.125.094-.242.195-.313 2.461-1.742 3.414-3.422 2.914-5.125-.039-.125-.023-.258.039-.367.063-.109.164-.188.289-.226l.133-.024c.211 0 .398.141.461.344.633 2.148-.445 4.172-3.281 6.18-.078.055-.172.086-.273.086zm7.594-.477l1.477-.125c.289 0 .492.188.508.43.016.133-.023.25-.109.352-.086.094-.203.156-.328.164l-1.469.125c-.625.055-1.211.328-1.648.766l-2.078 2.078c-.086.094-.211.141-.336.141-.125 0-.242-.047-.336-.141-.094-.086-.141-.211-.141-.336 0-.125.047-.242.141-.336l2.078-2.078c.601-.602 1.398-.969 2.242-1.039zm1.227 4.352c.094 0 .188.023.266.078.227.148.281.445.133.664-.234.367-.523.547-.844.547h-.016c-.43-.008-.68-.344-.758-.461-.125-.125-.258-.211-.367-.219h-.008c-.094 0-.164.039-.242.101-.188.149-.437.234-.719.234l-.32-.031-.492-.094c-.258-.055-.43-.305-.383-.563.039-.227.234-.391.469-.391h.023l.063.008.492.094.148.016.102-.016c.258-.211.539-.32.836-.32l.133.008c.609.063 1.023.586 1.039.609l.008.008.028-.037.011-.017c.086-.141.234-.219.398-.219z" fill="#fff"/><path d="M26.523 22.945c0 .125.047.25.141.336.094.094.211.141.336.141.125 0 .25-.047.336-.141l5.172-5.172c.188-.188.188-.492 0-.68-.094-.094-.211-.141-.336-.141-.125 0-.25.047-.336.141l-5.172 5.172c-.094.094-.141.211-.141.344z" fill="#50D9D7"/></svg>