<svg width="50" height="50" viewBox="0 0 50 50" xmlns="http://www.w3.org/2000/svg" fill="none"><path d="M4 15.417h2.083v1.042h-2.083v-1.042zm3.125 2.083h1.042v2.083h-1.042v-2.083zm-.021-5.208h1.042v2.083h-1.042v-2.083zm38.542.521c0 .31-.092.613-.265.87-.173.257-.418.458-.705.575-.287.118-.602.147-.906.085-.304-.062-.582-.213-.8-.433-.218-.221-.365-.501-.423-.805-.058-.305-.024-.619.097-.904.121-.285.325-.528.585-.697.26-.169.564-.257.874-.253.411.005.803.172 1.091.465.288.293.45.687.45 1.098zm-2.083 0c0 .103.031.204.088.289.057.086.139.152.234.192.095.039.2.05.301.03.101-.02.194-.07.267-.143.073-.073.123-.166.143-.267.02-.101.01-.206-.03-.301-.039-.095-.106-.176-.192-.234-.086-.057-.186-.088-.289-.088-.138 0-.271.055-.368.152-.098.098-.153.23-.153.368z" fill="#E2DFF4"/><path d="M23.271 8.125c.863 0 1.563-.7 1.563-1.563s-.7-1.563-1.563-1.563-1.563.7-1.563 1.563.7 1.563 1.563 1.563z" fill="#F4F4F6"/><path d="M13.354 27.917c-.005-2.648.673-5.253 1.969-7.563-.735-.518-1.431-1.089-2.083-1.708-1.977 2.685-3.033 5.937-3.01 9.271 0 4.144 1.646 8.118 4.576 11.049 2.93 2.93 6.905 4.577 11.049 4.577.522-.001 1.043-.029 1.563-.083-3.853-.387-7.425-2.192-10.024-5.063-2.598-2.872-4.038-6.606-4.039-10.478zM24.812 36.25v-1.042c.002-.645.203-1.273.576-1.799.373-.526.899-.923 1.507-1.138-.471-.166-.974-.218-1.469-.149-.494.068-.965.254-1.373.542-.408.288-.741.669-.972 1.112-.23.443-.351.934-.353 1.434v1.042c.001.499.122.991.353 1.434.23.443.564.824.972 1.112.408.288.879.473 1.373.542.495.068.998.017 1.469-.149-.608-.215-1.134-.612-1.507-1.138-.373-.526-.574-1.154-.576-1.799z" fill="#D6DBE1"/><path d="M25.854 44.583c-3.084-.001-6.107-.857-8.733-2.474-2.626-1.617-4.752-3.93-6.141-6.683-1.389-2.753-1.988-5.837-1.729-8.91.259-3.073 1.366-6.014 3.197-8.495.089-.119.202-.218.331-.29.13-.072.274-.115.421-.127.148-.012.297.008.436.058.14.05.267.13.373.234 1.603 1.583 3.505 2.833 5.594 3.677l5.833-2.917c.173-.088.367-.125.56-.109.193.017.378.087.534.203l3.75 2.813c2.73-.755 5.293-2.021 7.552-3.729.109-.087.234-.151.368-.189.134-.038.275-.048.413-.03.137.018.27.063.39.133s.225.163.308.274c1.834 2.485 2.941 5.43 3.198 8.508.257 3.078-.346 6.166-1.742 8.921-1.396 2.755-3.529 5.068-6.163 6.681-2.634 1.613-5.663 2.462-8.752 2.453zm-12.396-24.354c-1.439 2.305-2.197 4.97-2.188 7.688-.001 2.262.524 4.494 1.534 6.518s2.477 3.786 4.285 5.145c1.808 1.36 3.908 2.28 6.133 2.688 2.225.408 4.515.293 6.688-.336s4.17-1.755 5.832-3.289c1.663-1.534 2.946-3.434 3.748-5.549s1.101-4.388.873-6.639c-.228-2.251-.976-4.418-2.186-6.329-2.398 1.65-5.062 2.876-7.875 3.625-.154.044-.315.051-.473.022-.157-.029-.306-.094-.434-.189l-3.656-2.74-5.667 2.833c-.128.066-.268.104-.411.113-.143.009-.287-.012-.422-.061-2.119-.816-4.076-2.001-5.781-3.5z" fill="#3ECFCD"/><path d="M13.458 20.229c-1.439 2.305-2.197 4.97-2.188 7.688-.001 2.262.524 4.494 1.534 6.518s2.477 3.786 4.285 5.145c1.808 1.36 3.908 2.28 6.133 2.688 2.225.408 4.515.293 6.688-.336s4.17-1.755 5.832-3.289c1.663-1.534 2.946-3.434 3.748-5.549s1.101-4.388.873-6.639c-.228-2.251-.976-4.418-2.186-6.329-2.398 1.65-5.062 2.876-7.875 3.625-.154.044-.315.051-.473.022-.157-.029-.306-.094-.434-.189l-3.656-2.74-5.667 2.833c-.128.066-.268.104-.411.113-.143.009-.287-.012-.422-.061-2.119-.816-4.076-2.001-5.781-3.5z" fill="#50D9D7"/><path d="M25.854 40.417c-1.105 0-2.165-.439-2.946-1.22-.781-.781-1.22-1.841-1.22-2.946v-1.042c0-1.105.439-2.165 1.22-2.946.781-.781 1.841-1.22 2.946-1.22 1.105 0 2.165.439 2.946 1.22.781.781 1.22 1.841 1.22 2.946v1.042c0 1.105-.439 2.165-1.22 2.946-.781.781-1.841 1.22-2.946 1.22zm0-7.292c-.553 0-1.082.219-1.473.61s-.61.921-.61 1.473v1.042c0 .552.22 1.082.61 1.473.391.391.921.61 1.473.61.553 0 1.082-.219 1.473-.61s.61-.921.61-1.473v-1.042c0-.552-.22-1.082-.61-1.473-.391-.391-.921-.61-1.473-.61zM32.104 30c-.412 0-.815-.122-1.157-.351-.343-.229-.61-.554-.767-.935-.158-.381-.199-.799-.119-1.204.08-.404.279-.775.57-1.067.291-.291.663-.49 1.067-.57.404-.08.823-.039 1.204.119s.706.425.935.767c.229.343.351.745.351 1.157 0 .553-.219 1.082-.61 1.473s-.921.61-1.473.61zm-12.5 0c-.412 0-.815-.122-1.157-.351-.343-.229-.61-.554-.767-.935-.158-.381-.199-.799-.119-1.204.08-.404.279-.775.57-1.067.291-.291.663-.49 1.067-.57.404-.08.823-.039 1.204.119s.706.425.935.767c.229.343.351.745.351 1.157 0 .553-.22 1.082-.61 1.473-.391.391-.921.61-1.473.61z" fill="#272727"/><path d="M11.271 15.417c.276 0 .541-.11.736-.305.195-.195.305-.46.305-.737 0-.276.11-.541.305-.737.195-.195.46-.305.737-.305.276 0 .541.11.737.305.195.195.305.46.305.737v2.51c.123.079.239.169.344.271.545.529 1.127 1.02 1.74 1.469v-4.25c0-.829-.329-1.624-.915-2.21-.586-.586-1.381-.915-2.21-.915s-1.624.329-2.21.915c-.586.586-.915 1.381-.915 2.21 0 .276.11.541.305.737.195.195.46.305.737.305zM37.125 17.021l.188-.125v-2.521c0-.276.11-.541.305-.737.195-.195.46-.305.737-.305.276 0 .541.11.737.305.195.195.305.46.305.737 0 .276.11.541.305.737.195.195.46.305.736.305.276 0 .541-.11.737-.305.195-.195.305-.46.305-.737 0-.829-.329-1.624-.915-2.21-.586-.586-1.381-.915-2.21-.915s-1.624.329-2.21.915c-.586.586-.915 1.381-.915 2.21v3.917c.662-.377 1.295-.802 1.896-1.271z" fill="#239896"/><path d="M19.604 14.375c-.276 0-.541-.11-.737-.305-.195-.195-.305-.46-.305-.737v-1.042c0-.276.11-.541.305-.737.195-.195.46-.305.737-.305.276 0 .541.11.737.305.195.195.305.46.305.737v1.042c0 .276-.11.541-.305.737-.195.195-.46.305-.737.305zM32.104 14.375c-.136-.002-.271-.03-.396-.083-.126-.053-.243-.127-.344-.219-.145-.147-.242-.333-.281-.535-.039-.202-.017-.411.063-.601.053-.126.127-.242.219-.344.097-.098.212-.175.339-.228.127-.053.263-.08.401-.08s.274.027.401.08c.127.053.242.13.339.228.092.101.166.218.219.344.08.19.102.399.063.601-.039.202-.137.388-.281.535-.101.092-.218.166-.344.219-.125.053-.26.082-.396.083z" fill="#78787A"/><path d="M23.771 16.458c.276 0 .541-.11.736-.305.195-.195.305-.46.305-.736v-1.042c0-.276.11-.541.305-.737.195-.195.46-.305.737-.305.276 0 .541.11.737.305.195.195.305.46.305.737v3.438l.208.104 1.875 1.406v-4.948c0-.829-.329-1.624-.915-2.21-.586-.586-1.381-.915-2.21-.915s-1.624.329-2.21.915c-.586.586-.915 1.381-.915 2.21v1.042c0 .276.11.541.305.736.195.195.46.305.737.305z" fill="#50D9D7"/><path d="M19.604 19.583c-.276 0-.541-.11-.737-.305-.195-.195-.305-.46-.305-.736v-2.083c0-.276.11-.541.305-.737.195-.195.46-.305.737-.305.276 0 .541.11.737.305.195.195.305.46.305.737v2.083c0 .276-.11.541-.305.736-.195.195-.46.305-.737.305zM33.146 19.365v-2.906c0-.276-.11-.541-.305-.737-.195-.195-.46-.305-.737-.305-.276 0-.541.11-.737.305-.195.195-.305.46-.305.737v3.729c.729-.26 1.427-.531 2.083-.823z" fill="#87D4F6"/></svg>