<svg width="50" height="50" viewBox="0 0 50 50" xmlns="http://www.w3.org/2000/svg" fill="none"><path d="M40.625 29.018v-4.018c0-2.216-1.752-4.018-3.906-4.018h-7.813v-6.027c0-2.216-1.752-4.018-3.906-4.018h-2.93c-.539 0-.977.45-.977 1.005v4.755c-3.693 6.736-3.906 6.802-3.906 7.298v14.063c0 .554.438 1.005.977 1.005h15.674c1.543 0 2.945-.938 3.568-2.387 3.236-7.556 3.219-7.274 3.219-7.658z" fill="#26C6DA"/><path d="M10.417 39.063h5.208v-15.625h-5.208c-.575 0-1.042.438-1.042.977v13.672c0 .539.467.977 1.042.977z" fill="#fff"/></svg>