<svg width="74" height="74" viewBox="0 0 74 74" fill="none" xmlns="http://www.w3.org/2000/svg">
<g id="Competitions">
<path id="Vector" d="M63.8385 55.2314H62.3457V34.5963C62.3457 34.0921 61.9372 33.6836 61.433 33.6836H46.1842V26.0353C46.1842 25.5311 45.7769 25.1226 45.2727 25.1226H29.1124C28.6082 25.1226 28.1997 25.5311 28.1997 26.0353V39.7445H12.951C12.448 39.7445 12.0395 40.153 12.0395 40.6561V55.2314H10.1616C9.6585 55.2314 9.25 55.6399 9.25 56.1441V61.4347C9.25 61.9378 9.6585 62.3463 10.1616 62.3463H63.8385C64.3415 62.3463 64.75 61.9378 64.75 61.4347V56.1441C64.75 55.6399 64.3415 55.2314 63.8385 55.2314ZM46.1843 35.5078H60.5215V55.2314H46.1843V35.5078ZM30.024 26.9468H44.3612V55.2314H30.024V26.9468ZM13.8637 41.5688H28.1998V55.2314H13.8637V41.5688ZM62.9257 60.522H11.0743V57.0556H62.9258L62.9257 60.522Z" fill="#333333"/>
<path id="Vector_2" d="M62.9257 57.0557H11.0742V60.5221H62.9257V57.0557Z" fill="#11B3B0"/>
<path id="Vector_3" d="M60.5208 55.2314H46.1836V35.5078C46.1836 46.4101 52.5959 55.2314 60.5208 55.2314Z" fill="#11B3B0"/>
<path id="Vector_4" d="M44.3606 26.9468V55.2313C36.4357 55.2313 30.0234 42.5806 30.0234 26.9468H44.3606Z" fill="#50D9D7"/>
<path id="Vector_5" d="M44.3606 55.2314H30.0234V26.9468C30.0234 42.5807 36.4357 55.2314 44.3606 55.2314Z" fill="#11B3B0"/>
<path id="Vector_6" d="M28.1993 41.5688V55.2314C20.2756 55.2314 13.8633 49.1203 13.8633 41.5688H28.1993Z" fill="#50D9D7"/>
<path id="Vector_7" d="M28.1993 55.2314H13.8633V41.5688C13.8633 49.1203 20.2756 55.2314 28.1993 55.2314Z" fill="#11B3B0"/>
<path id="Vector_8" d="M19.7188 37.6389C17.6127 37.639 15.5286 36.348 15.2537 36.1716C14.8198 35.893 14.6937 35.3154 14.9723 34.8815C15.2507 34.4475 15.8282 34.3214 16.2624 34.5999C16.9646 35.0478 19.0934 36.1129 20.4772 35.6626C21.013 35.4881 21.3993 35.0825 21.6581 34.4224C22.0434 33.44 21.7686 33.0348 21.6782 32.9016C21.0786 32.0176 19.1179 31.8097 18.4784 31.8065C18.1094 31.8047 17.7752 31.5857 17.627 31.2476C17.4789 30.9097 17.5428 30.5161 17.7915 30.2435L20.4118 27.3713H16.3027C15.7871 27.3713 15.369 26.9533 15.369 26.4376C15.369 25.9219 15.7871 25.5039 16.3027 25.5039H22.5275C22.8973 25.5039 23.2323 25.7223 23.3817 26.0607C23.5311 26.3991 23.4665 26.7937 23.2173 27.0669L20.3866 30.1698C21.4 30.4061 22.5635 30.8839 23.2207 31.8489C23.6412 32.4664 24.0131 33.5325 23.3968 35.1042C22.9337 36.285 22.1222 37.0927 21.0501 37.44C20.617 37.5803 20.1672 37.6389 19.7188 37.6389ZM37 24.1812C36.4844 24.1812 36.0663 23.7632 36.0663 23.2475V13.8859L33.3408 14.8007C32.8516 14.9651 32.3225 14.7015 32.1585 14.2126C31.9943 13.7237 32.2576 13.1944 32.7465 13.0304L36.7029 11.7024C36.988 11.6067 37.3013 11.6541 37.5452 11.8295C37.7891 12.005 37.9338 12.2871 37.9338 12.5876V23.2475C37.9338 23.7632 37.5157 24.1812 37 24.1812ZM57 30.9131H50.2424C49.7268 30.9131 49.3087 30.4951 49.3087 29.9794C49.3087 29.5544 49.5927 29.1957 49.9812 29.0827C50.3252 28.8857 51.6108 27.8956 53.024 26.5641C54.9492 24.7504 55.5417 23.7815 55.586 23.5226C55.7369 22.4885 55.1579 21.1384 54.0855 20.856C52.7698 20.5089 51.2062 22.0502 50.3917 22.9995C50.056 23.3909 49.4665 23.4361 49.0751 23.1002C48.6837 22.7645 48.6386 22.175 48.9744 21.7836C50.8995 19.5398 52.8316 18.5947 54.5611 19.0501C56.6814 19.6086 57.7032 21.9469 57.4337 23.793C57.3823 24.1455 57.2258 25.2179 54.0863 28.1273C53.7488 28.44 53.4014 28.7504 53.059 29.0456H57C57.5157 29.0456 57.9338 29.4636 57.9338 29.9793C57.9337 30.4951 57.5157 30.9131 57 30.9131Z" fill="#E96464"/>
<path id="Vector_9" d="M60.5208 35.5078V55.2314C52.5959 55.2314 46.1836 46.4101 46.1836 35.5078H60.5208Z" fill="#50D9D7"/>
</g>
</svg>
