<svg width="64" height="64" viewBox="0 0 64 64" fill="none" xmlns="http://www.w3.org/2000/svg">
<g id="Premium Service">
<path id="Vector" d="M61.2 41.4C60.2 40.1 58.4 39.9 57.1 40.9L44.7 50C44.9 48.6 43.9 47.4 42.5 47.2C42.5 47.2 33.2 46 30.2 45.1C27.1 44.3 21.6 40.9 18.4 40.6C14.8 40.2 4 40.6 4 40.6V54.5C4 54.5 12.8 55.1 16.1 56C21.6 57.6 32.5 63.9 38.2 62.9C45.2 61.7 60.8 45.7 60.8 45.7C62 44.7 62.3 42.7 61.2 41.4Z" fill="#F5F5F5"/>
<path id="Vector_2" d="M10.1992 60.6002H4.89922C3.39922 60.6002 2.19922 59.4002 2.19922 57.9002V37.4002C2.19922 35.9002 3.39922 34.7002 4.89922 34.7002H10.1992C11.6992 34.7002 12.8992 35.9002 12.8992 37.4002V57.9002C12.8992 59.4002 11.6992 60.6002 10.1992 60.6002Z" fill="#E3ECFF"/>
<path id="Vector_3" d="M30.7004 50.8999L41.9004 52.1999C43.3004 52.3999 44.5004 51.3999 44.7004 49.9999C44.9004 48.5999 43.9004 47.3999 42.5004 47.1999C42.5004 47.1999 33.2004 45.9999 30.2004 45.0999C27.1004 44.2999 21.6004 40.8999 18.4004 40.5999C17.8004 40.4999 16.9004 40.4999 15.9004 40.3999" stroke="#333333" stroke-width="1.5" stroke-miterlimit="10" stroke-linecap="round" stroke-linejoin="round"/>
<path id="Vector_4" d="M47.5992 47.9002L56.9992 40.9002C58.2992 39.9002 60.0992 40.2002 61.0992 41.4002C62.0992 42.7002 61.8992 44.6002 60.5992 45.6002C60.5992 45.6002 44.9992 61.6002 37.9992 62.8002C32.2992 63.8002 21.4992 57.5002 15.8992 55.9002M10.1992 60.6002H4.89922C3.39922 60.6002 2.19922 59.4002 2.19922 57.9002V37.4002C2.19922 35.9002 3.39922 34.7002 4.89922 34.7002H10.1992C11.6992 34.7002 12.8992 35.9002 12.8992 37.4002V57.9002C12.8992 59.4002 11.6992 60.6002 10.1992 60.6002Z" stroke="#333333" stroke-width="1.5" stroke-miterlimit="10" stroke-linecap="round" stroke-linejoin="round"/>
<path id="Vector_5" d="M52.4003 25.4002L53.9003 11.5002C54.1003 10.0002 52.4003 9.10015 51.2003 10.1002L43.7003 16.3002C42.9003 16.9002 41.7003 16.7002 41.2003 15.8002L37.9003 10.0002C37.3003 9.00015 35.7003 9.00015 35.0003 10.1002L31.7003 15.9002C31.2003 16.8002 30.0003 17.0002 29.2003 16.4002L21.7003 10.2002C20.6003 9.30015 18.9003 10.2002 19.0003 11.6002L20.5003 25.5002C20.6003 26.3002 21.3003 27.0002 22.1003 27.0002H50.6003C51.6003 26.9002 52.3003 26.3002 52.4003 25.4002ZM21.1003 33.0002V34.8002C21.1003 35.7002 21.8003 36.4002 22.7003 36.4002H50.0003C50.9003 36.4002 51.6003 35.7002 51.6003 34.8002V33.0002C51.6003 32.1002 50.9003 31.4002 50.0003 31.4002H22.8003C21.9003 31.3002 21.1003 32.1002 21.1003 33.0002Z" fill="#50D9D7" stroke="#333333" stroke-width="1.5" stroke-miterlimit="10"/>
<path id="Vector_6" d="M55.0004 5.2C56.1602 5.2 57.1004 4.2598 57.1004 3.1C57.1004 1.9402 56.1602 1 55.0004 1C53.8406 1 52.9004 1.9402 52.9004 3.1C52.9004 4.2598 53.8406 5.2 55.0004 5.2Z" fill="#50D9D7" stroke="#333333" stroke-width="1.5" stroke-miterlimit="10"/>
<path id="Vector_7" d="M36.5004 5.2C37.6602 5.2 38.6004 4.2598 38.6004 3.1C38.6004 1.9402 37.6602 1 36.5004 1C35.3406 1 34.4004 1.9402 34.4004 3.1C34.4004 4.2598 35.3406 5.2 36.5004 5.2Z" fill="#50D9D7" stroke="#333333" stroke-width="1.5" stroke-miterlimit="10"/>
<path id="Vector_8" d="M17.9008 5.2C19.0606 5.2 20.0008 4.2598 20.0008 3.1C20.0008 1.9402 19.0606 1 17.9008 1C16.741 1 15.8008 1.9402 15.8008 3.1C15.8008 4.2598 16.741 5.2 17.9008 5.2Z" fill="#50D9D7" stroke="#333333" stroke-width="1.5" stroke-miterlimit="10"/>
</g>
</svg>
