<svg width="64" height="64" viewBox="0 0 64 64" fill="none" xmlns="http://www.w3.org/2000/svg">
<g id="T Shirt Printing">
<path id="Vector" d="M27.8183 31.6393C25.1485 30.4383 22.4781 29.2379 19.8071 28.038C19.6951 27.9876 19.5945 27.915 19.5115 27.8245C19.4284 27.734 19.3647 27.6275 19.3242 27.5116C19.2836 27.3956 19.2671 27.2727 19.2756 27.1501C19.2841 27.0276 19.3175 26.9081 19.3738 26.7989C21.5623 22.5451 23.7505 18.2909 25.9386 14.0361" fill="#1D5352"/>
<path id="Vector_2" d="M56.4001 14.0391C58.5869 18.2927 60.7744 22.5461 62.9625 26.7991C63.0186 26.9083 63.052 27.0278 63.0605 27.1503C63.069 27.2729 63.0524 27.3958 63.0118 27.5118C62.9712 27.6277 62.9075 27.7341 62.8244 27.8246C62.7414 27.9151 62.6408 27.9877 62.5287 28.0381L54.5205 31.6386C54.228 25.71 54.8622 19.7721 56.4001 14.0391Z" fill="#00B0AE"/>
<path id="Vector_3" d="M54.49 32.1361C54.0749 39.262 54.0536 46.4054 54.4263 53.5336C54.4325 53.6561 54.4137 53.7786 54.3711 53.8936C54.3285 54.0086 54.2629 54.1138 54.1783 54.2027C54.0938 54.2915 53.9921 54.3623 53.8793 54.4106C53.7666 54.4589 53.6452 54.4837 53.5225 54.4836H28.815C28.6923 54.4837 28.5709 54.4589 28.4582 54.4106C28.3454 54.3623 28.2437 54.2915 28.1592 54.2027C28.0746 54.1138 28.009 54.0086 27.9664 53.8936C27.9238 53.7786 27.905 53.6561 27.9112 53.5336C28.2839 46.4054 28.2626 39.262 27.8475 32.1361C27.4987 26.1411 26.8938 20.5374 26.1375 15.3711C26.0725 14.9224 26.0058 14.4774 25.9375 14.0361L26.0588 13.9711H26.06L30.33 11.7261L30.3312 11.7249L30.6737 11.5449L32.9388 10.3524L34.5275 9.51611C35.2717 9.89621 36.0486 10.2087 36.8488 10.4499C39.0175 11.1024 40.8125 11.0624 41.98 11.0261C42.9812 10.9961 43.92 10.9611 45.135 10.6311C46.071 10.3762 46.9701 10.0014 47.81 9.51611L56.4 14.0361C55.5513 19.5674 54.8688 25.6211 54.49 32.1361Z" fill="#50D9D7"/>
<path id="Vector_4" d="M31.4923 12.8936L26.1373 15.3711L21.276 17.6199L15.4048 14.3799L16.0035 10.6024L16.1723 9.53613C16.5448 9.64738 16.9548 9.75988 17.401 9.86613C17.6535 9.92738 17.9185 9.98613 18.1935 10.0424C19.7656 10.3627 21.3667 10.5186 22.971 10.5074C25.1674 10.4927 27.3505 10.1657 29.4548 9.53613L30.5773 11.3861L30.6735 11.5449L31.4923 12.8936ZM9.48229 31.6391C6.81254 30.4382 4.14221 29.2378 1.47129 28.0379C1.35926 27.9875 1.25865 27.9149 1.1756 27.8244C1.09255 27.7339 1.02881 27.6274 0.988246 27.5115C0.947685 27.3955 0.93116 27.2726 0.939678 27.15C0.948197 27.0275 0.98158 26.908 1.03779 26.7988C3.22629 22.545 5.41459 18.2908 7.60267 14.036C8.30079 16.9975 8.80763 20.0008 9.12004 23.0274C9.41527 25.888 9.53625 28.7639 9.48229 31.6391Z" fill="#00B0AE"/>
<path id="Vector_5" d="M39.9402 14.0391C42.127 18.2927 44.3145 22.5461 46.5027 26.7991C46.5588 26.9083 46.5922 27.0278 46.6006 27.1503C46.6091 27.2729 46.5926 27.3958 46.552 27.5118C46.5114 27.6277 46.4476 27.7341 46.3646 27.8246C46.2815 27.9151 46.1809 27.9877 46.0689 28.0381C43.3992 29.2382 40.7298 30.4384 38.0605 31.6386C37.9187 25.7153 38.5506 19.7988 39.9402 14.0391Z" fill="#1D5352"/>
<path id="Vector_6" d="M38.0278 32.1363C37.6131 39.2618 37.5922 46.4047 37.9653 53.5325C37.9715 53.6551 37.9528 53.7777 37.9102 53.8928C37.8676 54.0078 37.802 54.1131 37.7175 54.2021C37.633 54.291 37.5312 54.3619 37.4185 54.4103C37.3057 54.4587 37.1843 54.4837 37.0616 54.4838H12.3528C12.2301 54.4838 12.1087 54.4589 11.996 54.4104C11.8832 54.362 11.7816 54.2912 11.6971 54.2021C11.6127 54.1131 11.5472 54.0079 11.5048 53.8927C11.4624 53.7776 11.4438 53.6551 11.4503 53.5325C11.823 46.4047 11.8017 39.2618 11.3866 32.1363C11.0066 25.6213 10.3241 19.5675 9.47656 14.0363L16.0028 10.6025L16.4353 10.375C16.9116 11.5913 18.2741 13.7025 22.0328 14.0363H23.6316C23.6778 14.0325 23.7228 14.0275 23.7678 14.0225C23.8141 14.0275 23.8603 14.0325 23.9078 14.0363H25.5066C25.6966 14.02 25.8803 13.9975 26.0578 13.9713H26.0591C28.2778 13.6538 29.5753 12.6813 30.3291 11.7263L30.3303 11.725C30.4203 11.6113 30.5016 11.4988 30.5766 11.3863L30.6728 11.545L32.0003 10.8463L32.9378 10.3525L39.9378 14.0363C39.0903 19.5675 38.4078 25.6213 38.0278 32.1363Z" fill="#1D5352"/>
<path id="Vector_7" d="M38.0652 14.0391C40.252 18.2927 42.4395 22.5461 44.6277 26.7991C44.6838 26.9083 44.7172 27.0278 44.7256 27.1503C44.7341 27.2729 44.7176 27.3958 44.677 27.5118C44.6364 27.6277 44.5726 27.7341 44.4896 27.8246C44.4065 27.9151 44.3059 27.9877 44.1939 28.0381C41.5242 29.2382 38.8548 30.4384 36.1855 31.6386C36.0437 25.7153 36.6756 19.7988 38.0652 14.0391Z" fill="#00B0AE"/>
<path id="Vector_8" d="M36.1528 32.1361C35.7381 39.2616 35.7172 46.4046 36.0903 53.5324C36.0965 53.6549 36.0778 53.7775 36.0352 53.8926C35.9926 54.0077 35.927 54.1129 35.8425 54.2019C35.758 54.2909 35.6562 54.3617 35.5435 54.4101C35.4307 54.4586 35.3093 54.4836 35.1866 54.4836H10.4778C10.3551 54.4836 10.2337 54.4587 10.121 54.4103C10.0082 54.3618 9.90655 54.291 9.8221 54.202C9.73766 54.113 9.67223 54.0077 9.6298 53.8926C9.58737 53.7774 9.56883 53.6549 9.57531 53.5324C9.94797 46.4045 9.92669 39.2616 9.51156 32.1361C9.13156 25.6211 8.44906 19.5674 7.60156 14.0361L16.1916 9.51611C16.2399 9.8107 16.3217 10.0988 16.4353 10.3749C16.9116 11.5911 18.2741 13.7024 22.0328 14.0361H23.6316C23.6778 14.0324 23.7228 14.0274 23.7678 14.0224C28.9716 13.4936 29.4741 9.51611 29.4741 9.51611L32.0003 10.8461L38.0628 14.0361C37.2153 19.5674 36.5328 25.6211 36.1528 32.1361Z" fill="#50D9D7"/>
<path id="Vector_9" d="M22.8404 36.1807H22.8272C22.5785 36.1806 22.3401 36.0816 22.1644 35.9057C21.9887 35.7298 21.8901 35.4913 21.8902 35.2426C21.8904 34.994 21.9893 34.7556 22.1652 34.5799C22.3411 34.4042 22.5796 34.3056 22.8283 34.3057H22.8414C22.9645 34.3058 23.0864 34.3301 23.2001 34.3773C23.3139 34.4244 23.4172 34.4936 23.5042 34.5807C23.5912 34.6678 23.6602 34.7711 23.7072 34.8849C23.7543 34.9987 23.7785 35.1206 23.7784 35.2437C23.7783 35.3668 23.754 35.4887 23.7069 35.6024C23.6597 35.7162 23.5906 35.8195 23.5035 35.9065C23.4164 35.9935 23.313 36.0625 23.1992 36.1095C23.0854 36.1566 22.9635 36.1808 22.8404 36.1807ZM19.3433 35.2512C19.1802 35.2512 19.0199 35.2087 18.8783 35.1278L18.851 35.1121C18.6574 34.9932 18.5132 34.8082 18.4453 34.5913C18.3774 34.3744 18.3902 34.1403 18.4814 33.9321C18.5727 33.724 18.7361 33.5559 18.9416 33.4588C19.1471 33.3618 19.3808 33.3424 19.5995 33.4042C19.8182 33.466 20.0072 33.6049 20.1315 33.7951C20.2558 33.9854 20.3071 34.2142 20.2758 34.4393C20.2446 34.6644 20.133 34.8706 19.9616 35.0199C19.7902 35.1691 19.5706 35.2513 19.3433 35.2512ZM26.327 35.2496C26.121 35.2499 25.9207 35.1823 25.7569 35.0573C25.5932 34.9323 25.4752 34.7569 25.4211 34.5581C25.3671 34.3594 25.38 34.1483 25.4579 33.9576C25.5357 33.7669 25.6743 33.6072 25.852 33.5031L25.867 33.4945C26.0821 33.3726 26.3365 33.3405 26.575 33.4053C26.8136 33.4701 27.0169 33.6264 27.1407 33.8403C27.2646 34.0542 27.2989 34.3084 27.2363 34.5475C27.1737 34.7866 27.0192 34.9913 26.8064 35.1171L26.3367 34.3058L26.8003 35.1207C26.6568 35.2051 26.4934 35.2495 26.327 35.2495V35.2496ZM16.7768 32.6966C16.6122 32.6968 16.4505 32.6536 16.308 32.5715C16.1654 32.4894 16.0469 32.3711 15.9645 32.2287L16.7758 31.759L15.961 32.2226C15.8372 32.0082 15.8031 31.7535 15.8664 31.5141C15.9296 31.2747 16.085 31.07 16.2986 30.9448C16.5123 30.8196 16.7667 30.7839 17.0065 30.8457C17.2463 30.9074 17.452 31.0615 17.5785 31.2743L17.5873 31.2892C17.6697 31.4317 17.7132 31.5933 17.7134 31.7579C17.7136 31.9225 17.6705 32.0843 17.5883 32.2269C17.5062 32.3696 17.3879 32.4881 17.2455 32.5705C17.103 32.653 16.9414 32.6965 16.7768 32.6967V32.6966ZM28.8905 32.6947C28.6823 32.6958 28.4795 32.6282 28.3135 32.5025C28.1475 32.3767 28.0275 32.1998 27.9722 31.999C27.9168 31.7982 27.9292 31.5848 28.0073 31.3918C28.0854 31.1987 28.225 31.0368 28.4044 30.931C28.5838 30.8253 28.793 30.7815 28.9998 30.8066C29.2065 30.8317 29.3992 30.9242 29.5481 31.0698C29.697 31.2155 29.7938 31.4061 29.8234 31.6122C29.8531 31.8183 29.814 32.0285 29.7123 32.2102L29.6965 32.2373C29.6134 32.3769 29.4954 32.4925 29.3541 32.5727C29.2127 32.6529 29.053 32.6949 28.8905 32.6947ZM29.834 29.1997C29.5854 29.1997 29.3469 29.1009 29.1711 28.9251C28.9953 28.7493 28.8965 28.5109 28.8965 28.2622L28.8967 28.2472V28.2466L28.8965 28.2205C28.8965 27.9718 28.9953 27.7334 29.1711 27.5575C29.3469 27.3817 29.5854 27.283 29.834 27.283C30.0827 27.283 30.3211 27.3817 30.4969 27.5575C30.6728 27.7334 30.7715 27.9718 30.7715 28.2205H30.7712V28.223H30.7715V28.2622C30.7715 28.5109 30.6728 28.7493 30.4969 28.9251C30.3211 29.1009 30.0827 29.1997 29.834 29.1997ZM15.832 29.196C15.7093 29.1966 15.5876 29.1731 15.4739 29.1266C15.3603 29.0801 15.2569 29.0116 15.1698 28.9251C15.0827 28.8386 15.0136 28.7357 14.9663 28.6224C14.9191 28.509 14.8947 28.3875 14.8945 28.2647V28.2525C14.8957 28.0673 14.9518 27.8867 15.0555 27.7333C15.1592 27.5799 15.3061 27.4607 15.4775 27.3907C15.6489 27.3207 15.8372 27.303 16.0187 27.3399C16.2001 27.3767 16.3666 27.4665 16.4971 27.5978C16.6276 27.7292 16.7163 27.8962 16.7519 28.0779C16.7876 28.2596 16.7687 28.4478 16.6976 28.6188C16.6264 28.7897 16.5063 28.9358 16.3522 29.0385C16.1982 29.1413 16.0172 29.1961 15.832 29.1961V29.196ZM16.7608 25.7077C16.5963 25.7076 16.4348 25.6643 16.2924 25.5821C16.15 25.5 16.0316 25.3818 15.9491 25.2396C15.8667 25.0973 15.823 24.9359 15.8225 24.7714C15.8221 24.607 15.8648 24.4453 15.9464 24.3026L15.9623 24.2753C16.0484 24.1367 16.1692 24.0229 16.3128 23.9453C16.4564 23.8677 16.6177 23.8289 16.7809 23.8327C16.9441 23.8366 17.1034 23.883 17.2432 23.9673C17.3829 24.0516 17.4982 24.171 17.5777 24.3135C17.6572 24.4561 17.6981 24.6169 17.6963 24.7802C17.6946 24.9434 17.6502 25.1033 17.5677 25.2441C17.4852 25.3849 17.3674 25.5018 17.2258 25.5831C17.0843 25.6644 16.924 25.7074 16.7608 25.7077ZM28.8898 25.6765C28.7261 25.6766 28.5652 25.6339 28.4232 25.5526C28.2811 25.4713 28.1628 25.3541 28.0802 25.2128L28.0714 25.198C28.0097 25.0914 27.9696 24.9738 27.9534 24.8517C27.9372 24.7297 27.9452 24.6056 27.9769 24.4866C28.0086 24.3677 28.0635 24.2561 28.1383 24.1584C28.2131 24.0606 28.3065 23.9785 28.413 23.9168C28.5196 23.8551 28.6372 23.8151 28.7593 23.7988C28.8813 23.7826 29.0054 23.7906 29.1243 23.8223C29.2433 23.854 29.3549 23.9089 29.4526 23.9837C29.5504 24.0586 29.6325 24.1519 29.6942 24.2585L28.8829 24.7282L29.6977 24.2646C29.7811 24.407 29.8254 24.5688 29.8263 24.7338C29.8271 24.8988 29.7844 25.0611 29.7024 25.2043C29.6205 25.3476 29.5022 25.4666 29.3595 25.5495C29.2168 25.6324 29.0548 25.6761 28.8898 25.6763V25.6765ZM19.3175 23.1392C19.1112 23.1393 18.9106 23.0714 18.7468 22.9459C18.5829 22.8204 18.4651 22.6444 18.4115 22.4452C18.3579 22.2459 18.3715 22.0345 18.4503 21.8438C18.529 21.6531 18.6685 21.4936 18.847 21.3902L19.3167 22.2015L18.853 21.3866C19.0674 21.2627 19.3221 21.2287 19.5615 21.2919C19.8009 21.3552 20.0056 21.5106 20.1308 21.7242C20.256 21.9378 20.2917 22.1923 20.2299 22.4321C20.1682 22.6719 20.0141 22.8775 19.8013 23.0041L19.7864 23.0128C19.644 23.0955 19.4823 23.1391 19.3177 23.1391L19.3175 23.1392ZM26.321 23.1233C26.1564 23.1234 25.9947 23.0798 25.8523 22.9971C25.6369 22.8727 25.4794 22.6683 25.4141 22.4283C25.3487 22.1884 25.3809 21.9323 25.5035 21.716C25.5639 21.6093 25.6447 21.5157 25.7413 21.4403C25.8379 21.365 25.9484 21.3094 26.0665 21.2767C26.1846 21.2441 26.3079 21.2351 26.4295 21.2502C26.5511 21.2653 26.6685 21.3042 26.775 21.3647L26.7917 21.3743C26.9702 21.4778 27.1097 21.6372 27.1884 21.8279C27.2672 22.0187 27.2808 22.2301 27.2272 22.4293C27.1736 22.6286 27.0557 22.8046 26.8919 22.9301C26.728 23.0556 26.5274 23.1235 26.321 23.1233ZM22.811 22.1943C22.5624 22.1943 22.3239 22.0956 22.1481 21.9198C21.9723 21.7439 21.8735 21.5055 21.8735 21.2568C21.8735 21.0082 21.9723 20.7697 22.1481 20.5939C22.3239 20.4181 22.5624 20.3193 22.811 20.3193V21.2568L22.8135 20.3193H22.8162C23.0629 20.3195 23.2995 20.417 23.4749 20.5905C23.6502 20.7641 23.7501 20.9997 23.7528 21.2464C23.7556 21.4931 23.661 21.7309 23.4896 21.9083C23.3181 22.0857 23.0837 22.1884 22.837 22.1941L22.811 22.1943Z" fill="white"/>
</g>
</svg>
