<svg width="450" height="410" viewBox="0 0 450 410" xmlns="http://www.w3.org/2000/svg" fill="none"><path d="M313.65 79.273c8.55-4.757 21.874 4.95 27.765 10.4 6.885 6.336 12.438 14.4 16.708 22.703 19.391 37.692 29.583 82.534 13.649 123.376-5.366 13.827-13.739 26.288-24.512 36.482-6.057 5.701-18.522 11.079-20.34 19.8-.389 2.165-.235 4.393.45 6.484 2.408 7.992 9.675 13.532 15.228 19.35 26.663 27.995 7.385 71.393-21.123 90.095M104.339 224.782c8.325-8.843 18.963-14.819 29.659-20.318 11.583-5.953 22.982-11.947 33.512-19.678 6.411-4.697 12.476-9.848 18.148-15.413M90.826 336.782c-10.638-27.482-13.338-58.982-2.241-86.432" stroke="#DADADA" stroke-width="2" stroke-miterlimit="10"/><path d="M230.222 52.693v-29.457c0-2.029-.806-3.975-2.241-5.409-1.434-1.435-3.38-2.241-5.409-2.241h-97.547c-2.029 0-3.974.806-5.409 2.241-1.435 1.435-2.241 3.38-2.241 5.409v138.52c.009 2.023.819 3.96 2.252 5.388 1.434 1.428 3.375 2.23 5.398 2.23h97.56c.948.007 1.887-.173 2.763-.531" stroke="#DADADA" stroke-width="2" stroke-linecap="round" stroke-linejoin="round"/><path d="M219.476 20.265h-91.337c-4.043 0-7.321 3.278-7.321 7.321v129.812c0 4.043 3.278 7.321 7.321 7.321h91.337c4.044 0 7.321-3.278 7.321-7.321v-129.812c0-4.043-3.277-7.321-7.321-7.321zM218.054 31.443h-87.336c-2.023 0-3.663 1.64-3.663 3.663v19.719c0 2.023 1.64 3.663 3.663 3.663h87.336c2.023 0 3.663-1.64 3.663-3.663v-19.719c0-2.023-1.64-3.663-3.663-3.663z" fill="#3FBDF1"/><path d="M173.805 42.838c1.546 0 2.799-1.253 2.799-2.799s-1.253-2.799-2.799-2.799c-1.545 0-2.799 1.253-2.799 2.799s1.254 2.799 2.799 2.799zM165.989 52.693c0-2.073.823-4.061 2.289-5.527 1.466-1.466 3.454-2.289 5.527-2.289s4.062.824 5.527 2.289c1.466 1.466 2.29 3.454 2.29 5.527h-15.633zM174.377 87.473c-2.982-.002-5.898.881-8.379 2.537-2.48 1.656-4.414 4.01-5.556 6.765-1.142 2.755-1.441 5.786-.86 8.711.582 2.926 2.018 5.613 4.126 7.722 2.109 2.108 4.796 3.544 7.721 4.126 2.925.581 5.957.282 8.712-.86s5.109-3.076 6.765-5.557c1.656-2.48 2.539-5.396 2.537-8.378-.001-3.996-1.589-7.827-4.414-10.652-2.825-2.825-6.657-4.413-10.652-4.414zm0 26.496c-.584 0-1.144-.232-1.556-.644-.413-.414-.645-.973-.645-1.557 0-.583.232-1.143.645-1.556.412-.412.972-.644 1.556-.644.584 0 1.143.232 1.556.644.413.413.644.973.644 1.556 0 .584-.231 1.143-.644 1.557-.413.412-.972.644-1.556.644zm2.79-16.943c-.473 3.267-.873 6.71-1.832 9.9-.234.756-1.669.756-1.903 0-.689-2.389-1.218-4.821-1.584-7.281-.293-1.8-1.35-4.68-.338-6.426.873-1.548 3.353-1.741 4.784-.931 1.773 1.013 1.093 3.114.873 4.739z" fill="#D7E8F0"/><path d="M174.377 113.968c1.215 0 2.2-.985 2.2-2.201 0-1.215-.985-2.2-2.2-2.2-1.216 0-2.201.985-2.201 2.2 0 1.216.985 2.201 2.201 2.201zM177.167 97.026c-.473 3.267-.873 6.71-1.832 9.9-.234.756-1.669.756-1.903 0-.689-2.389-1.218-4.821-1.584-7.281-.293-1.8-1.35-4.68-.338-6.426.873-1.548 3.353-1.741 4.784-.931 1.773 1.013 1.093 3.114.873 4.739z" fill="#fff"/><path d="M136.523 70.566h73.602M136.523 77.806h73.602M136.523 124.462h73.602" stroke="#fff" stroke-width="2" stroke-miterlimit="10"/><path d="M228.044 143.134c.279.216.765-90.765.765-90.765l-27.689-10.701s-20.583 50.45-19.336 50.958l5.557 2.25s1.373-1.085 4.554 6.75c3.182 7.834 26.114 33.79 36.149 41.508z" fill="#fff"/><path d="M153.619 131.316h39.411" stroke="#fff" stroke-width="2" stroke-miterlimit="10"/><path d="M338.838 184.069c-.36 3.924-5.202 48.933-.508 57.722 1.701 3.181-15.183.135-16.2-.099-15.3-3.6-29.628-10.237-43.038-18.31-13.41-8.073-25.259-18.698-39.24-25.858-2.583-1.323-8.303-4.221-6.611-8.014 2.88-6.462 6.417-15.381 6.696-23.27l-.085-10.35s-2.043-6.498 4.621-.805c6.665 5.692 37.161 20.7 56.903 3.312 19.741-17.388 20.911-31.14 20.911-31.14s-12.64-30.933-48.627-12.011l12.713-32.849s-1.742-2.21 3.766-1.8c5.508.409 15.723-2.313 16.988-12.407 0 0 .099-3.294 5.926 2.934 5.828 6.228 33.368 30.55 25.785 112.945z" fill="#1D5352"/><path d="M268.089 67.546c3.088-2.264 6.546-3.974 10.22-5.053M254.41 221.132l-24.75 89.478-22.5 81.369-14.328 1.35c-3.285.302-6.339 1.821-8.563 4.257s-3.458 5.616-3.461 8.914h44.311l32.094-55.314 23.873-41.152 37.323-64.35c1.08-1.877 2.128-3.753 3.15-5.67l.027-.077M337.921 190.951c.337-2.187.634-4.374.9-6.575 0-.103 0-.193.027-.297 1.514-13.326 1.837-26.761.963-40.144v-.117c-.99-14.567-3.663-29.867-9-44.784-1.55-4.302-3.467-8.464-5.729-12.438-.166-.328-.355-.653-.562-.977-.711-1.242-1.476-2.453-2.25-3.649-1.049-1.58-2.16-3.114-3.326-4.577-1.738-2.221-3.665-4.287-5.76-6.174l-.036-.023-.022-.036c-1.557-1.378-3.211-2.641-4.95-3.78-.324-.22-.648-.427-.977-.634l-.162-.104M281.086 310.033l34.803 96.466h-50.22c0-3.134 1.137-6.161 3.201-8.519 2.065-2.358 4.915-3.887 8.022-4.301l10.93-1.463s-14.697-19.35-30.6-41.035" stroke="#DADADA" stroke-width="2" stroke-miterlimit="10"/><path d="M287.259 80.115l-15.084 38.951c-.455 1.176-1.14 2.25-2.014 3.159-.875.909-1.921 1.634-3.079 2.134-1.157.501-2.403.766-3.664.781-1.26.014-2.512-.222-3.681-.696l-35.73-14.463-.045-.148c-.45-1.8-5.067-19.053-10.665-19.053-4.297 0-2.25 8.51-.45 13.325.207.517.401 1.003.576 1.417l-.279-.117-27.976-11.403 17.644-46.512 34.448 13.306 49.999 19.319z" fill="#D7E8F0"/><path d="M213.415 105.523c-1.877-4.298-4.865-14.742-.113-14.742 5.598 0 10.211 17.266 10.665 19.053l.045.148 35.726 14.468c1.17.473 2.423.708 3.685.693 1.263-.017 2.509-.284 3.668-.786 1.157-.503 2.204-1.231 3.078-2.142.873-.911 1.557-1.987 2.011-3.165l16.808-43.425-53.424-20.651-34.443-13.306-19.35 50.958 31.644 12.897zM324.155 104.428c1.071 18.675-3.1 42.566-26.91 56.628-35.221 20.826-81.837-26.356-99.094-49.252-2.852-3.76-5.26-7.837-7.178-12.15-.581-1.255-1.069-2.551-1.458-3.879M239.541 151.858s2.7 19.67-5.625 36.392l.036-.045-.027.045c-12.78 23.971-31.077 62.212-20.871 90 3.47 9.45 9.45 20.7 16.601 32.364" stroke="#DADADA" stroke-width="2" stroke-miterlimit="10"/><path d="M301.511 37.874l.027.126c.216 2.635-.623 5.247-2.332 7.263-1.71 2.016-4.151 3.271-6.785 3.487-1.687.146-3.382-.15-4.919-.86-.44-.187-.863-.411-1.264-.67-.164-.114-.299-.267-.391-.444-.093-.178-.142-.375-.142-.575 0-.2.049-.397.142-.575.092-.178.227-.33.391-.445 1.935-1.395 3.703-3.339 4.207-5.616.151-.7.164-1.423.036-2.129-.137-.899-.508-1.745-1.075-2.456-.567-.711-1.31-1.26-2.156-1.594-.264-.078-.538-.122-.814-.131-.779-.063-1.8.036-2.003.612.994-2.792 1.035-5.835.117-8.654-.57-1.744-1.532-3.334-2.812-4.648.058.509.003 1.025-.161 1.511s-.433.929-.787 1.299c-.355.37-.787.657-1.266.841-.479.184-.992.26-1.503.223-3.965-.135-4.712-3.915-4.712-3.915v.072c-1.728 4.306-6.75 4.423-10.35 2.511-1.276-.655-2.398-1.576-3.289-2.7-1.022-4.415 2.619-8.68 6.817-9.292.09-2.808 2.138-5.814 4.901-6.044.962-.082 1.929.095 2.8.514.871.419 1.613 1.063 2.15 1.867l.229.387c1.13-1.638 2.979-3.433 4.95-3.6 1.367-.096 2.731.231 3.906.936 1.176.705 2.105 1.755 2.664 3.006 0-.193 1.733-.985 1.908-1.057 1.618-.615 3.395-.674 5.051-.168 1.655.506 3.096 1.548 4.093 2.963.101.391.167.79.198 1.193.099 1.204-.086 2.413-.54 3.532.64.182 1.237.488 1.76.9 1.13.828 1.889 2.068 2.11 3.452l.045.418c.09 1.054-.135 2.112-.648 3.038 1.331.38 2.54 1.101 3.507 2.092.966.99 1.658 2.216 2.006 3.556.11.443.183.895.22 1.35.154 1.928-.399 3.846-1.556 5.396-1.157 1.55-2.838 2.626-4.73 3.028zM301.511 37.873l.027.126c.217 2.635-.622 5.248-2.332 7.264s-4.15 3.271-6.785 3.487c-1.686.146-3.382-.15-4.918-.86 1.935-1.395 3.703-3.343 4.203-5.62.177-.846.158-1.723-.057-2.56-.215-.838-.618-1.615-1.181-2.273-.138-.898-.508-1.745-1.075-2.456-.567-.711-1.31-1.261-2.156-1.594-.265-.078-.539-.122-.814-.13.266-2.814-.396-5.639-1.886-8.042-.571-1.744-1.533-3.334-2.812-4.648.058.509.003 1.025-.161 1.511s-.433.929-.788 1.299c-.355.37-.787.657-1.265.841-.479.184-.992.26-1.503.223-3.965-.135-4.712-3.915-4.712-3.915v.072c-1.728 4.306-6.75 4.423-10.35 2.511-1.277-.655-2.398-1.576-3.289-2.7-1.022-4.415 2.619-8.681 6.817-9.293.09-2.808 2.138-5.814 4.901-6.043.962-.082 1.929.095 2.8.514.871.419 1.613 1.063 2.15 1.867l.229.387c1.13-1.638 2.979-3.433 4.95-3.6 1.369-.099 2.736.227 3.914.932 1.178.705 2.11 1.756 2.67 3.01 0-.194 1.732-.986 1.908-1.058 1.618-.615 3.394-.674 5.05-.168 1.656.506 3.096 1.548 4.094 2.963.1.391.166.79.198 1.192.099 1.204-.086 2.414-.54 3.532.639.182 1.237.488 1.759.9-.082.618-.244 1.223-.481 1.8.998.292 1.895.856 2.592 1.629l.045.419c.09 1.054-.136 2.112-.648 3.038.669.191 1.311.47 1.908.828-.098.658-.311 1.293-.63 1.876 1.701.479 3.192 1.515 4.234 2.943.11.443.184.895.221 1.35.159 1.932-.391 3.856-1.549 5.41-1.157 1.555-2.842 2.634-4.738 3.036z" fill="#3FBDF1"/><path d="M266.542 28.855s5.706.081 7.015 4.896M265.07 43.283c-1.298.32-2.646.386-3.969.194-.249-.043-.483-.145-.684-.298-.2-.153-.361-.353-.468-.581-.106-.229-.156-.48-.144-.732.012-.252.084-.498.211-.715 1.188-2.011 2.412-4.001 3.744-5.913.209-.243.338-.545.369-.864 0 0-.549-5.954.653-10.521" stroke="#DADADA" stroke-width="2" stroke-miterlimit="10"/><path d="M269.56 33.922c.121-.959-.443-1.82-1.259-1.923-.816-.103-1.576.592-1.696 1.551-.121.959.443 1.82 1.259 1.923.816.103 1.576-.592 1.696-1.551z" fill="#DADADA"/><path d="M296.521 47.486c.121 1.193 5.472 9.45 10.309 18.567v.045l.284.607" stroke="#DADADA" stroke-width="2" stroke-linecap="round" stroke-linejoin="round"/><path d="M277.22 56.216l1.683 11.979" stroke="#DADADA" stroke-width="2" stroke-miterlimit="10"/><path d="M263.009 43.584s2.439 11.862 8.437 13.657c5.999 1.795 11.205-5.688 11.205-5.688M264.647 48.935c.797.466 1.697.725 2.62.755.922.03 1.838-.171 2.663-.584" stroke="#DADADA" stroke-width="2" stroke-linecap="round" stroke-linejoin="round"/><path d="M275.91 7.3c-.071-.92-.381-1.806-.9-2.57-.659-1.012-1.639-1.774-2.782-2.163-1.143-.39-2.384-.385-3.524.014-1.14.399-2.114 1.168-2.765 2.185-.652 1.017-.943 2.223-.829 3.425" stroke="#DADADA" stroke-width="2" stroke-miterlimit="10" stroke-linecap="round"/><path d="M273.588 15.491c-.113-1.3-.541-2.553-1.247-3.65-.705-1.098-1.667-2.007-2.803-2.65-5.719-3.2-13.05 3.015-11.002 9.171.72 2.142 2.434 3.699 4.387 4.734 3.6 1.913 8.64 1.8 10.35-2.511l.027-.067s.747 3.775 4.712 3.915c.512.036 1.025-.041 1.504-.225.479-.184.912-.472 1.267-.842.356-.37.625-.814.79-1.3.165-.486.221-1.002.165-1.512 3.411 3.51 4.302 8.757 2.7 13.307.292-.819 2.25-.671 2.817-.482 2.439.851 3.739 3.735 3.199 6.183-.508 2.291-2.277 4.226-4.203 5.63-.164.114-.298.266-.391.443-.093.177-.141.374-.141.574 0 .2.048.397.141.574.093.177.227.329.391.443 1.834 1.179 4.007 1.717 6.179 1.53 2.634-.217 5.073-1.471 6.783-3.486s2.549-4.626 2.334-7.26l-.027-.126c1.738-.364 3.305-1.3 4.45-2.658 1.145-1.358 1.802-3.06 1.866-4.835.065-1.775-.466-3.521-1.509-4.959-1.043-1.438-2.538-2.485-4.245-2.974.513-.926.738-1.983.648-3.038-.124-1.43-.808-2.754-1.904-3.681-1.096-.927-2.515-1.384-3.946-1.269" stroke="#DADADA" stroke-width="2" stroke-linecap="round" stroke-linejoin="round"/><path d="M275.681 4.515c1.08-1.8 2.273-2.808 4.5-2.993 1.382-.113 2.765.209 3.955.921 1.19.712 2.128 1.777 2.683 3.048-.077-.175 1.732-.999 1.917-1.071.721-.276 1.479-.443 2.25-.495 2.054-.111 4.073.577 5.633 1.918 1.56 1.342 2.542 3.234 2.741 5.282.099 1.204-.086 2.414-.54 3.533" stroke="#DADADA" stroke-width="2" stroke-linecap="square" stroke-linejoin="round"/><path d="M306.83 66.057s4.203 13.977-19.827 14.733" stroke="#DADADA" stroke-width="2" stroke-miterlimit="10"/><path d="M181.887 206.092c-.04-10.22 10.004-12.969 14.814-12.879 29.813.567 34.308-47.646 34.308-47.646" stroke="#DADADA" stroke-width="2" stroke-linecap="round" stroke-linejoin="round"/><path d="M337.921 190.95s-3.519 34.713 0 46.395c3.519 11.682-16.718 2.515-16.718 2.515" stroke="#DADADA" stroke-width="2" stroke-miterlimit="10"/><path d="M136.307 217.114h-23.395M220.133 217.114h-44.766M168.946 217.114h-26.429M168.266 206.092h-26.132M189.087 206.092h-14.107M224.948 206.092h-27.247M135.605 206.092h-4.622M167.402 205.102h6.043s6.926 6.539 0 14.022v5.229h-6.043M140.789 205.102s6.926 6.539 0 14.022v5.229M140.789 224.353h-6.043v-5.229c6.93-7.483 0-14.022 0-14.022h6.043M167.402 205.102s6.93 6.539 0 14.022v5.229M134.746 219.124h6.043M167.402 219.124h6.043M190.698 202.753c-.771.985-1.321 2.124-1.611 3.339-.381 1.796-.525 3.635-.427 5.468.027 1.8.252 3.645 1.962 4.59 2.569 1.435 5.656-.617 5.791-3.56.147-2.212.58-4.396 1.287-6.498l.086-.279M197.786 205.8c2.142-.45 5.333-1.625 6.957-4.653M183.17 217.114s1.683 4.437 5.917 4.977c4.235.54 1.557-4.977 1.557-4.977s1.755 3.888 3.879 4.018c2.124.131 3.96-1.8 3.227-4.018 0 0 .648 3.568 3.789 3.177 3.141-.392 1.845-3.177 1.845-3.177" stroke="#DADADA" stroke-width="2" stroke-linecap="round" stroke-linejoin="round"/><g opacity=".54"><path opacity=".54" d="M134.867 280.315l-3.037 43.866c-1.647 2.979-3.501 5.616-5.153 7.245-.22-.081-.45-.162-.661-.261-.405-.139-.806-.301-1.188-.45-6.156-2.7-10.8-7.726-12.195-13.401-1.224-4.99-.117-10.381-2.493-15.07-2.898-5.774-10.8-9.396-11.75-15.917-.9-6.097 4.586-11.7 3.699-17.667-1.026-6.75-9.315-10.764-10.863-17.365-.968-4.104-.104-8.811-.45-13.05-.41-4.723-1.209-9.404-2.389-13.995 12.235-.9 24.691 5.85 28.656 15.511 3.24 7.907 1.287 17.145 6.358 24.35 2.754 3.901 7.344 6.817 9.716 10.903.731 1.273 1.261 2.651 1.57 4.086l.041.279.058.405c.041.351.081.531.081.531z" fill="#1D5352"/><path opacity=".54" d="M134.89 280.298h-.023s-.04-.18-.081-.522c.038.138.065.28.081.423l.023.099z" fill="#3FBDF1"/></g><path d="M175.313 263.194c-1.611 5.692-10.26 9.153-11.308 14.989-.927 5.171 4.788 9.999 3.843 15.251-1.004 5.638-9.216 8.757-12.231 13.747-2.457 4.05-1.31 8.69-2.579 12.996-1.467 4.892-6.3 9.257-12.757 11.57-.401.144-.783.283-1.188.405l-.684.198c-2.133-1.751-4.568-4.829-6.561-8.15l3.037-43.866h.023c2.353-1.993 5.049-3.825 6.921-6.039 2.034-2.394 2.979-5.008 3.6-7.744h.009v-.302c.9-4.329.967-8.856 3.001-12.96 4.122-8.352 17.06-14.166 29.799-13.401-1.201 3.944-2.023 7.992-2.457 12.092-.369 3.627.54 7.69-.468 11.214zM145.437 266.212v.302h-.058c.031-.104.058-.203.058-.302zM145.438 266.211l-.059.302c-.603 2.736-1.548 5.35-3.6 7.744-1.872 2.214-4.567 4.05-6.921 6.039l-.022-.081c-.016-.142-.043-.284-.081-.423l-.059-.404c0-.077 0-.18-.04-.279-.31-1.435-.84-2.813-1.571-4.086-2.371-4.086-6.961-7.002-9.715-10.904 0 0 1.246-20.565 11.767-26.825 9.995-5.917 10.301 25.493 10.301 28.917zM145.437 266.212v.302h-.058c.031-.104.058-.203.058-.302zM134.867 280.216v.099s-.04-.18-.081-.522c.038.139.065.28.081.423z" fill="#3FBDF1"/><path d="M133.931 280.32c2.344-1.998 5.062-3.852 6.943-6.061 5.274-6.228 3.245-14.184 6.629-21.011 4.117-8.343 17.1-14.157 29.808-13.392-1.212 3.941-2.038 7.991-2.466 12.092-.378 3.649.526 7.717-.45 11.25-1.62 5.688-10.265 9.139-11.318 14.98-.931 5.166 4.797 9.995 3.848 15.246-1.008 5.639-9.212 8.753-12.236 13.743-2.461 4.05-1.305 8.69-2.583 13.005-1.548 5.202-6.916 9.801-13.95 11.966-.225.076-.45.153-.693.211-2.133-1.75-4.567-4.824-6.565-8.149M169.535 246.398c-18.986 20.435-27.9 63.522-31.388 85.748-.283 1.876-.54 3.6-.76 5.139" stroke="#DADADA" stroke-width="2" stroke-miterlimit="10"/><path d="M171.285 349.8l-8.748 51.543c-.206 1.413-.907 2.707-1.979 3.651-1.071.945-2.443 1.479-3.871 1.506h-45.612c-1.439-.031-2.82-.577-3.893-1.537-1.073-.961-1.767-2.274-1.957-3.701l-8.055-51.462h74.115zM179.583 344.058c-.247 3.249-2.821 5.751-5.908 5.751h-78.75c-3.055 0-5.607-2.448-5.9-5.661-.337-3.672 2.403-6.853 5.9-6.853h78.75c3.465 0 6.192 3.118 5.908 6.763zM125.741 331.435c3.38-3.357 7.515-10.827 9.351-16.934 1.508-5.035-1.152-10.215-1.759-15.376-.954-8.1 3.064-16.781-1.17-24.107-2.358-4.086-6.948-6.993-9.702-10.908-5.076-7.2-3.128-16.425-6.372-24.331-3.951-9.68-16.407-16.407-28.638-15.53 1.169 4.598 1.961 9.283 2.367 14.009.364 4.225-.508 8.932.45 13.05 1.552 6.601 9.85 10.597 10.867 17.361.9 5.98-4.599 11.574-3.694 17.662.972 6.53 8.842 10.139 11.754 15.921 2.362 4.698 1.255 10.08 2.484 15.066 1.539 6.228 6.984 11.7 14.062 14.117zM94.916 231.836c18.225 23.67 26.802 73.575 30.15 99.338.288 2.25.545 4.279.747 6.111M122.46 264.112s1.251-20.565 11.768-26.82c10.516-6.255 10.309 28.809 10.309 28.809M133.931 280.32s-2.151-11.767 1.615-23.332" stroke="#DADADA" stroke-width="2" stroke-miterlimit="10"/><path d="M375.986 217.114h-39.371M376.625 206.092h-38.75" stroke="#DADADA" stroke-width="2" stroke-linecap="round" stroke-linejoin="round"/><path d="M-63.9 408.3l522.001-1.8" stroke="#DADADA" stroke-width="2" stroke-miterlimit="10"/></svg>