<svg width="192" height="192" viewBox="0 0 192 192" xmlns="http://www.w3.org/2000/svg" fill="none"><g filter="url(#a)"><mask id="c"><path fill-rule="evenodd" clip-rule="evenodd" d="M.589 2c0-1.105.895-2 2-2h155.585c1.104 0 2 .895 2 2v46.087c0 1.03.87 1.841 1.901 1.841 16.158 0 29.257 13.099 29.257 29.257s-13.099 29.257-29.257 29.257c-1.031 0-1.901.811-1.901 1.842v46.237c0 1.104-.896 2-2 2h-45.659c-1.202 0-2.128 1.054-2.071 2.255.021.461.032.924.032 1.391 0 16.158-13.099 29.257-29.257 29.257s-29.257-13.099-29.257-29.257c0-.467.011-.93.032-1.391.056-1.201-.869-2.255-2.072-2.255h-47.333c-1.105 0-2-.896-2-2v-154.521z"/></mask><path fill-rule="evenodd" clip-rule="evenodd" d="M.589 2c0-1.105.895-2 2-2h155.585c1.104 0 2 .895 2 2v46.087c0 1.03.87 1.841 1.901 1.841 16.158 0 29.257 13.099 29.257 29.257s-13.099 29.257-29.257 29.257c-1.031 0-1.901.811-1.901 1.842v46.237c0 1.104-.896 2-2 2h-45.659c-1.202 0-2.128 1.054-2.071 2.255.021.461.032.924.032 1.391 0 16.158-13.099 29.257-29.257 29.257s-29.257-13.099-29.257-29.257c0-.467.011-.93.032-1.391.056-1.201-.869-2.255-2.072-2.255h-47.333c-1.105 0-2-.896-2-2v-154.521z" fill="url(#b)"/><path d="M110.444 160.776l.499-.024-.499.024zm47.73-161.276h-155.585v1h155.585v-1zm2.5 48.587v-46.087h-1v46.087h1zm31.158 31.099c0-16.434-13.323-29.757-29.757-29.757v1c15.882 0 28.757 12.875 28.757 28.757h1zm-29.757 29.757c16.434 0 29.757-13.323 29.757-29.757h-1c0 15.882-12.875 28.757-28.757 28.757v1zm-1.401 47.579v-46.237h-1v46.237h1zm-48.159 2.5h45.659v-1h-45.659v1zm-2.571 1.778c.021.453.032.909.032 1.368h1c0-.474-.011-.946-.033-1.415l-.999.047zm.032 1.368c0 15.882-12.875 28.757-28.757 28.757v1c16.434 0 29.757-13.323 29.757-29.757h-1zm-28.757 28.757c-15.882 0-28.757-12.875-28.757-28.757h-1c0 16.434 13.323 29.757 29.757 29.757v-1zm-28.757-28.757c0-.459.011-.915.032-1.368l-.999-.047c-.022.469-.033.941-.033 1.415h1zm-49.873-3.146h47.333v-1h-47.333v1zm-2.5-157.021v154.521h1v-154.521h-1zm112.426 156.021c-1.512 0-2.639 1.318-2.571 2.778l.999-.047c-.044-.941.68-1.731 1.572-1.731v-1zm47.159-1.5c0 .828-.672 1.5-1.5 1.5v1c1.38 0 2.5-1.12 2.5-2.5h-1zm-157.085 1.5c-.828 0-1.5-.672-1.5-1.5h-1c0 1.38 1.119 2.5 2.5 2.5v-1zm157.085-109.934c0 1.327 1.115 2.341 2.401 2.341v-1c-.775 0-1.401-.608-1.401-1.341h-1zm2.401 59.855c-1.286 0-2.401 1.015-2.401 2.342h1c0-.734.626-1.342 1.401-1.342v-1zm-109.581 52.857c.068-1.46-1.058-2.778-2.571-2.778v1c.892 0 1.616.79 1.572 1.731l.999.047zm-49.904-161.299c-1.381 0-2.5 1.119-2.5 2.5h1c0-.828.672-1.5 1.5-1.5v-1zm155.585 1c.828 0 1.5.672 1.5 1.5h1c0-1.381-1.12-2.5-2.5-2.5v1z" fill="#3C3B41" mask="url(#c)"/></g><defs><filter id="a" x="-39.411" y="-40" width="270.743" height="271.424" filterUnits="userSpaceOnUse" color-interpolation-filters="sRGB"><feFlood flood-opacity="0" result="BackgroundImageFix"/><feGaussianBlur in="BackgroundImageFix" stdDeviation="20"/><feComposite in2="SourceAlpha" operator="in" result="effect1_backgroundBlur_3436_79984"/><feBlend in="SourceGraphic" in2="effect1_backgroundBlur_3436_79984" result="shape"/></filter><linearGradient id="b" x1="109.851" y1="23.132" x2="109.851" y2="191.424" gradientUnits="userSpaceOnUse"><stop stop-color="#272727" stop-opacity=".94"/><stop offset="0" stop-color="#272727" stop-opacity=".83"/><stop offset="1" stop-color="#272727" stop-opacity=".08"/></linearGradient></defs></svg>