<svg width="161" height="159" viewBox="0 0 161 159" xmlns="http://www.w3.org/2000/svg" fill="none"><g filter="url(#a)"><mask id="c"><path fill-rule="evenodd" clip-rule="evenodd" d="M160.383 2c0-1.105-.896-2-2-2h-155.585c-1.105 0-2 .895-2 2v45.99c0 1.026.78 1.879 1.792 2.045 13.882 2.283 24.473 14.339 24.473 28.868 0 14.529-10.591 26.584-24.473 28.868-1.013.166-1.792 1.019-1.792 2.045v46.705c0 1.104.895 2 2 2h45.016c1.017 0 1.864-.766 2.041-1.767 2.427-13.71 14.401-24.123 28.808-24.123s26.381 10.413 28.808 24.123c.177 1.001 1.024 1.767 2.041 1.767h48.87c1.104 0 2-.896 2-2v-154.521z"/></mask><path fill-rule="evenodd" clip-rule="evenodd" d="M160.383 2c0-1.105-.896-2-2-2h-155.585c-1.105 0-2 .895-2 2v45.99c0 1.026.78 1.879 1.792 2.045 13.882 2.283 24.473 14.339 24.473 28.868 0 14.529-10.591 26.584-24.473 28.868-1.013.166-1.792 1.019-1.792 2.045v46.705c0 1.104.895 2 2 2h45.016c1.017 0 1.864-.766 2.041-1.767 2.427-13.71 14.401-24.123 28.808-24.123s26.381 10.413 28.808 24.123c.177 1.001 1.024 1.767 2.041 1.767h48.87c1.104 0 2-.896 2-2v-154.521z" fill="url(#b)"/><path d="M107.472 156.754l-.493.087.493-.087zm-57.617 0l.492.087-.492-.087zm-47.265-48.983l-.081-.493.081.493zm0-57.736l.081-.493-.081.493zm.208-50.535h155.585v1h-155.585v-1zm-2.5 48.49v-45.99h1v45.99h-1zm26.265 30.913c0-14.28-10.409-26.13-24.054-28.375l.162-.987c14.12 2.322 24.892 14.584 24.892 29.361h-1zm-24.054 28.375c13.645-2.245 24.054-14.095 24.054-28.375h1c0 14.778-10.772 27.039-24.892 29.361l-.162-.986zm-2.211 49.243v-46.705h1v46.705h-1zm47.516 2.5h-45.016v-1h45.016v1zm30.849-25.89c-14.16 0-25.931 10.235-28.316 23.71l-.985-.174c2.468-13.945 14.647-24.536 29.3-24.536v1zm28.315 23.71c-2.385-13.475-14.155-23.71-28.315-23.71v-1c14.653 0 26.832 10.591 29.3 24.536l-.985.174zm51.404 2.18h-48.87v-1h48.87v1zm2.5-157.021v154.521h-1v-154.521h1zm-2.5 156.021c.828 0 1.5-.672 1.5-1.5h1c0 1.38-1.119 2.5-2.5 2.5v-1zm-50.419-1.354c.138.781.794 1.354 1.549 1.354v1c-1.278 0-2.317-.959-2.534-2.18l.985-.174zm-60.15 1.354c.755 0 1.41-.573 1.549-1.354l.985.174c-.216 1.221-1.256 2.18-2.533 2.18v-1zm-45.142-49.757c-.79.13-1.374.79-1.374 1.552h-1c0-1.29.976-2.335 2.211-2.538l.162.986zm-1.374-60.274c0 .762.583 1.422 1.374 1.552l-.162.987c-1.235-.203-2.211-1.248-2.211-2.539h1zm157.085-48.49c1.381 0 2.5 1.119 2.5 2.5h-1c0-.828-.672-1.5-1.5-1.5v-1zm-157.085 157.021c0 .828.672 1.5 1.5 1.5v1c-1.381 0-2.5-1.12-2.5-2.5h1zm1.5-156.021c-.828 0-1.5.672-1.5 1.5h-1c0-1.381 1.119-2.5 2.5-2.5v1z" fill="#3C3B41" mask="url(#c)"/></g><defs><filter id="a" x="-39.202" y="-40" width="239.584" height="238.521" filterUnits="userSpaceOnUse" color-interpolation-filters="sRGB"><feFlood flood-opacity="0" result="BackgroundImageFix"/><feGaussianBlur in="BackgroundImageFix" stdDeviation="20"/><feComposite in2="SourceAlpha" operator="in" result="effect1_backgroundBlur_3436_79973"/><feBlend in="SourceGraphic" in2="effect1_backgroundBlur_3436_79973" result="shape"/></filter><linearGradient id="b" x1="68.969" y1="19.156" x2="68.969" y2="158.52" gradientUnits="userSpaceOnUse"><stop stop-color="#272727" stop-opacity=".94"/><stop offset="0" stop-color="#272727" stop-opacity=".83"/><stop offset="1" stop-color="#272727" stop-opacity=".08"/></linearGradient></defs></svg>