<svg width="193" height="186" viewBox="0 0 193 186" xmlns="http://www.w3.org/2000/svg" fill="none"><g filter="url(#a)"><mask id="c"><path fill-rule="evenodd" clip-rule="evenodd" d="M140.831 24.89c.165 1.014 1.018 1.796 2.046 1.796h47.394c1.105 0 2 .895 2 2v154.521c0 1.104-.895 2-2 2h-155.584c-1.105 0-2-.896-2-2v-50.324c0-1.19-1.034-2.111-2.224-2.072-.326.011-.654.016-.983.016-16.158 0-29.257-13.099-29.257-29.257s13.099-29.257 29.257-29.257c.329 0 .657.005.983.016 1.19.039 2.224-.882 2.224-2.072v-41.57c0-1.105.895-2 2-2h46.345c1.028 0 1.881-.782 2.046-1.796 2.262-13.908 14.329-24.526 28.876-24.526 14.548 0 26.615 10.617 28.877 24.526z"/></mask><path fill-rule="evenodd" clip-rule="evenodd" d="M140.831 24.89c.165 1.014 1.018 1.796 2.046 1.796h47.394c1.105 0 2 .895 2 2v154.521c0 1.104-.895 2-2 2h-155.584c-1.105 0-2-.896-2-2v-50.324c0-1.19-1.034-2.111-2.224-2.072-.326.011-.654.016-.983.016-16.158 0-29.257-13.099-29.257-29.257s13.099-29.257 29.257-29.257c.329 0 .657.005.983.016 1.19.039 2.224-.882 2.224-2.072v-41.57c0-1.105.895-2 2-2h46.345c1.028 0 1.881-.782 2.046-1.796 2.262-13.908 14.329-24.526 28.876-24.526 14.548 0 26.615 10.617 28.877 24.526z" fill="url(#b)"/><path d="M83.078 24.89l.493.08-.493-.08zm-52.615 47.439l-.017.5.017-.5zm0 58.482l.017.5-.017-.5zm110.368-105.921l.493-.08-.493.08zm49.44 1.296h-47.394v1h47.394v-1zm2.5 157.021v-154.521h-1v154.521h1zm-158.084 2.5h155.584v-1h-155.584v1zm-2.5-52.824v50.324h1v-50.324h-1zm-2.707-1.556c.334 0 .668-.005 1-.016l-.033-1c-.321.011-.643.016-.967.016v1zm-29.757-29.757c0 16.434 13.323 29.757 29.757 29.757v-1c-15.882 0-28.757-12.875-28.757-28.757h-1zm29.757-29.757c-16.434 0-29.757 13.323-29.757 29.757h1c0-15.882 12.875-28.757 28.757-28.757v-1zm1 .017c-.332-.011-.665-.017-1-.017v1c.323 0 .646.005.967.016l.033-.999zm1.707-43.143v41.57h1v-41.57h-1zm48.845-2.5h-46.345v1h46.345v-1zm2.539-1.216c2.223-13.67 14.085-24.106 28.383-24.106v-1c-14.796 0-27.07 10.799-29.37 24.945l.987.16zm28.383-24.106c14.298 0 26.16 10.436 28.383 24.106l.987-.16c-2.3-14.146-14.573-24.945-29.37-24.945v1zm-30.922 26.322c1.292 0 2.338-.979 2.539-2.216l-.987-.16c-.129.792-.789 1.377-1.552 1.377v1zm-47.845 1.5c0-.828.672-1.5 1.5-1.5v-1c-1.381 0-2.5 1.119-2.5 2.5h1zm-2.74 44.142c1.447.048 2.74-1.075 2.74-2.572h-1c0 .883-.775 1.603-1.707 1.573l-.033.999zm2.74 60.054c0-1.497-1.293-2.62-2.74-2.572l.033 1c.932-.031 1.707.689 1.707 1.572h1zm1.5 51.824c-.828 0-1.5-.672-1.5-1.5h-1c0 1.381 1.119 2.5 2.5 2.5v-1zm157.084-1.5c0 .828-.671 1.5-1.5 1.5v1c1.381 0 2.5-1.119 2.5-2.5h-1zm-48.894-157.021c-.764 0-1.424-.585-1.553-1.377l-.987.16c.201 1.237 1.248 2.216 2.54 2.216v-1zm47.394 1c.829 0 1.5.672 1.5 1.5h1c0-1.381-1.119-2.5-2.5-2.5v1z" fill="#3C3B41" mask="url(#c)"/></g><defs><filter id="a" x="-39.777" y="-39.636" width="272.048" height="264.843" filterUnits="userSpaceOnUse" color-interpolation-filters="sRGB"><feFlood flood-opacity="0" result="BackgroundImageFix"/><feGaussianBlur in="BackgroundImageFix" stdDeviation="20"/><feComposite in2="SourceAlpha" operator="in" result="effect1_backgroundBlur_3436_79978"/><feBlend in="SourceGraphic" in2="effect1_backgroundBlur_3436_79978" result="shape"/></filter><linearGradient id="b" x1="110.232" y1="22.701" x2="110.232" y2="185.207" gradientUnits="userSpaceOnUse"><stop stop-color="#272727" stop-opacity=".94"/><stop offset="0" stop-color="#272727" stop-opacity=".83"/><stop offset="1" stop-color="#272727" stop-opacity=".08"/></linearGradient></defs></svg>