<svg width="192" height="192" viewBox="0 0 192 192" fill="none" xmlns="http://www.w3.org/2000/svg">
<g filter="url(#filter0_b_3436_79934)">
<mask id="path-1-inside-1_3436_79934" fill="white">
<path fill-rule="evenodd" clip-rule="evenodd" d="M0.589355 2C0.589355 0.895431 1.48478 0 2.58935 0H158.174C159.278 0 160.174 0.89543 160.174 2V48.0865C160.174 49.1167 161.044 49.9279 162.075 49.9279C178.233 49.9279 191.332 63.0267 191.332 79.185C191.332 95.3433 178.233 108.442 162.075 108.442C161.044 108.442 160.174 109.253 160.174 110.284V156.521C160.174 157.625 159.278 158.521 158.174 158.521H112.515C111.313 158.521 110.387 159.575 110.444 160.776C110.465 161.237 110.476 161.7 110.476 162.167C110.476 178.325 97.3773 191.424 81.219 191.424C65.0607 191.424 51.9619 178.325 51.9619 162.167C51.9619 161.7 51.9728 161.237 51.9944 160.776C52.0506 159.575 51.1253 158.521 49.9228 158.521H2.58936C1.48479 158.521 0.589355 157.625 0.589355 156.521V2Z"/>
</mask>
<path fill-rule="evenodd" clip-rule="evenodd" d="M0.589355 2C0.589355 0.895431 1.48478 0 2.58935 0H158.174C159.278 0 160.174 0.89543 160.174 2V48.0865C160.174 49.1167 161.044 49.9279 162.075 49.9279C178.233 49.9279 191.332 63.0267 191.332 79.185C191.332 95.3433 178.233 108.442 162.075 108.442C161.044 108.442 160.174 109.253 160.174 110.284V156.521C160.174 157.625 159.278 158.521 158.174 158.521H112.515C111.313 158.521 110.387 159.575 110.444 160.776C110.465 161.237 110.476 161.7 110.476 162.167C110.476 178.325 97.3773 191.424 81.219 191.424C65.0607 191.424 51.9619 178.325 51.9619 162.167C51.9619 161.7 51.9728 161.237 51.9944 160.776C52.0506 159.575 51.1253 158.521 49.9228 158.521H2.58936C1.48479 158.521 0.589355 157.625 0.589355 156.521V2Z" fill="url(#paint0_linear_3436_79934)"/>
<path d="M110.444 160.776L110.943 160.752L110.444 160.776ZM158.174 -0.5H2.58935V0.5H158.174V-0.5ZM160.674 48.0865V2H159.674V48.0865H160.674ZM191.832 79.185C191.832 62.7506 178.509 49.4279 162.075 49.4279V50.4279C177.957 50.4279 190.832 63.3029 190.832 79.185H191.832ZM162.075 108.942C178.509 108.942 191.832 95.6194 191.832 79.185H190.832C190.832 95.0671 177.957 107.942 162.075 107.942V108.942ZM160.674 156.521V110.284H159.674V156.521H160.674ZM112.515 159.021H158.174V158.021H112.515V159.021ZM109.944 160.799C109.965 161.252 109.976 161.708 109.976 162.167H110.976C110.976 161.693 110.965 161.221 110.943 160.752L109.944 160.799ZM109.976 162.167C109.976 178.049 97.1012 190.924 81.219 190.924V191.924C97.6534 191.924 110.976 178.601 110.976 162.167H109.976ZM81.219 190.924C65.3369 190.924 52.4619 178.049 52.4619 162.167H51.4619C51.4619 178.601 64.7846 191.924 81.219 191.924V190.924ZM52.4619 162.167C52.4619 161.708 52.4726 161.252 52.4938 160.799L51.4949 160.752C51.473 161.221 51.4619 161.693 51.4619 162.167H52.4619ZM2.58936 159.021H49.9228V158.021H2.58936V159.021ZM0.0893555 2V156.521H1.08936V2H0.0893555ZM112.515 158.021C111.003 158.021 109.876 159.339 109.944 160.799L110.943 160.752C110.899 159.811 111.623 159.021 112.515 159.021V158.021ZM159.674 156.521C159.674 157.349 159.002 158.021 158.174 158.021V159.021C159.554 159.021 160.674 157.901 160.674 156.521H159.674ZM2.58936 158.021C1.76093 158.021 1.08936 157.349 1.08936 156.521H0.0893555C0.0893555 157.901 1.20865 159.021 2.58936 159.021V158.021ZM159.674 48.0865C159.674 49.4133 160.789 50.4279 162.075 50.4279V49.4279C161.3 49.4279 160.674 48.8201 160.674 48.0865H159.674ZM162.075 107.942C160.789 107.942 159.674 108.957 159.674 110.284H160.674C160.674 109.55 161.3 108.942 162.075 108.942V107.942ZM52.4938 160.799C52.5622 159.339 51.4355 158.021 49.9228 158.021V159.021C50.815 159.021 51.539 159.811 51.4949 160.752L52.4938 160.799ZM2.58935 -0.5C1.20864 -0.5 0.0893555 0.619289 0.0893555 2H1.08936C1.08936 1.17157 1.76093 0.5 2.58935 0.5V-0.5ZM158.174 0.5C159.002 0.5 159.674 1.17157 159.674 2H160.674C160.674 0.619287 159.554 -0.5 158.174 -0.5V0.5Z" fill="#50D9D7" mask="url(#path-1-inside-1_3436_79934)"/>
</g>
<defs>
<filter id="filter0_b_3436_79934" x="-39.4106" y="-40" width="270.743" height="271.424" filterUnits="userSpaceOnUse" color-interpolation-filters="sRGB">
<feFlood flood-opacity="0" result="BackgroundImageFix"/>
<feGaussianBlur in="BackgroundImageFix" stdDeviation="20"/>
<feComposite in2="SourceAlpha" operator="in" result="effect1_backgroundBlur_3436_79934"/>
<feBlend mode="normal" in="SourceGraphic" in2="effect1_backgroundBlur_3436_79934" result="shape"/>
</filter>
<linearGradient id="paint0_linear_3436_79934" x1="95.8397" y1="0" x2="95.8397" y2="191.424" gradientUnits="userSpaceOnUse">
<stop stop-color="#272727" stop-opacity="0.94"/>
<stop offset="0.0001" stop-color="#272727" stop-opacity="0.83"/>
<stop offset="1" stop-color="#272727" stop-opacity="0.08"/>
</linearGradient>
</defs>
</svg>
