<svg width="161" height="159" viewBox="0 0 161 159" fill="none" xmlns="http://www.w3.org/2000/svg">
<g filter="url(#filter0_b_3436_79916)">
<mask id="path-1-inside-1_3436_79916" fill="white">
<path fill-rule="evenodd" clip-rule="evenodd" d="M160.383 2C160.383 0.895431 159.487 0 158.383 0H2.79839C1.69382 0 0.798386 0.895433 0.798386 2V47.9898C0.798386 49.0161 1.57806 49.8685 2.59077 50.0351C16.4732 52.3185 27.0637 64.374 27.0637 78.903C27.0637 93.432 16.4732 105.487 2.59077 107.771C1.57806 107.937 0.798386 108.79 0.798386 109.816V156.521C0.798386 157.625 1.69382 158.521 2.79839 158.521H47.8143C48.8308 158.521 49.6783 157.755 49.8554 156.754C52.2822 143.044 64.2569 132.631 78.6636 132.631C93.0703 132.631 105.045 143.044 107.472 156.754C107.649 157.755 108.496 158.521 109.513 158.521H158.383C159.487 158.521 160.383 157.625 160.383 156.521V2Z"/>
</mask>
<path fill-rule="evenodd" clip-rule="evenodd" d="M160.383 2C160.383 0.895431 159.487 0 158.383 0H2.79839C1.69382 0 0.798386 0.895433 0.798386 2V47.9898C0.798386 49.0161 1.57806 49.8685 2.59077 50.0351C16.4732 52.3185 27.0637 64.374 27.0637 78.903C27.0637 93.432 16.4732 105.487 2.59077 107.771C1.57806 107.937 0.798386 108.79 0.798386 109.816V156.521C0.798386 157.625 1.69382 158.521 2.79839 158.521H47.8143C48.8308 158.521 49.6783 157.755 49.8554 156.754C52.2822 143.044 64.2569 132.631 78.6636 132.631C93.0703 132.631 105.045 143.044 107.472 156.754C107.649 157.755 108.496 158.521 109.513 158.521H158.383C159.487 158.521 160.383 157.625 160.383 156.521V2Z" fill="url(#paint0_linear_3436_79916)"/>
<path d="M107.472 156.754L106.979 156.841L107.472 156.754ZM49.8554 156.754L50.3478 156.841L49.8554 156.754ZM2.59077 107.771L2.50963 107.278L2.59077 107.771ZM2.59077 50.0351L2.67192 49.5417L2.59077 50.0351ZM2.79839 -0.5H158.383V0.5H2.79839V-0.5ZM0.298386 47.9898V2H1.29839V47.9898H0.298386ZM26.5637 78.903C26.5637 64.6228 16.1544 52.7728 2.50961 50.5284L2.67192 49.5417C16.792 51.8642 27.5637 64.1252 27.5637 78.903H26.5637ZM2.50963 107.278C16.1544 105.033 26.5637 93.1832 26.5637 78.903H27.5637C27.5637 93.6808 16.792 105.942 2.67192 108.264L2.50963 107.278ZM0.298386 156.521V109.816H1.29839V156.521H0.298386ZM47.8143 159.021H2.79839V158.021H47.8143V159.021ZM78.6636 133.131C64.5036 133.131 52.733 143.366 50.3478 156.841L49.3631 156.667C51.8314 142.722 64.0102 132.131 78.6636 132.131V133.131ZM106.979 156.841C104.594 143.366 92.8236 133.131 78.6636 133.131V132.131C93.3171 132.131 105.496 142.722 107.964 156.667L106.979 156.841ZM158.383 159.021H109.513V158.021H158.383V159.021ZM160.883 2V156.521H159.883V2H160.883ZM158.383 158.021C159.211 158.021 159.883 157.349 159.883 156.521H160.883C160.883 157.901 159.764 159.021 158.383 159.021V158.021ZM107.964 156.667C108.102 157.448 108.758 158.021 109.513 158.021V159.021C108.235 159.021 107.196 158.062 106.979 156.841L107.964 156.667ZM47.8143 158.021C48.5695 158.021 49.2248 157.448 49.3631 156.667L50.3478 156.841C50.1317 158.062 49.092 159.021 47.8143 159.021V158.021ZM2.67192 108.264C1.88153 108.394 1.29839 109.054 1.29839 109.816H0.298386C0.298386 108.526 1.27461 107.481 2.50963 107.278L2.67192 108.264ZM1.29839 47.9898C1.29839 48.7522 1.88152 49.4117 2.67192 49.5417L2.50961 50.5284C1.27461 50.3253 0.298386 49.2799 0.298386 47.9898H1.29839ZM158.383 -0.5C159.764 -0.5 160.883 0.619289 160.883 2H159.883C159.883 1.17157 159.211 0.5 158.383 0.5V-0.5ZM1.29839 156.521C1.29839 157.349 1.96996 158.021 2.79839 158.021V159.021C1.41768 159.021 0.298386 157.901 0.298386 156.521H1.29839ZM2.79839 0.5C1.96996 0.5 1.29839 1.17157 1.29839 2H0.298386C0.298386 0.619291 1.41768 -0.5 2.79839 -0.5V0.5Z" fill="#50D9D7" mask="url(#path-1-inside-1_3436_79916)"/>
</g>
<defs>
<filter id="filter0_b_3436_79916" x="-39.2017" y="-40" width="239.584" height="238.521" filterUnits="userSpaceOnUse" color-interpolation-filters="sRGB">
<feFlood flood-opacity="0" result="BackgroundImageFix"/>
<feGaussianBlur in="BackgroundImageFix" stdDeviation="20"/>
<feComposite in2="SourceAlpha" operator="in" result="effect1_backgroundBlur_3436_79916"/>
<feBlend mode="normal" in="SourceGraphic" in2="effect1_backgroundBlur_3436_79916" result="shape"/>
</filter>
<linearGradient id="paint0_linear_3436_79916" x1="80.6917" y1="0" x2="80.6917" y2="158.521" gradientUnits="userSpaceOnUse">
<stop stop-color="#272727" stop-opacity="0.94"/>
<stop offset="0.0001" stop-color="#272727" stop-opacity="0.83"/>
<stop offset="1" stop-color="#272727" stop-opacity="0.08"/>
</linearGradient>
</defs>
</svg>
