<svg width="160" height="160" viewBox="0 0 160 160" fill="none" xmlns="http://www.w3.org/2000/svg">
<g filter="url(#filter0_b_3436_79922)">
<mask id="path-1-inside-1_3436_79922" fill="white">
<path fill-rule="evenodd" clip-rule="evenodd" d="M50.8896 4.50017C50.8896 20.6584 63.9885 33.7573 80.1468 33.7573C96.3051 33.7573 109.404 20.6584 109.404 4.50017C109.404 3.98146 109.39 3.4659 109.364 2.95382C109.301 1.74837 110.228 0.686523 111.435 0.686523H157.584C158.689 0.686523 159.584 1.58196 159.584 2.68653V45.905C159.584 46.1977 159.344 46.4329 159.052 46.4329C142.894 46.4329 129.795 59.5318 129.795 75.6901C129.795 91.8484 142.894 104.947 159.052 104.947C159.344 104.947 159.584 105.182 159.584 105.475V157.207C159.584 158.312 158.689 159.207 157.584 159.207H2.00005C0.895477 159.207 4.57764e-05 158.312 4.57764e-05 157.207V2.68652C4.57764e-05 1.58195 0.895477 0.686523 2.00005 0.686523H48.8587C50.0658 0.686523 50.9926 1.74837 50.9298 2.95382C50.9031 3.46589 50.8896 3.98146 50.8896 4.50017Z"/>
</mask>
<path fill-rule="evenodd" clip-rule="evenodd" d="M50.8896 4.50017C50.8896 20.6584 63.9885 33.7573 80.1468 33.7573C96.3051 33.7573 109.404 20.6584 109.404 4.50017C109.404 3.98146 109.39 3.4659 109.364 2.95382C109.301 1.74837 110.228 0.686523 111.435 0.686523H157.584C158.689 0.686523 159.584 1.58196 159.584 2.68653V45.905C159.584 46.1977 159.344 46.4329 159.052 46.4329C142.894 46.4329 129.795 59.5318 129.795 75.6901C129.795 91.8484 142.894 104.947 159.052 104.947C159.344 104.947 159.584 105.182 159.584 105.475V157.207C159.584 158.312 158.689 159.207 157.584 159.207H2.00005C0.895477 159.207 4.57764e-05 158.312 4.57764e-05 157.207V2.68652C4.57764e-05 1.58195 0.895477 0.686523 2.00005 0.686523H48.8587C50.0658 0.686523 50.9926 1.74837 50.9298 2.95382C50.9031 3.46589 50.8896 3.98146 50.8896 4.50017Z" fill="url(#paint0_linear_3436_79922)"/>
<path d="M50.9298 2.95382L50.4305 2.92781L50.9298 2.95382ZM109.364 2.95382L108.864 2.97983L109.364 2.95382ZM80.1468 34.2573C63.7124 34.2573 50.3896 20.9346 50.3896 4.50017H51.3896C51.3896 20.3823 64.2646 33.2573 80.1468 33.2573V34.2573ZM109.904 4.50017C109.904 20.9346 96.5812 34.2573 80.1468 34.2573V33.2573C96.0289 33.2573 108.904 20.3823 108.904 4.50017H109.904ZM109.863 2.92782C109.89 3.44855 109.904 3.97278 109.904 4.50017H108.904C108.904 3.99013 108.891 3.48325 108.864 2.97983L109.863 2.92782ZM157.584 1.18652H111.435V0.186523H157.584V1.18652ZM159.084 45.905V2.68653H160.084V45.905H159.084ZM159.052 46.9329C143.17 46.9329 130.295 59.8079 130.295 75.6901H129.295C129.295 59.2557 142.617 45.9329 159.052 45.9329V46.9329ZM130.295 75.6901C130.295 91.5722 143.17 104.447 159.052 104.447V105.447C142.617 105.447 129.295 92.1245 129.295 75.6901H130.295ZM159.084 157.207V105.475H160.084V157.207H159.084ZM2.00005 158.707H157.584V159.707H2.00005V158.707ZM0.500046 2.68652V157.207H-0.499954V2.68652H0.500046ZM48.8587 1.18652H2.00005V0.186523H48.8587V1.18652ZM50.3896 4.50017C50.3896 3.97278 50.4034 3.44855 50.4305 2.92781L51.4291 2.97982C51.4029 3.48324 51.3896 3.99013 51.3896 4.50017H50.3896ZM48.8587 0.186523C50.3773 0.186523 51.5054 1.51415 51.4291 2.97982L50.4305 2.92781C50.4797 1.98259 49.7543 1.18652 48.8587 1.18652V0.186523ZM-0.499954 2.68652C-0.499954 1.30581 0.619339 0.186523 2.00005 0.186523V1.18652C1.17162 1.18652 0.500046 1.8581 0.500046 2.68652H-0.499954ZM2.00005 159.707C0.619339 159.707 -0.499954 158.588 -0.499954 157.207H0.500046C0.500046 158.035 1.17162 158.707 2.00005 158.707V159.707ZM160.084 157.207C160.084 158.588 158.965 159.707 157.584 159.707V158.707C158.413 158.707 159.084 158.035 159.084 157.207H160.084ZM160.084 45.905C160.084 46.4796 159.615 46.9329 159.052 46.9329V45.9329C159.062 45.9329 159.07 45.9293 159.077 45.923C159.08 45.9198 159.082 45.9167 159.083 45.9141C159.084 45.9119 159.084 45.9092 159.084 45.905H160.084ZM159.052 104.447C159.615 104.447 160.084 104.901 160.084 105.475H159.084C159.084 105.471 159.084 105.468 159.083 105.466C159.082 105.463 159.08 105.46 159.077 105.457C159.07 105.451 159.062 105.447 159.052 105.447V104.447ZM157.584 0.186523C158.965 0.186523 160.084 1.30582 160.084 2.68653H159.084C159.084 1.8581 158.413 1.18652 157.584 1.18652V0.186523ZM108.864 2.97983C108.788 1.51415 109.916 0.186523 111.435 0.186523V1.18652C110.539 1.18652 109.814 1.98259 109.863 2.92782L108.864 2.97983Z" fill="#50D9D7" mask="url(#path-1-inside-1_3436_79922)"/>
</g>
<defs>
<filter id="filter0_b_3436_79922" x="-40" y="-39.3135" width="239.584" height="238.521" filterUnits="userSpaceOnUse" color-interpolation-filters="sRGB">
<feFlood flood-opacity="0" result="BackgroundImageFix"/>
<feGaussianBlur in="BackgroundImageFix" stdDeviation="20"/>
<feComposite in2="SourceAlpha" operator="in" result="effect1_backgroundBlur_3436_79922"/>
<feBlend mode="normal" in="SourceGraphic" in2="effect1_backgroundBlur_3436_79922" result="shape"/>
</filter>
<linearGradient id="paint0_linear_3436_79922" x1="79.8934" y1="0.686523" x2="79.8934" y2="159.207" gradientUnits="userSpaceOnUse">
<stop stop-color="#272727" stop-opacity="0.94"/>
<stop offset="0.0001" stop-color="#272727" stop-opacity="0.83"/>
<stop offset="1" stop-color="#272727" stop-opacity="0.08"/>
</linearGradient>
</defs>
</svg>
