<svg width="193" height="186" viewBox="0 0 193 186" fill="none" xmlns="http://www.w3.org/2000/svg">
<g filter="url(#filter0_b_3436_79927)">
<mask id="path-1-inside-1_3436_79927" fill="white">
<path fill-rule="evenodd" clip-rule="evenodd" d="M140.831 24.8899C140.996 25.9044 141.849 26.6863 142.877 26.6863H190.271C191.376 26.6863 192.271 27.5817 192.271 28.6863V183.207C192.271 184.311 191.376 185.207 190.271 185.207H34.6868C33.5822 185.207 32.6868 184.311 32.6868 183.207V132.883C32.6868 131.693 31.6527 130.772 30.463 130.811C30.1366 130.822 29.8088 130.827 29.4798 130.827C13.3215 130.827 0.222656 117.728 0.222656 101.57C0.222656 85.4117 13.3215 72.3128 29.4798 72.3128C29.8088 72.3128 30.1366 72.3182 30.463 72.329C31.6527 72.3683 32.6868 71.447 32.6868 70.2566V28.6863C32.6868 27.5817 33.5822 26.6863 34.6868 26.6863H81.0317C82.0595 26.6863 82.9127 25.9044 83.0776 24.8899C85.3392 10.9816 97.4068 0.364258 111.954 0.364258C126.502 0.364258 138.569 10.9816 140.831 24.8899Z"/>
</mask>
<path fill-rule="evenodd" clip-rule="evenodd" d="M140.831 24.8899C140.996 25.9044 141.849 26.6863 142.877 26.6863H190.271C191.376 26.6863 192.271 27.5817 192.271 28.6863V183.207C192.271 184.311 191.376 185.207 190.271 185.207H34.6868C33.5822 185.207 32.6868 184.311 32.6868 183.207V132.883C32.6868 131.693 31.6527 130.772 30.463 130.811C30.1366 130.822 29.8088 130.827 29.4798 130.827C13.3215 130.827 0.222656 117.728 0.222656 101.57C0.222656 85.4117 13.3215 72.3128 29.4798 72.3128C29.8088 72.3128 30.1366 72.3182 30.463 72.329C31.6527 72.3683 32.6868 71.447 32.6868 70.2566V28.6863C32.6868 27.5817 33.5822 26.6863 34.6868 26.6863H81.0317C82.0595 26.6863 82.9127 25.9044 83.0776 24.8899C85.3392 10.9816 97.4068 0.364258 111.954 0.364258C126.502 0.364258 138.569 10.9816 140.831 24.8899Z" fill="url(#paint0_linear_3436_79927)"/>
<path d="M83.0776 24.8899L83.5711 24.9702L83.0776 24.8899ZM30.463 72.329L30.4465 72.8287L30.463 72.329ZM30.463 130.811L30.4795 131.311L30.463 130.811ZM140.831 24.8899L141.324 24.8097L140.831 24.8899ZM190.271 26.1863H142.877V27.1863H190.271V26.1863ZM192.771 183.207V28.6863H191.771V183.207H192.771ZM34.6868 185.707H190.271V184.707H34.6868V185.707ZM32.1868 132.883V183.207H33.1868V132.883H32.1868ZM29.4798 131.327C29.8143 131.327 30.1476 131.322 30.4795 131.311L30.4465 130.311C30.1256 130.322 29.8033 130.327 29.4798 130.327V131.327ZM-0.277344 101.57C-0.277344 118.004 13.0454 131.327 29.4798 131.327V130.327C13.5977 130.327 0.722656 117.452 0.722656 101.57H-0.277344ZM29.4798 71.8128C13.0454 71.8128 -0.277344 85.1355 -0.277344 101.57H0.722656C0.722656 85.6878 13.5977 72.8128 29.4798 72.8128V71.8128ZM30.4795 71.8293C30.1476 71.8183 29.8143 71.8128 29.4798 71.8128V72.8128C29.8033 72.8128 30.1256 72.8181 30.4465 72.8287L30.4795 71.8293ZM32.1868 28.6863V70.2566H33.1868V28.6863H32.1868ZM81.0317 26.1863H34.6868V27.1863H81.0317V26.1863ZM83.5711 24.9702C85.794 11.2999 97.6559 0.864258 111.954 0.864258V-0.135742C97.1577 -0.135742 84.8844 10.6632 82.5841 24.8097L83.5711 24.9702ZM111.954 0.864258C126.252 0.864258 138.114 11.2999 140.337 24.9702L141.324 24.8097C139.024 10.6632 126.751 -0.135742 111.954 -0.135742V0.864258ZM81.0317 27.1863C82.3238 27.1863 83.37 26.2073 83.5711 24.9702L82.5841 24.8097C82.4554 25.6015 81.7953 26.1863 81.0317 26.1863V27.1863ZM33.1868 28.6863C33.1868 27.8578 33.8583 27.1863 34.6868 27.1863V26.1863C33.306 26.1863 32.1868 27.3056 32.1868 28.6863H33.1868ZM30.4465 72.8287C31.8937 72.8765 33.1868 71.754 33.1868 70.2566H32.1868C32.1868 71.14 31.4117 71.86 30.4795 71.8293L30.4465 72.8287ZM33.1868 132.883C33.1868 131.386 31.8937 130.263 30.4465 130.311L30.4795 131.311C31.4117 131.28 32.1868 132 32.1868 132.883H33.1868ZM34.6868 184.707C33.8583 184.707 33.1868 184.035 33.1868 183.207H32.1868C32.1868 184.588 33.306 185.707 34.6868 185.707V184.707ZM191.771 183.207C191.771 184.035 191.1 184.707 190.271 184.707V185.707C191.652 185.707 192.771 184.588 192.771 183.207H191.771ZM142.877 26.1863C142.113 26.1863 141.453 25.6015 141.324 24.8097L140.337 24.9702C140.538 26.2073 141.585 27.1863 142.877 27.1863V26.1863ZM190.271 27.1863C191.1 27.1863 191.771 27.8578 191.771 28.6863H192.771C192.771 27.3056 191.652 26.1863 190.271 26.1863V27.1863Z" fill="#50D9D7" mask="url(#path-1-inside-1_3436_79927)"/>
</g>
<defs>
<filter id="filter0_b_3436_79927" x="-39.7773" y="-39.6357" width="272.048" height="264.843" filterUnits="userSpaceOnUse" color-interpolation-filters="sRGB">
<feFlood flood-opacity="0" result="BackgroundImageFix"/>
<feGaussianBlur in="BackgroundImageFix" stdDeviation="20"/>
<feComposite in2="SourceAlpha" operator="in" result="effect1_backgroundBlur_3436_79927"/>
<feBlend mode="normal" in="SourceGraphic" in2="effect1_backgroundBlur_3436_79927" result="shape"/>
</filter>
<linearGradient id="paint0_linear_3436_79927" x1="96.1252" y1="0.364258" x2="96.1252" y2="185.207" gradientUnits="userSpaceOnUse">
<stop stop-color="#272727" stop-opacity="0.94"/>
<stop offset="0.0001" stop-color="#272727" stop-opacity="0.83"/>
<stop offset="1" stop-color="#272727" stop-opacity="0.08"/>
</linearGradient>
</defs>
</svg>
