<svg width="74" height="120" viewBox="0 0 74 120" fill="none" xmlns="http://www.w3.org/2000/svg">
<g clip-path="url(#clip0_1037_31656)">
<path d="M4.63672 78.1667L8.70252 65.8048L18.7378 57.2501C18.7378 57.2501 22.1925 15.1585 36.7401 4.7002C36.7401 4.7002 53.9904 23.9011 53.5439 58.7542C53.5439 58.7542 65.8588 64.3007 67.0574 75.2055L53.9904 70.6931L51.7577 82.0915H21.4405L16.0351 71.3042L4.63672 78.1667Z" fill="#FAFAFA"/>
<path d="M37.0695 9.77673C47.3271 23.0037 52.8027 39.3146 52.6042 56.0517V60.047L55.9884 62.1387C60.3611 64.8274 63.6223 68.9976 65.1776 73.8895C63.812 72.8683 62.3834 71.9342 60.9003 71.0928L51.8756 65.9459L50.254 76.3337C50.1135 77.2516 49.9253 78.1616 49.69 79.0599H24.4021C24.026 77.8848 23.7205 76.7097 23.4385 75.4876L21.3938 66.0869L13.0742 70.7873C11.6843 71.5768 10.3424 72.4479 9.05542 73.396C10.641 68.5607 13.8341 64.4138 18.1036 61.6451L21.3233 59.5535V55.8402C21.3814 39.171 26.923 22.9841 37.093 9.77673M37.093 0C36.5656 0.00130102 36.0564 0.193285 35.6594 0.54054L35.4479 0.728555C21.8958 15.8855 14.3704 35.4848 14.2963 55.8167C8.54543 59.5478 4.28852 65.1811 2.26948 71.7323C0.250441 78.2834 0.597668 85.3357 3.25048 91.6569C6.04508 85.4849 10.7167 80.3527 16.5995 76.9918C17.1895 79.5473 17.9752 82.0538 18.9497 84.4888C19.0732 84.9569 19.3472 85.3715 19.7293 85.6687C20.1115 85.9659 20.5807 86.1294 21.0648 86.1339H53.6853C54.3433 86.1339 55.0014 85.4994 55.3304 84.5123C56.2815 82.1973 56.9445 79.7741 57.3045 77.2973C63.1985 80.6441 67.874 85.7806 70.6535 91.9624C73.4664 85.6724 73.9019 78.5756 71.8792 71.9889C69.8565 65.4021 65.513 59.7729 59.6547 56.1457C59.8871 35.6939 52.4016 15.906 38.6911 0.728555C38.487 0.500282 38.2371 0.317466 37.9577 0.191957C37.6784 0.0664481 37.3758 0.00104916 37.0695 0L37.093 0Z" fill="#AE8625"/>
<path d="M37.0697 53.8659C35.2645 53.8659 33.4998 53.3314 31.9979 52.3299C30.4961 51.3285 29.3243 49.9048 28.6303 48.2384C27.9364 46.572 27.7512 44.7374 28.0983 42.966C28.4454 41.1945 29.3091 39.5654 30.5806 38.2841C31.8522 37.0028 33.4745 36.1266 35.2433 35.7659C37.012 35.4052 38.8479 35.5762 40.5196 36.2574C42.1913 36.9385 43.624 38.0993 44.6369 39.5935C45.6499 41.0876 46.1979 42.8481 46.2118 44.6532C46.2399 45.823 46.0373 46.9869 45.6154 48.0783C45.1936 49.1698 44.5608 50.1674 43.7533 51.0142C42.9458 51.861 41.9793 52.5404 40.9091 53.0136C39.8389 53.4868 38.686 53.7445 37.5162 53.7719C37.3683 53.7956 37.2176 53.7956 37.0697 53.7719V53.8659Z" fill="#AE8625"/>
<path d="M49.7839 91.9857C49.1959 91.9668 48.61 92.0657 48.0607 92.2763C47.5113 92.487 47.0096 92.8053 46.5849 93.2124C46.1602 93.6196 45.8212 94.1075 45.5876 94.6475C45.354 95.1875 45.2306 95.7687 45.2246 96.357V110.223C45.2246 111.432 45.705 112.592 46.56 113.447C47.4151 114.302 48.5747 114.782 49.7839 114.782C50.9932 114.782 52.1528 114.302 53.0079 113.447C53.8629 112.592 54.3433 111.432 54.3433 110.223V96.545C54.3621 95.9589 54.264 95.3749 54.0548 94.8271C53.8456 94.2793 53.5294 93.7786 53.1247 93.3543C52.7201 92.9299 52.235 92.5903 51.6977 92.3554C51.1604 92.1204 50.5818 91.9947 49.9955 91.9857H49.7839Z" fill="#979797"/>
<path d="M24.4035 91.9857C23.8054 91.9541 23.2072 92.0431 22.6442 92.2474C22.0813 92.4517 21.5652 92.7672 21.1266 93.175C20.6881 93.5828 20.3361 94.0747 20.0915 94.6214C19.847 95.168 19.7149 95.7583 19.7031 96.3571V110.223C19.7031 111.432 20.1835 112.592 21.0385 113.447C21.8936 114.302 23.0533 114.782 24.2625 114.782C25.4717 114.782 26.6314 114.302 27.4864 113.447C28.3415 112.592 28.8218 111.432 28.8218 110.223V96.5451C28.8406 95.959 28.7425 95.375 28.5333 94.8272C28.3241 94.2794 28.0079 93.7787 27.6033 93.3543C27.1986 92.93 26.7135 92.5904 26.1762 92.3554C25.639 92.1205 25.0603 91.9948 24.474 91.9857H24.4035Z" fill="#979797"/>
<path d="M36.739 91.9859C36.1526 91.9734 35.5695 92.0766 35.0229 92.2895C34.4764 92.5025 33.9771 92.821 33.5537 93.227C33.1303 93.6329 32.7911 94.1183 32.5553 94.6554C32.3195 95.1925 32.1919 95.7708 32.1797 96.3572V115.464C32.1797 116.673 32.66 117.833 33.5151 118.688C34.3701 119.543 35.5298 120.023 36.739 120.023C37.9482 120.023 39.1079 119.543 39.963 118.688C40.818 117.833 41.2984 116.673 41.2984 115.464V96.6627C41.3172 96.0766 41.2191 95.4927 41.0099 94.9449C40.8007 94.3971 40.4845 93.8964 40.0798 93.472C39.6751 93.0476 39.19 92.7081 38.6528 92.4731C38.1155 92.2381 37.5369 92.1124 36.9505 92.1034L36.739 91.9859Z" fill="#979797"/>
</g>
<defs>
<clipPath id="clip0_1037_31656">
<rect width="72.1974" height="120" fill="white" transform="translate(0.900391)"/>
</clipPath>
</defs>
</svg>
