<svg width="120" height="120" viewBox="0 0 120 120" fill="none" xmlns="http://www.w3.org/2000/svg">
<g clip-path="url(#clip0_1037_31681)">
<path d="M70 95H50C48.6739 95 47.4021 94.4732 46.4645 93.5355C45.5268 92.5979 45 91.3261 45 90C45 88.6739 45.5268 87.4021 46.4645 86.4645C47.4021 85.5268 48.6739 85 50 85H70C71.3261 85 72.5979 85.5268 73.5355 86.4645C74.4732 87.4021 75 88.6739 75 90C75 91.3261 74.4732 92.5979 73.5355 93.5355C72.5979 94.4732 71.3261 95 70 95Z" fill="#D2AC47"/>
<path d="M45 55C45 55.663 44.7366 56.2989 44.2678 56.7678C43.7989 57.2366 43.163 57.5 42.5 57.5C41.837 57.5 41.2011 57.2366 40.7322 56.7678C40.2634 56.2989 40 55.663 40 55C40 54.337 40.2634 53.7011 40.7322 53.2322C41.2011 52.7634 41.837 52.5 42.5 52.5C43.163 52.5 43.7989 52.7634 44.2678 53.2322C44.7366 53.7011 45 54.337 45 55ZM45 65C45 65.663 44.7366 66.2989 44.2678 66.7678C43.7989 67.2366 43.163 67.5 42.5 67.5C41.837 67.5 41.2011 67.2366 40.7322 66.7678C40.2634 66.2989 40 65.663 40 65C40 64.337 40.2634 63.7011 40.7322 63.2322C41.2011 62.7634 41.837 62.5 42.5 62.5C43.163 62.5 43.7989 62.7634 44.2678 63.2322C44.7366 63.7011 45 64.337 45 65ZM45 75C45 75.663 44.7366 76.2989 44.2678 76.7678C43.7989 77.2366 43.163 77.5 42.5 77.5C41.837 77.5 41.2011 77.2366 40.7322 76.7678C40.2634 76.2989 40 75.663 40 75C40 74.337 40.2634 73.7011 40.7322 73.2322C41.2011 72.7634 41.837 72.5 42.5 72.5C43.163 72.5 43.7989 72.7634 44.2678 73.2322C44.7366 73.7011 45 74.337 45 75ZM15 62.5C15 63.163 14.7366 63.7989 14.2678 64.2678C13.7989 64.7366 13.163 65 12.5 65C11.837 65 11.2011 64.7366 10.7322 64.2678C10.2634 63.7989 10 63.163 10 62.5C10 61.837 10.2634 61.2011 10.7322 60.7322C11.2011 60.2634 11.837 60 12.5 60C13.163 60 13.7989 60.2634 14.2678 60.7322C14.7366 61.2011 15 61.837 15 62.5ZM15 72.5C15 73.163 14.7366 73.7989 14.2678 74.2678C13.7989 74.7366 13.163 75 12.5 75C11.837 75 11.2011 74.7366 10.7322 74.2678C10.2634 73.7989 10 73.163 10 72.5C10 71.837 10.2634 71.2011 10.7322 70.7322C11.2011 70.2634 11.837 70 12.5 70C13.163 70 13.7989 70.2634 14.2678 70.7322C14.7366 71.2011 15 71.837 15 72.5ZM15 82.5C15 83.163 14.7366 83.7989 14.2678 84.2678C13.7989 84.7366 13.163 85 12.5 85C11.837 85 11.2011 84.7366 10.7322 84.2678C10.2634 83.7989 10 83.163 10 82.5C10 81.837 10.2634 81.2011 10.7322 80.7322C11.2011 80.2634 11.837 80 12.5 80C13.163 80 13.7989 80.2634 14.2678 80.7322C14.7366 81.2011 15 81.837 15 82.5ZM77.5 57.5H52.5C51.837 57.5 51.2011 57.2366 50.7322 56.7678C50.2634 56.2989 50 55.663 50 55C50 54.337 50.2634 53.7011 50.7322 53.2322C51.2011 52.7634 51.837 52.5 52.5 52.5H77.5C78.163 52.5 78.7989 52.7634 79.2678 53.2322C79.7366 53.7011 80 54.337 80 55C80 55.663 79.7366 56.2989 79.2678 56.7678C78.7989 57.2366 78.163 57.5 77.5 57.5ZM77.5 67.5H52.5C51.837 67.5 51.2011 67.2366 50.7322 66.7678C50.2634 66.2989 50 65.663 50 65C50 64.337 50.2634 63.7011 50.7322 63.2322C51.2011 62.7634 51.837 62.5 52.5 62.5H77.5C78.163 62.5 78.7989 62.7634 79.2678 63.2322C79.7366 63.7011 80 64.337 80 65C80 65.663 79.7366 66.2989 79.2678 66.7678C78.7989 67.2366 78.163 67.5 77.5 67.5ZM77.5 77.5H52.5C51.837 77.5 51.2011 77.2366 50.7322 76.7678C50.2634 76.2989 50 75.663 50 75C50 74.337 50.2634 73.7011 50.7322 73.2322C51.2011 72.7634 51.837 72.5 52.5 72.5H77.5C78.163 72.5 78.7989 72.7634 79.2678 73.2322C79.7366 73.7011 80 74.337 80 75C80 75.663 79.7366 76.2989 79.2678 76.7678C78.7989 77.2366 78.163 77.5 77.5 77.5Z" fill="white"/>
<path d="M77.5 25H42.5C41.1193 25 40 26.1193 40 27.5V42.5C40 43.8807 41.1193 45 42.5 45H77.5C78.8807 45 80 43.8807 80 42.5V27.5C80 26.1193 78.8807 25 77.5 25Z" fill="#D2AC47"/>
<path d="M107.5 32.5H90C88.6193 32.5 87.5 33.6193 87.5 35V50C87.5 51.3807 88.6193 52.5 90 52.5H107.5C108.881 52.5 110 51.3807 110 50V35C110 33.6193 108.881 32.5 107.5 32.5Z" fill="#D2AC47"/>
<path d="M30 32.5H12.5C11.1193 32.5 10 33.6193 10 35V50C10 51.3807 11.1193 52.5 12.5 52.5H30C31.3807 52.5 32.5 51.3807 32.5 50V35C32.5 33.6193 31.3807 32.5 30 32.5Z" fill="#D2AC47"/>
<path d="M112.5 20H92.5C92.5 18.0109 91.7098 16.1032 90.3033 14.6967C88.8968 13.2902 86.9891 12.5 85 12.5H35C33.0109 12.5 31.1032 13.2902 29.6967 14.6967C28.2902 16.1032 27.5 18.0109 27.5 20H7.5C5.51088 20 3.60322 20.7902 2.1967 22.1967C0.790176 23.6032 0 25.5109 0 27.5L0 92.5C0 94.4891 0.790176 96.3968 2.1967 97.8033C3.60322 99.2098 5.51088 100 7.5 100H27.5C27.5 101.989 28.2902 103.897 29.6967 105.303C31.1032 106.71 33.0109 107.5 35 107.5H85C86.9891 107.5 88.8968 106.71 90.3033 105.303C91.7098 103.897 92.5 101.989 92.5 100H112.5C114.489 100 116.397 99.2098 117.803 97.8033C119.21 96.3968 120 94.4891 120 92.5V27.5C120 25.5109 119.21 23.6032 117.803 22.1967C116.397 20.7902 114.489 20 112.5 20ZM7.5 95C6.83696 95 6.20107 94.7366 5.73223 94.2678C5.26339 93.7989 5 93.163 5 92.5V27.5C5 26.837 5.26339 26.2011 5.73223 25.7322C6.20107 25.2634 6.83696 25 7.5 25H27.5V60H22.5C21.837 60 21.2011 60.2634 20.7322 60.7322C20.2634 61.2011 20 61.837 20 62.5C20 63.163 20.2634 63.7989 20.7322 64.2678C21.2011 64.7366 21.837 65 22.5 65H27.5V70H22.5C21.837 70 21.2011 70.2634 20.7322 70.7322C20.2634 71.2011 20 71.837 20 72.5C20 73.163 20.2634 73.7989 20.7322 74.2678C21.2011 74.7366 21.837 75 22.5 75H27.5V80H22.5C21.837 80 21.2011 80.2634 20.7322 80.7322C20.2634 81.2011 20 81.837 20 82.5C20 83.163 20.2634 83.7989 20.7322 84.2678C21.2011 84.7366 21.837 85 22.5 85H27.5V95H7.5ZM87.5 100C87.5 100.663 87.2366 101.299 86.7678 101.768C86.2989 102.237 85.663 102.5 85 102.5H35C34.337 102.5 33.7011 102.237 33.2322 101.768C32.7634 101.299 32.5 100.663 32.5 100V20C32.5 19.337 32.7634 18.7011 33.2322 18.2322C33.7011 17.7634 34.337 17.5 35 17.5H85C85.663 17.5 86.2989 17.7634 86.7678 18.2322C87.2366 18.7011 87.5 19.337 87.5 20V100ZM115 92.5C115 93.163 114.737 93.7989 114.268 94.2678C113.799 94.7366 113.163 95 112.5 95H92.5V85H107.5C108.163 85 108.799 84.7366 109.268 84.2678C109.737 83.7989 110 83.163 110 82.5C110 81.837 109.737 81.2011 109.268 80.7322C108.799 80.2634 108.163 80 107.5 80H92.5V75H107.5C108.163 75 108.799 74.7366 109.268 74.2678C109.737 73.7989 110 73.163 110 72.5C110 71.837 109.737 71.2011 109.268 70.7322C108.799 70.2634 108.163 70 107.5 70H92.5V65H107.5C108.163 65 108.799 64.7366 109.268 64.2678C109.737 63.7989 110 63.163 110 62.5C110 61.837 109.737 61.2011 109.268 60.7322C108.799 60.2634 108.163 60 107.5 60H92.5V25H112.5C113.163 25 113.799 25.2634 114.268 25.7322C114.737 26.2011 115 26.837 115 27.5V92.5Z" fill="white"/>
</g>
<defs>
<clipPath id="clip0_1037_31681">
<rect width="120" height="120" fill="white"/>
</clipPath>
</defs>
</svg>
