<svg width="110" height="110" viewBox="0 0 110 110" fill="none" xmlns="http://www.w3.org/2000/svg">
<path d="M58.4371 106.563H27.4996C25.6021 106.563 24.0621 105.023 24.0621 103.125C24.0621 101.228 25.6021 99.6876 27.4996 99.6876H58.4371C60.3346 99.6876 61.8746 101.228 61.8746 103.125C61.8746 105.023 60.3346 106.563 58.4371 106.563ZM80.7808 106.563H70.4683C68.5708 106.563 67.0308 105.023 67.0308 103.125C67.0308 101.228 68.5708 99.6876 70.4683 99.6876H80.7808C82.6783 99.6876 84.2183 101.228 84.2183 103.125C84.2183 105.023 82.6783 106.563 80.7808 106.563ZM5.15582 104.844C4.27582 104.844 3.39754 104.509 2.72551 103.837C1.38316 102.494 1.38316 100.318 2.72551 98.976L11.3193 90.3822C12.6616 89.0399 14.8375 89.0399 16.1799 90.3822C17.5222 91.7246 17.5222 93.9005 16.1799 95.2429L7.58613 103.837C6.9141 104.509 6.03582 104.844 5.15582 104.844Z" fill="white"/>
<path d="M69.455 55.7046L35.08 90.0796C34.7878 90.389 34.4441 90.6296 34.0488 90.8015L18.58 97.6765C18.1331 97.8655 17.6519 97.9687 17.1878 97.9687C16.2941 97.9687 15.4175 97.6249 14.7644 96.9546L12.6503 94.8405L9.60813 91.7983C8.59407 90.8015 8.31907 89.2718 8.88626 87.9827L15.7613 72.514C15.9331 72.1187 16.1738 71.7749 16.4831 71.4827L50.8581 37.1077C52.1988 35.7499 54.3644 35.7499 55.705 37.1077L67.2378 48.6405L69.455 50.8577C70.8128 52.1983 70.8128 54.364 69.455 55.7046Z" fill="#AE8625"/>
<path d="M67.2378 48.6405L28.205 87.6562C27.9128 87.9655 27.5691 88.2062 27.1738 88.378L12.6503 94.8405L9.60813 91.7983C8.59407 90.8015 8.31907 89.2718 8.88626 87.9827L15.7613 72.514C15.9331 72.1187 16.1738 71.7749 16.4831 71.4827L27.8097 60.1562C28.2909 60.1218 38.0534 59.2108 38.8269 49.139L50.8581 37.1077C52.1988 35.7499 54.3644 35.7499 55.705 37.1077L67.2378 48.6405Z" fill="#D2AC47"/>
<path d="M61.5643 63.5939L35.0784 90.0799C34.4081 90.7502 33.5315 91.0939 32.6549 91.0939C31.7784 91.0939 30.9018 90.7502 30.2315 90.0799L27.9971 87.8455L16.4815 76.3299C15.4674 75.3158 15.2096 73.8549 15.7252 72.6174C15.794 72.4455 15.8799 72.2736 15.9831 72.1189C16.1034 71.8783 16.2753 71.6721 16.4815 71.483L42.9674 44.9971L61.5643 63.5939Z" fill="#D2AC47"/>
<path d="M56.9237 58.9533L28.2034 87.6564C28.1346 87.7252 28.0659 87.7939 27.9971 87.8455L16.4815 76.3299C15.4674 75.3158 15.2096 73.8549 15.7252 72.6174L15.7596 72.5143C15.8112 72.3768 15.8799 72.2393 15.9831 72.1189C16.1034 71.8783 16.2753 71.6721 16.4815 71.483L27.8081 60.1564C28.2893 60.1221 38.0518 59.2111 38.8253 49.1393L42.9674 44.9971L56.9237 58.9533Z" fill="#AE8625"/>
<path d="M30.2261 66.0241C29.3461 66.0241 28.4679 65.689 27.7958 65.0169C26.4535 63.6746 26.4535 61.4987 27.7958 60.1563L38.8199 49.1322C40.1622 47.7899 42.3382 47.7899 43.6805 49.1322C45.0228 50.4746 45.0228 52.6505 43.6805 53.9929L32.6564 65.0169C31.9844 65.689 31.1061 66.0241 30.2261 66.0241Z" fill="#EE781D"/>
<path d="M102.42 50.2562L77.2578 75.4187C72.6859 79.9905 66.6187 82.4999 60.1562 82.4999C58.2656 82.4999 56.7188 80.953 56.7188 79.0624C56.7188 77.1718 58.2656 75.6249 60.1562 75.6249C64.7797 75.6249 69.1281 73.8202 72.3937 70.5546L97.5562 45.3921C98.8969 44.0515 98.8969 41.8858 97.5562 40.528L94.5312 37.5202L72.8922 59.1421C72.2219 59.8124 71.3453 60.1562 70.4688 60.1562C69.5922 60.1562 68.7156 59.8124 68.0453 59.1421L59.4516 50.5483C53.5563 33.1202 94.5141 3.45459 94.5141 3.45459C100.616 6.3249 104.844 12.5468 104.844 19.7483C104.844 24.5608 102.97 29.0812 99.5672 32.4843L99.3953 32.6562L102.42 35.6812C106.425 39.703 106.425 46.2343 102.42 50.2562Z" fill="#FFC242"/>
<path d="M96.2504 11.1547C96.2504 15.9672 94.377 20.4875 90.9738 23.8906L64.2988 50.5484C63.6285 51.2188 62.752 51.5625 61.8754 51.5625C60.9988 51.5625 60.1223 51.2188 59.452 50.5484L47.4207 38.5172C46.0629 37.1766 46.0629 35.0109 47.4207 33.6703L74.0785 6.99531C77.4816 3.59219 82.002 1.71875 86.8144 1.71875C89.5644 1.71875 92.177 2.3375 94.5145 3.45469C95.6316 5.79219 96.2504 8.40469 96.2504 11.1547Z" fill="#FEF156"/>
<path d="M68.7496 20.6251C67.8696 20.6251 66.9913 20.2899 66.3193 19.6179C64.977 18.2755 64.977 16.0996 66.3193 14.7572L74.913 6.1635C76.2554 4.82115 78.4313 4.82115 79.7737 6.1635C81.116 7.50584 81.116 9.68178 79.7737 11.0241L71.1799 19.6179C70.5079 20.2899 69.6296 20.6251 68.7496 20.6251ZM60.1902 29.2188C58.2927 29.2188 56.7441 27.6788 56.7441 25.7813C56.7441 23.8838 58.2755 22.3438 60.173 22.3438H60.1902C62.0895 22.3438 63.6277 23.8838 63.6277 25.7813C63.6277 27.6788 62.0895 29.2188 60.1902 29.2188Z" fill="#FFFBB3"/>
</svg>
