<svg width="120" height="120" viewBox="0 0 120 120" fill="none" xmlns="http://www.w3.org/2000/svg">
<path d="M60.0004 8.6416C84.2301 8.6416 103.948 27.4572 103.948 50.6557C103.948 83.2619 60.0004 111.359 60.0004 111.359C60.0004 111.359 16.0527 83.2619 16.0527 50.6557C16.0527 27.4572 35.7707 8.6416 60.0004 8.6416ZM92.0863 51.8135C92.0863 45.4675 90.2045 39.264 86.6789 33.9875C83.1532 28.711 78.1421 24.5984 72.2792 22.1699C66.4162 19.7414 59.9648 19.106 53.7407 20.3441C47.5167 21.5821 41.7995 24.638 37.3122 29.1253C32.8249 33.6126 29.769 39.3298 28.531 45.5538C27.2929 51.7779 27.9283 58.2293 30.3568 64.0922C32.7854 69.9552 36.8979 74.9663 42.1744 78.492C47.4509 82.0176 53.6544 83.8994 60.0004 83.8994C64.214 83.8994 68.3863 83.0695 72.2792 81.457C76.172 79.8446 79.7091 77.4811 82.6886 74.5017C85.668 71.5222 88.0315 67.9851 89.6439 64.0922C91.2564 60.1994 92.0863 56.0271 92.0863 51.8135Z" fill="#DFAF31"/>
<path d="M83.1709 49.3807V52.6807C83.1708 53.6454 82.7875 54.5705 82.1054 55.2526C81.4232 55.9348 80.4981 56.318 79.5334 56.3182H77.2178V45.7432H79.5334C80.4981 45.7433 81.4232 46.1266 82.1054 46.8087C82.7875 47.4908 83.1708 48.416 83.1709 49.3807Z" fill="#F5F5F5"/>
<path d="M60 19.7275C66.346 19.7275 72.5495 21.6093 77.826 25.135C83.1025 28.6606 87.215 33.6718 89.6435 39.5347C92.0721 45.3977 92.7075 51.8491 91.4694 58.0731C90.2314 64.2972 87.1755 70.0144 82.6882 74.5017C78.2009 78.989 72.4837 82.0448 66.2597 83.2829C60.0356 84.5209 53.5842 83.8855 47.7212 81.457C41.8583 79.0285 36.8472 74.916 33.3215 69.6395C29.7959 64.363 27.9141 58.1595 27.9141 51.8135C27.9141 43.3038 31.2945 35.1426 37.3118 29.1253C43.3291 23.108 51.4903 19.7275 60 19.7275ZM83.1703 52.6807V49.3807C83.1702 48.416 82.7869 47.4908 82.1048 46.8087C81.4226 46.1266 80.4975 45.7433 79.5328 45.7432H77.2172V44.0229C77.2172 43.0579 76.834 42.1325 76.1519 41.4499C75.4698 40.7674 74.5446 40.3836 73.5797 40.383H69.8227V48.0799H50.1773V40.383H46.4203C45.4554 40.3836 44.5302 40.7674 43.8481 41.4499C43.166 42.1325 42.7828 43.0579 42.7828 44.0229V45.7432H40.4672C39.5025 45.7433 38.5774 46.1266 37.8952 46.8087C37.2131 47.4908 36.8298 48.416 36.8297 49.3807V52.6807C36.8298 53.6454 37.2131 54.5705 37.8952 55.2526C38.5774 55.9348 39.5025 56.318 40.4672 56.3182H42.7828V58.6338C42.7829 59.5985 43.1662 60.5236 43.8484 61.2057C44.5305 61.8879 45.4556 62.2712 46.4203 62.2713H50.1773V54.5768H69.8227V62.2736H73.5797C74.5446 62.273 75.4698 61.8893 76.1519 61.2067C76.834 60.5242 77.2172 59.5987 77.2172 58.6338V56.3182H79.5328C80.4975 56.318 81.4226 55.9348 82.1048 55.2526C82.7869 54.5705 83.1702 53.6454 83.1703 52.6807Z" fill="#F7EF8A"/>
<path d="M77.2178 56.318V58.6336C77.2178 59.5985 76.8346 60.524 76.1525 61.2065C75.4704 61.8891 74.5452 62.2728 73.5803 62.2734H69.8232V40.3828H73.5803C74.5452 40.3834 75.4704 40.7672 76.1525 41.4497C76.8346 42.1323 77.2178 43.0577 77.2178 44.0227V56.318Z" fill="#F5F5F5"/>
<path d="M69.823 48.0801V54.577H69.7809H50.1777V48.0801H69.6707H69.823Z" fill="#F5F5F5"/>
<path d="M50.1777 54.5766V62.2711H46.4207C45.456 62.271 44.5309 61.8877 43.8487 61.2056C43.1666 60.5234 42.7833 59.5983 42.7832 58.6336V44.0227C42.7832 43.0577 43.1664 42.1323 43.8485 41.4497C44.5306 40.7672 45.4558 40.3834 46.4207 40.3828H50.1777V54.5766Z" fill="#F5F5F5"/>
<path d="M42.7832 45.7432V56.3182H40.4676C39.5029 56.318 38.5778 55.9348 37.8956 55.2526C37.2135 54.5705 36.8302 53.6454 36.8301 52.6807V49.3807C36.8302 48.416 37.2135 47.4908 37.8956 46.8087C38.5778 46.1266 39.5029 45.7433 40.4676 45.7432H42.7832Z" fill="#F5F5F5"/>
<path d="M36.3609 94.8832C47.4044 106.039 58.2803 113.041 58.738 113.333C59.115 113.574 59.553 113.702 60.0004 113.702C60.4478 113.702 60.8858 113.574 61.2627 113.333C61.7205 113.041 72.5964 106.04 83.6399 94.8832C90.163 88.2932 95.3702 81.6229 99.1169 75.0581C103.878 66.7157 106.292 58.5056 106.292 50.6557C106.292 26.1965 85.5262 6.29785 60.0004 6.29785C34.4746 6.29785 13.709 26.1965 13.709 50.6557C13.709 58.5056 16.123 66.7157 20.8839 75.0581C24.6306 81.6229 29.8377 88.2932 36.3609 94.8832ZM60.0004 10.9854C82.9408 10.9854 101.604 28.7814 101.604 50.6557C101.604 57.6677 99.4056 65.0821 95.0692 72.693C91.5363 78.8941 86.5916 85.2288 80.3725 91.5211C74.1133 97.8013 67.2943 103.498 60.0004 108.539C52.7064 103.498 45.8874 97.8011 39.6283 91.5206C33.4091 85.2283 28.4645 78.8936 24.9316 72.6925C20.5956 65.0817 18.3965 57.6672 18.3965 50.6552C18.3965 28.7814 37.06 10.9854 60.0004 10.9854Z" fill="#272727"/>
<path d="M60 86.2432C78.9844 86.2432 94.4297 70.7979 94.4297 51.8135C94.4297 32.8291 78.9844 17.3838 60 17.3838C41.0156 17.3838 25.5703 32.8291 25.5703 51.8135C25.5703 70.7979 41.0156 86.2432 60 86.2432ZM60 22.0713C65.8825 22.0713 71.6328 23.8156 76.5239 27.0838C81.415 30.3519 85.2271 34.997 87.4782 40.4316C89.7293 45.8663 90.3183 51.8465 89.1707 57.6159C88.0231 63.3853 85.1904 68.6849 81.0309 72.8444C76.8714 77.0039 71.5718 79.8366 65.8024 80.9842C60.033 82.1318 54.0528 81.5428 48.6182 79.2917C43.1835 77.0406 38.5384 73.2284 35.2703 68.3374C32.0022 63.4463 30.2578 57.6959 30.2578 51.8135C30.2667 43.9281 33.4032 36.3682 38.979 30.7924C44.5548 25.2166 52.1146 22.0802 60 22.0713Z" fill="#272727"/>
<path d="M46.4203 64.6875H50.1773C50.8041 64.6701 51.399 64.407 51.8335 63.955C52.2681 63.5029 52.5074 62.8981 52.5 62.2711V56.9531H67.5V62.2734C67.4926 62.9002 67.7321 63.5047 68.1667 63.9564C68.6013 64.4081 69.1961 64.6707 69.8227 64.6875H73.5797C75.1663 64.678 76.6852 64.0439 77.8077 62.9225C78.9301 61.8011 79.5656 60.2827 79.5766 58.6962C81.1629 58.6799 82.6788 58.0395 83.7963 56.9135C84.9137 55.7876 85.5426 54.2668 85.5469 52.6805V49.3805C85.5392 47.7871 84.9034 46.2611 83.7774 45.1338C82.6514 44.0065 81.1261 43.3689 79.5328 43.3594H79.5284C79.381 41.8835 78.6909 40.5149 77.5918 39.5189C76.4927 38.5229 75.0629 37.9705 73.5797 37.9688H69.8227C69.1961 37.9856 68.6013 38.2482 68.1667 38.6999C67.7321 39.1516 67.4926 39.7561 67.5 40.3828V45.7031H52.5V40.3828C52.5074 39.7561 52.2679 39.1516 51.8333 38.6999C51.3987 38.2482 50.8039 37.9856 50.1773 37.9688H46.4203C44.9371 37.9705 43.5073 38.5229 42.4082 39.5189C41.3091 40.5149 40.619 41.8835 40.4716 43.3594H40.4672C38.8739 43.3689 37.3486 44.0065 36.2226 45.1338C35.0966 46.2611 34.4608 47.7871 34.4531 49.3805V52.6805C34.4573 54.2669 35.0862 55.7879 36.2036 56.914C37.321 58.0401 38.837 58.6808 40.4234 58.6973C40.4346 60.2837 41.0703 61.8018 42.1927 62.923C43.3151 64.0441 44.8339 64.678 46.4203 64.6875ZM80.8594 49.3805V52.6805C80.8594 53.3836 80.1562 53.9576 79.4531 53.9728V48.0881C80.1562 48.1034 80.8594 48.6764 80.8594 49.3805ZM72.1875 42.6562H73.5797C74.2931 42.6562 74.7656 43.308 74.7656 44.0227V58.6336C74.7656 59.3482 74.2931 60 73.5797 60H72.1875V42.6562ZM67.5 50.3906V52.2656H52.5V50.3906H67.5ZM45.2344 44.0227C45.2344 43.308 45.7069 42.6562 46.4203 42.6562H47.8125V60H46.4203C45.7069 60 45.2344 59.347 45.2344 58.6336V44.0227ZM39.1406 52.6805V49.3805C39.1406 48.6773 39.8438 48.1034 40.5469 48.0881V53.9728C39.8438 53.9576 39.1406 53.3843 39.1406 52.6805Z" fill="#272727"/>
</svg>
