<svg width="332" height="262" viewBox="0 0 332 262" fill="none" xmlns="http://www.w3.org/2000/svg">
<g clip-path="url(#clip0_1037_31691)" filter="url(#filter0_dd_1037_31691)">
<g filter="url(#filter1_d_1037_31691)">
<path d="M217.988 94.8164H246.485C246.825 98.2423 246.64 100.92 245.921 103.139C242.614 113.342 228.751 113.735 218.195 113.735L220.593 124.054H246.485C255.356 124.054 260.151 141.743 249.363 141.743H224.908L227.306 152.554H230.119C240.927 152.554 253.226 153.027 260.046 161.56C262.041 164.058 263.407 166.918 264.946 170.49H238.532C231.118 170.49 223.333 169.854 217.53 165.158C212.385 160.993 210.228 154.14 208.71 147.631L201.763 117.815C200.282 111.46 199.641 104.243 203.919 99.3754C207.3 95.5293 212.918 94.8164 217.988 94.8164Z" fill="url(#paint0_linear_1037_31691)"/>
<path d="M67.6035 93.8418C67.6035 93.8418 80.2029 151.196 83.1281 161.503C86.0534 171.81 99.4541 173.289 106.597 163.176C112.158 155.302 112.805 153.696 112.819 153.37C112.796 153.329 112.818 153.31 112.819 153.357C112.819 153.361 112.819 153.366 112.819 153.37C113.035 153.766 114.204 155.795 119.301 163.421C125.152 172.176 139.037 172.345 142.552 163.87C146.068 155.396 159.787 95.8136 160.849 95.6417C154.225 96.6029 149.53 97.4395 145.33 100.966C139.631 105.752 137.607 113.549 135.8 120.84L129.189 147.504C125.368 139.87 122.826 134.247 114.769 132.612C114.658 132.59 114.542 132.581 114.429 132.587C106.434 132.985 102.042 136.953 97.3084 146.889L91.9196 121.816C90.0803 113.258 87.8863 104.025 81.1419 98.5825C77.4579 95.6095 73.3568 94.5242 67.6035 93.8418Z" fill="url(#paint1_linear_1037_31691)"/>
<path d="M167.609 102.986C163.249 114.971 150.107 170.49 150.107 170.49C153.475 170.473 156.235 170.205 158.721 169.414C168.561 166.283 172.08 154.432 175.074 144.351L175.165 144.045C176.691 138.907 178.095 134.416 178.398 134.215C178.724 133.998 180.232 139.161 181.784 144.87C184.396 154.48 187.298 165.924 196.572 169.135C199.221 170.053 202.226 170.377 205.968 170.49C205.968 170.49 192.736 112.727 189.186 102.986C185.636 93.244 171.968 91.0003 167.609 102.986Z" fill="url(#paint2_linear_1037_31691)"/>
<path d="M178.156 88.9611C184.114 88.9611 188.945 84.0449 188.945 77.9805C188.945 71.9162 184.114 67 178.156 67C172.197 67 167.367 71.9162 167.367 77.9805C167.367 84.0449 172.197 88.9611 178.156 88.9611Z" fill="url(#paint3_linear_1037_31691)"/>
</g>
<path d="M109.593 191.869C109.408 191.869 109.284 191.763 109.221 191.549L106.429 182.332C106.391 182.212 106.405 182.091 106.473 181.972C106.541 181.847 106.648 181.784 106.794 181.784C106.876 181.784 106.949 181.81 107.013 181.862C107.081 181.909 107.127 181.982 107.151 182.081L109.746 190.641H109.534L111.991 182.105C112.025 181.99 112.083 181.907 112.166 181.854C112.253 181.802 112.343 181.776 112.435 181.776C112.533 181.776 112.625 181.802 112.712 181.854C112.8 181.907 112.856 181.99 112.88 182.105L115.336 190.641H115.125L117.72 182.081C117.754 181.982 117.8 181.909 117.858 181.862C117.922 181.81 117.994 181.784 118.077 181.784C118.242 181.784 118.354 181.844 118.412 181.964C118.476 182.084 118.488 182.207 118.449 182.332L115.65 191.549C115.587 191.763 115.453 191.869 115.249 191.869H115.22C115.011 191.869 114.877 191.763 114.819 191.549L112.319 182.926H112.53L110.03 191.549C109.996 191.68 109.943 191.765 109.87 191.807C109.797 191.848 109.705 191.869 109.593 191.869Z" fill="url(#paint4_linear_1037_31691)"/>
<path d="M119.582 188.488V189.06C119.582 189.795 119.718 190.312 119.99 190.609C120.267 190.901 120.753 191.047 121.448 191.047H122.643C123.255 191.047 123.7 190.964 123.977 190.797C124.259 190.625 124.426 190.33 124.48 189.913C124.499 189.782 124.538 189.683 124.596 189.615C124.66 189.547 124.754 189.514 124.881 189.514C125.007 189.514 125.102 189.553 125.165 189.631C125.233 189.704 125.26 189.809 125.245 189.944C125.182 190.601 124.937 191.086 124.509 191.4C124.081 191.712 123.459 191.868 122.643 191.868H121.448C120.539 191.868 119.873 191.644 119.451 191.196C119.028 190.742 118.816 190.03 118.816 189.06V187.292C118.816 186.306 119.028 185.588 119.451 185.14C119.873 184.686 120.539 184.465 121.448 184.475H122.643C123.552 184.475 124.215 184.702 124.633 185.155C125.056 185.604 125.267 186.316 125.267 187.292V188.074C125.267 188.351 125.141 188.488 124.888 188.488H119.582ZM121.448 185.297C120.753 185.286 120.267 185.429 119.99 185.727C119.718 186.018 119.582 186.54 119.582 187.292V187.667H124.502V187.292C124.502 186.545 124.366 186.027 124.094 185.734C123.821 185.442 123.338 185.297 122.643 185.297H121.448Z" fill="url(#paint5_linear_1037_31691)"/>
<path d="M130.717 191.83C130.484 191.72 130.414 191.537 130.506 191.282L134.121 182.104C134.199 181.89 134.342 181.783 134.551 181.783H134.595C134.794 181.788 134.935 181.896 135.018 182.104L138.633 191.282C138.73 191.537 138.662 191.72 138.429 191.83C138.191 191.934 138.025 191.861 137.933 191.61L136.964 189.146H132.19L131.22 191.61C131.123 191.861 130.956 191.934 130.717 191.83ZM132.503 188.325H136.643L134.573 183.082L132.503 188.325Z" fill="url(#paint6_linear_1037_31691)"/>
<path d="M140.654 191.868C140.396 191.868 140.268 191.73 140.268 191.453V184.88C140.268 184.61 140.396 184.474 140.654 184.474C140.907 184.474 141.033 184.61 141.033 184.88V186.086C141.285 185.564 141.65 185.165 142.126 184.889C142.607 184.612 143.175 184.474 143.832 184.474C144.089 184.474 144.218 184.61 144.218 184.88C144.218 185.157 144.089 185.296 143.832 185.296C142.967 185.296 142.297 185.506 141.82 185.929C141.344 186.346 141.081 186.944 141.033 187.721V191.453C141.033 191.73 140.907 191.868 140.654 191.868Z" fill="url(#paint7_linear_1037_31691)"/>
<path d="M146.047 188.488V189.06C146.047 189.795 146.183 190.312 146.455 190.609C146.732 190.901 147.217 191.047 147.913 191.047H149.108C149.72 191.047 150.165 190.964 150.442 190.797C150.723 190.625 150.891 190.33 150.944 189.913C150.964 189.782 151.003 189.683 151.061 189.615C151.124 189.547 151.219 189.514 151.346 189.514C151.472 189.514 151.566 189.553 151.63 189.631C151.698 189.704 151.724 189.809 151.71 189.944C151.647 190.601 151.401 191.086 150.974 191.4C150.546 191.712 149.924 191.868 149.108 191.868H147.913C147.004 191.868 146.338 191.644 145.915 191.196C145.493 190.742 145.281 190.03 145.281 189.06V187.292C145.281 186.306 145.493 185.588 145.915 185.14C146.338 184.686 147.004 184.465 147.913 184.475H149.108C150.016 184.475 150.68 184.702 151.098 185.155C151.52 185.604 151.732 186.316 151.732 187.292V188.074C151.732 188.351 151.605 188.488 151.353 188.488H146.047ZM147.913 185.297C147.217 185.286 146.732 185.429 146.455 185.727C146.183 186.018 146.047 186.54 146.047 187.292V187.667H150.966V187.292C150.966 186.545 150.83 186.027 150.558 185.734C150.286 185.442 149.803 185.297 149.108 185.297H147.913Z" fill="url(#paint8_linear_1037_31691)"/>
<path d="M158.306 191.868C158.049 191.868 157.92 191.731 157.92 191.454V182.198C157.92 181.922 158.049 181.783 158.306 181.783H163.766C164.023 181.783 164.152 181.922 164.152 182.198C164.152 182.469 164.023 182.605 163.766 182.605H158.685V186.353H162.045C162.303 186.353 162.431 186.488 162.431 186.76C162.431 187.036 162.303 187.174 162.045 187.174H158.685V191.047H163.766C164.023 191.047 164.152 191.183 164.152 191.454C164.152 191.731 164.023 191.868 163.766 191.868H158.306Z" fill="url(#paint9_linear_1037_31691)"/>
<path d="M166.479 191.868C166.221 191.868 166.092 191.73 166.092 191.453V184.88C166.092 184.61 166.221 184.474 166.479 184.474C166.731 184.474 166.857 184.61 166.857 184.88V185.632C167.319 184.86 168.155 184.474 169.365 184.474H169.773C170.681 184.474 171.345 184.701 171.763 185.154C172.185 185.603 172.397 186.315 172.397 187.291V191.453C172.397 191.73 172.271 191.868 172.018 191.868C171.761 191.868 171.632 191.73 171.632 191.453V187.291C171.632 186.544 171.493 186.026 171.216 185.733C170.944 185.442 170.463 185.296 169.773 185.296H169.365C168.611 185.296 168.018 185.423 167.586 185.679C167.154 185.934 166.911 186.333 166.857 186.876V191.453C166.857 191.73 166.731 191.868 166.479 191.868Z" fill="url(#paint10_linear_1037_31691)"/>
<path d="M176.666 194.998C176.093 194.998 175.656 194.87 175.355 194.614C175.053 194.364 174.876 193.968 174.822 193.425C174.808 193.289 174.835 193.183 174.903 193.104C174.971 193.026 175.065 192.987 175.186 192.987C175.308 192.987 175.401 193.02 175.463 193.089C175.527 193.157 175.568 193.258 175.588 193.394C175.621 193.696 175.721 193.902 175.886 194.012C176.051 194.121 176.312 194.176 176.666 194.176H179.377C179.805 194.176 180.095 194.093 180.245 193.926C180.4 193.759 180.479 193.446 180.479 192.987V190.749C180.255 191.114 179.939 191.394 179.531 191.586C179.122 191.774 178.605 191.868 177.978 191.868H177.424C176.516 191.868 175.85 191.644 175.427 191.195C175.004 190.741 174.793 190.029 174.793 189.059V187.291C174.793 186.305 175.002 185.59 175.42 185.147C175.842 184.698 176.511 184.474 177.424 184.474H178.62C179.096 184.474 179.482 184.542 179.779 184.677C180.075 184.813 180.308 185.024 180.479 185.311V184.88C180.479 184.61 180.607 184.474 180.865 184.474C181.117 184.474 181.243 184.61 181.243 184.88V192.987C181.243 193.675 181.093 194.181 180.792 194.505C180.49 194.833 180.019 194.998 179.377 194.998H176.666ZM177.424 191.046H177.978C178.736 191.046 179.341 190.919 179.793 190.663C180.25 190.408 180.479 190.019 180.479 189.497V186.884C180.479 186.294 180.325 185.882 180.019 185.648C179.713 185.413 179.247 185.296 178.62 185.296H177.424C176.729 185.296 176.244 185.442 175.967 185.733C175.695 186.021 175.559 186.539 175.559 187.291V189.059C175.559 189.794 175.695 190.311 175.967 190.608C176.244 190.9 176.729 191.046 177.424 191.046Z" fill="url(#paint11_linear_1037_31691)"/>
<path d="M184.064 183.05C183.728 183.05 183.561 182.865 183.561 182.495V182.143C183.561 181.783 183.728 181.603 184.064 181.603H184.391C184.717 181.603 184.88 181.783 184.88 182.143V182.495C184.88 182.865 184.717 183.05 184.391 183.05H184.064ZM184.231 191.868C183.974 191.868 183.844 191.731 183.844 191.454V184.881C183.844 184.61 183.974 184.475 184.231 184.475C184.483 184.475 184.61 184.61 184.61 184.881V191.454C184.61 191.731 184.483 191.868 184.231 191.868Z" fill="url(#paint12_linear_1037_31691)"/>
<path d="M187.718 191.868C187.461 191.868 187.332 191.73 187.332 191.453V184.88C187.332 184.61 187.461 184.474 187.718 184.474C187.971 184.474 188.097 184.61 188.097 184.88V185.632C188.559 184.86 189.395 184.474 190.605 184.474H191.013C191.922 184.474 192.585 184.701 193.002 185.154C193.425 185.603 193.636 186.315 193.636 187.291V191.453C193.636 191.73 193.511 191.868 193.258 191.868C193 191.868 192.871 191.73 192.871 191.453V187.291C192.871 186.544 192.733 186.026 192.456 185.733C192.183 185.442 191.702 185.296 191.013 185.296H190.605C189.851 185.296 189.259 185.423 188.826 185.679C188.394 185.934 188.15 186.333 188.097 186.876V191.453C188.097 191.73 187.971 191.868 187.718 191.868Z" fill="url(#paint13_linear_1037_31691)"/>
<path d="M196.799 188.488V189.059C196.799 189.795 196.935 190.311 197.207 190.609C197.484 190.901 197.969 191.046 198.665 191.046H199.86C200.472 191.046 200.917 190.963 201.194 190.796C201.475 190.624 201.644 190.33 201.697 189.912C201.716 189.782 201.755 189.682 201.813 189.615C201.877 189.547 201.971 189.513 202.098 189.513C202.224 189.513 202.318 189.552 202.382 189.63C202.45 189.704 202.476 189.808 202.462 189.943C202.399 190.601 202.153 191.086 201.726 191.399C201.298 191.712 200.676 191.868 199.86 191.868H198.665C197.756 191.868 197.09 191.644 196.667 191.195C196.245 190.741 196.033 190.03 196.033 189.059V187.291C196.033 186.305 196.245 185.588 196.667 185.139C197.09 184.686 197.756 184.464 198.665 184.474H199.86C200.768 184.474 201.432 184.701 201.85 185.155C202.272 185.603 202.484 186.316 202.484 187.291V188.073C202.484 188.35 202.358 188.488 202.105 188.488H196.799ZM198.665 185.296C197.969 185.286 197.484 185.429 197.207 185.726C196.935 186.018 196.799 186.54 196.799 187.291V187.666H201.719V187.291C201.719 186.545 201.583 186.026 201.31 185.734C201.038 185.442 200.555 185.296 199.86 185.296H198.665Z" fill="url(#paint14_linear_1037_31691)"/>
<path d="M205.58 188.488V189.059C205.58 189.795 205.716 190.311 205.988 190.609C206.265 190.901 206.751 191.046 207.446 191.046H208.641C209.253 191.046 209.698 190.963 209.975 190.796C210.257 190.624 210.425 190.33 210.478 189.912C210.497 189.782 210.536 189.682 210.594 189.615C210.658 189.547 210.752 189.513 210.879 189.513C211.005 189.513 211.1 189.552 211.163 189.63C211.231 189.704 211.258 189.808 211.243 189.943C211.18 190.601 210.934 191.086 210.507 191.399C210.08 191.712 209.457 191.868 208.641 191.868H207.446C206.537 191.868 205.872 191.644 205.448 191.195C205.026 190.741 204.814 190.03 204.814 189.059V187.291C204.814 186.305 205.026 185.588 205.448 185.139C205.872 184.686 206.537 184.464 207.446 184.474H208.641C209.55 184.474 210.214 184.701 210.631 185.155C211.054 185.603 211.265 186.316 211.265 187.291V188.073C211.265 188.35 211.139 188.488 210.886 188.488H205.58ZM207.446 185.296C206.751 185.286 206.265 185.429 205.988 185.726C205.716 186.018 205.58 186.54 205.58 187.291V187.666H210.5V187.291C210.5 186.545 210.364 186.026 210.091 185.734C209.819 185.442 209.336 185.296 208.641 185.296H207.446Z" fill="url(#paint15_linear_1037_31691)"/>
<path d="M214.184 191.868C213.926 191.868 213.797 191.73 213.797 191.453V184.88C213.797 184.61 213.926 184.474 214.184 184.474C214.436 184.474 214.562 184.61 214.562 184.88V186.086C214.815 185.564 215.18 185.165 215.656 184.889C216.137 184.612 216.706 184.474 217.361 184.474C217.619 184.474 217.747 184.61 217.747 184.88C217.747 185.157 217.619 185.296 217.361 185.296C216.496 185.296 215.826 185.506 215.35 185.929C214.873 186.346 214.611 186.944 214.562 187.721V191.453C214.562 191.73 214.436 191.868 214.184 191.868Z" fill="url(#paint16_linear_1037_31691)"/>
</g>
<defs>
<filter id="filter0_dd_1037_31691" x="-2.96" y="0.0400009" width="337.92" height="261.92" filterUnits="userSpaceOnUse" color-interpolation-filters="sRGB">
<feFlood flood-opacity="0" result="BackgroundImageFix"/>
<feColorMatrix in="SourceAlpha" type="matrix" values="0 0 0 0 0 0 0 0 0 0 0 0 0 0 0 0 0 0 127 0" result="hardAlpha"/>
<feOffset/>
<feGaussianBlur stdDeviation="16.74"/>
<feColorMatrix type="matrix" values="0 0 0 0 0.52549 0 0 0 0 0.439216 0 0 0 0 0.0156863 0 0 0 1 0"/>
<feBlend mode="normal" in2="BackgroundImageFix" result="effect1_dropShadow_1037_31691"/>
<feColorMatrix in="SourceAlpha" type="matrix" values="0 0 0 0 0 0 0 0 0 0 0 0 0 0 0 0 0 0 127 0" result="hardAlpha"/>
<feOffset/>
<feGaussianBlur stdDeviation="33.48"/>
<feColorMatrix type="matrix" values="0 0 0 0 0.52549 0 0 0 0 0.439216 0 0 0 0 0.0156863 0 0 0 1 0"/>
<feBlend mode="normal" in2="effect1_dropShadow_1037_31691" result="effect2_dropShadow_1037_31691"/>
<feBlend mode="normal" in="SourceGraphic" in2="effect2_dropShadow_1037_31691" result="shape"/>
</filter>
<filter id="filter1_d_1037_31691" x="63.6035" y="67" width="205.344" height="111.49" filterUnits="userSpaceOnUse" color-interpolation-filters="sRGB">
<feFlood flood-opacity="0" result="BackgroundImageFix"/>
<feColorMatrix in="SourceAlpha" type="matrix" values="0 0 0 0 0 0 0 0 0 0 0 0 0 0 0 0 0 0 127 0" result="hardAlpha"/>
<feOffset dy="4"/>
<feGaussianBlur stdDeviation="2"/>
<feComposite in2="hardAlpha" operator="out"/>
<feColorMatrix type="matrix" values="0 0 0 0 0 0 0 0 0 0 0 0 0 0 0 0 0 0 0.25 0"/>
<feBlend mode="normal" in2="BackgroundImageFix" result="effect1_dropShadow_1037_31691"/>
<feBlend mode="normal" in="SourceGraphic" in2="effect1_dropShadow_1037_31691" result="shape"/>
</filter>
<linearGradient id="paint0_linear_1037_31691" x1="232.221" y1="94.8164" x2="232.221" y2="170.49" gradientUnits="userSpaceOnUse">
<stop stop-color="#F7EF8A"/>
<stop offset="0.375" stop-color="#EDC967"/>
<stop offset="0.786458" stop-color="#D2AC47"/>
<stop offset="1" stop-color="#AE8625"/>
</linearGradient>
<linearGradient id="paint1_linear_1037_31691" x1="114.226" y1="94.7417" x2="112.766" y2="170.4" gradientUnits="userSpaceOnUse">
<stop stop-color="#F7EF8A"/>
<stop offset="0.375" stop-color="#EDC967"/>
<stop offset="0.786458" stop-color="#D2AC47"/>
<stop offset="1" stop-color="#AE8625"/>
</linearGradient>
<linearGradient id="paint2_linear_1037_31691" x1="178.038" y1="94.8164" x2="178.038" y2="170.49" gradientUnits="userSpaceOnUse">
<stop stop-color="#F7EF8A"/>
<stop offset="0.375" stop-color="#EDC967"/>
<stop offset="0.786458" stop-color="#D2AC47"/>
<stop offset="1" stop-color="#AE8625"/>
</linearGradient>
<linearGradient id="paint3_linear_1037_31691" x1="178.156" y1="67" x2="178.156" y2="88.9611" gradientUnits="userSpaceOnUse">
<stop stop-color="#F7EF8A"/>
<stop offset="0.375" stop-color="#EDC967"/>
<stop offset="0.786458" stop-color="#D2AC47"/>
<stop offset="1" stop-color="#AE8625"/>
</linearGradient>
<linearGradient id="paint4_linear_1037_31691" x1="165.634" y1="181.604" x2="165.634" y2="194.999" gradientUnits="userSpaceOnUse">
<stop stop-color="#F7EF8A"/>
<stop offset="0.375" stop-color="#EDC967"/>
<stop offset="0.786458" stop-color="#D2AC47"/>
<stop offset="1" stop-color="#AE8625"/>
</linearGradient>
<linearGradient id="paint5_linear_1037_31691" x1="165.635" y1="181.603" x2="165.635" y2="194.999" gradientUnits="userSpaceOnUse">
<stop stop-color="#F7EF8A"/>
<stop offset="0.375" stop-color="#EDC967"/>
<stop offset="0.786458" stop-color="#D2AC47"/>
<stop offset="1" stop-color="#AE8625"/>
</linearGradient>
<linearGradient id="paint6_linear_1037_31691" x1="165.633" y1="181.603" x2="165.633" y2="194.998" gradientUnits="userSpaceOnUse">
<stop stop-color="#F7EF8A"/>
<stop offset="0.375" stop-color="#EDC967"/>
<stop offset="0.786458" stop-color="#D2AC47"/>
<stop offset="1" stop-color="#AE8625"/>
</linearGradient>
<linearGradient id="paint7_linear_1037_31691" x1="165.634" y1="181.602" x2="165.634" y2="194.998" gradientUnits="userSpaceOnUse">
<stop stop-color="#F7EF8A"/>
<stop offset="0.375" stop-color="#EDC967"/>
<stop offset="0.786458" stop-color="#D2AC47"/>
<stop offset="1" stop-color="#AE8625"/>
</linearGradient>
<linearGradient id="paint8_linear_1037_31691" x1="165.634" y1="181.603" x2="165.634" y2="194.999" gradientUnits="userSpaceOnUse">
<stop stop-color="#F7EF8A"/>
<stop offset="0.375" stop-color="#EDC967"/>
<stop offset="0.786458" stop-color="#D2AC47"/>
<stop offset="1" stop-color="#AE8625"/>
</linearGradient>
<linearGradient id="paint9_linear_1037_31691" x1="165.634" y1="181.603" x2="165.634" y2="194.998" gradientUnits="userSpaceOnUse">
<stop stop-color="#F7EF8A"/>
<stop offset="0.375" stop-color="#EDC967"/>
<stop offset="0.786458" stop-color="#D2AC47"/>
<stop offset="1" stop-color="#AE8625"/>
</linearGradient>
<linearGradient id="paint10_linear_1037_31691" x1="165.635" y1="181.602" x2="165.635" y2="194.998" gradientUnits="userSpaceOnUse">
<stop stop-color="#F7EF8A"/>
<stop offset="0.375" stop-color="#EDC967"/>
<stop offset="0.786458" stop-color="#D2AC47"/>
<stop offset="1" stop-color="#AE8625"/>
</linearGradient>
<linearGradient id="paint11_linear_1037_31691" x1="165.635" y1="181.602" x2="165.635" y2="194.998" gradientUnits="userSpaceOnUse">
<stop stop-color="#F7EF8A"/>
<stop offset="0.375" stop-color="#EDC967"/>
<stop offset="0.786458" stop-color="#D2AC47"/>
<stop offset="1" stop-color="#AE8625"/>
</linearGradient>
<linearGradient id="paint12_linear_1037_31691" x1="165.635" y1="181.603" x2="165.635" y2="194.998" gradientUnits="userSpaceOnUse">
<stop stop-color="#F7EF8A"/>
<stop offset="0.375" stop-color="#EDC967"/>
<stop offset="0.786458" stop-color="#D2AC47"/>
<stop offset="1" stop-color="#AE8625"/>
</linearGradient>
<linearGradient id="paint13_linear_1037_31691" x1="165.634" y1="181.602" x2="165.634" y2="194.998" gradientUnits="userSpaceOnUse">
<stop stop-color="#F7EF8A"/>
<stop offset="0.375" stop-color="#EDC967"/>
<stop offset="0.786458" stop-color="#D2AC47"/>
<stop offset="1" stop-color="#AE8625"/>
</linearGradient>
<linearGradient id="paint14_linear_1037_31691" x1="165.635" y1="181.603" x2="165.635" y2="194.998" gradientUnits="userSpaceOnUse">
<stop stop-color="#F7EF8A"/>
<stop offset="0.375" stop-color="#EDC967"/>
<stop offset="0.786458" stop-color="#D2AC47"/>
<stop offset="1" stop-color="#AE8625"/>
</linearGradient>
<linearGradient id="paint15_linear_1037_31691" x1="165.633" y1="181.603" x2="165.633" y2="194.998" gradientUnits="userSpaceOnUse">
<stop stop-color="#F7EF8A"/>
<stop offset="0.375" stop-color="#EDC967"/>
<stop offset="0.786458" stop-color="#D2AC47"/>
<stop offset="1" stop-color="#AE8625"/>
</linearGradient>
<linearGradient id="paint16_linear_1037_31691" x1="165.635" y1="181.602" x2="165.635" y2="194.998" gradientUnits="userSpaceOnUse">
<stop stop-color="#F7EF8A"/>
<stop offset="0.375" stop-color="#EDC967"/>
<stop offset="0.786458" stop-color="#D2AC47"/>
<stop offset="1" stop-color="#AE8625"/>
</linearGradient>
<clipPath id="clip0_1037_31691">
<rect width="204" height="128" fill="white" transform="translate(64 67)"/>
</clipPath>
</defs>
</svg>
