<svg width="120" height="120" viewBox="0 0 120 120" fill="none" xmlns="http://www.w3.org/2000/svg">
<path d="M52.1592 59.3237C47.1534 57.072 42.1465 54.8212 37.1384 52.5714C36.9283 52.477 36.7397 52.3407 36.584 52.171C36.4283 52.0013 36.3088 51.8017 36.2328 51.5843C36.1568 51.3669 36.1258 51.1363 36.1418 50.9066C36.1578 50.6769 36.2204 50.4528 36.3258 50.248C40.4292 42.2722 44.5323 34.2955 48.6349 26.3179" fill="#E09B3D"/>
<path d="M105.75 26.3228C109.85 34.2984 113.952 42.2734 118.054 50.2478C118.16 50.4526 118.222 50.6767 118.238 50.9064C118.254 51.1361 118.223 51.3667 118.147 51.5841C118.071 51.8014 117.951 52.001 117.796 52.1707C117.64 52.3403 117.451 52.4765 117.241 52.5709L102.226 59.3218C101.677 48.2058 102.866 37.0723 105.75 26.3228Z" fill="#E09B3D"/>
<path d="M102.169 60.2553C101.39 73.6163 101.35 87.0101 102.049 100.376C102.061 100.605 102.026 100.835 101.946 101.051C101.866 101.266 101.743 101.463 101.584 101.63C101.426 101.797 101.235 101.929 101.024 102.02C100.812 102.11 100.585 102.157 100.355 102.157H54.0281C53.7981 102.157 53.5705 102.11 53.3591 102.02C53.1477 101.929 52.9569 101.797 52.7984 101.63C52.6399 101.463 52.5169 101.266 52.437 101.051C52.3571 100.835 52.3219 100.605 52.3336 100.376C53.0323 87.0101 52.9924 73.6163 52.2141 60.2553C51.5602 49.0146 50.4258 38.5076 49.0078 28.8209C48.8859 27.9795 48.7609 27.1451 48.6328 26.3178L48.8602 26.1959H48.8625L56.8687 21.9865L56.8711 21.9842L57.5133 21.6467L61.7602 19.4107L64.7391 17.8428C66.1345 18.5555 67.5912 19.1414 69.0914 19.5936C73.1578 20.817 76.5234 20.742 78.7125 20.674C80.5898 20.6178 82.35 20.5521 84.6281 19.9334C86.383 19.4554 88.0689 18.7527 89.6438 17.8428L105.75 26.3178C104.159 36.6889 102.879 48.0396 102.169 60.2553Z" fill="#E09B3D"/>
<path d="M59.048 24.1757L49.0074 28.821L39.8926 33.0374L28.884 26.9624L30.0066 19.8796L30.323 17.8804C31.0215 18.089 31.7902 18.2999 32.627 18.4991C33.1004 18.614 33.5973 18.7241 34.1129 18.8296C37.0605 19.4303 40.0626 19.7225 43.0707 19.7015C47.1889 19.674 51.2823 19.0608 55.2277 17.8804L57.3324 21.3491L57.5129 21.6468L59.048 24.1757ZM17.7793 59.3235C12.7735 57.0718 7.76664 54.821 2.75867 52.5712C2.54861 52.4767 2.35997 52.3405 2.20425 52.1709C2.04854 52.0012 1.92901 51.8015 1.85296 51.5842C1.77691 51.3668 1.74592 51.1362 1.7619 50.9064C1.77787 50.6767 1.84046 50.4526 1.94586 50.2478C6.0493 42.272 10.1523 34.2953 14.255 26.3176C15.564 31.8704 16.5143 37.5016 17.1001 43.1765C17.6536 48.5401 17.8805 53.9324 17.7793 59.3235Z" fill="#E09B3D"/>
<path d="M74.8861 26.3228C78.9864 34.2984 83.088 42.2734 87.1908 50.2478C87.2961 50.4526 87.3586 50.6767 87.3745 50.9064C87.3904 51.1361 87.3594 51.3667 87.2833 51.5841C87.2072 51.8014 87.0876 52.001 86.9319 52.1707C86.7762 52.3403 86.5876 52.4765 86.3775 52.5709C81.3719 54.8212 76.3666 57.0715 71.3618 59.3218C71.0958 48.2156 72.2806 37.1223 74.8861 26.3228Z" fill="#E09B3D"/>
<path d="M71.3041 60.2557C70.5265 73.616 70.4873 87.009 71.1869 100.374C71.1986 100.603 71.1634 100.833 71.0836 101.049C71.0037 101.265 70.8808 101.462 70.7223 101.629C70.5638 101.796 70.373 101.929 70.1616 102.019C69.9502 102.11 69.7225 102.157 69.4924 102.157H23.1635C22.9334 102.157 22.7058 102.111 22.4944 102.02C22.283 101.929 22.0924 101.796 21.934 101.629C21.7757 101.462 21.653 101.265 21.5734 101.049C21.4939 100.833 21.4591 100.603 21.4713 100.374C22.17 87.009 22.1301 73.6159 21.3518 60.2557C20.6393 48.04 19.3596 36.6893 17.7705 26.3182L30.0072 19.8799L30.8182 19.4533C31.7111 21.7338 34.2658 25.6924 41.3135 26.3182H44.3111C44.3979 26.3111 44.4822 26.3018 44.5666 26.2924C44.6533 26.3018 44.74 26.3111 44.8291 26.3182H47.8268C48.183 26.2877 48.5275 26.2455 48.8603 26.1963H48.8627C53.0229 25.601 55.4557 23.7775 56.8689 21.9869L56.8713 21.9846C57.04 21.7713 57.1924 21.5604 57.333 21.3494L57.5135 21.6471L60.0025 20.3369L61.7604 19.4111L74.8854 26.3182C73.2963 36.6893 72.0166 48.04 71.3041 60.2557Z" fill="#E09B3D"/>
<path d="M71.3705 26.3228C75.4708 34.2984 79.5723 42.2734 83.6752 50.2478C83.7805 50.4526 83.843 50.6767 83.8589 50.9064C83.8748 51.1361 83.8437 51.3667 83.7677 51.5841C83.6916 51.8014 83.572 52.001 83.4163 52.1707C83.2606 52.3403 83.0719 52.4765 82.8619 52.5709C77.8562 54.8212 72.851 57.0715 67.8462 59.3218C67.5802 48.2156 68.765 37.1223 71.3705 26.3228Z" fill="#E09B3D"/>
<path d="M67.7885 60.2553C67.0108 73.6156 66.9717 87.0086 67.6713 100.373C67.683 100.603 67.6478 100.833 67.568 101.049C67.4881 101.264 67.3652 101.462 67.2067 101.629C67.0482 101.795 66.8574 101.928 66.646 102.019C66.4346 102.11 66.2069 102.157 65.9768 102.157H19.6479C19.4178 102.157 19.1902 102.11 18.9788 102.019C18.7674 101.929 18.5767 101.796 18.4184 101.629C18.2601 101.462 18.1374 101.264 18.0578 101.049C17.9783 100.833 17.9435 100.603 17.9557 100.373C18.6544 87.0086 18.6145 73.6155 17.8361 60.2553C17.1236 48.0396 15.8439 36.6889 14.2549 26.3178L30.3611 17.8428C30.4517 18.3951 30.6051 18.9353 30.8182 19.4529C31.7111 21.7334 34.2658 25.692 41.3135 26.3178H44.3111C44.3979 26.3107 44.4822 26.3014 44.5666 26.292C54.3236 25.3006 55.2658 17.8428 55.2658 17.8428L60.0025 20.3365L71.3697 26.3178C69.7807 36.6889 68.501 48.0396 67.7885 60.2553Z" fill="#E09B3D"/>
<path d="M32.9579 58.6393C32.7206 58.2403 32.335 57.9513 31.8854 57.8356C31.4358 57.7198 30.9586 57.7866 30.5581 58.0214C30.1576 58.2562 29.8662 58.6399 29.7476 59.0888C29.629 59.5377 29.6928 60.0153 29.9251 60.4173L31.453 59.5477L29.9316 60.4287C30.0468 60.6294 30.2005 60.8055 30.3839 60.9466C30.5672 61.0878 30.7766 61.1914 31.0001 61.2514C31.2236 61.3115 31.4567 61.3268 31.6862 61.2966C31.9156 61.2663 32.1368 61.191 32.3371 61.0751C32.5373 60.9591 32.7127 60.8048 32.8532 60.6209C32.9937 60.437 33.0964 60.2271 33.1556 60.0034C33.2148 59.7797 33.2292 59.5465 33.1981 59.3172C33.1669 59.0879 33.0908 58.867 32.9741 58.6672L32.9579 58.6393ZM37.145 62.8158C36.9468 62.6976 36.7272 62.6195 36.4987 62.5861C36.2703 62.5527 36.0376 62.5646 35.8138 62.6212C35.59 62.6777 35.3795 62.7778 35.1944 62.9157C35.0092 63.0536 34.8531 63.2266 34.7348 63.4249C34.6165 63.6231 34.5385 63.8427 34.5051 64.0711C34.4717 64.2995 34.4836 64.5323 34.5401 64.7561C34.5967 64.9799 34.6968 65.1904 34.8347 65.3755C34.9726 65.5606 35.1456 65.7168 35.3438 65.8351L35.3949 65.8646C35.5953 65.983 35.8171 66.0604 36.0476 66.0924C36.2781 66.1244 36.5127 66.1103 36.7377 66.0509C36.9627 65.9915 37.1737 65.8881 37.3584 65.7465C37.5431 65.605 37.6978 65.4282 37.8137 65.2264C37.9296 65.0246 38.0042 64.8017 38.0332 64.5709C38.0623 64.34 38.0453 64.1056 37.983 63.8814C37.9208 63.6571 37.8147 63.4475 37.6709 63.2646C37.527 63.0817 37.3483 62.9291 37.145 62.8158ZM36.2185 43.3859C36.5273 43.3859 36.8307 43.3042 37.0977 43.149L37.1258 43.1326C37.528 42.8968 37.82 42.5109 37.9376 42.0597C38.0553 41.6086 37.9889 41.1292 37.7531 40.7271C37.5173 40.3249 37.1314 40.0329 36.6803 39.9152C36.2291 39.7976 35.7498 39.864 35.3476 40.0998L36.2171 41.6279L35.3363 40.1066C35.0015 40.3004 34.74 40.5994 34.5924 40.957C34.4448 41.3146 34.4192 41.711 34.5197 42.0846C34.6202 42.4582 34.8412 42.7882 35.1483 43.0235C35.4554 43.2588 35.8316 43.3862 36.2185 43.3859ZM30.553 47.9701C30.8549 48.1451 31.2017 48.227 31.5501 48.2057C31.8984 48.1844 32.2326 48.0607 32.5109 47.8502C32.7893 47.6397 32.9992 47.3517 33.1145 47.0223C33.2298 46.6929 33.2453 46.3369 33.1591 45.9987C33.0729 45.6606 32.8888 45.3554 32.6298 45.1215C32.3708 44.8876 32.0486 44.7353 31.7035 44.6838C31.3583 44.6322 31.0057 44.6837 30.6897 44.8318C30.3737 44.9799 30.1084 45.218 29.9272 45.5162L29.8977 45.5673C29.6665 45.9729 29.6057 46.4537 29.7285 46.9042C29.8514 47.3546 30.1479 47.7379 30.553 47.9701ZM31.4413 52.9733C31.4413 52.5071 31.2561 52.06 30.9264 51.7303C30.5967 51.4007 30.1496 51.2155 29.6834 51.2155C29.2172 51.2155 28.7701 51.4007 28.4405 51.7303C28.1108 52.06 27.9256 52.5071 27.9256 52.9733V52.996C27.9258 53.2263 27.9715 53.4542 28.0601 53.6667C28.1486 53.8793 28.2783 54.0722 28.4416 54.2345C28.605 54.3968 28.7988 54.5252 29.0119 54.6124C29.225 54.6996 29.4532 54.7438 29.6834 54.7426C30.1508 54.74 30.5982 54.5524 30.9276 54.2208C31.257 53.8892 31.4417 53.4407 31.4413 52.9733ZM119.617 49.4441L114.611 39.7123L107.332 25.5573C107.308 25.508 107.28 25.4619 107.252 25.415C107.239 25.3944 107.228 25.3728 107.214 25.3529C107.188 25.3131 107.16 25.2744 107.13 25.2369C107.116 25.2191 107.102 25.2024 107.087 25.1853C107.031 25.119 106.97 25.0569 106.904 24.9997C106.892 24.9884 106.879 24.9767 106.866 24.9657C106.826 24.9324 106.784 24.901 106.741 24.8715L106.736 24.868C106.682 24.8296 106.626 24.7943 106.568 24.7623L90.4618 16.2873C90.1988 16.1489 89.9051 16.0794 89.608 16.0854C89.311 16.0913 89.0202 16.1725 88.763 16.3212C87.32 17.1553 85.7752 17.7993 84.167 18.237C82.0353 18.8159 80.3954 18.8651 78.6573 18.9169C76.7202 18.9774 73.478 19.0777 69.5987 17.9108C68.1995 17.4892 66.841 16.9428 65.5395 16.2781C65.2885 16.1496 65.0103 16.0834 64.7283 16.085C64.4463 16.0866 64.1688 16.1561 63.9193 16.2875L60.0024 18.3507L56.0827 16.2882C55.8436 16.1629 55.5788 16.0944 55.3089 16.0881C55.039 16.0817 54.7712 16.1377 54.5265 16.2516C50.8012 17.3468 46.9413 17.9164 43.0585 17.9438C39.05 17.9723 35.0584 17.4208 31.2078 16.3065C31.1956 16.2999 31.1844 16.2915 31.172 16.2849C30.9201 16.1537 30.6401 16.0855 30.3561 16.0861C30.0721 16.0867 29.7925 16.1561 29.5412 16.2884L13.4356 24.7616C13.4309 24.7639 13.4274 24.7674 13.4227 24.7698C13.3543 24.8069 13.2883 24.8485 13.2254 24.8944C13.2087 24.9064 13.1926 24.9188 13.1762 24.9312C13.1142 24.9788 13.0554 25.0305 13.0004 25.0859C12.9938 25.0923 12.9884 25.0995 12.9821 25.1063C12.9344 25.1569 12.8898 25.2103 12.8485 25.2662C12.8341 25.2852 12.82 25.3046 12.8063 25.3243C12.7642 25.3849 12.7259 25.448 12.6917 25.5134L12.6903 25.5165L12.6814 25.5336L0.382812 49.4433C0.16823 49.8603 0.0408052 50.3166 0.00830507 50.7844C-0.024195 51.2523 0.0389101 51.7218 0.193774 52.1645C0.348638 52.6071 0.592017 53.0136 0.909078 53.3591C1.22614 53.7046 1.61024 53.982 2.03797 54.1742L5.56344 55.7586C9.07172 57.3355 12.5799 58.9127 16.088 60.4904C16.8521 73.7421 16.8891 87.0257 16.1989 100.281C16.1745 100.749 16.2456 101.217 16.408 101.657C16.5703 102.097 16.8204 102.499 17.1431 102.838C17.4658 103.178 17.8543 103.449 18.285 103.634C18.7156 103.818 19.1793 103.914 19.648 103.913H65.9534C65.9612 103.913 65.9684 103.915 65.9762 103.915H100.354C100.823 103.915 101.287 103.82 101.717 103.635C102.148 103.45 102.536 103.18 102.859 102.84C103.182 102.5 103.432 102.099 103.595 101.659C103.757 101.22 103.828 100.752 103.804 100.284C103.114 87.0267 103.152 73.7417 103.916 60.4887L117.961 54.1742C118.389 53.982 118.773 53.7047 119.09 53.3593C119.407 53.0139 119.65 52.6075 119.805 52.1649C119.96 51.7224 120.023 51.2529 119.991 50.7851C119.959 50.3173 119.831 49.861 119.617 49.4441ZM7.00461 52.5521L3.53867 50.9944L13.3011 32.0148C14.422 40.1529 15.267 48.3266 15.8347 56.5219C12.8916 55.1985 9.9482 53.8752 7.00461 52.5521ZM42.7749 21.4606C42.8771 21.4606 42.98 21.4601 43.0824 21.4597C46.1831 21.4381 49.2734 21.0975 52.3044 20.4432C51.107 22.1741 48.7665 24.1374 44.2316 24.5598H41.3926C36.8663 24.1383 34.5277 22.1879 33.3284 20.461C36.4333 21.1253 39.5998 21.4603 42.7749 21.4606ZM66.0903 59.2683C66.0725 59.563 66.0509 59.858 66.0338 60.1524C65.2564 73.5552 65.2154 86.9906 65.911 100.398H19.7134C20.409 86.9906 20.368 73.5552 19.5903 60.1524C19.5737 59.8653 19.5528 59.5777 19.5352 59.2904C19.5343 59.2375 19.5309 59.1847 19.5252 59.1322C18.8766 48.5155 17.7552 37.8155 16.1795 27.2907L29.2974 20.3891C29.6607 21.2427 30.1237 22.0503 30.6767 22.7951C32.2498 24.9158 35.345 27.5523 41.1575 28.0686C41.2092 28.0731 41.2611 28.0754 41.3131 28.0754H44.311C44.363 28.0754 44.4149 28.073 44.4666 28.0683C50.2791 27.5523 53.3745 24.916 54.9474 22.7949C55.5005 22.0502 55.9635 21.2426 56.3267 20.3891L69.4447 27.2907C67.8685 37.82 66.7468 48.5237 66.0983 59.1432C66.0941 59.1848 66.0915 59.2265 66.0903 59.2683ZM100.479 59.1329C100.473 59.1835 100.47 59.2343 100.469 59.2852C100.451 59.5744 100.43 59.8641 100.414 60.1531C99.6358 73.556 99.5945 86.9916 100.29 100.399H69.4255C69.4248 100.36 69.4273 100.321 69.4255 100.281C68.7353 87.0253 68.7722 73.7413 69.5361 60.4892L83.5822 54.1742C84.0098 53.9819 84.3938 53.7046 84.7108 53.3592C85.0278 53.0137 85.2712 52.6073 85.4261 52.1648C85.581 51.7222 85.6442 51.2528 85.6118 50.785C85.5794 50.3173 85.4522 49.861 85.2378 49.4441L80.5133 40.2582C77.992 35.3566 75.4711 30.4548 72.9505 25.5526C72.9305 25.5111 72.9064 25.4722 72.8832 25.4326C72.8668 25.4044 72.8506 25.3761 72.8328 25.3491C72.808 25.3119 72.7817 25.2756 72.7541 25.2404C72.7372 25.2188 72.7194 25.1982 72.7018 25.1778C72.6492 25.1164 72.5924 25.0588 72.5319 25.0053C72.5162 24.9912 72.5009 24.9772 72.485 24.9641C72.4457 24.9317 72.4051 24.901 72.3631 24.8722C72.3594 24.8694 72.3554 24.8675 72.3514 24.8647C72.299 24.8274 72.2447 24.7931 72.1885 24.7618L63.7768 20.3363L64.7673 19.8144C66.0024 20.394 67.2782 20.8828 68.5845 21.2769C73.0145 22.6095 76.7562 22.4933 78.7646 22.4312C80.5416 22.3777 82.5561 22.3177 85.0897 21.6296C86.6733 21.1983 88.206 20.5978 89.6612 19.8385L103.824 27.2909C102.248 37.808 101.127 48.5075 100.479 59.1331V59.1329ZM69.7897 56.5203C70.3572 48.3268 71.202 40.1548 72.3226 32.0185L77.3872 41.8665L82.0817 50.9942L69.7897 56.5203ZM104.169 56.5203C104.736 48.3267 105.58 40.1546 106.701 32.0183L111.485 41.3206L116.461 50.9942L104.169 56.5203ZM52.6484 47.2742C52.8842 47.6764 53.2702 47.9684 53.7213 48.0861C54.1724 48.2037 54.6518 48.1373 55.0539 47.9015C55.4561 47.6657 55.7482 47.2798 55.8658 46.8287C55.9834 46.3776 55.9171 45.8982 55.6813 45.496L54.1534 46.3655L55.6745 45.4845C55.438 45.0868 55.0543 44.7983 54.6065 44.6816C54.1587 44.565 53.683 44.6296 53.2826 44.8615C52.8821 45.0934 52.5893 45.4738 52.4675 45.9202C52.3458 46.3666 52.405 46.843 52.6323 47.2461L52.6484 47.2742ZM55.0536 57.9912C54.7511 57.8149 54.4032 57.7318 54.0537 57.7526C53.7041 57.7733 53.3685 57.8969 53.0889 58.1077C52.8094 58.3186 52.5984 58.6074 52.4825 58.9378C52.3665 59.2682 52.3508 59.6255 52.4373 59.9649C52.5238 60.3042 52.7086 60.6104 52.9686 60.845C53.2286 61.0795 53.5521 61.2321 53.8985 61.2834C54.2448 61.3347 54.5987 61.2825 54.9155 61.1334C55.2323 60.9842 55.498 60.7448 55.6791 60.4451L55.7087 60.3941C55.9399 59.9884 56.0007 59.5077 55.8779 59.0572C55.7551 58.6068 55.4587 58.2234 55.0536 57.9912ZM57.6945 52.9182H57.6941V52.9135H57.6945C57.6945 52.4473 57.5093 52.0002 57.1797 51.6705C56.85 51.3409 56.4029 51.1557 55.9367 51.1557C55.4705 51.1557 55.0234 51.3409 54.6938 51.6705C54.3641 52.0002 54.1789 52.4473 54.1789 52.9135L54.1794 52.9623V52.9637L54.1791 52.9913C54.1791 53.4575 54.3643 53.9046 54.694 54.2343C55.0236 54.5639 55.4708 54.7491 55.937 54.7491C56.4032 54.7491 56.8503 54.5639 57.1799 54.2343C57.5096 53.9046 57.6948 53.4575 57.6948 52.9913V52.9686L57.6945 52.9416V52.9182ZM48.4709 43.1192C48.6708 43.2359 48.8917 43.3121 49.121 43.3432C49.3503 43.3744 49.5835 43.3599 49.8072 43.3008C50.0309 43.2416 50.2407 43.1388 50.4246 42.9983C50.6085 42.8579 50.7629 42.6825 50.8788 42.4822C50.9948 42.2819 51.0701 42.0607 51.1003 41.8313C51.1306 41.6019 51.1153 41.3688 51.0552 41.1453C50.9952 40.9218 50.8916 40.7124 50.7504 40.529C50.6092 40.3456 50.4332 40.192 50.2325 40.0768L50.2013 40.0587C50.0016 39.9453 49.7814 39.8723 49.5535 39.844C49.3255 39.8157 49.0942 39.8326 48.8728 39.8938C48.6513 39.955 48.4442 40.0592 48.263 40.2005C48.0819 40.3418 47.9304 40.5174 47.8173 40.7173C47.5874 41.123 47.5272 41.603 47.6496 42.0529C47.7721 42.5028 48.0672 42.8861 48.4709 43.1192ZM42.8258 64.3231H42.8012C42.5703 64.323 42.3417 64.3683 42.1284 64.4565C41.9151 64.5447 41.7212 64.6741 41.5579 64.8372C41.2281 65.1667 41.0426 65.6137 41.0423 66.0799C41.042 66.5461 41.227 66.9933 41.5564 67.3231C41.8859 67.653 42.3329 67.8385 42.7991 67.8387H42.8239C43.0547 67.8389 43.2834 67.7935 43.4967 67.7053C43.71 67.6171 43.9038 67.4877 44.0671 67.3246C44.2305 67.1614 44.36 66.9677 44.4485 66.7545C44.5369 66.5413 44.5825 66.3127 44.5827 66.0819C44.5828 65.851 44.5374 65.6224 44.4492 65.4091C44.361 65.1958 44.2316 65.0019 44.0685 64.8386C43.9053 64.6753 43.7116 64.5457 43.4984 64.4573C43.2852 64.3688 43.0566 64.3232 42.8258 64.3231ZM42.7686 41.6143L42.8178 41.6138C43.2803 41.6031 43.7199 41.4106 44.0413 41.0779C44.3628 40.7453 44.5401 40.2993 44.5349 39.8368C44.5298 39.3742 44.3425 38.9324 44.0136 38.607C43.6848 38.2816 43.241 38.099 42.7784 38.0987H42.7735L42.7688 39.8565V38.0987C42.3026 38.0987 41.8555 38.2839 41.5259 38.6135C41.1962 38.9432 41.011 39.3903 41.011 39.8565C41.011 40.3227 41.1962 40.7698 41.5259 41.0994C41.8555 41.4291 42.3024 41.6143 42.7686 41.6143ZM48.4986 62.802L48.4707 62.8184C48.27 62.9344 48.0942 63.0889 47.9535 63.273C47.8128 63.4572 47.7098 63.6673 47.6506 63.8914C47.5914 64.1155 47.5771 64.3491 47.6085 64.5787C47.6399 64.8084 47.7164 65.0295 47.8337 65.2295C47.9509 65.4294 48.1065 65.6042 48.2915 65.7438C48.4765 65.8834 48.6874 65.985 48.9118 66.0428C49.1363 66.1005 49.3699 66.1134 49.5994 66.0805C49.8288 66.0476 50.0495 65.9697 50.2487 65.8512L49.3794 64.3231L50.2602 65.8447C50.6636 65.6111 50.9578 65.2268 51.0779 64.7763C51.1981 64.3258 51.1343 63.846 50.9007 63.4426C50.6671 63.0391 50.2828 62.7449 49.8323 62.6248C49.3818 62.5047 48.9021 62.5684 48.4986 62.802Z" fill="#FFFBB3"/>
</svg>
