<svg width="383" height="380" viewBox="0 0 383 380" xmlns="http://www.w3.org/2000/svg" fill="none"><g filter="url(#a)" transform="matrix(1.124 0 0 1.133 -.049 -.264)"><mask id="b"><path fill-rule="evenodd" clip-rule="evenodd" d="M151.321 294.809c0-.23-.186-.418-.417-.418h-57.551c-6.627 0-12-5.373-12-12v-61.699c0-.544-.447-.979-.991-.979-22.28 0-40.341-18.061-40.341-40.341s18.061-40.341 40.341-40.341c.543 0 .991-.436.991-.979v-50.236c0-6.627 5.373-12 12-12h44.11c6.488 0 11.62-5.272 13.655-11.431 5.31-16.076 20.457-27.678 38.313-27.678s33.003 11.601 38.314 27.678c2.035 6.16 7.167 11.431 13.654 11.431h47.995c6.628 0 12 5.373 12 12v56.207c0 .403.331.727.734.727 22.279 0 40.341 18.061 40.341 40.341 0 22.279-18.062 40.341-40.341 40.341-.403 0-.734.324-.734.727v56.232c0 6.627-5.372 12-12 12h-56.974c-.231 0-.417.188-.417.418 0 22.28-18.061 40.341-40.341 40.341s-40.341-18.061-40.341-40.341z"/></mask><path d="M126.714 33.876l1.069.349zm-65.094 256.939h64.853v-2.225h-64.853zm-14.649-83.085v68.625h2.254v-68.625zm-46.576-45.959c0 25.395 20.857 45.982 46.586 45.982v-2.225c-24.484 0-44.332-19.591-44.332-43.757zm46.586-45.982c-25.729 0-46.586 20.587-46.586 45.982h2.254c0-24.166 19.848-43.757 44.332-43.757zm-.01-55.852v55.876h2.254v-55.876zm64.356-14.459h-49.707v2.225h49.707zm16.457-11.254c5.837-17.439 22.483-30.021 42.105-30.021v-2.225c-20.622 0-38.112 13.225-44.244 31.548zm42.105-30.021c19.621 0 36.268 12.582 42.105 30.021l2.14-.698c-6.132-18.323-23.622-31.548-44.244-31.548zm112.646 41.275h-54.084v2.225h54.084zm14.649 76.976v-62.517h-2.254v62.517zm46.286 45.678c0-25.395-20.857-45.982-46.586-45.982v2.225c24.484 0 44.332 19.59 44.332 43.757zm-46.586 45.982c25.729 0 46.586-20.587 46.586-45.982h-2.254c0 24.166-19.849 43.757-44.332 43.757zm.3 62.241v-62.545h-2.254v62.545zm-78.852 14.459h64.203v-2.225h-64.203zm-45.929 45.335c25.729 0 46.586-20.587 46.586-45.982h-2.254c0 24.167-19.849 43.757-44.332 43.757zm-46.586-45.982c0 25.395 20.857 45.982 46.586 45.982v-2.225c-24.484 0-44.332-19.59-44.332-43.757zm92.515-1.577c-.89 0-1.597.714-1.597 1.577h2.254c0 .35-.287.647-.657.647zm78.552-76.7c-1.064 0-1.954.845-1.954 1.921h2.254c0 .178-.145.304-.3.304zm-14.35-164.188c6.846 0 12.396 5.478 12.396 12.235h2.254c0-7.986-6.558-14.459-14.649-14.459zm-171.207 0c7.97 0 14.075-6.358 16.457-13.478l-2.14-.698c-2.203 6.583-7.666 11.951-14.317 11.951zm-62.102 12.235c0-6.757 5.55-12.235 12.396-12.235v-2.225c-8.091 0-14.649 6.474-14.649 14.459zm0 147.793c0-1.236-1.026-2.201-2.243-2.201v2.225l-.001-.001h-.002l-.005-.008-.003-.009-.001-.006zm245.705 68.625c0 6.757-5.55 12.235-12.396 12.235v2.225c8.091 0 14.649-6.474 14.649-14.459zm-247.949-158.341c1.217 0 2.243-.965 2.243-2.201h-2.254l.001-.007.003-.008.005-.008.002-.001h.001zm247.949 4.44c0 1.076.89 1.921 1.954 1.921v-2.225c.154 0 .3.125.3.304zm-233.31 166.136c-6.846 0-12.396-5.478-12.396-12.235h-2.254c0 7.985 6.559 14.459 14.649 14.459zm150.373-254.366c2.383 7.12 8.486 13.478 16.457 13.478v-2.225c-6.651 0-12.114-5.368-14.317-11.951zm-83.923 255.943c0-.863-.707-1.577-1.597-1.577v2.225c-.37 0-.657-.297-.657-.647z" fill="#50d9d7" mask="url(#b)"/></g><defs><filter id="a" x=".021" y="-3.293" width="382.447" height="382.444" filterUnits="userSpaceOnUse" color-interpolation-filters="sRGB"><feFlood flood-opacity="0" result="BackgroundImageFix"/><feGaussianBlur in="BackgroundImageFix" stdDeviation="20"/><feComposite in2="SourceAlpha" operator="in" result="effect1_backgroundBlur_3303_78703"/><feColorMatrix in="SourceAlpha" values="0 0 0 0 0 0 0 0 0 0 0 0 0 0 0 0 0 0 127 0" result="hardAlpha"/><feOffset dy="4"/><feGaussianBlur stdDeviation="20"/><feComposite in2="hardAlpha" operator="out"/><feColorMatrix values="0 0 0 0 0.313726 0 0 0 0 0.85098 0 0 0 0 0.843137 0 0 0 0.25 0"/><feBlend in2="effect1_backgroundBlur_3303_78703" result="effect2_dropShadow_3303_78703"/><feBlend in="SourceGraphic" in2="effect2_dropShadow_3303_78703" result="shape"/></filter></defs></svg>