<svg width="385" height="345" viewBox="0 0 385 345" xmlns="http://www.w3.org/2000/svg" fill="none"><g filter="url(#a)" transform="matrix(1.26 0 0 1.292 -48.866 -44.504)"><mask id="b"><path fill-rule="evenodd" clip-rule="evenodd" d="M301.61 48.406c0-6.627-5.372-12-12-12h-196.041c-6.627 0-12 5.373-12 12v50.351c0 .403-.331.727-.734.727-22.28 0-40.341 18.062-40.341 40.341 0 22.28 18.061 40.341 40.341 40.341.403 0 .734.324.734.727v62.088c0 6.627 5.373 12 12 12h53.591c2.73 0 4.822 2.401 4.822 5.131 0 22.28 18.061 40.341 40.341 40.341 22.279 0 40.341-18.061 40.341-40.341 0-2.73 2.091-5.131 4.821-5.131h52.125c6.628 0 12-5.373 12-12v-54.805c0-1.196 1.004-2.142 2.201-2.142 22.279 0 40.341-18.062 40.341-40.341 0-22.28-18.062-40.341-40.341-40.341-1.197 0-2.201-.946-2.201-2.143z"/></mask><path d="M93.569 37.406h196.041v-2h-196.041zm-11 61.351v-50.351h-2v50.351zm-41.075 41.068c0-21.727 17.614-39.341 39.341-39.341v-2c-22.832 0-41.341 18.509-41.341 41.341zm39.341 39.341c-21.727 0-39.341-17.613-39.341-39.341h-2c0 22.832 18.509 41.341 41.341 41.341zm1.734 63.815v-62.088h-2v62.088zm64.591 11h-53.591v2h53.591zm45.163 45.472c-21.728 0-39.341-17.613-39.341-39.341h-2c0 22.832 18.509 41.341 41.341 41.341zm39.341-39.341c0 21.728-17.614 39.341-39.341 39.341v2c22.832 0 41.341-18.509 41.341-41.341zm57.946-6.131h-52.125v2h52.125zm11-65.805v54.805h2v-54.805zm42.542-42.483c0 21.727-17.614 39.341-39.341 39.341v2c22.832 0 41.341-18.509 41.341-41.341zm-39.341-39.341c21.727 0 39.341 17.613 39.341 39.341h2c0-22.832-18.509-41.341-41.341-41.341zm-3.201-57.946v54.803h2v-54.803zm2 139.77c0-.609.522-1.142 1.201-1.142v-2c-1.714 0-3.201 1.359-3.201 3.142zm-155.45 67.805c2.099 0 3.822 1.871 3.822 4.131h2c0-3.2-2.461-6.131-5.822-6.131zm156.651-151.629c-.679 0-1.201-.533-1.201-1.143h-2c0 1.783 1.487 3.143 3.201 3.143zm-223.242 138.629c0 7.18 5.82 13 13 13v-2c-6.075 0-11-4.925-11-11zm209.041 13c7.18 0 13-5.82 13-13h-2c0 6.075-4.925 11-11 11zm-209.041-157.224c0-.161.129-.273.267-.273v2c.944 0 1.734-.76 1.734-1.727zm.267 82.409c-.138 0-.267-.112-.267-.273h2c0-.967-.79-1.727-1.734-1.727zm152.829 78.946c0-2.26 1.723-4.131 3.821-4.131v-2c-3.361 0-5.821 2.931-5.821 6.131zm55.946-222.706c6.075 0 11 4.925 11 11h2c0-7.18-5.82-13-13-13zm-196.041-2c-7.18 0-13 5.82-13 13h2c0-6.075 4.925-11 11-11z" fill="#50d9d7" mask="url(#b)"/></g><defs><filter id="a" x=".494" y="-3.594" width="383.658" height="348.047" filterUnits="userSpaceOnUse" color-interpolation-filters="sRGB"><feFlood flood-opacity="0" result="BackgroundImageFix"/><feGaussianBlur in="BackgroundImageFix" stdDeviation="20"/><feComposite in2="SourceAlpha" operator="in" result="effect1_backgroundBlur_3303_78694"/><feColorMatrix in="SourceAlpha" values="0 0 0 0 0 0 0 0 0 0 0 0 0 0 0 0 0 0 127 0" result="hardAlpha"/><feOffset dy="4"/><feGaussianBlur stdDeviation="20"/><feComposite in2="hardAlpha" operator="out"/><feColorMatrix values="0 0 0 0 0.313726 0 0 0 0 0.85098 0 0 0 0 0.843137 0 0 0 0.25 0"/><feBlend in2="effect1_backgroundBlur_3303_78694" result="effect2_dropShadow_3303_78694"/><feBlend in="SourceGraphic" in2="effect2_dropShadow_3303_78694" result="shape"/></filter></defs></svg>