<svg width="301" height="300" viewBox="0 0 301 300" xmlns="http://www.w3.org/2000/svg" fill="none"><g filter="url(#a)"><mask id="b"><path fill-rule="evenodd" clip-rule="evenodd" d="M150.719 82.258c-22.279 0-40.341-18.061-40.341-40.341 0-2.794-2.137-5.257-4.932-5.257h-53.236c-6.627 0-12 5.372-12 12v194.575c0 6.627 5.373 12 12 12h46.697c6.043 0 10.966-4.606 13.263-10.195 6.034-14.679 20.474-25.015 37.328-25.015 16.854 0 31.294 10.336 37.327 25.015 2.298 5.589 7.22 10.195 13.263 10.195h48.164c6.627 0 12-5.373 12-12v-62.088c0-.403-.331-.727-.734-.727-22.279 0-40.341-18.061-40.341-40.341 0-22.279 18.062-40.341 40.341-40.341.403 0 .734-.324.734-.727v-50.351c0-6.628-5.373-12-12-12h-52.26c-2.794 0-4.932 2.462-4.932 5.257 0 22.28-18.061 40.341-40.341 40.341z"/></mask><path d="M99.705 285.886l-1.247-.517zm-1.068-276.483c0 29.574 23.743 53.549 53.03 53.549v2.722c-30.776 0-55.726-25.194-55.726-56.272zm-79.755-8.517h71.759v2.722h-71.759zm-17.523 282.543v-264.848h2.696v264.848zm80.468 17.695h-62.945v-2.722h62.945zm68.194-47.926c-22.154 0-41.137 13.718-49.07 33.206l-2.494-1.034c8.333-20.473 28.279-34.893 51.563-34.893zm49.068 33.206c-7.931-19.488-26.916-33.206-49.068-33.206v-2.722c23.283 0 43.229 14.42 51.562 34.893zm84.048 14.721h-64.923v-2.722h64.923zm17.523-102.207v84.512h-2.696v-84.512zm-55.367-55.9c0 29.575 23.743 53.549 53.03 53.549v2.722c-30.776 0-55.726-25.194-55.726-56.272zm53.03-53.549c-29.287 0-53.03 23.975-53.03 53.549h-2.696c0-31.078 24.949-56.271 55.726-56.271zm2.337-70.886v68.536h-2.696v-68.536zm-87.967-17.695h70.444v2.722h-70.444zm-61.026 62.066c29.288 0 53.03-23.975 53.03-53.549h2.696c0 31.078-24.949 56.272-55.726 56.272zm146.298 135.965c0 .219.174.372.359.372v-2.722c1.272 0 2.337 1.034 2.337 2.351zm-14.827 99.485c8.189 0 14.827-6.704 14.827-14.973h2.696c0 9.772-7.845 17.695-17.523 17.695zm-201.31 0c7.412 0 13.661-5.736 16.631-13.033l2.494 1.034c-3.223 7.918-10.246 14.721-19.125 14.721zm130.866-294.793c-2.913 0-5.3 2.627-5.3 5.794h-2.696c0-4.44 3.377-8.517 7.996-8.517zm-208.638 279.82c0 8.269 6.639 14.973 14.827 14.973v2.722c-9.678 0-17.523-7.923-17.523-17.695zm293.91-264.848c0-8.269-6.639-14.973-14.827-14.973v-2.722c9.678 0 17.523 7.922 17.523 17.695zm-279.083-14.973c-8.189 0-14.827 6.703-14.827 14.973h-2.696c0-9.773 7.845-17.695 17.523-17.695zm182.701 281.76c2.971 7.297 9.219 13.033 16.631 13.033v2.722c-8.879 0-15.902-6.803-19.125-14.721zm96.74-198.623c-.185 0-.359.153-.359.371h2.696c0 1.316-1.065 2.35-2.337 2.35zm-202.382-77.343c0-3.167-2.387-5.794-5.3-5.794v-2.722c4.621 0 7.996 4.076 7.996 8.517z" fill="#50d9d7" mask="url(#b)"/></g><defs><filter id="a" x=".211" y="-3.34" width="300.041" height="302.575" filterUnits="userSpaceOnUse" color-interpolation-filters="sRGB"><feFlood flood-opacity="0" result="BackgroundImageFix"/><feGaussianBlur in="BackgroundImageFix" stdDeviation="20"/><feComposite in2="SourceAlpha" operator="in" result="effect1_backgroundBlur_3303_78678"/><feColorMatrix in="SourceAlpha" values="0 0 0 0 0 0 0 0 0 0 0 0 0 0 0 0 0 0 127 0" result="hardAlpha"/><feOffset dy="4"/><feGaussianBlur stdDeviation="20"/><feComposite in2="hardAlpha" operator="out"/><feColorMatrix values="0 0 0 0 0.313726 0 0 0 0 0.85098 0 0 0 0 0.843137 0 0 0 0.25 0"/><feBlend in2="effect1_backgroundBlur_3303_78678" result="effect2_dropShadow_3303_78678"/><feBlend in="SourceGraphic" in2="effect2_dropShadow_3303_78678" result="shape"/></filter></defs></svg>