<svg width="343" height="381" viewBox="0 0 343 381" xmlns="http://www.w3.org/2000/svg" fill="none"><g filter="url(#a)"><mask id="b"><path fill-rule="evenodd" clip-rule="evenodd" d="M149.51 36.125c-17.138 0-31.779 10.686-37.625 25.758-2.23 5.75-7.213 10.537-13.38 10.537h-46.294c-6.627 0-12 5.373-12 12v194.574c0 6.628 5.373 12 12 12h53.591c2.731 0 4.822 2.402 4.822 5.132 0 22.28 18.062 40.341 40.341 40.341 22.28 0 40.341-18.061 40.341-40.341 0-2.73 2.092-5.132 4.822-5.132h52.125c6.627 0 12-5.372 12-12v-54.804c0-1.197 1.004-2.143 2.2-2.143 22.28 0 40.341-18.061 40.341-40.341s-18.061-40.341-40.341-40.341c-1.196 0-2.2-.946-2.2-2.142v-54.803c0-6.627-5.373-12-12.001-12h-47.738c-6.166 0-11.15-4.787-13.38-10.537-5.846-15.072-20.487-25.758-37.624-25.758z"/></mask><path d="M192.408 33.347l1.2-.46zm-95.706.46c7.343-18.688 25.733-31.934 47.254-31.934v-2.543c-22.619 0-41.94 13.924-49.654 33.557zm-78.049 14.207h59.618v-2.543h-59.618zm-14.166 261.343v-247.359h-2.576v247.359zm83.181 13.984h-69.015v2.543h69.015zm58.161 57.809c-27.98 0-50.664-22.391-50.664-50.013h-2.576c0 29.026 23.836 52.556 53.239 52.556zm50.664-50.013c0 27.622-22.682 50.013-50.664 50.013v2.543c29.403 0 53.239-23.53 53.239-52.556zm74.625-7.795h-67.127v2.543h67.127zm14.166-83.655v69.671h2.576v-69.671zm54.785-54.009c0 27.622-22.684 50.013-50.664 50.013v2.543c29.403 0 53.239-23.53 53.239-52.556zm-50.664-50.013c27.98 0 50.664 22.392 50.664 50.013h2.576c0-29.026-23.836-52.556-53.239-52.556zm-4.121-73.665v69.67h2.576v-69.67zm-75.645-13.984h61.478v-2.543h-61.478zm-65.684-46.141c21.519 0 39.909 13.246 47.252 31.934l2.4-.92c-7.714-19.634-27.035-33.557-49.653-33.557zm65.684 43.598c-7.226 0-13.273-5.569-16.031-12.583l-2.4.92c2.988 7.604 9.774 14.206 18.431 14.206zm78.22 194.214c0-.775.671-1.453 1.545-1.453v-2.543c-2.207 0-4.121 1.729-4.121 3.996zm-16.742 86.198c9.245 0 16.742-7.399 16.742-16.527h-2.576c0 7.723-6.342 13.984-14.166 13.984zm16.742-263.885c0-9.127-7.496-16.527-16.743-16.527v2.543c7.825 0 14.167 6.261 14.167 13.984zm-200.192 263.885c2.703 0 4.922 2.38 4.922 5.253h2.576c0-4.068-3.168-7.795-7.498-7.795zm111.401 5.253c0-2.873 2.219-5.253 4.922-5.253v-2.543c-4.328 0-7.498 3.727-7.498 7.795zm90.336-198.016c-.874 0-1.545-.678-1.545-1.452h-2.576c0 2.267 1.914 3.994 4.121 3.994zm-287.494 176.237c0 9.128 7.495 16.527 16.742 16.527v-2.543c-7.824 0-14.166-6.261-14.166-13.984zm16.742-263.885c-9.246 0-16.742 7.399-16.742 16.527h2.576c0-7.723 6.342-13.984 14.166-13.984zm75.649-12.583c-2.756 7.014-8.805 12.583-16.031 12.583v2.543c8.657 0 15.444-6.602 18.432-14.207z" fill="#50d9d7" mask="url(#b)"/></g><defs><filter id="a" x=".211" y="-3.875" width="342.582" height="384.342" filterUnits="userSpaceOnUse" color-interpolation-filters="sRGB"><feFlood flood-opacity="0" result="BackgroundImageFix"/><feGaussianBlur in="BackgroundImageFix" stdDeviation="20"/><feComposite in2="SourceAlpha" operator="in" result="effect1_backgroundBlur_3303_78689"/><feColorMatrix in="SourceAlpha" values="0 0 0 0 0 0 0 0 0 0 0 0 0 0 0 0 0 0 127 0" result="hardAlpha"/><feOffset dy="4"/><feGaussianBlur stdDeviation="20"/><feComposite in2="hardAlpha" operator="out"/><feColorMatrix values="0 0 0 0 0.313726 0 0 0 0 0.85098 0 0 0 0 0.843137 0 0 0 0.25 0"/><feBlend in2="effect1_backgroundBlur_3303_78689" result="effect2_dropShadow_3303_78689"/><feBlend in="SourceGraphic" in2="effect2_dropShadow_3303_78689" result="shape"/></filter></defs></svg>