<svg width="301" height="299" viewBox="0 0 301 299" xmlns="http://www.w3.org/2000/svg" fill="none"><g filter="url(#a)" transform="matrix(1.36 0 0 1.364 -52.518 -47.19)"><mask id="b"><path fill-rule="evenodd" clip-rule="evenodd" d="M39.999 48c0-6.627 5.372-12 12-12h196.041c6.627 0 12 5.373 12 12v48.82c0 .926-.771 1.662-1.697 1.662-22.279 0-40.341 18.062-40.341 40.341 0 22.28 18.062 40.341 40.341 40.341.926 0 1.697.737 1.697 1.662v61.749c0 6.627-5.373 12-12 12h-48.899c-6.111 0-11.066-4.704-13.328-10.381-5.932-14.894-20.482-25.421-37.491-25.421s-31.56 10.527-37.492 25.421c-2.261 5.677-7.217 10.381-13.328 10.381h-45.504c-6.628 0-12-5.373-12-12v-46.561c0-6.267 4.937-11.299 10.816-13.471 15.389-5.685 26.361-20.488 26.361-37.852 0-17.365-10.972-32.168-26.361-37.853-5.879-2.172-10.816-7.204-10.816-13.471z"/></mask><path fill-rule="evenodd" clip-rule="evenodd" d="M39.999 48c0-6.627 5.372-12 12-12h196.041c6.627 0 12 5.373 12 12v48.82c0 .926-.771 1.662-1.697 1.662-22.279 0-40.341 18.062-40.341 40.341 0 22.28 18.062 40.341 40.341 40.341.926 0 1.697.737 1.697 1.662v61.749c0 6.627-5.373 12-12 12h-48.899c-6.111 0-11.066-4.704-13.328-10.381-5.932-14.894-20.482-25.421-37.491-25.421s-31.56 10.527-37.492 25.421c-2.261 5.677-7.217 10.381-13.328 10.381h-45.504c-6.628 0-12-5.373-12-12v-46.561c0-6.267 4.937-11.299 10.816-13.471 15.389-5.685 26.361-20.488 26.361-37.852 0-17.365-10.972-32.168-26.361-37.853-5.879-2.172-10.816-7.204-10.816-13.471z" fill="#1d5352"/><path d="M110.831 244.194l-.929-.37zm74.983 0l.929-.37zm-134.999-61.651l.347.938zm197.226-145.543h-196.041v-2h196.041zm11 59.82v-48.82h2v48.82zm-42.038 42.003c0-22.832 18.509-41.341 41.341-41.341v2c-21.727 0-39.341 17.614-39.341 39.341zm41.341 41.341c-22.832 0-41.341-18.509-41.341-41.341h2c0 21.728 17.614 39.341 39.341 39.341zm.697 62.411v-61.749h2v61.749zm-59.899 11h48.899v2h-48.899zm-14.257-9.011c-5.786-14.527-19.977-24.791-36.562-24.791v-2c17.432 0 32.342 10.789 38.42 26.051zm-36.562-24.791c-16.586 0-30.777 10.264-36.563 24.791l-1.858-.74c6.079-15.262 20.988-26.051 38.421-26.051zm-96.323 33.802h45.504v2h-45.504zm-11-57.561v46.561h-2v-46.561zm37.177-51.323c0 17.796-11.245 32.964-27.014 38.79l-.693-1.876c15.009-5.545 25.707-19.982 25.707-36.914zm-27.014-38.791c15.769 5.826 27.014 20.994 27.014 38.791h-2c0-16.933-10.698-31.37-25.707-36.915zm-10.162-57.9v45.367h-2v-45.367zm9.469 59.776c-6.114-2.259-11.469-7.577-11.469-14.409h2c0 5.703 4.518 10.448 10.162 12.533zm61.292 136.788c-2.353 5.907-7.596 11.011-14.257 11.011v-2c5.561 0 10.229-4.305 12.399-9.751zm87.382 11.011c-6.661 0-11.904-5.104-14.257-11.011l1.858-.74c2.17 5.446 6.839 9.751 12.399 9.751zm61.899-13c0 7.179-5.82 13-13 13v-2c6.075 0 11-4.925 11-11zm0-145.755c0 1.505-1.246 2.662-2.697 2.662v-2c.401 0 .697-.315.697-.662zm-2.697 81.344c1.451 0 2.697 1.158 2.697 2.662h-2c0-.346-.296-.662-.697-.662zm-219.345 17.85c0-6.832 5.355-12.15 11.469-14.409l.693 1.876c-5.644 2.086-10.162 6.831-10.162 12.533zm13-159.014c-6.075 0-11 4.925-11 11h-2c0-7.18 5.82-13 13-13zm0 218.575c-7.18 0-13-5.821-13-13h2c0 6.075 4.925 11 11 11zm196.041-220.575c7.18 0 13 5.82 13 13h-2c0-6.075-4.925-11-11-11z" fill="#50d9d7" mask="url(#b)"/></g><defs><filter id="a" x="0" y="-4" width="300.041" height="302.575" filterUnits="userSpaceOnUse" color-interpolation-filters="sRGB"><feFlood flood-opacity="0" result="BackgroundImageFix"/><feGaussianBlur in="BackgroundImageFix" stdDeviation="20"/><feComposite in2="SourceAlpha" operator="in" result="effect1_backgroundBlur_3303_78843"/><feColorMatrix in="SourceAlpha" values="0 0 0 0 0 0 0 0 0 0 0 0 0 0 0 0 0 0 127 0" result="hardAlpha"/><feOffset dy="4"/><feGaussianBlur stdDeviation="20"/><feComposite in2="hardAlpha" operator="out"/><feColorMatrix values="0 0 0 0 0.313726 0 0 0 0 0.85098 0 0 0 0 0.843137 0 0 0 0.25 0"/><feBlend in2="effect1_backgroundBlur_3303_78843" result="effect2_dropShadow_3303_78843"/><feBlend in="SourceGraphic" in2="effect2_dropShadow_3303_78843" result="shape"/></filter></defs></svg>