<svg width="344" height="344" viewBox="0 0 344 344" xmlns="http://www.w3.org/2000/svg" fill="none"><g filter="url(#a)" transform="matrix(1.304 0 0 1.298 -49.938 -45.036)"><mask id="b"><path fill-rule="evenodd" clip-rule="evenodd" d="M40 48c0-6.627 5.373-12 12-12h196.042c6.627 0 12 5.373 12 12v54.302c0 1.421 1.201 2.54 2.622 2.54 22.279 0 40.341 18.061 40.341 40.341s-18.062 40.341-40.341 40.341c-1.421 0-2.622 1.119-2.622 2.54v54.511c0 6.627-5.373 12-12 12h-51.795c-2.677 0-4.73 2.35-4.73 5.028 0 22.279-18.061 40.341-40.341 40.341s-40.341-18.062-40.341-40.341c0-2.678-2.053-5.028-4.731-5.028h-54.104c-6.627 0-12-5.373-12-12z"/></mask><path fill-rule="evenodd" clip-rule="evenodd" d="M40 48c0-6.627 5.373-12 12-12h196.042c6.627 0 12 5.373 12 12v54.302c0 1.421 1.201 2.54 2.622 2.54 22.279 0 40.341 18.061 40.341 40.341s-18.062 40.341-40.341 40.341c-1.421 0-2.622 1.119-2.622 2.54v54.511c0 6.627-5.373 12-12 12h-51.795c-2.677 0-4.73 2.35-4.73 5.028 0 22.279-18.061 40.341-40.341 40.341s-40.341-18.062-40.341-40.341c0-2.678-2.053-5.028-4.731-5.028h-54.104c-6.627 0-12-5.373-12-12z" fill="#1d5352"/><path d="M248.042 35h-196.042v2h196.042zm13 67.302v-54.302h-2v54.302zm42.963 42.881c0-22.832-18.509-41.341-41.341-41.341v2c21.727 0 39.341 17.614 39.341 39.341zm-41.341 41.341c22.832 0 41.341-18.509 41.341-41.341h-2c0 21.727-17.614 39.341-39.341 39.341zm-1.622 56.051v-54.511h-2v54.511zm-64.795 13h51.795v-2h-51.795zm-5.73 4.028c0 21.727-17.614 39.341-39.341 39.341v2c22.832 0 41.341-18.509 41.341-41.341zm-39.341 39.341c-21.727 0-39.341-17.614-39.341-39.341h-2c0 22.832 18.509 41.341 41.341 41.341zm-99.176-43.369h54.104v-2h-54.104zm-13-207.575v194.575h2v-194.575zm157.247 205.575c-3.307 0-5.73 2.879-5.73 6.028h2c0-2.206 1.683-4.028 3.73-4.028zm62.795-11c0 6.075-4.925 11-11 11v2c7.179 0 13-5.821 13-13zm-207.042 11c-6.075 0-11-4.925-11-11h-2c0 7.179 5.82 13 13 13zm207.042-151.273c0 2.014 1.69 3.54 3.622 3.54v-2c-.911 0-1.622-.712-1.622-1.54zm3.622 82.222c-1.932 0-3.622 1.526-3.622 3.54h2c0-.828.711-1.54 1.622-1.54zm-150.829 75.079c0-3.149-2.424-6.028-5.731-6.028v2c2.048 0 3.731 1.822 3.731 4.028zm-59.835-224.603c-7.18 0-13 5.82-13 13h2c0-6.075 4.925-11 11-11zm196.042 2c6.075 0 11 4.925 11 11h2c0-7.18-5.821-13-13-13z" fill="#50d9d7" mask="url(#b)"/></g><defs><filter id="a" x="0" y="-4" width="343.004" height="347.944" filterUnits="userSpaceOnUse" color-interpolation-filters="sRGB"><feFlood flood-opacity="0" result="BackgroundImageFix"/><feGaussianBlur in="BackgroundImageFix" stdDeviation="20"/><feComposite in2="SourceAlpha" operator="in" result="effect1_backgroundBlur_3303_78769"/><feColorMatrix in="SourceAlpha" values="0 0 0 0 0 0 0 0 0 0 0 0 0 0 0 0 0 0 127 0" result="hardAlpha"/><feOffset dy="4"/><feGaussianBlur stdDeviation="20"/><feComposite in2="hardAlpha" operator="out"/><feColorMatrix values="0 0 0 0 0.313726 0 0 0 0 0.85098 0 0 0 0 0.843137 0 0 0 0.25 0"/><feBlend in2="effect1_backgroundBlur_3303_78769" result="effect2_dropShadow_3303_78769"/><feBlend in="SourceGraphic" in2="effect2_dropShadow_3303_78769" result="shape"/></filter></defs></svg>