<svg width="313" height="273" viewBox="0 0 313 273" xmlns="http://www.w3.org/2000/svg" fill="none"><g filter="url(#a)" transform="matrix(1.024 0 0 1.029 -3.146 .029)"><mask id="b"><path fill-rule="evenodd" clip-rule="evenodd" d="M266.042 12c0-6.627-5.373-12-12-12h-196.042c-6.627 0-12 5.373-12 12v50.336c0 .638-.527 1.149-1.165 1.149-22.28 0-40.341 18.061-40.341 40.341s18.061 40.341 40.341 40.341c.638 0 1.165.511 1.165 1.149v61.26c0 6.627 5.373 12 12 12h52.804c2.937 0 5.178 2.6 5.178 5.537 0 22.28 18.061 40.341 40.341 40.341 22.279 0 40.341-18.061 40.341-40.341 0-2.937 2.24-5.537 5.178-5.537h52.2c6.627 0 12-5.373 12-12v-54.81c0-.965.804-1.731 1.769-1.731 22.279 0 40.341-18.062 40.341-40.341 0-22.28-18.062-40.341-40.341-40.341-.965 0-1.769-.767-1.769-1.731z"/></mask><path fill-rule="evenodd" clip-rule="evenodd" d="M266.042 12c0-6.627-5.373-12-12-12h-196.042c-6.627 0-12 5.373-12 12v50.336c0 .638-.527 1.149-1.165 1.149-22.28 0-40.341 18.061-40.341 40.341s18.061 40.341 40.341 40.341c.638 0 1.165.511 1.165 1.149v61.26c0 6.627 5.373 12 12 12h52.804c2.937 0 5.178 2.6 5.178 5.537 0 22.28 18.061 40.341 40.341 40.341 22.279 0 40.341-18.061 40.341-40.341 0-2.937 2.24-5.537 5.178-5.537h52.2c6.627 0 12-5.373 12-12v-54.81c0-.965.804-1.731 1.769-1.731 22.279 0 40.341-18.062 40.341-40.341 0-22.28-18.062-40.341-40.341-40.341-.965 0-1.769-.767-1.769-1.731z" fill="#1d5352"/><path d="M58 1h196.042v-2h-196.042zm-11 61.336v-50.336h-2v50.336zm-41.506 41.489c0-21.727 17.614-39.341 39.341-39.341v-2c-22.832 0-41.341 18.509-41.341 41.341zm39.341 39.341c-21.727 0-39.341-17.613-39.341-39.341h-2c0 22.832 18.509 41.341 41.341 41.341zm2.165 63.409v-61.26h-2v61.26zm63.804 11h-52.804v2h52.804zm45.519 45.878c-21.728 0-39.341-17.613-39.341-39.341h-2c0 22.832 18.509 41.341 41.341 41.341zm39.341-39.341c0 21.728-17.614 39.341-39.341 39.341v2c22.832 0 41.341-18.509 41.341-41.341zm58.378-6.537h-52.2v2h52.2zm11-65.81v54.81h2v-54.81zm42.11-42.072c0 21.727-17.614 39.341-39.341 39.341v2c22.832 0 41.341-18.509 41.341-41.341zm-39.341-39.341c21.727 0 39.341 17.613 39.341 39.341h2c0-22.832-18.509-41.341-41.341-41.341zm-2.769-58.352v55.62h2v-55.62zm2 139.765c0-.385.328-.731.769-.731v-2c-1.489 0-2.769 1.186-2.769 2.731zm-156.238 67.81c2.3 0 4.178 2.063 4.178 4.537h2c0-3.4-2.603-6.537-6.178-6.537zm157.007-151.223c-.441 0-.769-.347-.769-.731h-2c0 1.545 1.28 2.731 2.769 2.731zm-222.811 138.223c0 7.179 5.82 13 13 13v-2c-6.075 0-11-4.925-11-11zm209.042 13c7.179 0 13-5.821 13-13h-2c0 6.075-4.925 11-11 11zm-209.042-157.239c0 .068-.061.149-.165.149v2c1.172 0 2.165-.94 2.165-2.149zm-.165 82.83c.104 0 .165.081.165.149h2c0-1.209-.993-2.149-2.165-2.149zm152.829 78.946c0-2.474 1.878-4.537 4.178-4.537v-2c-3.575 0-6.178 3.137-6.178 6.537zm56.378-223.112c6.075 0 11 4.925 11 11h2c0-7.18-5.821-13-13-13zm-196.042-2c-7.18 0-13 5.82-13 13h2c0-6.075 4.925-11 11-11z" fill="#50d9d7" mask="url(#b)"/></g><defs><filter x="-35.506" y="-40" width="383.658" height="344.453" filterUnits="userSpaceOnUse" color-interpolation-filters="sRGB"><feFlood flood-opacity="0" result="BackgroundImageFix"/><feGaussianBlur in="BackgroundImageFix" stdDeviation="20"/><feComposite in2="SourceAlpha" operator="in" result="effect1_backgroundBlur_3303_78786"/><feColorMatrix in="SourceAlpha" values="0 0 0 0 0 0 0 0 0 0 0 0 0 0 0 0 0 0 127 0" result="hardAlpha"/><feOffset dy="4"/><feGaussianBlur stdDeviation="2"/><feComposite in2="hardAlpha" operator="out"/><feColorMatrix values="0 0 0 0 0 0 0 0 0 0 0 0 0 0 0 0 0 0 0.25 0"/><feBlend in2="effect1_backgroundBlur_3303_78786" result="effect2_dropShadow_3303_78786"/><feBlend in="SourceGraphic" in2="effect2_dropShadow_3303_78786" result="shape"/></filter><filter id="a" x="-35.506" y="-40" width="383.658" height="344.453" filterUnits="userSpaceOnUse" color-interpolation-filters="sRGB"><feFlood flood-opacity="0" result="BackgroundImageFix"/><feGaussianBlur in="BackgroundImageFix" stdDeviation="20"/><feComposite in2="SourceAlpha" operator="in" result="effect1_backgroundBlur_3303_78786"/><feBlend in="SourceGraphic" in2="effect1_backgroundBlur_3303_78786" result="shape"/></filter></defs></svg>