<svg width="229" height="227" viewBox="0 0 229 227" xmlns="http://www.w3.org/2000/svg" fill="none"><g filter="url(#a)" transform="matrix(1.019 0 0 1.029 -.056 .024)"><mask id="b"><path fill-rule="evenodd" clip-rule="evenodd" d="M115.439 43.358c-22.28 0-40.341-18.061-40.341-40.341 0-1.535-1.206-2.837-2.741-2.837h-56.356c-6.627 0-12 5.373-12 12v194.574c0 6.628 5.373 12 12 12h196.042c6.627 0 12-5.372 12-12v-62.087c0-.403-.331-.727-.734-.727-22.279 0-40.341-18.062-40.341-40.341 0-22.28 18.062-40.341 40.341-40.341.403 0 .734-.324.734-.727v-50.351c0-6.627-5.373-12-12-12h-53.522c-1.535 0-2.741 1.302-2.741 2.837 0 22.28-18.061 40.341-40.341 40.341z"/></mask><path fill-rule="evenodd" clip-rule="evenodd" d="M115.439 43.358c-22.28 0-40.341-18.061-40.341-40.341 0-1.535-1.206-2.837-2.741-2.837h-56.356c-6.627 0-12 5.373-12 12v194.574c0 6.628 5.373 12 12 12h196.042c6.627 0 12-5.372 12-12v-62.087c0-.403-.331-.727-.734-.727-22.279 0-40.341-18.062-40.341-40.341 0-22.28 18.062-40.341 40.341-40.341.403 0 .734-.324.734-.727v-50.351c0-6.627-5.373-12-12-12h-53.522c-1.535 0-2.741 1.302-2.741 2.837 0 22.28-18.061 40.341-40.341 40.341z" fill="#1d5352"/><path d="M76.098 3.017c0 21.727 17.614 39.341 39.341 39.341v2c-22.832 0-41.341-18.509-41.341-41.341zm-60.097-3.837h56.356v2h-56.356zm-13 207.574v-194.574h2v194.574zm209.042 13h-196.042v-2h196.042zm13-75.087v62.087h-2v-62.087zm-41.075-41.068c0 21.727 17.614 39.341 39.341 39.341v2c-22.832 0-41.341-18.509-41.341-41.341zm39.341-39.341c-21.727 0-39.341 17.614-39.341 39.341h-2c0-22.832 18.509-41.341 41.341-41.341zm1.734-52.078v50.351h-2v-50.351zm-66.522-13h53.522v2h-53.522zm-43.082 43.178c21.727 0 39.341-17.614 39.341-39.341h2c0 22.832-18.509 41.341-41.341 41.341zm43.082-41.178c-.939 0-1.741.809-1.741 1.837h-2c0-2.042 1.609-3.837 3.741-3.837zm64.522 11c0-6.075-4.925-11-11-11v-2c7.18 0 13 5.82 13 13zm.266 50.078c-.137 0-.266.112-.266.273h2c0 .967-.79 1.727-1.734 1.727zm-.266 82.409c0 .161.129.273.266.273v-2c.944 0 1.734.76 1.734 1.727zm-11 73.087c6.075 0 11-4.925 11-11h2c0 7.18-5.82 13-13 13zm-207.042-11c0 6.075 4.925 11 11 11v2c-7.18 0-13-5.82-13-13zm11-205.574c-6.075 0-11 4.925-11 11h-2c0-7.18 5.82-13 13-13zm58.097 1.837c0-1.028-.802-1.837-1.741-1.837v-2c2.132 0 3.741 1.795 3.741 3.837z" fill="#50d9d7" mask="url(#b)"/></g><defs><filter id="a" x="-35.998" y="-39.82" width="300.041" height="298.575" filterUnits="userSpaceOnUse" color-interpolation-filters="sRGB"><feFlood flood-opacity="0" result="BackgroundImageFix"/><feGaussianBlur in="BackgroundImageFix" stdDeviation="20"/><feComposite in2="SourceAlpha" operator="in" result="effect1_backgroundBlur_3303_78839"/><feColorMatrix in="SourceAlpha" values="0 0 0 0 0 0 0 0 0 0 0 0 0 0 0 0 0 0 127 0" result="hardAlpha"/><feOffset dy="4"/><feGaussianBlur stdDeviation="2"/><feComposite in2="hardAlpha" operator="out"/><feColorMatrix values="0 0 0 0 0 0 0 0 0 0 0 0 0 0 0 0 0 0 0.25 0"/><feBlend in2="effect1_backgroundBlur_3303_78839" result="effect2_dropShadow_3303_78839"/><feBlend in="SourceGraphic" in2="effect2_dropShadow_3303_78839" result="shape"/></filter></defs></svg>