<svg width="229" height="228" viewBox="0 0 229 228" xmlns="http://www.w3.org/2000/svg" fill="none"><g filter="url(#a)" transform="matrix(1.028 0 0 1.036 -2.067 .012)"><mask id="b"><path fill-rule="evenodd" clip-rule="evenodd" d="M114.719 46.258c-22.279 0-40.341-18.061-40.341-40.341 0-2.794-2.138-5.257-4.932-5.257h-53.236c-6.627 0-12 5.373-12 12v194.575c0 6.627 5.373 12 12 12h46.697c6.043 0 10.966-4.606 13.263-10.195 6.034-14.679 20.474-25.015 37.328-25.015 16.854 0 31.294 10.336 37.327 25.015 2.298 5.589 7.22 10.195 13.263 10.195h48.164c6.627 0 12-5.373 12-12v-62.088c0-.403-.331-.727-.734-.727-22.279 0-40.341-18.061-40.341-40.341 0-22.279 18.062-40.341 40.341-40.341.403 0 .734-.324.734-.727v-50.351c0-6.627-5.373-12-12-12h-52.26c-2.794 0-4.932 2.463-4.932 5.257 0 22.28-18.061 40.341-40.341 40.341z"/></mask><path fill-rule="evenodd" clip-rule="evenodd" d="M114.719 46.258c-22.279 0-40.341-18.061-40.341-40.341 0-2.794-2.138-5.257-4.932-5.257h-53.236c-6.627 0-12 5.373-12 12v194.575c0 6.627 5.373 12 12 12h46.697c6.043 0 10.966-4.606 13.263-10.195 6.034-14.679 20.474-25.015 37.328-25.015 16.854 0 31.294 10.336 37.327 25.015 2.298 5.589 7.22 10.195 13.263 10.195h48.164c6.627 0 12-5.373 12-12v-62.088c0-.403-.331-.727-.734-.727-22.279 0-40.341-18.061-40.341-40.341 0-22.279 18.062-40.341 40.341-40.341.403 0 .734-.324.734-.727v-50.351c0-6.627-5.373-12-12-12h-52.26c-2.794 0-4.932 2.463-4.932 5.257 0 22.28-18.061 40.341-40.341 40.341z" fill="#1d5352"/><path d="M76.17 209.04l-.925-.38zm-.792-203.123c0 21.727 17.614 39.341 39.341 39.341v2c-22.832 0-41.341-18.509-41.341-41.341zm-59.168-6.257h53.236v2h-53.236zm-13 207.575v-194.575h2v194.575zm59.697 13h-46.697v-2h46.697zm50.591-35.21c-16.435 0-30.518 10.078-36.403 24.395l-1.85-.76c6.182-15.041 20.979-25.635 38.253-25.635zm36.402 24.395c-5.884-14.317-19.968-24.395-36.402-24.395v-2c17.273 0 32.07 10.594 38.252 25.635zm62.352 10.815h-48.164v-2h48.164zm13-75.088v62.088h-2v-62.088zm-41.075-41.068c0 21.728 17.614 39.341 39.341 39.341v2c-22.832 0-41.341-18.509-41.341-41.341zm39.341-39.341c-21.727 0-39.341 17.613-39.341 39.341h-2c0-22.832 18.509-41.341 41.341-41.341zm1.734-52.078v50.351h-2v-50.351zm-65.26-13h52.26v2h-52.26zm-45.273 45.598c21.728 0 39.341-17.613 39.341-39.341h2c0 22.832-18.509 41.341-41.341 41.341zm108.533 99.889c0 .161.129.273.266.273v-2c.944 0 1.734.76 1.734 1.727zm-11 73.088c6.075 0 11-4.925 11-11h2c0 7.179-5.82 13-13 13zm-149.345 0c5.499 0 10.134-4.214 12.338-9.575l1.85.76c-2.391 5.817-7.601 10.815-14.188 10.815zm97.085-216.575c-2.161 0-3.932 1.93-3.932 4.257h-2c0-3.262 2.505-6.257 5.932-6.257zm-154.782 205.575c0 6.075 4.925 11 11 11v2c-7.18 0-13-5.821-13-13zm218.042-194.575c0-6.075-4.925-11-11-11v-2c7.18 0 13 5.82 13 13zm-207.042-11c-6.075 0-11 4.925-11 11h-2c0-7.18 5.82-13 13-13zm135.54 207c2.204 5.361 6.839 9.575 12.338 9.575v2c-6.587 0-11.797-4.998-14.188-10.815zm71.768-145.922c-.137 0-.266.112-.266.273h2c0 .967-.79 1.727-1.734 1.727zm-150.14-56.821c0-2.327-1.771-4.257-3.932-4.257v-2c3.427 0 5.932 2.995 5.932 6.257z" fill="#50d9d7" mask="url(#b)"/></g><defs><filter id="a" x="-35.789" y="-39.34" width="300.041" height="298.575" filterUnits="userSpaceOnUse" color-interpolation-filters="sRGB"><feFlood flood-opacity="0" result="BackgroundImageFix"/><feGaussianBlur in="BackgroundImageFix" stdDeviation="20"/><feComposite in2="SourceAlpha" operator="in" result="effect1_backgroundBlur_3303_78764"/><feColorMatrix in="SourceAlpha" values="0 0 0 0 0 0 0 0 0 0 0 0 0 0 0 0 0 0 127 0" result="hardAlpha"/><feOffset dy="4"/><feGaussianBlur stdDeviation="2"/><feComposite in2="hardAlpha" operator="out"/><feColorMatrix values="0 0 0 0 0 0 0 0 0 0 0 0 0 0 0 0 0 0 0.25 0"/><feBlend in2="effect1_backgroundBlur_3303_78764" result="effect2_dropShadow_3303_78764"/><feBlend in="SourceGraphic" in2="effect2_dropShadow_3303_78764" result="shape"/></filter></defs></svg>